<svg xmlns="http://www.w3.org/2000/svg" width="84" height="84" viewBox="0 0 84 84" fill="none"><g clip-path="url(#clip0_1_3624)"><path d="M57.8734 20.7949C57.8734 12.0286 50.7668 4.92237 42.0002 4.92237C33.2335 4.92237 26.127 12.0286 26.127 20.7949C26.127 29.5611 33.2335 36.6675 42.0002 36.6675C50.7668 36.6675 57.8734 29.5611 57.8734 20.7949Z" fill="#F4832B"></path><path d="M44.4129 24.3525H39.5852C35.0853 24.3525 31.4375 28.0001 31.4375 32.4996L31.4736 32.6717C34.2751 35.1563 37.9598 36.6675 41.999 36.6675C46.0382 36.6675 49.7229 35.1563 52.5245 32.6717L52.5605 32.4996C52.5605 28.0001 48.9128 24.3525 44.4129 24.3525Z" fill="white"></path><path d="M41.9983 24.3525H41.998C39.226 24.3525 36.9785 22.1052 36.9785 19.333V17.5326C36.9785 14.7603 39.226 12.513 41.998 12.513H41.9983C44.7703 12.513 47.0178 14.7603 47.0178 17.5326V19.333C47.0178 22.1052 44.7703 24.3525 41.9983 24.3525Z" fill="white"></path><path d="M33.387 63.2046C33.387 54.4384 26.2805 47.332 17.5138 47.332C8.74732 47.332 1.64062 54.4384 1.64062 63.2046C1.64062 71.9709 8.74732 79.0771 17.5138 79.0771C26.2805 79.0771 33.387 71.9709 33.387 63.2046Z" fill="#F4832B"></path><path d="M50.6152 63.2046C50.6152 54.4384 57.7218 47.332 66.4884 47.332C75.255 47.332 82.3617 54.4384 82.3617 63.2046C82.3617 71.9709 75.255 79.0771 66.4884 79.0771C57.7218 79.0771 50.6152 71.9709 50.6152 63.2046Z" fill="#F4832B"></path><path d="M74.6213 57.6065C71.7691 57.6065 69.0317 57.1167 66.4864 56.2195C63.9412 57.1167 61.204 57.6065 58.3516 57.6065V64.1481C58.3516 67.4509 60.3899 70.4111 63.4752 71.5892L66.4864 72.7388L69.4975 71.5892C72.583 70.4111 74.6213 67.4509 74.6213 64.1481V57.6065Z" fill="white"></path><path d="M70.2403 47.6655C69.7837 38.3192 64.7887 30.165 57.4121 25.3602" stroke="#231F20" stroke-width="3.28125" stroke-miterlimit="10" stroke-linecap="round" stroke-linejoin="round"></path><path d="M29.0801 74.2248C32.952 76.217 37.3434 77.3413 41.9974 77.3413C46.6502 77.3413 51.0405 76.2175 54.9116 74.2266" stroke="#231F20" stroke-width="3.28125" stroke-miterlimit="10" stroke-linecap="round" stroke-linejoin="round"></path><path d="M26.6498 25.3213C19.2444 30.1179 14.2249 38.2844 13.7617 47.6494" stroke="#231F20" stroke-width="3.28125" stroke-miterlimit="10" stroke-linecap="round" stroke-linejoin="round"></path><path d="M34.8191 6.63551C29.6612 9.25658 26.127 14.6129 26.127 20.7949C26.127 29.5609 33.2335 36.6675 42.0002 36.6675C50.7667 36.6675 57.8734 29.5609 57.8734 20.7949C57.8734 14.6129 54.3391 9.25658 49.181 6.63551" stroke="#231F20" stroke-width="3.28125" stroke-miterlimit="10" stroke-linecap="round" stroke-linejoin="round"></path><path d="M52.5605 32.4995C52.5605 27.9999 48.9128 24.3523 44.4129 24.3523H39.5852C35.0853 24.3523 31.4375 27.9999 31.4375 32.4995" stroke="#231F20" stroke-width="3.28125" stroke-miterlimit="10" stroke-linecap="round" stroke-linejoin="round"></path><path d="M41.9983 24.3525H41.998C39.226 24.3525 36.9785 22.1052 36.9785 19.333V17.5326C36.9785 14.7603 39.226 12.513 41.998 12.513H41.9983C44.7703 12.513 47.0178 14.7603 47.0178 17.5326V19.333C47.0178 22.1052 44.7703 24.3525 41.9983 24.3525Z" stroke="#231F20" stroke-width="3.28125" stroke-miterlimit="10" stroke-linecap="round" stroke-linejoin="round"></path><path d="M33.387 63.2046C33.387 54.4384 26.2805 47.332 17.5138 47.332C8.74732 47.332 1.64062 54.4384 1.64062 63.2046C1.64062 71.9709 8.74732 79.0771 17.5138 79.0771C26.2805 79.0771 33.387 71.9709 33.387 63.2046Z" stroke="#231F20" stroke-width="3.28125" stroke-miterlimit="10" stroke-linecap="round" stroke-linejoin="round"></path><path d="M50.6152 63.2046C50.6152 54.4384 57.7218 47.332 66.4884 47.332C75.255 47.332 82.3617 54.4384 82.3617 63.2046C82.3617 71.9709 75.255 79.0771 66.4884 79.0771C57.7218 79.0771 50.6152 71.9709 50.6152 63.2046Z" stroke="#231F20" stroke-width="3.28125" stroke-miterlimit="10" stroke-linecap="round" stroke-linejoin="round"></path><path d="M21.0351 59.6775C21.0351 57.8017 19.3597 56.2814 17.2929 56.2814C15.2262 56.2814 13.5508 57.8017 13.5508 59.6775C13.5508 61.5534 15.2262 63.0737 17.2929 63.0737" stroke="#231F20" stroke-width="3.28125" stroke-miterlimit="10" stroke-linecap="round" stroke-linejoin="round"></path><path d="M17.293 63.0737C19.3599 63.0737 21.0353 64.5944 21.0353 66.47C21.0353 68.3457 19.3599 69.8662 17.293 69.8662C15.2262 69.8662 13.5508 68.3457 13.5508 66.47" stroke="#231F20" stroke-width="3.28125" stroke-miterlimit="10" stroke-linecap="round" stroke-linejoin="round"></path><path d="M17.291 55.9805V54.8688" stroke="#231F20" stroke-width="3.28125" stroke-miterlimit="10" stroke-linecap="round" stroke-linejoin="round"></path><path d="M17.291 71.1001V69.9884" stroke="#231F20" stroke-width="3.28125" stroke-miterlimit="10" stroke-linecap="round" stroke-linejoin="round"></path><path d="M74.6213 57.6065C71.7691 57.6065 69.0317 57.1167 66.4864 56.2195C63.9412 57.1167 61.204 57.6065 58.3516 57.6065V64.1481C58.3516 67.4509 60.3899 70.4111 63.4752 71.5892L66.4864 72.7388L69.4975 71.5892C72.583 70.4111 74.6213 67.4509 74.6213 64.1481V57.6065Z" stroke="#231F20" stroke-width="3.28125" stroke-miterlimit="10" stroke-linecap="round" stroke-linejoin="round"></path><path d="M65.123 64.1851L66.2675 65.3296L68.8159 62.7809" stroke="#231F20" stroke-width="3.28125" stroke-miterlimit="10" stroke-linecap="round" stroke-linejoin="round"></path></g><defs><clipPath id="clip0_1_3624"><rect width="84" height="84" fill="white"></rect></clipPath></defs></svg>