<svg xmlns="http://www.w3.org/2000/svg" width="85" height="84" viewBox="0 0 85 84" fill="none"><g clip-path="url(#clip0_1_3794)"><path d="M1.97266 36.9648H70.6691V47.0528H1.97266V36.9648Z" fill="#F4832B"></path><path d="M82.8392 15.8858C81.7508 14.5992 80.2267 13.8133 78.5472 13.6731L19.3936 8.73382C17.7139 8.59354 16.0808 9.11575 14.7941 10.204C13.5126 11.2879 12.7279 12.8044 12.5832 14.4757L11.3931 25.641H6.64103C3.16226 25.641 0.332031 28.4713 0.332031 31.95V68.9791C0.332031 72.4579 3.16226 75.2881 6.64103 75.2881H66.0007C69.4797 75.2881 72.3099 72.4579 72.3099 68.9791V62.9723L74.4163 63.1482C74.594 63.163 74.7707 63.1704 74.9459 63.1704C78.1891 63.1704 80.9538 60.6751 81.2285 57.386L84.3097 20.4854C84.4498 18.8059 83.9276 17.1725 82.8392 15.8858ZM69.0287 68.9791C69.0287 70.6486 67.6704 72.0069 66.0007 72.0069H6.64103C4.97154 72.0069 3.61327 70.6486 3.61327 68.9791V31.95C3.61327 30.2806 4.97154 28.9223 6.64103 28.9223H66.0007C67.6702 28.9223 69.0287 30.2806 69.0287 31.95V68.9791ZM81.0398 20.2122L77.9586 57.1129C77.8196 58.7766 76.3527 60.0177 74.6893 59.8783L72.3099 59.6796V31.95C72.3099 28.4713 69.4797 25.641 66.0007 25.641H14.693L15.8479 14.8064C15.8492 14.7939 15.8503 14.7816 15.8513 14.769C15.9903 13.1052 17.4563 11.8643 19.1206 12.0037L78.2744 16.943C79.0804 17.0102 79.812 17.3874 80.3342 18.005C80.8564 18.6225 81.1071 19.4062 81.0398 20.2122Z" fill="black" stroke="black"></path><path d="M62.1627 53.5713H46.373C45.4669 53.5713 44.7324 54.3058 44.7324 55.2119V65.5132C44.7324 66.4194 45.4669 67.1539 46.373 67.1539H62.1627C63.0689 67.1539 63.8034 66.4194 63.8034 65.5132V55.2119C63.8034 54.3058 63.0689 53.5713 62.1627 53.5713ZM60.5221 63.8726H48.0137V56.8525H60.5221V63.8726Z" fill="black" stroke="black"></path></g><defs><clipPath id="clip0_1_3794"><rect width="84" height="84" fill="white" transform="translate(0.332031)"></rect></clipPath></defs></svg>