<svg xmlns="http://www.w3.org/2000/svg" width="90" height="90" viewBox="0 0 90 90" fill="none"><circle cx="45" cy="45" r="45" fill="#F4832B" fill-opacity="0.23"></circle><g clip-path="url(#clip0_1_3496)"><path d="M25.3926 58.6739C25.6757 58.3907 26.0597 58.2318 26.4601 58.2318H28.6871C29.0874 58.2318 29.4714 58.3907 29.7545 58.6739L31.3293 60.2487C31.6123 60.5317 31.7714 60.9158 31.7714 61.3161V63.5432C31.7714 63.9436 31.6123 64.3275 31.3293 64.6105L29.7545 66.1853C29.4714 66.4684 29.0874 66.6274 28.6871 66.6274H26.4601C26.0597 66.6274 25.6757 66.4684 25.3926 66.1854L23.8179 64.6105C23.5348 64.3275 23.3757 63.9436 23.3757 63.5431V61.3161C23.3757 60.9158 23.5348 60.5317 23.8179 60.2487L25.3926 58.6739ZM26.163 53.8852C24.4375 54.1702 22.7704 54.9726 21.4435 56.2995C18.0286 59.7144 18.0581 65.2694 21.5322 68.6472C24.8243 71.8481 30.1247 71.906 33.4821 68.7738C34.9341 67.4192 35.809 65.6705 36.1139 63.8592C36.3731 62.3189 36.1872 59.3292 38.4298 57.0864L41.5182 53.9981L54.0713 41.4451L58.004 37.5122C59.2896 36.2268 61.1492 35.7462 62.9191 36.1617C65.1165 36.6775 67.3977 35.7156 68.5614 33.7784L70.5882 30.4047C71.2018 29.3831 71.2561 28.1204 70.7324 27.0499V27.0498C70.1092 26.4267 69.0896 26.4267 68.4664 27.0498L65.0161 30.5002C64.7273 30.7889 64.3398 30.9578 63.9316 30.9724L62.9348 31.0084C62.4861 31.0246 62.0511 30.8535 61.7336 30.5361L59.5662 28.3686C59.2716 28.0741 59.1022 27.6772 59.0932 27.2608L59.0686 26.1263C59.0591 25.6857 59.2299 25.2601 59.5416 24.9485L62.9532 21.5369C63.5764 20.9137 63.5764 19.894 62.9532 19.2707C61.8828 18.7471 60.6199 18.8013 59.5985 19.4151L56.2247 21.4418C54.2719 22.6149 53.3251 24.9197 53.8538 27.1358C54.2727 28.8915 53.7506 30.7397 52.4735 32.0166L48.5582 35.9319L36.0051 48.485L32.9167 51.5733C30.6723 53.8178 27.688 53.6332 26.163 53.8852Z" fill="white"></path><path d="M70.7328 27.0502C70.1096 26.427 69.0899 26.427 68.4668 27.0502L65.0165 30.5004C64.7277 30.7892 64.3402 30.9579 63.932 30.9727L62.9351 31.0086C62.4865 31.0249 62.0514 30.8537 61.734 30.5364L61.2472 30.0494C60.1163 30.7222 58.7436 30.9592 57.4017 30.6442C55.6606 30.2354 53.8338 30.6956 52.5509 31.9346C52.525 31.9617 52.5005 31.9902 52.4738 32.0168L48.5585 35.9322L36.0055 48.4851L32.9171 51.5736C32.8813 51.6092 32.845 51.6427 32.8089 51.6772C30.6773 53.9071 30.8516 56.8258 30.5965 58.3415C30.5424 58.6632 30.4694 58.9827 30.3792 59.2985L31.3297 60.2488C31.6128 60.532 31.7718 60.916 31.7718 61.3164V63.5433C31.7718 63.9438 31.6128 64.3277 31.3297 64.6108L29.7549 66.1857C29.4719 66.4686 29.0878 66.6277 28.6875 66.6277H26.4604C26.0602 66.6277 25.6761 66.4686 25.3931 66.1857L24.4444 65.2369C22.7748 65.7091 20.9891 65.6733 19.3379 65.1339C19.76 66.4232 20.49 67.6337 21.5326 68.6474C24.8247 71.8484 30.1251 71.9063 33.4825 68.7741C34.9345 67.4194 35.8094 65.6708 36.1143 63.8593C36.3735 62.3191 36.1875 59.3294 38.4303 57.0867L41.5186 53.9983L54.0717 41.4452L58.0044 37.5125C59.2899 36.227 61.1496 35.7464 62.9194 36.162C65.1168 36.6777 67.3981 35.7158 68.5618 33.7787L70.5885 30.405C71.2022 29.3834 71.2565 28.1205 70.7328 27.0502Z" fill="white"></path><path d="M35.8066 54.2L55.2127 34.7939" stroke="#231F20" stroke-width="1.58203" stroke-miterlimit="10" stroke-linecap="round" stroke-linejoin="round"></path><path d="M70.3981 67.0047L67.5102 69.8925C66.4001 71.0027 64.5894 70.9673 63.5235 69.8145L30.123 33.6883L34.1938 29.6175L70.3199 63.018C71.4728 64.0838 71.5082 65.8945 70.3981 67.0047Z" fill="white"></path><path d="M51.6024 56.9214L49.3418 54.4763L54.9811 48.8371L57.4261 51.0976L51.6024 56.9214Z" fill="white"></path><path d="M51.6055 56.9216L57.4291 51.0978L70.322 63.018C71.4748 64.0838 71.5104 65.8944 70.4001 67.0047L67.5123 69.8924C66.4021 71.0027 64.5914 70.9673 63.5255 69.8144L51.6055 56.9216Z" fill="#F4832B"></path><path d="M30.8504 35.6721L26.3867 40.1357L22.1445 35.8936L26.6082 31.4298L30.8504 35.6721Z" fill="white"></path><path d="M32.1218 23.042L25.1296 30.0344C24.5948 30.569 24.5948 31.436 25.1296 31.9707L30.5288 37.3702C31.0391 37.8802 31.8663 37.8802 32.3764 37.3702L37.9041 31.8423C38.8483 30.8982 39.2093 29.5313 38.8999 28.2325C37.8214 23.7073 42.4951 22.488 44.7298 22.1656C45.1734 22.1017 45.3307 21.5409 44.9828 21.2583C41.1048 18.1088 36.3764 18.7874 32.1218 23.042Z" fill="white"></path><path d="M44.9808 21.2582C41.9208 18.7732 38.3316 18.6733 34.8633 20.8311L37.8744 23.7118C38.3703 24.1863 38.7783 24.7178 39.1004 25.2856C40.1262 23.1237 43.0855 22.4026 44.7278 22.1656C45.1713 22.1015 45.3286 21.5408 44.9808 21.2582Z" fill="white"></path><path d="M20.8784 34.2836L19.1858 35.9762C18.6568 36.5052 18.6568 37.3631 19.1858 37.8922L24.5612 43.2675C25.0903 43.7966 25.9481 43.7966 26.4772 43.2675L28.1698 41.575C28.6988 41.0458 28.6988 40.1881 28.1698 39.659L22.7944 34.2836C22.2653 33.7546 21.4075 33.7546 20.8784 34.2836Z" fill="white"></path><path d="M32.1218 23.042L25.1296 30.0344C24.5948 30.569 24.5948 31.436 25.1296 31.9707L30.5288 37.3702C31.0391 37.8802 31.8663 37.8802 32.3764 37.3702L37.9041 31.8423C38.8483 30.8982 39.2093 29.5313 38.8999 28.2325C37.8214 23.7073 42.4951 22.488 44.7298 22.1656C45.1734 22.1017 45.3307 21.5409 44.9828 21.2583C41.1048 18.1088 36.3764 18.7874 32.1218 23.042Z" stroke="#231F20" stroke-width="1.58203" stroke-miterlimit="10" stroke-linecap="round" stroke-linejoin="round"></path><path d="M20.8784 34.2836L19.1858 35.9762C18.6568 36.5052 18.6568 37.3631 19.1858 37.8922L24.5612 43.2675C25.0903 43.7966 25.9481 43.7966 26.4772 43.2675L28.1698 41.575C28.6988 41.0458 28.6988 40.1881 28.1698 39.659L22.7944 34.2836C22.2653 33.7546 21.4075 33.7546 20.8784 34.2836Z" stroke="#231F20" stroke-width="1.58203" stroke-miterlimit="10" stroke-linecap="round" stroke-linejoin="round"></path><path d="M70.3206 63.018L37.2782 32.4685L32.9746 36.772L63.5242 69.8144C64.59 70.9673 66.4006 71.0027 67.5109 69.8925L70.3987 67.0047C71.5089 65.8944 71.4734 64.0837 70.3206 63.018Z" stroke="#231F20" stroke-width="1.58203" stroke-miterlimit="10" stroke-linecap="round" stroke-linejoin="round"></path><path d="M37.4561 47.0342L36.0051 48.4851L32.9167 51.5736C30.6723 53.8181 27.688 53.6335 26.163 53.8855C24.4375 54.1704 22.7704 54.9728 21.4435 56.2998C18.0286 59.7146 18.0581 65.2697 21.5322 68.6474C24.8243 71.8484 30.1247 71.9063 33.4821 68.7741C34.9341 67.4194 35.809 65.6708 36.1139 63.8593C36.3731 62.3191 36.1872 59.3294 38.4298 57.0867L41.5182 53.9983L42.7456 52.7709M31.3293 64.6108L29.7545 66.1857C29.4714 66.4686 29.0874 66.6277 28.6871 66.6277H26.4601C26.0597 66.6277 25.6757 66.4686 25.3926 66.1857L23.8179 64.6108C23.5348 64.3277 23.3757 63.9438 23.3758 63.5433L23.3757 61.3164C23.3757 60.916 23.5348 60.532 23.8179 60.2489L25.3925 58.6742C25.6757 58.391 26.0597 58.232 26.4601 58.232H28.6871C29.0874 58.232 29.4714 58.391 29.7545 58.6742L31.3293 60.2489C31.6123 60.532 31.7714 60.916 31.7714 61.3164V63.5433C31.7714 63.9438 31.6123 64.3277 31.3293 64.6108Z" stroke="#231F20" stroke-width="1.58203" stroke-miterlimit="10" stroke-linecap="round" stroke-linejoin="round"></path><path d="M53.3068 42.2122L54.0737 41.4453L58.0065 37.5125C59.292 36.227 61.1516 35.7464 62.9215 36.1619C65.1189 36.6777 67.4001 35.7158 68.5638 33.7787L70.5906 30.4049C71.2042 29.3834 71.2586 28.1206 70.7349 27.0502C70.1117 26.427 69.092 26.427 68.4688 27.0502L65.0186 30.5004C64.7298 30.7892 64.3422 30.9579 63.9341 30.9728L62.9372 31.0085C62.4886 31.0249 62.0535 30.8537 61.7361 30.5363L59.5686 28.3689C59.2741 28.0743 59.1047 27.6774 59.0956 27.261L59.071 26.1265C59.0615 25.6859 59.2324 25.2604 59.544 24.9487L62.9557 21.5371C63.579 20.9139 63.579 19.8942 62.9557 19.271C61.8852 18.7474 60.6225 18.8016 59.601 19.4153L56.2273 21.442C54.2743 22.6151 53.3276 24.9199 53.8562 27.136C54.2751 28.8918 53.753 30.7399 52.4759 32.0168L48.5606 35.9321L47.5312 36.9615" stroke="#231F20" stroke-width="1.58203" stroke-miterlimit="10" stroke-linecap="round" stroke-linejoin="round"></path><path d="M27.5137 39.0049L29.8368 36.6816" stroke="#231F20" stroke-width="1.58203" stroke-miterlimit="10" stroke-linecap="round" stroke-linejoin="round"></path><path d="M25.5967 32.4394L23.2734 34.7627" stroke="#231F20" stroke-width="1.58203" stroke-miterlimit="10" stroke-linecap="round" stroke-linejoin="round"></path><path d="M57.4291 51.0976L51.6055 56.9214" stroke="#231F20" stroke-width="1.58203" stroke-miterlimit="10" stroke-linecap="round" stroke-linejoin="round"></path><path d="M49.3438 54.4766L54.9831 48.8373" stroke="#231F20" stroke-width="1.58203" stroke-miterlimit="10" stroke-linecap="round" stroke-linejoin="round"></path></g><defs><clipPath id="clip0_1_3496"><rect width="54" height="54" fill="white" transform="translate(18 18)"></rect></clipPath></defs></svg>