<svg xmlns="http://www.w3.org/2000/svg" width="85" height="84" viewBox="0 0 85 84" fill="none"><g clip-path="url(#clip0_1_3672)"><path fill-rule="evenodd" clip-rule="evenodd" d="M46.4742 24.6336C46.4556 9.93723 35.0802 1.38908 24.0165 1.54724C12.9526 1.38908 1.57256 9.93723 1.55861 24.6336C1.54467 37.6046 10.1901 41.4412 13.0271 50.729C14.878 53.6263 33.8617 53.8773 35.0059 50.729C37.8427 41.4412 46.4881 37.6046 46.4742 24.6336Z" fill="#F4832B"></path><path fill-rule="evenodd" clip-rule="evenodd" d="M33.2476 50.2639H14.7801C14.143 50.2639 13.543 50.4314 13.0269 50.729C11.9618 51.3428 11.2363 52.4962 11.2363 53.8078C11.2363 55.7566 12.9618 56.654 14.7801 57.3516L24.0161 60.8955L33.2476 57.3516C35.1962 57.3516 36.7914 55.7566 36.7914 53.8078C36.7914 52.4962 36.0706 51.3428 35.0055 50.729C34.4848 50.4314 33.8848 50.2639 33.2476 50.2639Z" fill="white"></path><path fill-rule="evenodd" clip-rule="evenodd" d="M32.312 64.4391L24.0154 60.8952L15.7188 64.4391V67.6249C15.7188 70.42 18.0068 72.708 20.8017 72.708H24.0154H27.2243C30.024 72.708 32.312 70.42 32.312 67.6249V64.4391Z" fill="white"></path><path fill-rule="evenodd" clip-rule="evenodd" d="M33.2476 57.3513H14.7801C12.8315 57.3513 11.2363 58.9465 11.2363 60.8952C11.2363 62.8439 12.8315 64.439 14.7801 64.439H15.7195H32.3128H33.2476C35.1962 64.439 36.7914 62.8439 36.7914 60.8952C36.7914 58.9465 35.1962 57.3513 33.2476 57.3513Z" fill="white"></path><path fill-rule="evenodd" clip-rule="evenodd" d="M32.3146 64.4391H28.5011H27.5664V67.6249C27.5664 70.42 25.2782 72.708 22.4785 72.708H24.0179H27.2268C30.0265 72.708 32.3146 70.42 32.3146 67.6249V64.4391Z" fill="white"></path><path fill-rule="evenodd" clip-rule="evenodd" d="M24.0211 40.4834C33.1316 40.4834 40.5167 33.098 40.5167 23.9872C40.5167 14.8765 33.1316 7.49105 24.0211 7.49105C14.9105 7.49105 7.52539 14.8765 7.52539 23.9872C7.52539 33.098 14.9105 40.4834 24.0211 40.4834Z" fill="white"></path><path fill-rule="evenodd" clip-rule="evenodd" d="M40.5161 23.9873C40.5161 16.8343 35.9584 10.742 29.5918 8.45841C31.4473 13.6393 32.5077 19.6388 32.5077 26.0336C32.5077 30.5867 31.9682 34.9398 30.9916 38.9395C36.6142 36.3117 40.5161 30.6052 40.5161 23.9873Z" fill="white"></path><path fill-rule="evenodd" clip-rule="evenodd" d="M29.5909 8.45794C35.9575 10.7415 40.5152 16.834 40.5152 23.9868C40.5152 30.6048 36.6133 36.3112 30.9907 38.939C29.9536 43.1711 28.4283 47.0031 26.5169 50.2634H28.5027H30.4094H33.251C33.888 50.2634 34.488 50.4309 35.0089 50.7285C37.8457 41.4409 46.4911 37.6042 46.4772 24.6334C46.4632 11.0019 36.6738 2.65849 26.4238 1.64934C27.6423 3.70028 28.7072 5.98846 29.5909 8.45794Z" fill="#F4832B"></path><path fill-rule="evenodd" clip-rule="evenodd" d="M43.5215 50.9241V65.7366C43.5215 66.8434 44.4283 67.7505 45.5352 67.7505H63.3097H81.0844C82.1912 67.7505 83.0981 66.8434 83.0981 65.7366V50.9241C83.0981 49.8171 82.1912 48.9149 81.0844 48.9149H45.5352C44.4283 48.9149 43.5215 49.8171 43.5215 50.9241Z" fill="#F4832B"></path><path fill-rule="evenodd" clip-rule="evenodd" d="M78.0501 50.9241V65.7366C78.0501 66.8434 77.1478 67.7457 76.0458 67.7505H76.0504H80.5102H81.0869C82.1937 67.7505 83.1006 66.8434 83.1006 65.7366V50.9241C83.1006 49.8171 82.1937 48.9149 81.0869 48.9149H80.5102H76.041C77.1432 48.9149 78.0501 49.8171 78.0501 50.9241Z" fill="#F4832B"></path><path d="M9.12058 7.08636C13.2922 3.41218 18.6869 1.46837 24.0165 1.54728C35.0802 1.38912 46.4556 9.93728 46.4742 24.6337C46.4881 37.6046 37.8427 41.4413 35.0059 50.729M13.0271 50.729C10.1903 41.4413 1.54467 37.6046 1.55861 24.6337C1.56337 19.3504 3.03747 14.8623 5.43721 11.286" stroke="black" stroke-width="3" stroke-miterlimit="10" stroke-linecap="round" stroke-linejoin="round"></path><path d="M24.0211 40.4834C33.1037 40.4834 40.5167 33.0748 40.5167 23.9872C40.5167 14.9044 33.1037 7.49105 24.0211 7.49105C14.9338 7.49105 7.52539 14.9044 7.52539 23.9872C7.52539 33.0748 14.9338 40.4834 24.0211 40.4834Z" stroke="black" stroke-width="3" stroke-miterlimit="10" stroke-linecap="round" stroke-linejoin="round"></path><path d="M7.55664 23.9592H10.3703M24.0198 7.49105V10.3093M40.483 23.9592H37.6693M24.0198 40.4229V37.6046" stroke="black" stroke-width="3" stroke-miterlimit="10" stroke-linecap="round" stroke-linejoin="round"></path><path d="M12.373 12.3137L14.3682 14.3043M35.6586 12.3137L33.6682 14.3043M35.6586 35.6001L33.6682 33.6095M12.373 35.6001L14.3682 33.6095" stroke="black" stroke-width="3" stroke-miterlimit="10" stroke-linecap="round" stroke-linejoin="round"></path><path d="M20.584 15.6203L23.9371 23.959H28.2529" stroke="black" stroke-width="3" stroke-miterlimit="10" stroke-linecap="round" stroke-linejoin="round"></path><path d="M66.1234 48.9149H81.0844C82.1912 48.9149 83.0981 49.8171 83.0981 50.9241V65.7366C83.0981 66.8434 82.1912 67.7505 81.0844 67.7505H45.5352C44.4283 67.7505 43.5215 66.8434 43.5215 65.7366V50.9241C43.5215 49.8171 44.4283 48.9149 45.5352 48.9149H60.752" stroke="black" stroke-width="3" stroke-miterlimit="10" stroke-linecap="round" stroke-linejoin="round"></path><path d="M67.8483 53.9287H64.2812V62.7324" stroke="black" stroke-width="3" stroke-miterlimit="10" stroke-linecap="round" stroke-linejoin="round"></path><path d="M64.2812 58.249H67.5646" stroke="black" stroke-width="3" stroke-miterlimit="10" stroke-linecap="round" stroke-linejoin="round"></path><path d="M59.1682 58.333C59.1682 55.8866 57.1731 53.8961 54.7315 53.8961C52.2899 53.8961 50.2949 55.8866 50.2949 58.333C50.2949 60.7746 52.2899 62.7651 54.7315 62.7651C57.1731 62.7651 59.1682 60.7746 59.1682 58.333Z" stroke="black" stroke-width="3" stroke-miterlimit="10" stroke-linecap="round" stroke-linejoin="round"></path><path d="M76.3255 53.9287H72.7539V62.7324" stroke="black" stroke-width="3" stroke-miterlimit="10" stroke-linecap="round" stroke-linejoin="round"></path><path d="M72.7539 58.249H76.0419" stroke="black" stroke-width="3" stroke-miterlimit="10" stroke-linecap="round" stroke-linejoin="round"></path><path d="M63.3105 67.7505V78.3263C63.3105 80.5957 61.455 82.4561 59.1855 82.4561H47.9543H28.1428C25.8733 82.4561 24.0176 80.5957 24.0176 78.3263V72.7081" stroke="black" stroke-width="3" stroke-miterlimit="10" stroke-linecap="round" stroke-linejoin="round"></path><path d="M15.7188 64.4391V67.6249C15.7188 70.42 18.0068 72.708 20.8017 72.708H27.2243C30.024 72.708 32.312 70.42 32.312 67.6249V64.4391" stroke="black" stroke-width="3" stroke-miterlimit="10" stroke-linecap="round" stroke-linejoin="round"></path><path fill-rule="evenodd" clip-rule="evenodd" d="M32.4617 53.8076C32.4617 55.7564 30.8665 57.3516 28.918 57.3516H33.2477C35.1963 57.3516 36.7915 55.7564 36.7915 53.8076C36.7915 52.4961 36.0706 51.3428 35.0057 50.7288C34.4848 50.4312 33.8848 50.2637 33.2477 50.2637H30.4062H28.918C29.5552 50.2637 30.155 50.4312 30.6711 50.7288C31.3038 51.0916 31.8107 51.6404 32.1223 52.3007C32.3408 52.7567 32.4617 53.2682 32.4617 53.8076Z" fill="white"></path><path fill-rule="evenodd" clip-rule="evenodd" d="M33.2477 57.3513H28.918C29.7645 57.3513 30.5458 57.6537 31.155 58.1559C31.9502 58.807 32.4617 59.7929 32.4617 60.8952C32.4617 62.1135 31.8386 63.1926 30.8946 63.8346C30.3271 64.2158 29.6482 64.439 28.918 64.439H32.3129H33.2477C35.1963 64.439 36.7915 62.8439 36.7915 60.8952C36.7915 58.9465 35.1963 57.3513 33.2477 57.3513Z" fill="white"></path><path d="M14.7801 57.3516C12.8315 57.3516 11.2363 55.7564 11.2363 53.8076C11.2363 51.8589 12.8315 50.2639 14.7801 50.2639H33.2476C35.1962 50.2639 36.7914 51.8589 36.7914 53.8076C36.7914 55.7564 35.1962 57.3516 33.2476 57.3516" stroke="black" stroke-width="3" stroke-miterlimit="10" stroke-linecap="round" stroke-linejoin="round"></path><path d="M14.7801 57.3513H33.2476C35.1962 57.3513 36.7914 58.9465 36.7914 60.8952C36.7914 62.8439 35.1962 64.439 33.2476 64.439H14.7801C12.8315 64.439 11.2363 62.8439 11.2363 60.8952C11.2363 58.9465 12.8315 57.3513 14.7801 57.3513Z" stroke="black" stroke-width="3" stroke-miterlimit="10" stroke-linecap="round" stroke-linejoin="round"></path></g><defs><clipPath id="clip0_1_3672"><rect width="84" height="84.0001" fill="white" transform="translate(0.332031)"></rect></clipPath></defs></svg>