<svg xmlns="http://www.w3.org/2000/svg" width="85" height="72" viewBox="0 0 85 72" fill="none"><path d="M45.128 6.99768V13.2275H36.5684V6.99768C36.5684 4.6652 38.5156 2.71777 40.8481 2.71777C43.2108 2.71794 45.128 4.63353 45.128 6.99768Z" fill="white"></path><path d="M36.5694 10.3087V13.228H28.0098V10.3087C28.0098 7.97689 29.9577 6.02881 32.2897 6.02881C34.6522 6.02881 36.5694 7.94605 36.5694 10.3087Z" fill="white"></path><path d="M53.6866 8.0177V13.2275H45.127V8.0177C45.127 5.68489 47.0739 3.73779 49.4069 3.73779C51.7692 3.73796 53.6866 5.65355 53.6866 8.0177Z" fill="white"></path><path d="M61.1963 11.0568V13.2279H53.6895V11.0568C53.6895 10.0204 54.1086 9.08231 54.788 8.40276C55.4674 7.72502 56.4073 7.3042 57.4437 7.3042C59.5165 7.3042 61.1963 8.98404 61.1963 11.0568Z" fill="white"></path><path d="M9.31836 13.2275H75.3819V44.9661H9.31836V13.2275Z" fill="#F4832B"></path><path d="M38.1525 44.9656H24.7942C24.7708 44.6947 24.7598 44.4224 24.7598 44.1501V30.6838C24.7598 27.9676 27.0281 25.6992 29.7443 25.6992C32.4965 25.6992 34.7289 27.9316 34.7289 30.6838V43.4034C34.7289 43.4032 36.4791 43.7131 38.1525 44.9656Z" fill="#F4832B"></path><path d="M38.1525 44.9656H24.7942C24.7708 44.6947 24.7598 44.4224 24.7598 44.1501V30.6838C24.7598 27.9676 27.0281 25.6992 29.7443 25.6992C32.4965 25.6992 34.7289 27.9316 34.7289 30.6838V43.4034C34.7289 43.4032 36.4791 43.7131 38.1525 44.9656Z" fill="#F4832B"></path><path d="M68.8834 23.6358V34.5565C67.3656 35.5077 66.0803 36.7946 65.1291 38.3123H34.7283V30.6842C34.7283 27.9319 32.4967 25.6987 29.7444 25.6987C27.0275 25.6987 24.7588 27.967 24.7588 30.6842V38.3123H19.5671C18.6175 36.7946 17.3322 35.5077 15.8145 34.5565V23.6358C17.3306 22.6845 18.6175 21.3993 19.5654 19.8799H65.1307C66.0803 21.3993 67.3673 22.6845 68.8834 23.6358Z" fill="#F9F5F3"></path><path d="M51.3282 31.1975C52.4738 26.2382 49.3823 21.2893 44.423 20.1437C39.4638 18.9981 34.5149 22.0896 33.3692 27.0488C32.2236 32.0081 35.3152 36.957 40.2744 38.1026C45.2336 39.2482 50.1826 36.1567 51.3282 31.1975Z" fill="#F4832B"></path><path d="M60.7174 44.9656C60.6172 46.4309 60.2572 47.8195 59.7389 49.1064C57.6115 54.3992 52.8493 57.9592 52.8493 57.9592L53.2594 69.3837H31.8202L32.3665 57.9592C32.3665 57.9592 25.3391 51.6848 24.7942 44.9656C24.7708 44.6947 24.7598 44.4224 24.7598 44.1501V30.6838C24.7598 27.9676 27.0281 25.6992 29.7443 25.6992C32.4965 25.6992 34.7289 27.9316 34.7289 30.6838V43.4034C34.7289 43.4034 36.4791 43.7133 38.1525 44.9658H60.7174V44.9656Z" fill="white"></path><path d="M75.3806 46.6067C76.2865 46.6067 77.0212 45.872 77.0212 44.9661V33.9734C77.0212 33.0674 76.2865 32.3328 75.3806 32.3328C74.4746 32.3328 73.7399 33.0674 73.7399 33.9734V43.3255L38.6872 43.325C37.9075 42.7993 37.106 42.4157 36.3695 42.1539V39.9527H65.1294C65.6943 39.9527 66.2196 39.6621 66.5195 39.1835C67.3364 37.8805 68.4551 36.7611 69.7552 35.9466C70.2339 35.6465 70.5245 35.1213 70.5245 34.5563V23.6358C70.5245 23.0712 70.2341 22.5461 69.7557 22.246C68.4524 21.4283 67.3343 20.3094 66.5225 19.0102C66.2227 18.5305 65.6969 18.2391 65.1312 18.2391H19.5661C18.9999 18.2391 18.4737 18.531 18.1741 19.0113C17.3643 20.3094 16.2471 21.4278 14.9433 22.246C14.4648 22.5461 14.1745 23.0711 14.1745 23.6358V34.5563C14.1745 35.1212 14.465 35.6465 14.9437 35.9466C16.2443 36.7616 17.3624 37.8805 18.1768 39.1824C18.4767 39.6618 19.0022 39.9528 19.5677 39.9528H23.119V43.3256H10.959V14.8681H73.7401V19.5662C73.7401 20.4722 74.4748 21.2068 75.3807 21.2068C76.2867 21.2068 77.0213 20.4722 77.0213 19.5662V13.2275C77.0213 12.3215 76.2867 11.5868 75.3807 11.5868H62.836V11.0566C62.836 8.0828 60.4165 5.66336 57.4427 5.66336C56.599 5.66336 55.7851 5.85728 55.0497 6.2215C54.2873 3.83258 52.0471 2.09729 49.4086 2.09729C48.0019 2.09729 46.671 2.58521 45.6073 3.47936C44.5277 2.02313 42.7969 1.07715 40.8489 1.07715C38.3155 1.07715 35.9991 2.75141 35.2172 5.16559C34.3529 4.6716 33.3539 4.38761 32.2891 4.38761C29.062 4.38761 26.3688 7.08103 26.3688 10.3081V11.5867H9.31836C8.41224 11.5867 7.67773 12.3214 7.67773 13.2273V44.9659C7.67773 45.8719 8.41224 46.6065 9.31836 46.6065H23.3771C24.5016 52.1645 29.0522 57.0296 30.692 58.6337L30.1816 69.3053C30.1383 70.2104 30.837 70.9791 31.742 71.0224C31.7687 71.0237 31.7951 71.0243 31.8215 71.0243C32.6916 71.0243 33.4171 70.3404 33.4591 69.4621L34.0054 58.0375C34.029 57.5433 33.8284 57.0647 33.4592 56.7353C33.3939 56.6769 26.9157 50.8285 26.4288 44.8238C26.4099 44.6069 26.4004 44.3802 26.4004 44.1499V30.6836C26.4004 28.8612 27.9219 27.3397 29.7443 27.3397C31.5653 27.3397 33.0879 28.8689 33.0879 30.6841V34.2828V38.3122V43.2769C33.023 44.1067 33.6267 44.8829 34.4444 45.0192C34.484 45.0273 34.6544 45.0644 34.9131 45.1439C37.7101 46.0049 39.5148 48.3064 39.5148 51.251C39.5148 52.157 40.2493 52.8916 41.1554 52.8916C42.0615 52.8916 42.796 52.157 42.796 51.251C42.796 49.3961 42.3659 47.8631 41.6919 46.6069H58.8165C58.4952 47.9909 57.9061 49.3956 57.0559 50.8016C54.9288 54.3205 51.8956 56.6236 51.8671 56.6451C51.4359 56.9671 51.1903 57.4803 51.2097 58.0179L51.6198 69.4426C51.6523 70.3482 52.4118 71.0565 53.3182 71.0234C54.2238 70.9909 54.9314 70.2304 54.8989 69.325L54.5183 58.718C55.6681 57.7418 58.0281 55.5363 59.8638 52.4994C61.0428 50.5498 61.8122 48.574 62.1638 46.6069H75.3806V46.6067ZM57.4426 8.94462C58.6073 8.94462 59.5546 9.89192 59.5546 11.0566V11.5868H55.329V11.0566C55.3291 9.9034 56.2897 8.94462 57.4426 8.94462ZM49.4086 5.37855C50.8638 5.37855 52.0479 6.56242 52.0479 8.01766V11.5868H46.7695V8.01766C46.7695 6.57982 47.9707 5.37855 49.4086 5.37855ZM38.2097 6.99768C38.2097 5.56033 39.4114 4.3584 40.8488 4.3584C42.3042 4.3584 43.4881 5.54245 43.4881 6.99768V11.5868H38.2097V6.99768ZM29.65 10.3083C29.65 8.87161 30.8524 7.66903 32.2891 7.66903C33.7445 7.66903 34.9284 8.85307 34.9284 10.3083V11.5868H29.65V10.3083ZM35.1207 26.8115C36.0791 23.7752 38.8927 21.6204 42.1147 21.5204H42.538C46.6295 21.6216 49.9274 24.9781 49.9274 29.0927C49.9274 33.2717 46.5275 36.6714 42.3485 36.6714C40.0032 36.6714 37.8026 35.5876 36.3695 33.7493V30.6836C36.3697 29.3019 35.9308 27.9319 35.1207 26.8115ZM67.2434 24.505V33.6868C66.1036 34.5173 65.0912 35.53 64.2599 36.6714H50.1167C52.0279 34.713 53.2088 32.0388 53.2088 29.0927C53.2088 26.1497 52.0298 23.478 50.1216 21.5204H64.2605C65.0896 22.6601 66.1018 23.673 67.2434 24.505ZM20.438 36.6716C19.6079 35.5305 18.5958 34.5176 17.4557 33.6868V24.5052C18.5976 23.6729 19.6094 22.6601 20.4374 21.5205H34.5808C33.702 22.4188 32.9738 23.4694 32.4461 24.6364C31.6206 24.266 30.7067 24.0582 29.7448 24.0582C26.1312 24.0582 23.1187 27.0716 23.1187 30.6844V36.6717H20.438V36.6716Z" fill="black"></path><path d="M15.9237 7.22448C15.287 7.85514 15.2729 8.88217 15.8973 9.52891C16.2192 9.86229 16.6482 10.0301 17.0779 10.0301C17.488 10.0301 17.8987 9.87722 18.2171 9.56993L21.1237 6.76429C21.4382 6.46061 21.6186 6.04389 21.6247 5.60682C21.6308 5.16976 21.4623 4.74828 21.1565 4.43574L18.2499 1.46768C17.6162 0.820456 16.5773 0.809627 15.9299 1.44357C15.2825 2.0775 15.2717 3.11619 15.9056 3.76374L16.0814 3.94323H9.93803C4.8255 3.94323 0.666016 8.10271 0.666016 13.2152V22.4252C0.666016 23.3312 1.40052 24.0659 2.30664 24.0659C3.21276 24.0659 3.94727 23.3312 3.94727 22.4252V13.2152C3.94727 9.912 6.63462 7.22448 9.93803 7.22448H15.9237Z" fill="black"></path><path d="M83.0253 33.9941C82.1193 33.9941 81.3846 34.7288 81.3846 35.6348V44.8448C81.3846 48.148 78.6971 50.8355 75.3939 50.8355H69.408C70.0451 50.205 70.059 49.1778 69.4346 48.5309C68.8054 47.8788 67.7668 47.8607 67.1148 48.4901L64.2082 51.2959C63.8937 51.5996 63.7133 52.0161 63.7072 52.4532C63.7011 52.8902 63.8696 53.3117 64.1754 53.6243L67.082 56.5923C67.4034 56.9204 67.8286 57.085 68.2544 57.085C68.6683 57.085 69.0829 56.9291 69.4021 56.6166C70.0494 55.9827 70.0604 54.944 69.4263 54.2964L69.2505 54.1169H75.3937C80.5062 54.1169 84.6657 49.9575 84.6657 44.8449V35.6349C84.6659 34.7288 83.9312 33.9941 83.0253 33.9941Z" fill="black"></path><path d="M76.7445 25.9461C76.2446 25.2034 75.2149 24.9983 74.4689 25.4933C73.7231 25.9881 73.5233 27.0243 74.0161 27.767C74.5111 28.5129 75.5473 28.713 76.29 28.22C77.0344 27.7259 77.2398 26.6885 76.7445 25.9461Z" fill="black"></path></svg>