<svg xmlns="http://www.w3.org/2000/svg" width="84" height="84" viewBox="0 0 84 84" fill="none"><g clip-path="url(#clip0_1_3765)"><path fill-rule="evenodd" clip-rule="evenodd" d="M66.6285 50.1968C63.5367 50.1968 60.6543 51.0889 58.2273 52.6316C53.9873 55.3122 51.1282 59.9679 50.9235 65.3017C50.8165 68.1359 51.4673 70.9282 52.8249 73.4185C54.2848 76.0854 56.4884 78.2784 59.1617 79.7234C61.3839 80.927 63.9272 81.6098 66.6283 81.6098C75.3084 81.6098 82.3472 74.5756 82.3472 65.9012C82.3472 59.6287 78.6649 54.2114 73.3416 51.6978C71.3056 50.7359 69.0322 50.1968 66.6285 50.1968Z" fill="#F4832B"></path><path fill-rule="evenodd" clip-rule="evenodd" d="M28.441 44.2451C13.7682 46.1359 2.21951 54.4665 1.65234 70.0361C10.272 73.0095 19.9793 74.6544 29.803 74.9704L27.7527 69.2927L31.1513 51.6186L28.4454 44.2451C28.441 44.2451 28.441 44.2451 28.441 44.2451Z" fill="white"></path><path fill-rule="evenodd" clip-rule="evenodd" d="M58.2283 52.6316C53.249 47.9574 46.4009 45.1605 39.2085 44.2358L36.498 51.6187L39.8966 69.2928L37.8509 74.9705C42.9186 74.8077 47.9535 74.2919 52.8305 73.4185C51.6077 71.1885 50.9152 68.6237 50.9152 65.9011C50.9152 60.3163 53.8301 55.4144 58.2283 52.6316Z" fill="white"></path><path fill-rule="evenodd" clip-rule="evenodd" d="M39.8955 69.2928L36.497 51.6187H33.8237H31.1507L27.752 69.2928L29.8022 74.9705C31.1413 75.0122 32.4802 75.0307 33.8237 75.0261C35.1674 75.0307 36.5063 75.0122 37.85 74.9705L39.8955 69.2928Z" fill="#F9F9F9"></path><path fill-rule="evenodd" clip-rule="evenodd" d="M39.2081 44.2358C37.4414 44.8073 35.5958 45.1139 33.7501 45.1047C31.9508 45.0906 30.1609 44.7933 28.4453 44.245L31.1512 51.6185H33.8243H36.4975L39.2081 44.2358Z" fill="white"></path><path fill-rule="evenodd" clip-rule="evenodd" d="M51.5099 22.3337H37.4229C30.4353 22.3337 25.8184 19.9735 22.4664 16.605C22.5362 23.1655 15.9902 22.3337 15.9902 22.3337V29.0056C15.9902 29.4563 16.0137 29.8978 16.0552 30.339C16.7108 36.7973 22.0573 42.2101 28.4406 44.2452H28.4452C30.1608 44.7934 31.9507 45.0908 33.75 45.1049C35.5957 45.1141 37.4414 44.8075 39.208 44.2361C40.8818 43.6924 42.4811 42.9119 43.9411 41.9359C47.9857 39.2413 50.9659 35.0596 51.44 30.3344C51.4865 29.8978 51.5098 29.4517 51.5098 29.0056V22.3337H51.5099Z" fill="white"></path><path fill-rule="evenodd" clip-rule="evenodd" d="M51.5098 22.3336C53.9039 -4.7631 15.9902 -2.3842 15.9902 18.2775V22.3336C15.9902 22.3336 22.5362 23.1653 22.4664 16.6049C25.8184 19.9734 30.4351 22.3336 37.4229 22.3336H51.5098Z" fill="white"></path><path fill-rule="evenodd" clip-rule="evenodd" d="M51.4395 30.3344C55.2934 30.1949 57.5344 25.4793 55.7261 22.3291L51.5093 22.3339V29.0058C51.5093 29.4517 51.4859 29.8978 51.4395 30.3344Z" fill="white"></path><path fill-rule="evenodd" clip-rule="evenodd" d="M15.99 22.3335H11.9545C10.1462 25.4789 12.2055 30.1947 16.0551 30.3388C16.0134 29.8976 15.9901 29.4561 15.9901 29.0054V22.3335H15.99Z" fill="white"></path><mask id="path-10-inside-1_1_3765" fill="white"><path d="M74.0479 50.2035C71.7171 49.1026 69.221 48.5445 66.6289 48.5445C63.6683 48.5445 60.879 49.2895 58.4372 50.6005C54.6639 47.3609 49.8443 44.9425 44.4653 43.562C44.5964 43.4787 44.7283 43.3967 44.8578 43.3102C49.1774 40.4293 52.0488 36.2511 52.898 31.7723C54.6195 31.311 56.119 30.1289 57.0597 28.4342C58.296 26.207 58.3342 23.5523 57.1593 21.5061C56.8647 20.9929 56.318 20.6765 55.7266 20.6765C55.7259 20.6765 55.7254 20.6765 55.7248 20.6765L53.2596 20.6793C53.4094 15.0043 51.8035 10.1806 48.5695 6.6483C45.1309 2.89242 39.8799 0.738281 34.1632 0.738281C29.1945 0.738281 24.2753 2.37628 20.6669 5.23245C16.5857 8.46267 14.3382 13.0956 14.3382 18.2774V20.6812H11.9549C11.3636 20.6812 10.8172 20.9972 10.5224 21.5099C9.31788 23.6051 9.34167 26.3009 10.5846 28.5449C11.4876 30.1754 12.932 31.3169 14.5961 31.7722C15.2761 35.4124 17.2889 38.8228 20.4333 41.581C21.2651 42.3107 22.1543 42.9711 23.0858 43.5578C20.0248 44.307 17.1968 45.3525 14.6399 46.6874C13.8309 47.1099 13.5176 48.1079 13.9399 48.9167C14.2347 49.4814 14.8102 49.8048 15.4059 49.8048C15.6635 49.8048 15.925 49.7442 16.1691 49.6168C19.4227 47.9181 23.1815 46.7286 27.3554 46.0709L29.4421 51.7565L26.1302 68.9806C26.0741 69.2721 26.0977 69.5733 26.1983 69.8527L27.4074 73.2085C22.4554 72.9343 17.5919 72.3174 12.9517 71.3769V64.8693C12.9517 63.9568 12.2119 63.2172 11.2994 63.2172C10.3869 63.2172 9.64715 63.957 9.64715 64.8693V70.644C7.49334 70.1234 5.39679 69.532 3.37324 68.8708C3.70251 64.6362 4.93298 60.8675 7.03758 57.6529C7.53731 56.8893 7.3237 55.8652 6.56032 55.3655C5.7971 54.8659 4.77302 55.0794 4.27296 55.8428C1.6327 59.8753 0.195514 64.6303 0.00109971 69.9759C-0.0253144 70.7024 0.42635 71.3608 1.11344 71.5979C9.69342 74.5579 19.5943 76.2951 29.7451 76.6218C29.7473 76.6218 29.7494 76.6218 29.7515 76.6218C30.9712 76.6597 32.2059 76.6789 33.4218 76.6789L33.8188 76.6782L34.2272 76.6789C35.443 76.6789 36.6779 76.6597 37.8977 76.6218C37.8997 76.6218 37.9015 76.6218 37.9036 76.6218C42.6907 76.4681 47.4203 76 51.9846 75.2373C53.5459 77.6844 55.7235 79.7444 58.3755 81.1762C60.895 82.5407 63.7491 83.2617 66.629 83.2617C76.2075 83.2617 84 75.4737 84 65.901C84 59.2198 80.0936 53.0581 74.0479 50.2035ZM35.3443 49.9662H32.305L31.0493 46.5444C31.9444 46.6792 32.8438 46.7514 33.7396 46.757C33.777 46.7572 33.8141 46.7573 33.8513 46.7573C34.7632 46.7573 35.6829 46.6843 36.6007 46.5442L35.3443 49.9662ZM54.1704 26.8303C54.0098 27.1197 53.682 27.6165 53.1621 28.0234V23.9838L54.616 23.9822C54.8247 24.8827 54.673 25.925 54.1704 26.8303ZM17.6426 18.2774C17.6426 9.03164 26.1543 4.04283 34.1632 4.04283C38.9554 4.04283 43.318 5.80584 46.1324 8.87972C48.789 11.7813 50.0976 15.8394 49.9537 20.6812H37.4229C31.6568 20.6812 27.1479 18.9664 23.6379 15.4391C23.3214 15.1211 22.8977 14.9523 22.4662 14.9523C22.2513 14.9523 22.0344 14.9943 21.8281 15.0808C21.2082 15.3405 20.8073 15.95 20.8144 16.6222C20.8287 17.9698 20.5068 18.9855 19.8579 19.6414C19.2379 20.268 18.3584 20.5334 17.6426 20.6425V18.2774ZM13.4754 26.944C12.9602 26.0141 12.818 24.9283 13.0554 23.9858H14.338V27.9963C13.8967 27.6278 13.6168 27.1994 13.4754 26.944ZM17.6426 29.0054V23.9713C18.9892 23.8391 20.81 23.3776 22.207 21.9655C22.8176 21.3485 23.2834 20.6189 23.6021 19.7823C27.3615 22.606 31.9122 23.9856 37.4229 23.9856H49.8577V29.0053C49.8577 29.4049 49.8359 29.8041 49.7941 30.2016C49.7933 30.2119 49.7919 30.222 49.7913 30.2323C49.3646 34.1828 46.9028 37.9741 43.0239 40.5612C40.2269 42.4275 36.9736 43.4526 33.8518 43.4526C33.8214 43.4526 33.7908 43.4524 33.7604 43.4523C32.1672 43.4423 30.6007 43.1883 29.1079 42.7325C29.0845 42.7222 29.0608 42.7129 29.0371 42.7038C29.0369 42.7037 29.0366 42.7037 29.0364 42.7035C28.9908 42.6859 28.9445 42.6707 28.8973 42.6572C28.8909 42.6554 28.8848 42.6535 28.8786 42.6517C28.8439 42.6421 28.809 42.6344 28.7737 42.6272C22.5223 40.5779 17.6426 34.9893 17.6426 29.0054ZM33.8188 73.3738L33.4218 73.3745C32.6098 73.3745 31.7889 73.3656 30.9702 73.3482L29.461 69.1594L32.5162 53.2708H35.133L38.1881 69.1594L36.6789 73.3482C35.8601 73.3658 35.0393 73.3745 34.2273 73.3745L33.8188 73.3738ZM40.2415 73.2088L41.4508 69.8527C41.5514 69.5735 41.575 69.2721 41.5189 68.9806L38.2068 51.757L40.297 46.064C46.1916 47.0224 51.5108 49.2757 55.5769 52.5228C51.7226 55.7089 49.2627 60.5232 49.2627 65.901C49.2627 68.074 49.6677 70.1846 50.4224 72.1442C47.1008 72.6629 43.6924 73.0188 40.2415 73.2088ZM66.6289 79.9573C64.2969 79.9573 61.9869 79.3739 59.9471 78.2693C57.5199 76.9589 55.5832 74.9997 54.3038 72.6723C54.2973 72.6595 54.2905 72.647 54.2838 72.6344C53.1765 70.6059 52.5671 68.3002 52.5671 65.901C52.5671 58.1526 58.8753 51.849 66.6289 51.849C68.7292 51.849 70.7504 52.3007 72.6368 53.1917C77.5323 55.5032 80.6956 60.4921 80.6956 65.9011C80.6956 73.6516 74.3852 79.9573 66.6289 79.9573Z"></path></mask><path d="M74.0479 50.2035C71.7171 49.1026 69.221 48.5445 66.6289 48.5445C63.6683 48.5445 60.879 49.2895 58.4372 50.6005C54.6639 47.3609 49.8443 44.9425 44.4653 43.562C44.5964 43.4787 44.7283 43.3967 44.8578 43.3102C49.1774 40.4293 52.0488 36.2511 52.898 31.7723C54.6195 31.311 56.119 30.1289 57.0597 28.4342C58.296 26.207 58.3342 23.5523 57.1593 21.5061C56.8647 20.9929 56.318 20.6765 55.7266 20.6765C55.7259 20.6765 55.7254 20.6765 55.7248 20.6765L53.2596 20.6793C53.4094 15.0043 51.8035 10.1806 48.5695 6.6483C45.1309 2.89242 39.8799 0.738281 34.1632 0.738281C29.1945 0.738281 24.2753 2.37628 20.6669 5.23245C16.5857 8.46267 14.3382 13.0956 14.3382 18.2774V20.6812H11.9549C11.3636 20.6812 10.8172 20.9972 10.5224 21.5099C9.31788 23.6051 9.34167 26.3009 10.5846 28.5449C11.4876 30.1754 12.932 31.3169 14.5961 31.7722C15.2761 35.4124 17.2889 38.8228 20.4333 41.581C21.2651 42.3107 22.1543 42.9711 23.0858 43.5578C20.0248 44.307 17.1968 45.3525 14.6399 46.6874C13.8309 47.1099 13.5176 48.1079 13.9399 48.9167C14.2347 49.4814 14.8102 49.8048 15.4059 49.8048C15.6635 49.8048 15.925 49.7442 16.1691 49.6168C19.4227 47.9181 23.1815 46.7286 27.3554 46.0709L29.4421 51.7565L26.1302 68.9806C26.0741 69.2721 26.0977 69.5733 26.1983 69.8527L27.4074 73.2085C22.4554 72.9343 17.5919 72.3174 12.9517 71.3769V64.8693C12.9517 63.9568 12.2119 63.2172 11.2994 63.2172C10.3869 63.2172 9.64715 63.957 9.64715 64.8693V70.644C7.49334 70.1234 5.39679 69.532 3.37324 68.8708C3.70251 64.6362 4.93298 60.8675 7.03758 57.6529C7.53731 56.8893 7.3237 55.8652 6.56032 55.3655C5.7971 54.8659 4.77302 55.0794 4.27296 55.8428C1.6327 59.8753 0.195514 64.6303 0.00109971 69.9759C-0.0253144 70.7024 0.42635 71.3608 1.11344 71.5979C9.69342 74.5579 19.5943 76.2951 29.7451 76.6218C29.7473 76.6218 29.7494 76.6218 29.7515 76.6218C30.9712 76.6597 32.2059 76.6789 33.4218 76.6789L33.8188 76.6782L34.2272 76.6789C35.443 76.6789 36.6779 76.6597 37.8977 76.6218C37.8997 76.6218 37.9015 76.6218 37.9036 76.6218C42.6907 76.4681 47.4203 76 51.9846 75.2373C53.5459 77.6844 55.7235 79.7444 58.3755 81.1762C60.895 82.5407 63.7491 83.2617 66.629 83.2617C76.2075 83.2617 84 75.4737 84 65.901C84 59.2198 80.0936 53.0581 74.0479 50.2035ZM35.3443 49.9662H32.305L31.0493 46.5444C31.9444 46.6792 32.8438 46.7514 33.7396 46.757C33.777 46.7572 33.8141 46.7573 33.8513 46.7573C34.7632 46.7573 35.6829 46.6843 36.6007 46.5442L35.3443 49.9662ZM54.1704 26.8303C54.0098 27.1197 53.682 27.6165 53.1621 28.0234V23.9838L54.616 23.9822C54.8247 24.8827 54.673 25.925 54.1704 26.8303ZM17.6426 18.2774C17.6426 9.03164 26.1543 4.04283 34.1632 4.04283C38.9554 4.04283 43.318 5.80584 46.1324 8.87972C48.789 11.7813 50.0976 15.8394 49.9537 20.6812H37.4229C31.6568 20.6812 27.1479 18.9664 23.6379 15.4391C23.3214 15.1211 22.8977 14.9523 22.4662 14.9523C22.2513 14.9523 22.0344 14.9943 21.8281 15.0808C21.2082 15.3405 20.8073 15.95 20.8144 16.6222C20.8287 17.9698 20.5068 18.9855 19.8579 19.6414C19.2379 20.268 18.3584 20.5334 17.6426 20.6425V18.2774ZM13.4754 26.944C12.9602 26.0141 12.818 24.9283 13.0554 23.9858H14.338V27.9963C13.8967 27.6278 13.6168 27.1994 13.4754 26.944ZM17.6426 29.0054V23.9713C18.9892 23.8391 20.81 23.3776 22.207 21.9655C22.8176 21.3485 23.2834 20.6189 23.6021 19.7823C27.3615 22.606 31.9122 23.9856 37.4229 23.9856H49.8577V29.0053C49.8577 29.4049 49.8359 29.8041 49.7941 30.2016C49.7933 30.2119 49.7919 30.222 49.7913 30.2323C49.3646 34.1828 46.9028 37.9741 43.0239 40.5612C40.2269 42.4275 36.9736 43.4526 33.8518 43.4526C33.8214 43.4526 33.7908 43.4524 33.7604 43.4523C32.1672 43.4423 30.6007 43.1883 29.1079 42.7325C29.0845 42.7222 29.0608 42.7129 29.0371 42.7038C29.0369 42.7037 29.0366 42.7037 29.0364 42.7035C28.9908 42.6859 28.9445 42.6707 28.8973 42.6572C28.8909 42.6554 28.8848 42.6535 28.8786 42.6517C28.8439 42.6421 28.809 42.6344 28.7737 42.6272C22.5223 40.5779 17.6426 34.9893 17.6426 29.0054ZM33.8188 73.3738L33.4218 73.3745C32.6098 73.3745 31.7889 73.3656 30.9702 73.3482L29.461 69.1594L32.5162 53.2708H35.133L38.1881 69.1594L36.6789 73.3482C35.8601 73.3658 35.0393 73.3745 34.2273 73.3745L33.8188 73.3738ZM40.2415 73.2088L41.4508 69.8527C41.5514 69.5735 41.575 69.2721 41.5189 68.9806L38.2068 51.757L40.297 46.064C46.1916 47.0224 51.5108 49.2757 55.5769 52.5228C51.7226 55.7089 49.2627 60.5232 49.2627 65.901C49.2627 68.074 49.6677 70.1846 50.4224 72.1442C47.1008 72.6629 43.6924 73.0188 40.2415 73.2088ZM66.6289 79.9573C64.2969 79.9573 61.9869 79.3739 59.9471 78.2693C57.5199 76.9589 55.5832 74.9997 54.3038 72.6723C54.2973 72.6595 54.2905 72.647 54.2838 72.6344C53.1765 70.6059 52.5671 68.3002 52.5671 65.901C52.5671 58.1526 58.8753 51.849 66.6289 51.849C68.7292 51.849 70.7504 52.3007 72.6368 53.1917C77.5323 55.5032 80.6956 60.4921 80.6956 65.9011C80.6956 73.6516 74.3852 79.9573 66.6289 79.9573Z" fill="black" stroke="black" stroke-width="2" mask="url(#path-10-inside-1_1_3765)"></path><path d="M9.19336 50.9893C9.69032 50.659 10.349 50.7647 10.7197 51.2158L10.79 51.3105C11.1203 51.8074 11.0147 52.4671 10.5635 52.8379L10.4688 52.9082L10.4404 52.9268C10.2439 53.0574 10.0232 53.1191 9.80469 53.1191C9.47697 53.1191 9.15605 52.9807 8.93262 52.7227L8.84277 52.6045C8.51277 52.1075 8.61903 51.4476 9.07031 51.0771L9.16504 51.0078L9.19238 50.9893H9.19336Z" fill="black" stroke="black"></path><path d="M72.1941 68.5723C72.1941 69.9474 71.799 71.0486 71.004 71.8757C70.2137 72.7027 69.2511 73.251 68.1216 73.5156V75.0723V75.2068C68.1216 76.0663 67.3916 76.7634 66.5362 76.7634C65.6808 76.7634 64.9788 76.0663 64.9788 75.2068V73.5294C64.2767 73.367 63.6397 73.1068 63.0725 72.7488C62.4914 72.377 62.087 72.052 61.8545 71.7685L61.5152 71.3223C60.074 69.4406 62.445 67.4335 63.8257 68.8832C63.9931 69.0549 64.1698 69.2689 64.3744 69.4918C64.9509 70.1331 65.7971 70.235 66.485 70.235C67.7869 70.235 68.4423 69.7008 68.4423 68.6231C68.4423 68.2374 68.1913 67.94 67.6984 67.7263C67.2056 67.5173 66.6058 67.3269 65.9039 67.1593C65.197 66.9922 64.4904 66.7646 63.7885 66.4857C63.0819 66.2024 62.4822 65.719 61.9894 65.0313C61.4965 64.3437 61.2501 63.4702 61.2501 62.4155C61.2501 61.3561 61.5894 60.4131 62.2544 59.5628C62.9099 58.7218 63.8582 58.1505 65.0067 57.9274V57.5697V55.7947C65.0067 54.94 65.7087 54.2383 66.5641 54.2383C67.4243 54.2383 68.1216 54.94 68.1216 55.7947V56.4498V57.9505C68.6144 58.0575 69.0654 58.2061 69.4698 58.4012C69.879 58.5917 70.1579 58.7497 70.3161 58.8752L70.5577 59.0842C72.6034 60.6175 70.6274 63.3355 68.8608 61.8486C67.6659 60.8451 64.9509 60.6221 64.9509 62.4667C64.9509 62.8571 65.1322 63.1684 65.4902 63.4054C65.8529 63.6422 66.2991 63.8051 66.8292 63.884C67.3546 63.9631 67.9358 64.093 68.5727 64.2789C69.205 64.4648 69.7907 64.6784 70.3162 64.9248C70.8461 65.1711 71.2924 65.608 71.6551 66.2352C72.0128 66.8578 72.1941 67.6386 72.1941 68.5723Z" fill="black"></path></g><defs><clipPath id="clip0_1_3765"><rect width="84" height="84" fill="white"></rect></clipPath></defs></svg>