<svg xmlns="http://www.w3.org/2000/svg" width="85" height="84" viewBox="0 0 85 84" fill="none"><path d="M50.6497 73.4004H9.30114C6.96554 73.4004 5.07227 71.5071 5.07227 69.1715V5.86947C5.07227 3.53371 6.96554 1.64043 9.30114 1.64043H50.6497C52.9852 1.64043 54.8785 3.53371 54.8785 5.86947V69.1715C54.8785 71.5071 52.9852 73.4004 50.6497 73.4004Z" fill="white"></path><path d="M50.6497 73.4004H9.30114C6.96554 73.4004 5.07227 71.5071 5.07227 69.1715V5.86947C5.07227 3.53371 6.96554 1.64043 9.30114 1.64043H50.6497C52.9852 1.64043 54.8785 3.53371 54.8785 5.86947V69.1715C54.8785 71.5071 52.9852 73.4004 50.6497 73.4004Z" stroke="black" stroke-width="3.28125" stroke-miterlimit="10" stroke-linecap="round" stroke-linejoin="round"></path><path d="M59.4506 82.3271H18.1021C15.7665 82.3271 13.873 80.4339 13.873 78.0983V14.7962C13.873 12.4605 15.7665 10.5672 18.1021 10.5672H59.4506C61.7862 10.5672 63.6795 12.4605 63.6795 14.7962V78.0983C63.6795 80.4339 61.7862 82.3271 59.4506 82.3271Z" fill="white"></path><path d="M13.873 22.258V14.7962C13.873 12.4605 15.7665 10.5672 18.1019 10.5672H59.4506C61.7862 10.5672 63.6795 12.4605 63.6795 14.7962V78.0981C63.6795 80.4339 61.7862 82.3271 59.4506 82.3271H18.1019C15.7665 82.3271 13.873 80.4339 13.873 78.0981V35.383" stroke="black" stroke-width="3.28125" stroke-miterlimit="10" stroke-linecap="round" stroke-linejoin="round"></path><path d="M25.0488 22.6704H52.5088" stroke="black" stroke-width="3.28125" stroke-miterlimit="10" stroke-linecap="round" stroke-linejoin="round"></path><path d="M25.0488 34.48H50.2127" stroke="black" stroke-width="3.28125" stroke-miterlimit="10" stroke-linecap="round" stroke-linejoin="round"></path><path d="M25.0488 44.7715H41.101" stroke="black" stroke-width="3.28125" stroke-miterlimit="10" stroke-linecap="round" stroke-linejoin="round"></path><path d="M25.0488 55.0635H36.2413" stroke="black" stroke-width="3.28125" stroke-miterlimit="10" stroke-linecap="round" stroke-linejoin="round"></path><path d="M25.0488 65.3555H34.3771" stroke="black" stroke-width="3.28125" stroke-miterlimit="10" stroke-linecap="round" stroke-linejoin="round"></path><path d="M61.2565 70.4383C57.3433 70.4383 54.1711 67.2661 54.1711 63.3529C54.1711 59.4398 57.3433 56.2677 61.2565 56.2677C65.1695 56.2677 68.3417 59.4398 68.3417 63.3529C68.3417 67.2661 65.1695 70.4383 61.2565 70.4383ZM79.0405 59.9749H75.4279C75.0658 58.4504 74.4643 57.0188 73.665 55.7219L76.2205 53.1664C76.6977 52.689 76.6977 51.9151 76.2205 51.4377L73.1715 48.3889C72.6943 47.9115 71.9204 47.9115 71.4431 48.3889L68.8877 50.9445C67.5906 50.1452 66.1592 49.5436 64.6345 49.1815V45.5687C64.6345 44.8937 64.0874 44.3466 63.4124 44.3466H59.1004C58.4254 44.3466 57.8783 44.8937 57.8783 45.5687V49.1815C56.3538 49.5436 54.9222 50.1452 53.6251 50.9445L51.0697 48.3889C50.5924 47.9115 49.8185 47.9115 49.3413 48.3889L46.2923 51.4377C45.8151 51.9151 45.8151 52.689 46.2923 53.1664L48.8478 55.7219C48.0485 57.0188 47.447 58.4504 47.0849 59.9749H43.4723C42.7971 59.9749 42.25 60.5222 42.25 61.1971V65.5088C42.25 66.1838 42.7971 66.7311 43.4723 66.7311H47.0849C47.447 68.2556 48.0485 69.6872 48.8478 70.9841L46.2923 73.5395C45.8151 74.0168 45.8151 74.7907 46.2923 75.2679L49.3413 78.3169C49.8185 78.7943 50.5924 78.7943 51.0697 78.3169L53.6251 75.7614C54.9222 76.5608 56.3538 77.1624 57.8783 77.5245V81.1373C57.8783 81.8121 58.4254 82.3594 59.1004 82.3594H63.4124C64.0874 82.3594 64.6345 81.8121 64.6345 81.1373V77.5245C66.1592 77.1624 67.5906 76.5608 68.8877 75.7614L71.4431 78.3169C71.9204 78.7943 72.6943 78.7943 73.1715 78.3169L76.2205 75.2679C76.6977 74.7907 76.6977 74.0168 76.2205 73.5395L73.665 70.9841C74.4643 69.6872 75.0658 68.2556 75.4279 66.7311H79.0405C79.7156 66.7311 80.263 66.1838 80.263 65.5088V61.1971C80.263 60.5222 79.7156 59.9749 79.0405 59.9749Z" fill="#F4832B"></path><path d="M61.2565 70.4383C57.3433 70.4383 54.1711 67.2661 54.1711 63.3529C54.1711 59.4398 57.3433 56.2677 61.2565 56.2677C65.1695 56.2677 68.3417 59.4398 68.3417 63.3529C68.3417 67.2661 65.1695 70.4383 61.2565 70.4383ZM79.0405 59.9749H75.4279C75.0658 58.4504 74.4643 57.0188 73.665 55.7219L76.2204 53.1664C76.6977 52.689 76.6977 51.9151 76.2204 51.4377L73.1715 48.3889C72.6943 47.9115 71.9204 47.9115 71.4431 48.3889L68.8877 50.9445C67.5906 50.1452 66.1592 49.5436 64.6345 49.1815V45.5687C64.6345 44.8937 64.0874 44.3466 63.4124 44.3466H59.1004C58.4254 44.3466 57.8783 44.8937 57.8783 45.5687V49.1815C56.3538 49.5436 54.9222 50.1452 53.6251 50.9445L51.0697 48.3889C50.5924 47.9115 49.8185 47.9115 49.3413 48.3889L46.2923 51.4377C45.8151 51.9151 45.8151 52.689 46.2923 53.1664L48.8478 55.7219C48.0485 57.0188 47.447 58.4504 47.0849 59.9749H43.4723C42.7971 59.9749 42.25 60.5222 42.25 61.1971V65.5088C42.25 66.1838 42.7971 66.7311 43.4723 66.7311H47.0849C47.447 68.2556 48.0485 69.6872 48.8478 70.9841L46.2923 73.5395C45.8151 74.0168 45.8151 74.7907 46.2923 75.2679L49.3413 78.3169C49.8185 78.7943 50.5924 78.7943 51.0697 78.3169L53.6251 75.7614C54.9222 76.5608 56.3538 77.1624 57.8783 77.5245V81.1373C57.8783 81.8121 58.4254 82.3594 59.1004 82.3594H63.4124C64.0874 82.3594 64.6345 81.8121 64.6345 81.1373V77.5245C66.1592 77.1624 67.5906 76.5608 68.8877 75.7614L71.4431 78.3169C71.9204 78.7943 72.6943 78.7943 73.1715 78.3169L76.2204 75.2679C76.6977 74.7907 76.6977 74.0168 76.2204 73.5395L73.665 70.9841C74.4643 69.6872 75.0658 68.2556 75.4279 66.7311H79.0405C79.7156 66.7311 80.2629 66.1838 80.2629 65.5088V61.1971C80.2629 60.5222 79.7156 59.9749 79.0405 59.9749Z" stroke="black" stroke-width="3.28125" stroke-miterlimit="10" stroke-linecap="round" stroke-linejoin="round"></path></svg>