<svg xmlns="http://www.w3.org/2000/svg" width="90" height="90" viewBox="0 0 90 90" fill="none"><circle cx="45" cy="45" r="45" fill="#F4832B" fill-opacity="0.23"></circle><g clip-path="url(#clip0_1_3543)"><path d="M64.8111 47.5236H65.4276C67.6182 47.5236 69.3871 45.7176 69.3266 43.5133C69.2683 41.3888 67.4718 39.7225 65.3465 39.7225H61.9651H56.1189H49.3096C47.6483 39.7225 46.6078 37.9263 47.4343 36.4852C48.8792 33.9658 49.9271 31.2387 50.5413 28.4001L51.4738 24.09C51.9751 21.7177 50.4583 19.3882 48.086 18.887C45.7137 18.3857 43.3842 19.9026 42.883 22.2748L42.4313 24.4126C41.8156 27.326 40.7437 30.1239 39.2548 32.7027L36.3406 37.75C34.7987 40.4207 31.9491 42.0659 28.8652 42.0659V68.2117H33.921C35.963 68.2117 37.9782 68.6758 39.8144 69.5693C41.6506 70.4626 43.6658 70.9268 45.7077 70.9268H56.06H60.9401H61.9651V70.7898C63.6219 70.3395 64.8406 68.8256 64.8406 67.0262C64.8406 65.2269 63.6219 63.7129 61.9651 63.2628V63.1258H63.0982C65.2524 63.1258 66.9987 61.3794 66.9987 59.2252C66.9987 57.071 65.2524 55.3247 63.0982 55.3247H64.811C66.9652 55.3247 68.7115 53.5783 68.7115 51.4241C68.7116 49.2698 66.9653 47.5236 64.8111 47.5236Z" fill="white"></path><path d="M45.5558 24.0899L44.6233 28.3999C44.0092 31.2386 42.9611 33.9656 41.5163 36.4851C40.6897 37.9263 41.7302 39.7223 43.3916 39.7223H49.3087C47.6474 39.7223 46.607 37.9262 47.4334 36.4851C48.8783 33.9656 49.9263 31.2385 50.5404 28.3999L51.473 24.0899C51.9743 21.7176 50.4574 19.3881 48.0851 18.8869C46.6483 18.5833 45.2281 19.0208 44.2194 19.9395C45.3293 20.9541 45.8892 22.5122 45.5558 24.0899Z" fill="white"></path><path d="M64.81 47.5235H65.4264C67.6171 47.5235 69.3859 45.7176 69.3255 43.5133C69.2672 41.3887 67.4706 39.7224 65.3453 39.7224H61.964H59.4281C61.5534 39.7224 63.35 41.3888 63.4083 43.5133C63.4687 45.7176 61.6999 47.5235 59.5092 47.5235H58.8927C61.0469 47.5235 62.7933 49.2699 62.7933 51.4241C62.7933 53.5783 61.0469 55.3246 58.8927 55.3246H57.1799C59.3341 55.3246 61.0805 57.071 61.0805 59.2252C61.0805 61.3794 59.3341 63.1257 57.1799 63.1257H56.0469V63.2627C57.7037 63.713 58.9224 65.2269 58.9224 67.0262C58.9224 68.8255 57.7037 70.3395 56.0469 70.7897V70.9267H56.0589H60.9389H61.964V70.7897C63.6208 70.3395 64.8395 68.8256 64.8395 67.0262C64.8395 65.2269 63.6208 63.7129 61.964 63.2627V63.1257H63.097C65.2512 63.1257 66.9976 61.3794 66.9976 59.2252C66.9976 57.071 65.2512 55.3246 63.097 55.3246H64.8099C66.9641 55.3246 68.7104 53.5783 68.7104 51.4241C68.7105 49.2698 66.9642 47.5235 64.81 47.5235Z" fill="white"></path><path d="M29.3439 71.2091H23.2061C21.8065 71.2091 20.6719 70.0745 20.6719 68.6749V41.3748C20.6719 39.9752 21.8065 38.8406 23.2061 38.8406H29.3439C30.7435 38.8406 31.8781 39.9752 31.8781 41.3748V68.6749C31.8781 70.0745 30.7435 71.2091 29.3439 71.2091Z" fill="#F4832B"></path><path d="M29.344 38.8403H28.7297C29.0258 39.2551 29.2007 39.7624 29.2007 40.311V62.8253C29.2007 64.2249 28.0661 65.3595 26.6665 65.3595H20.6719V68.6748C20.6719 70.0744 21.8065 71.209 23.2061 71.209H29.3439C30.7435 71.209 31.8781 70.0744 31.8781 68.6748V41.3746C31.8782 39.975 30.7436 38.8403 29.344 38.8403Z" fill="#F4832B"></path><path d="M67.6989 47.7305C69.1605 46.9185 70.1662 45.3367 70.1156 43.4919C70.0466 40.9774 67.9064 38.9318 65.3447 38.9318H60.8866C60.4534 38.9318 60.0757 39.2656 60.0628 39.6985C60.0494 40.1465 60.4085 40.5138 60.8534 40.5138H65.3446C67.0576 40.5138 68.4883 41.8692 68.5341 43.5354C68.582 45.2823 67.2049 46.7328 65.3518 46.7328C64.8106 46.7328 54.0711 46.7328 54.5466 46.7328C54.1135 46.7328 53.7358 47.0666 53.7228 47.4995C53.7094 47.9475 54.0686 48.3148 54.5134 48.3148C54.7293 48.3148 64.8821 48.3148 64.7432 48.3148C66.4351 48.3148 67.8671 49.6389 67.9173 51.33C67.9695 53.0874 66.5551 54.5338 64.8093 54.5338C62.6651 54.5338 54.2809 54.5338 54.5465 54.5338C54.1134 54.5338 53.7357 54.8676 53.7227 55.3005C53.7093 55.7484 54.0685 56.1158 54.5133 56.1158H63.0302C64.7222 56.1158 66.1542 57.4398 66.2044 59.131C66.2566 60.8884 64.8422 62.3348 63.0964 62.3348H55.6349C55.2017 62.3348 54.824 62.6686 54.8111 63.1015C54.7977 63.5494 55.1568 63.9168 55.6017 63.9168C58.3587 63.9381 61.1214 63.8515 61.7531 64.0253C61.754 64.0255 61.7548 64.0258 61.7558 64.0261C63.1052 64.3929 64.0477 65.6265 64.0477 67.0262C64.0477 68.4092 63.1277 69.6301 61.8042 70.0128C60.1509 70.2274 60.3025 70.0967 45.7061 70.1358C43.7954 70.1358 41.8771 69.6939 40.1589 68.8579C38.2263 67.9176 36.0687 67.4207 33.9196 67.4207H32.6688V42.0517C34.4911 41.2462 36.025 39.8766 37.0243 38.1457C39.0253 34.3319 41.847 30.9973 43.2037 24.5765C43.6163 23.2281 43.4356 21.3392 45.1942 20.1789C46.7561 19.1484 48.7841 19.506 49.9148 20.8447C50.6505 21.7159 50.9288 22.8363 50.6991 23.9231C49.9068 26.947 49.6963 30.9487 46.7466 36.0919C45.6208 38.0552 47.0151 40.5137 49.3688 40.5137H57.0911C57.5242 40.5137 57.9019 40.1799 57.9149 39.7469C57.9283 39.299 57.5692 38.9317 57.1243 38.9317H49.3474C48.2389 38.9317 47.5972 37.7889 48.1191 36.8789C51.2177 31.4758 51.4575 27.2512 52.2463 24.2538C52.5324 22.8997 52.2741 21.5152 51.519 20.3556C49.9567 17.956 46.7502 17.2782 44.35 18.8409C41.8708 20.4551 42.0587 23.0284 41.6561 24.2495C40.3656 30.3571 37.6614 33.5399 35.6546 37.3547C34.913 38.6391 33.818 39.6852 32.5142 40.3723C32.0878 39.0273 30.828 38.0498 29.3438 38.0498H23.2061C21.3697 38.0498 19.8809 39.5386 19.8809 41.3751V58.7665C19.8809 59.1996 20.2146 59.5773 20.6475 59.5904C21.0954 59.6039 21.4629 59.2447 21.4629 58.7998V41.3751C21.4629 40.4123 22.2434 39.6319 23.2061 39.6319H29.3439C30.3067 39.6319 31.0871 40.4123 31.0871 41.3751V68.6749C31.0871 69.6376 30.3067 70.4181 29.3439 70.4181H23.2061C22.2434 70.4181 21.4629 69.6376 21.4629 68.6749V62.5619C21.4629 62.1289 21.1292 61.7512 20.6962 61.7381C20.2483 61.7246 19.8809 62.0837 19.8809 62.5287V68.6749C19.8809 70.5113 21.3697 72.0001 23.2061 72.0001H29.3439C31.0669 72.0001 32.4876 70.6829 32.6528 69.0027H33.9299C35.873 69.0027 37.7802 69.4707 39.5317 70.3117C41.4476 71.2317 43.5811 71.7178 45.7065 71.7178C60.129 71.6731 60.1911 71.8246 62.0684 71.5737C63.6649 71.3602 65.63 69.4851 65.63 67.0262C65.63 65.7763 65.1316 64.6141 64.3025 63.7589C66.3068 63.2252 67.7881 61.3953 67.7881 59.2252C67.7881 57.9034 67.2386 56.7074 66.3561 55.8539C68.1854 55.2134 69.5009 53.4697 69.5009 51.4243C69.5009 49.9264 68.7953 48.59 67.6989 47.7305Z" fill="black"></path></g><defs><clipPath id="clip0_1_3543"><rect width="54" height="54" fill="white" transform="translate(18 18)"></rect></clipPath></defs></svg>