<svg xmlns="http://www.w3.org/2000/svg" width="70" height="70" viewBox="0 0 70 70" fill="none"><path d="M15.9672 40.2C16.9005 40.2 17.813 40.476 18.5899 40.9933C19.3667 41.5105 19.9734 42.2458 20.3335 43.1069C20.6936 43.9679 20.7912 44.9162 20.6139 45.8325C20.4366 46.7488 19.9924 47.5922 19.337 48.2568C18.6817 48.9213 17.8446 49.3773 16.9308 49.5674C16.0171 49.7575 15.0675 49.6732 14.2016 49.3252C13.3356 48.9771 12.5918 48.3808 12.0638 47.6112C11.5358 46.8417 11.247 45.9332 11.2339 45C11.2426 43.7473 11.7441 42.5484 12.6299 41.6626C13.5157 40.7768 14.7146 40.2753 15.9672 40.2666" fill="#F4832B"></path><path d="M15.9672 40.2C16.9005 40.2 17.813 40.476 18.5899 40.9933C19.3667 41.5105 19.9734 42.2458 20.3335 43.1069C20.6936 43.9679 20.7912 44.9162 20.6139 45.8325C20.4366 46.7488 19.9924 47.5922 19.337 48.2568C18.6817 48.9213 17.8446 49.3773 16.9308 49.5674C16.0171 49.7575 15.0675 49.6732 14.2016 49.3252C13.3356 48.9771 12.5918 48.3808 12.0638 47.6112C11.5358 46.8417 11.247 45.9332 11.2339 45C11.2426 43.7473 11.7441 42.5484 12.6299 41.6626C13.5157 40.7768 14.7146 40.2753 15.9672 40.2666" fill="black"></path><path d="M30.9003 18.8335C31.8365 18.8335 32.7516 19.1111 33.53 19.6312C34.3084 20.1513 34.9151 20.8906 35.2734 21.7555C35.6316 22.6204 35.7253 23.5721 35.5427 24.4903C35.3601 25.4084 34.9093 26.2518 34.2473 26.9138C33.5853 27.5758 32.7419 28.0266 31.8238 28.2092C30.9056 28.3919 29.9539 28.2981 29.089 27.9399C28.2241 27.5816 27.4848 26.9749 26.9647 26.1965C26.4446 25.4181 26.167 24.503 26.167 23.5668C26.1757 22.3142 26.6772 21.1153 27.563 20.2295C28.4488 19.3437 29.6477 18.8422 30.9003 18.8335Z" fill="#F4832B"></path><path d="M30.9003 18.8335C31.8365 18.8335 32.7516 19.1111 33.53 19.6312C34.3084 20.1513 34.9151 20.8906 35.2734 21.7555C35.6316 22.6204 35.7253 23.5721 35.5427 24.4903C35.3601 25.4084 34.9093 26.2518 34.2473 26.9138C33.5853 27.5758 32.7419 28.0266 31.8238 28.2092C30.9056 28.3919 29.9539 28.2981 29.089 27.9399C28.2241 27.5816 27.4848 26.9749 26.9647 26.1965C26.4446 25.4181 26.167 24.503 26.167 23.5668C26.1757 22.3142 26.6772 21.1153 27.563 20.2295C28.4488 19.3437 29.6477 18.8422 30.9003 18.8335Z" fill="black"></path><path d="M48.7665 29.5334C49.7027 29.5334 50.6178 29.8111 51.3962 30.3312C52.1746 30.8513 52.7813 31.5905 53.1396 32.4554C53.4978 33.3203 53.5916 34.272 53.4089 35.1902C53.2263 36.1084 52.7755 36.9518 52.1135 37.6138C51.4515 38.2757 50.6081 38.7265 49.69 38.9092C48.7718 39.0918 47.8201 38.9981 46.9552 38.6398C46.0903 38.2816 45.351 37.6749 44.8309 36.8965C44.3108 36.1181 44.0332 35.2029 44.0332 34.2668C44.0332 33.0114 44.5319 31.8075 45.4196 30.9198C46.3072 30.0321 47.5112 29.5334 48.7665 29.5334Z" fill="#F4832B"></path><path d="M48.7665 29.5334C49.7027 29.5334 50.6178 29.8111 51.3962 30.3312C52.1746 30.8513 52.7813 31.5905 53.1396 32.4554C53.4978 33.3203 53.5916 34.272 53.4089 35.1902C53.2263 36.1084 52.7755 36.9518 52.1135 37.6138C51.4515 38.2757 50.6081 38.7265 49.69 38.9092C48.7718 39.0918 47.8201 38.9981 46.9552 38.6398C46.0903 38.2816 45.351 37.6749 44.8309 36.8965C44.3108 36.1181 44.0332 35.2029 44.0332 34.2668C44.0332 33.0114 44.5319 31.8075 45.4196 30.9198C46.3072 30.0321 47.5112 29.5334 48.7665 29.5334Z" fill="black"></path><path d="M63.1337 8.3335C64.0699 8.3335 64.985 8.6111 65.7634 9.13121C66.5418 9.65131 67.1485 10.3906 67.5068 11.2555C67.865 12.1204 67.9587 13.0721 67.7761 13.9903C67.5935 14.9084 67.1427 15.7518 66.4807 16.4138C65.8187 17.0758 64.9753 17.5266 64.0572 17.7092C63.139 17.8919 62.1873 17.7981 61.3224 17.4399C60.4575 17.0816 59.7182 16.4749 59.1981 15.6965C58.678 14.9181 58.4004 14.003 58.4004 13.0668C58.4004 11.8115 58.8991 10.6075 59.7868 9.71986C60.6744 8.83219 61.8784 8.3335 63.1337 8.3335Z" fill="#F4832B"></path><path d="M63.1337 8.3335C64.0699 8.3335 64.985 8.6111 65.7634 9.13121C66.5418 9.65131 67.1485 10.3906 67.5068 11.2555C67.865 12.1204 67.9587 13.0721 67.7761 13.9903C67.5935 14.9084 67.1427 15.7518 66.4807 16.4138C65.8187 17.0758 64.9753 17.5266 64.0572 17.7092C63.139 17.8919 62.1873 17.7981 61.3224 17.4399C60.4575 17.0816 59.7182 16.4749 59.1981 15.6965C58.678 14.9181 58.4004 14.003 58.4004 13.0668C58.4004 11.8115 58.8991 10.6075 59.7868 9.71986C60.6744 8.83219 61.8784 8.3335 63.1337 8.3335Z" fill="black"></path><path d="M65.3999 50.5334H49.0332V56.8334H65.3999V50.5334Z" fill="#F4832B"></path><path d="M65.3999 50.5334H49.0332V56.8334H65.3999V50.5334Z" fill="black"></path><path d="M2.63346 1.43335C2.19144 1.43335 1.76751 1.60894 1.45495 1.9215C1.14239 2.23407 0.966797 2.65799 0.966797 3.10002V68.3333C0.966797 68.7754 1.14239 69.1993 1.45495 69.5119C1.76751 69.8244 2.19144 70 2.63346 70H67.8668C68.3088 70 68.7327 69.8244 69.0453 69.5119C69.3579 69.1993 69.5335 68.7754 69.5335 68.3333C69.5335 67.8913 69.3579 67.4674 69.0453 67.1548C68.7327 66.8423 68.3088 66.6667 67.8668 66.6667H4.30013V3.10002C4.30013 2.65799 4.12454 2.23407 3.81197 1.9215C3.49941 1.60894 3.07549 1.43335 2.63346 1.43335Z" fill="black"></path><path d="M2.63346 1.43335C2.19144 1.43335 1.76751 1.60894 1.45495 1.9215C1.14239 2.23407 0.966797 2.65799 0.966797 3.10002V68.3333C0.966797 68.7754 1.14239 69.1993 1.45495 69.5119C1.76751 69.8244 2.19144 70 2.63346 70H67.8668C68.3088 70 68.7327 69.8244 69.0453 69.5119C69.3579 69.1993 69.5335 68.7754 69.5335 68.3333C69.5335 67.8913 69.3579 67.4674 69.0453 67.1548C68.7327 66.8423 68.3088 66.6667 67.8668 66.6667H4.30013V3.10002C4.30013 2.65799 4.12454 2.23407 3.81197 1.9215C3.49941 1.60894 3.07549 1.43335 2.63346 1.43335Z" fill="white"></path><path d="M15.9676 38.5336C14.5031 38.5168 13.0763 38.9976 11.9207 39.8974C10.7651 40.7971 9.94914 42.0625 9.60637 43.4864C9.26359 44.9103 9.41432 46.4084 10.0339 47.7354C10.6534 49.0625 11.7051 50.14 13.0168 50.7915C14.3285 51.443 15.8225 51.6299 17.2543 51.3217C18.686 51.0135 19.9708 50.2284 20.8982 49.0949C21.8257 47.9615 22.3409 46.5467 22.3596 45.0822C22.3782 43.6178 21.8992 42.1904 21.0009 41.0336L28.8009 29.6003C29.4779 29.83 30.1862 29.9537 30.9009 29.967C31.8039 29.9754 32.6984 29.7926 33.5257 29.4306C34.353 29.0687 35.0943 28.5358 35.7009 27.867L42.6343 32.8003C42.5277 33.282 42.4718 33.7736 42.4676 34.267C42.4676 35.9643 43.1419 37.5922 44.3421 38.7924C45.5424 39.9927 47.1702 40.667 48.8676 40.667C50.565 40.667 52.1929 39.9927 53.3931 38.7924C54.5933 37.5922 55.2676 35.9643 55.2676 34.267C55.2625 32.8188 54.756 31.4172 53.8343 30.3003L61.2676 18.9336C62.7309 19.395 64.3119 19.3095 65.7168 18.693C67.1218 18.0765 68.2552 16.9709 68.9065 15.5817C69.5578 14.1926 69.6826 12.6142 69.2578 11.1399C68.833 9.66558 67.8874 8.39562 66.5968 7.56594C65.3062 6.73627 63.7583 6.40331 62.2407 6.62892C60.7231 6.85453 59.339 7.62338 58.3456 8.7926C57.3522 9.96183 56.8169 11.4519 56.8394 12.986C56.8618 14.5202 57.4404 15.994 58.4676 17.1336L51.0676 28.3336C50.3325 28.0547 49.5538 27.908 48.7676 27.9003C47.9028 27.8998 47.0467 28.0738 46.2506 28.4117C45.4545 28.7496 44.7347 29.2445 44.1343 29.867L37.1676 25.0003C37.2022 24.5676 37.2022 24.1329 37.1676 23.7003C37.2169 22.6495 37.0064 21.6027 36.5547 20.6526C36.103 19.7025 35.4241 18.8784 34.5781 18.2532C33.732 17.628 32.7449 17.221 31.704 17.0683C30.6632 16.9155 29.6007 17.0217 28.6107 17.3774C27.6206 17.7331 26.7335 18.3273 26.0279 19.1076C25.3223 19.8878 24.8199 20.83 24.5651 21.8506C24.3104 22.8713 24.3112 23.9391 24.5674 24.9594C24.8237 25.9797 25.3275 26.9211 26.0343 27.7003L18.3343 39.0003C17.5833 38.6921 16.7794 38.5336 15.9676 38.5336ZM63.1343 9.83363C63.7408 9.83363 64.3337 10.0135 64.838 10.3505C65.3423 10.6874 65.7354 11.1664 65.9675 11.7267C66.1996 12.2871 66.2603 12.9037 66.142 13.4986C66.0237 14.0934 65.7316 14.6399 65.3027 15.0688C64.8739 15.4976 64.3274 15.7897 63.7326 15.908C63.1377 16.0264 62.5211 15.9656 61.9607 15.7335C61.4004 15.5014 60.9214 15.1084 60.5844 14.604C60.2475 14.0997 60.0676 13.5068 60.0676 12.9003C60.0676 12.087 60.3907 11.3069 60.9658 10.7318C61.5409 10.1567 62.3209 9.83363 63.1343 9.83363ZM48.7676 31.2003C49.3741 31.2003 49.967 31.3801 50.4714 31.7171C50.9757 32.0541 51.3687 32.533 51.6008 33.0934C51.833 33.6538 51.8937 34.2704 51.7754 34.8652C51.657 35.4601 51.365 36.0065 50.9361 36.4354C50.5072 36.8643 49.9608 37.1564 49.3659 37.2747C48.771 37.393 48.1544 37.3323 47.5941 37.1002C47.0337 36.8681 46.5547 36.475 46.2178 35.9707C45.8808 35.4664 45.7009 34.8735 45.7009 34.267C45.7009 33.4536 46.024 32.6736 46.5992 32.0985C47.1743 31.5234 47.9543 31.2003 48.7676 31.2003ZM30.9009 20.5003C31.7143 20.5003 32.4943 20.8234 33.0694 21.3985C33.6445 21.9736 33.9676 22.7536 33.9676 23.567C33.9676 24.3803 33.6445 25.1603 33.0694 25.7354C32.4943 26.3105 31.7143 26.6336 30.9009 26.6336C30.0876 26.6336 29.3076 26.3105 28.7325 25.7354C28.1574 25.1603 27.8343 24.3803 27.8343 23.567C27.8343 22.7536 28.1574 21.9736 28.7325 21.3985C29.3076 20.8234 30.0876 20.5003 30.9009 20.5003ZM15.9676 48.0003C15.3583 48.0001 14.7628 47.8185 14.2571 47.4785C13.7515 47.1385 13.3586 46.6555 13.1286 46.0913C12.8985 45.527 12.8418 44.907 12.9657 44.3104C13.0895 43.7138 13.3883 43.1676 13.8238 42.7415C14.2594 42.3154 14.8121 42.0287 15.4113 41.918C16.0105 41.8073 16.629 41.8776 17.1881 42.12C17.7472 42.3623 18.2214 42.7658 18.5502 43.2788C18.879 43.7918 19.0475 44.3911 19.0343 45.0003C19.0168 45.802 18.6861 46.565 18.1128 47.1258C17.5396 47.6866 16.7695 48.0005 15.9676 48.0003Z" fill="black"></path><path d="M15.9676 38.5336C14.5031 38.5168 13.0763 38.9976 11.9207 39.8974C10.7651 40.7971 9.94914 42.0625 9.60637 43.4864C9.26359 44.9103 9.41432 46.4084 10.0339 47.7354C10.6534 49.0625 11.7051 50.14 13.0168 50.7915C14.3285 51.443 15.8225 51.6299 17.2543 51.3217C18.686 51.0135 19.9708 50.2284 20.8982 49.0949C21.8257 47.9615 22.3409 46.5467 22.3596 45.0822C22.3782 43.6178 21.8992 42.1904 21.0009 41.0336L28.8009 29.6003C29.4779 29.83 30.1862 29.9537 30.9009 29.967C31.8039 29.9754 32.6984 29.7926 33.5257 29.4306C34.353 29.0687 35.0943 28.5358 35.7009 27.867L42.6343 32.8003C42.5277 33.282 42.4718 33.7736 42.4676 34.267C42.4676 35.9643 43.1419 37.5922 44.3421 38.7924C45.5424 39.9927 47.1702 40.667 48.8676 40.667C50.565 40.667 52.1929 39.9927 53.3931 38.7924C54.5933 37.5922 55.2676 35.9643 55.2676 34.267C55.2625 32.8188 54.756 31.4172 53.8343 30.3003L61.2676 18.9336C62.7309 19.395 64.3119 19.3095 65.7168 18.693C67.1218 18.0765 68.2552 16.9709 68.9065 15.5817C69.5578 14.1926 69.6826 12.6142 69.2578 11.1399C68.833 9.66558 67.8874 8.39562 66.5968 7.56594C65.3062 6.73627 63.7583 6.40331 62.2407 6.62892C60.7231 6.85453 59.339 7.62338 58.3456 8.7926C57.3522 9.96183 56.8169 11.4519 56.8394 12.986C56.8618 14.5202 57.4404 15.994 58.4676 17.1336L51.0676 28.3336C50.3325 28.0547 49.5538 27.908 48.7676 27.9003C47.9028 27.8998 47.0467 28.0738 46.2506 28.4117C45.4545 28.7496 44.7347 29.2445 44.1343 29.867L37.1676 25.0003C37.2022 24.5676 37.2022 24.1329 37.1676 23.7003C37.2169 22.6495 37.0064 21.6027 36.5547 20.6526C36.103 19.7025 35.4241 18.8784 34.5781 18.2532C33.732 17.628 32.7449 17.221 31.704 17.0683C30.6632 16.9155 29.6007 17.0217 28.6107 17.3774C27.6206 17.7331 26.7335 18.3273 26.0279 19.1076C25.3223 19.8878 24.8199 20.83 24.5651 21.8506C24.3104 22.8713 24.3112 23.9391 24.5674 24.9594C24.8237 25.9797 25.3275 26.9211 26.0343 27.7003L18.3343 39.0003C17.5833 38.6921 16.7794 38.5336 15.9676 38.5336ZM63.1343 9.83363C63.7408 9.83363 64.3337 10.0135 64.838 10.3505C65.3423 10.6874 65.7354 11.1664 65.9675 11.7267C66.1996 12.2871 66.2603 12.9037 66.142 13.4986C66.0237 14.0934 65.7316 14.6399 65.3027 15.0688C64.8739 15.4976 64.3274 15.7897 63.7326 15.908C63.1377 16.0264 62.5211 15.9656 61.9607 15.7335C61.4004 15.5014 60.9214 15.1084 60.5844 14.604C60.2475 14.0997 60.0676 13.5068 60.0676 12.9003C60.0676 12.087 60.3907 11.3069 60.9658 10.7318C61.5409 10.1567 62.3209 9.83363 63.1343 9.83363ZM48.7676 31.2003C49.3741 31.2003 49.967 31.3801 50.4714 31.7171C50.9757 32.0541 51.3687 32.533 51.6008 33.0934C51.833 33.6538 51.8937 34.2704 51.7754 34.8652C51.657 35.4601 51.365 36.0065 50.9361 36.4354C50.5072 36.8643 49.9608 37.1564 49.3659 37.2747C48.771 37.393 48.1544 37.3323 47.5941 37.1002C47.0337 36.8681 46.5547 36.475 46.2178 35.9707C45.8808 35.4664 45.7009 34.8735 45.7009 34.267C45.7009 33.4536 46.024 32.6736 46.5992 32.0985C47.1743 31.5234 47.9543 31.2003 48.7676 31.2003ZM30.9009 20.5003C31.7143 20.5003 32.4943 20.8234 33.0694 21.3985C33.6445 21.9736 33.9676 22.7536 33.9676 23.567C33.9676 24.3803 33.6445 25.1603 33.0694 25.7354C32.4943 26.3105 31.7143 26.6336 30.9009 26.6336C30.0876 26.6336 29.3076 26.3105 28.7325 25.7354C28.1574 25.1603 27.8343 24.3803 27.8343 23.567C27.8343 22.7536 28.1574 21.9736 28.7325 21.3985C29.3076 20.8234 30.0876 20.5003 30.9009 20.5003ZM15.9676 48.0003C15.3583 48.0001 14.7628 47.8185 14.2571 47.4785C13.7515 47.1385 13.3586 46.6555 13.1286 46.0913C12.8985 45.527 12.8418 44.907 12.9657 44.3104C13.0895 43.7138 13.3883 43.1676 13.8238 42.7415C14.2594 42.3154 14.8121 42.0287 15.4113 41.918C16.0105 41.8073 16.629 41.8776 17.1881 42.12C17.7472 42.3623 18.2214 42.7658 18.5502 43.2788C18.879 43.7918 19.0475 44.3911 19.0343 45.0003C19.0168 45.802 18.6861 46.565 18.1128 47.1258C17.5396 47.6866 16.7695 48.0005 15.9676 48.0003Z" fill="white"></path><path d="M14.3003 53.9667V56.2C14.3003 56.6421 14.4759 57.066 14.7884 57.3786C15.101 57.6911 15.5249 57.8667 15.967 57.8667C16.4063 57.8582 16.8253 57.6798 17.136 57.3691C17.4468 57.0584 17.6251 56.6394 17.6336 56.2V53.9667C17.6336 53.5247 17.458 53.1008 17.1455 52.7882C16.8329 52.4756 16.409 52.3 15.967 52.3C15.5249 52.3 15.101 52.4756 14.7884 52.7882C14.4759 53.1008 14.3003 53.5247 14.3003 53.9667Z" fill="black"></path><path d="M14.3003 53.9667V56.2C14.3003 56.6421 14.4759 57.066 14.7884 57.3786C15.101 57.6911 15.5249 57.8667 15.967 57.8667C16.4063 57.8582 16.8253 57.6798 17.136 57.3691C17.4468 57.0584 17.6251 56.6394 17.6336 56.2V53.9667C17.6336 53.5247 17.458 53.1008 17.1455 52.7882C16.8329 52.4756 16.409 52.3 15.967 52.3C15.5249 52.3 15.101 52.4756 14.7884 52.7882C14.4759 53.1008 14.3003 53.5247 14.3003 53.9667Z" fill="white"></path><path d="M32.5667 14.4V12.1667C32.5667 11.7246 32.3911 11.3007 32.0786 10.9882C31.766 10.6756 31.3421 10.5 30.9001 10.5C30.458 10.5 30.0341 10.6756 29.7216 10.9882C29.409 11.3007 29.2334 11.7246 29.2334 12.1667V14.4C29.2334 14.842 29.409 15.2659 29.7216 15.5785C30.0341 15.8911 30.458 16.0667 30.9001 16.0667C31.3421 16.0667 31.766 15.8911 32.0786 15.5785C32.3911 15.2659 32.5667 14.842 32.5667 14.4Z" fill="black"></path><path d="M32.5667 14.4V12.1667C32.5667 11.7246 32.3911 11.3007 32.0786 10.9882C31.766 10.6756 31.3421 10.5 30.9001 10.5C30.458 10.5 30.0341 10.6756 29.7216 10.9882C29.409 11.3007 29.2334 11.7246 29.2334 12.1667V14.4C29.2334 14.842 29.409 15.2659 29.7216 15.5785C30.0341 15.8911 30.458 16.0667 30.9001 16.0667C31.3421 16.0667 31.766 15.8911 32.0786 15.5785C32.3911 15.2659 32.5667 14.842 32.5667 14.4Z" fill="white"></path><path d="M48.7673 47.1334C49.2066 47.1249 49.6256 46.9466 49.9363 46.6358C50.2471 46.3251 50.4254 45.9061 50.4339 45.4668V43.2001C50.4254 42.7608 50.2471 42.3418 49.9363 42.031C49.6256 41.7203 49.2066 41.542 48.7673 41.5334C48.3252 41.5334 47.9013 41.709 47.5887 42.0216C47.2762 42.3342 47.1006 42.7581 47.1006 43.2001V45.4668C47.1006 45.9088 47.2762 46.3327 47.5887 46.6453C47.9013 46.9579 48.3252 47.1334 48.7673 47.1334Z" fill="black"></path><path d="M48.7673 47.1334C49.2066 47.1249 49.6256 46.9466 49.9363 46.6358C50.2471 46.3251 50.4254 45.9061 50.4339 45.4668V43.2001C50.4254 42.7608 50.2471 42.3418 49.9363 42.031C49.6256 41.7203 49.2066 41.542 48.7673 41.5334C48.3252 41.5334 47.9013 41.709 47.5887 42.0216C47.2762 42.3342 47.1006 42.7581 47.1006 43.2001V45.4668C47.1006 45.9088 47.2762 46.3327 47.5887 46.6453C47.9013 46.9579 48.3252 47.1334 48.7673 47.1334Z" fill="white"></path><path d="M64.8001 3.9V1.66667C64.8001 1.22464 64.6245 0.800716 64.312 0.488155C63.9994 0.175595 63.5755 0 63.1335 0C62.6914 0 62.2675 0.175595 61.955 0.488155C61.6424 0.800716 61.4668 1.22464 61.4668 1.66667V3.9C61.4668 4.34203 61.6424 4.76595 61.955 5.07851C62.2675 5.39107 62.6914 5.56667 63.1335 5.56667C63.5755 5.56667 63.9994 5.39107 64.312 5.07851C64.6245 4.76595 64.8001 4.34203 64.8001 3.9Z" fill="black"></path><path d="M64.8001 3.9V1.66667C64.8001 1.22464 64.6245 0.800716 64.312 0.488155C63.9994 0.175595 63.5755 0 63.1335 0C62.6914 0 62.2675 0.175595 61.955 0.488155C61.6424 0.800716 61.4668 1.22464 61.4668 1.66667V3.9C61.4668 4.34203 61.6424 4.76595 61.955 5.07851C62.2675 5.39107 62.6914 5.56667 63.1335 5.56667C63.5755 5.56667 63.9994 5.39107 64.312 5.07851C64.6245 4.76595 64.8001 4.34203 64.8001 3.9Z" fill="white"></path><path d="M67.0662 56.8334V50.5334C67.0662 50.0913 66.8906 49.6674 66.5781 49.3549C66.2655 49.0423 65.8416 48.8667 65.3995 48.8667H49.0329C48.5908 48.8667 48.1669 49.0423 47.8544 49.3549C47.5418 49.6674 47.3662 50.0913 47.3662 50.5334V56.8334C47.3662 57.2754 47.5418 57.6993 47.8544 58.0119C48.1669 58.3244 48.5908 58.5 49.0329 58.5H65.3995C65.8416 58.5 66.2655 58.3244 66.5781 58.0119C66.8906 57.6993 67.0662 57.2754 67.0662 56.8334ZM63.7329 55.1667H50.6995V52.2H63.7329V55.1667Z" fill="black"></path><path d="M67.0662 56.8334V50.5334C67.0662 50.0913 66.8906 49.6674 66.5781 49.3549C66.2655 49.0423 65.8416 48.8667 65.3995 48.8667H49.0329C48.5908 48.8667 48.1669 49.0423 47.8544 49.3549C47.5418 49.6674 47.3662 50.0913 47.3662 50.5334V56.8334C47.3662 57.2754 47.5418 57.6993 47.8544 58.0119C48.1669 58.3244 48.5908 58.5 49.0329 58.5H65.3995C65.8416 58.5 66.2655 58.3244 66.5781 58.0119C66.8906 57.6993 67.0662 57.2754 67.0662 56.8334ZM63.7329 55.1667H50.6995V52.2H63.7329V55.1667Z" fill="white"></path><path d="M49.0329 60.5664C48.5935 60.5749 48.1745 60.7533 47.8638 61.064C47.5531 61.3747 47.3747 61.7937 47.3662 62.2331C47.3662 62.6751 47.5418 63.099 47.8544 63.4116C48.1669 63.7241 48.5909 63.8997 49.0329 63.8997H58.7329C59.1749 63.8997 59.5988 63.7241 59.9114 63.4116C60.224 63.099 60.3995 62.6751 60.3995 62.2331C60.391 61.7937 60.2127 61.3747 59.9019 61.064C59.5912 60.7533 59.1722 60.5749 58.7329 60.5664H49.0329Z" fill="black"></path><path d="M49.0329 60.5664C48.5935 60.5749 48.1745 60.7533 47.8638 61.064C47.5531 61.3747 47.3747 61.7937 47.3662 62.2331C47.3662 62.6751 47.5418 63.099 47.8544 63.4116C48.1669 63.7241 48.5909 63.8997 49.0329 63.8997H58.7329C59.1749 63.8997 59.5988 63.7241 59.9114 63.4116C60.224 63.099 60.3995 62.6751 60.3995 62.2331C60.391 61.7937 60.2127 61.3747 59.9019 61.064C59.5912 60.7533 59.1722 60.5749 58.7329 60.5664H49.0329Z" fill="white"></path></svg>