<svg xmlns="http://www.w3.org/2000/svg" width="83" height="70" viewBox="0 0 83 70" fill="none"><path d="M19.5516 1.78984C16.2504 1.78985 13.0234 2.76928 10.279 4.60416C7.53467 6.43904 5.3964 9.04687 4.13485 12.0976C2.8733 15.1483 2.5452 18.5046 3.19208 21.7419C3.83895 24.9791 5.43172 27.9517 7.76878 30.2833C10.1058 32.6149 13.0821 34.2007 16.3209 34.8401C19.5596 35.4794 22.9152 35.1434 25.963 33.8748C29.0107 32.6061 31.6135 30.4618 33.442 27.7131C35.2705 24.9645 36.2424 21.7352 36.2347 18.434C36.2347 16.245 35.8029 14.0774 34.964 12.0555C34.1251 10.0337 32.8957 8.19709 31.346 6.65103C29.7963 5.10497 27.9569 3.87978 25.933 3.04562C23.9092 2.21147 21.7407 1.78473 19.5516 1.78984ZM19.5516 12.0174H19.7461C21.4186 12.0431 23.0132 12.7288 24.1823 13.9251C25.3514 15.1214 26.0003 16.7314 25.9874 18.4041C25.9746 20.0767 25.3012 21.6765 24.1138 22.8548C22.9265 24.0331 21.3216 24.6942 19.6489 24.6942C17.9761 24.6942 16.3712 24.0331 15.1839 22.8548C13.9966 21.6765 13.3231 20.0767 13.3103 18.4041C13.2975 16.7314 13.9463 15.1214 15.1154 13.9251C16.2845 12.7288 17.8791 12.0431 19.5516 12.0174Z" fill="#F4832B"></path><path d="M51.1676 38.8894H62.8341C64.0099 38.8894 65.1375 39.3565 65.9689 40.1879C66.8003 41.0193 67.2673 42.1469 67.2673 43.3227C67.2673 44.4984 66.8003 45.626 65.9689 46.4574C65.1375 47.2888 64.0099 47.7559 62.8341 47.7559H51.1676C49.9919 47.7559 48.8642 47.2888 48.0328 46.4574C47.2014 45.626 46.7344 44.4984 46.7344 43.3227C46.7344 42.1469 47.2014 41.0193 48.0328 40.1879C48.8642 39.3565 49.9919 38.8894 51.1676 38.8894Z" fill="#F4832B"></path><path d="M8.19582 69.9999H75.4335C77.3415 69.9999 79.1714 69.2419 80.5206 67.8927C81.8698 66.5435 82.6278 64.7136 82.6278 62.8056V54.8335C82.6278 54.3178 82.4229 53.8232 82.0583 53.4586C81.6936 53.0939 81.1991 52.8891 80.6834 52.8891H77.8057V7.54546C77.8057 7.02977 77.6008 6.53521 77.2362 6.17056C76.8715 5.80591 76.377 5.60105 75.8613 5.60105H33.3176H33.0454C31.2982 3.80574 29.2048 2.38373 26.892 1.42117C24.5792 0.458607 22.0951 -0.0244842 19.5901 0.00115473C15.9693 -0.0392817 12.4163 0.983089 9.37074 2.94168C6.32523 4.90028 3.92102 7.70908 2.45579 11.0203C0.990564 14.3316 0.528663 17.9999 1.12728 21.571C1.7259 25.1421 3.35874 28.4592 5.82364 31.1117V52.8891H2.90703C2.39446 52.899 1.90565 53.1071 1.54314 53.4696C1.18063 53.8321 0.972577 54.3209 0.962622 54.8335V62.9611C1.00342 64.8488 1.78469 66.6449 3.13788 67.9617C4.49107 69.2785 6.3077 70.0105 8.19582 69.9999ZM73.9169 9.33432V52.8891H55.2116C54.6991 52.899 54.2103 53.1071 53.8477 53.4696C53.4852 53.8321 53.2772 54.3209 53.2672 54.8335V57.9834H30.3232V54.8335C30.3232 54.3178 30.1183 53.8232 29.7537 53.4586C29.389 53.0939 28.8945 52.8891 28.3788 52.8891H9.67357V34.145C12.6333 36.043 16.074 37.055 19.5901 37.0616C21.5621 37.0259 23.5168 36.6848 25.3844 36.0505L30.2065 44.4115C30.3818 44.7003 30.6267 44.9406 30.9188 45.1105C31.211 45.2803 31.541 45.3742 31.8787 45.3837H45.1007C45.5176 46.6665 46.3282 47.7853 47.4172 48.5811C48.5063 49.377 49.8184 49.8094 51.1673 49.8169H62.8337C64.5252 49.8169 66.1474 49.145 67.3434 47.9489C68.5395 46.7529 69.2114 45.1307 69.2114 43.4393C69.2114 41.7478 68.5395 40.1256 67.3434 38.9296C66.1474 37.7335 64.5252 37.0616 62.8337 37.0616H51.1673C49.8184 37.0691 48.5063 37.5015 47.4172 38.2974C46.3282 39.0932 45.5176 40.212 45.1007 41.4948H33.0065L29.1177 34.4172C33.3233 32.0121 36.4047 28.0388 37.6874 23.3669C38.9702 18.6951 38.3498 13.7053 35.962 9.48987L73.9169 9.33432ZM48.6784 43.2448C48.6784 42.9198 48.743 42.598 48.8686 42.2982C48.9941 41.9984 49.1781 41.7266 49.4097 41.4985C49.6413 41.2705 49.916 41.0909 50.2178 40.9701C50.5195 40.8493 50.8423 40.7897 51.1673 40.7949H62.8337C63.4938 40.7949 64.1268 41.0571 64.5936 41.5238C65.0603 41.9906 65.3226 42.6236 65.3226 43.2837C65.3226 43.9438 65.0603 44.5768 64.5936 45.0436C64.1268 45.5103 63.4938 45.7725 62.8337 45.7725H51.1673C50.5072 45.7725 49.8741 45.5103 49.4074 45.0436C48.9406 44.5768 48.6784 43.9438 48.6784 43.2837V43.2448ZM21.4956 3.88997C24.6881 4.31462 27.652 5.7787 29.9293 8.05604C32.2066 10.3334 33.6707 13.2972 34.0954 16.4897H27.6788C27.3073 14.9945 26.5353 13.6288 25.4459 12.5394C24.3565 11.45 22.9908 10.678 21.4956 10.3065V3.88997ZM19.5512 13.9231C20.7373 13.9231 21.8748 14.3943 22.7135 15.233C23.5521 16.0717 24.0233 17.2092 24.0233 18.3953C24.0233 19.5814 23.5521 20.7189 22.7135 21.5575C21.8748 22.3962 20.7373 22.8674 19.5512 22.8674C18.3651 22.8674 17.2276 22.3962 16.3889 21.5575C15.5502 20.7189 15.079 19.5814 15.079 18.3953C15.079 17.2092 15.5502 16.0717 16.3889 15.233C17.2276 14.3943 18.3651 13.9231 19.5512 13.9231ZM4.85144 18.4342C4.84957 14.8746 6.1428 11.4359 8.48983 8.75971C10.8369 6.08352 14.0774 4.35262 17.6068 3.88997V10.3065C16.16 10.6515 14.8314 11.3761 13.758 12.4057C12.6847 13.4353 11.9054 14.7325 11.5005 16.1637C11.0957 17.5949 11.0799 19.1081 11.4549 20.5474C11.8299 21.9867 12.582 23.2999 13.6337 24.3516C14.6854 25.4033 15.9986 26.1554 17.4379 26.5304C18.8772 26.9054 20.3905 26.8896 21.8216 26.4848C23.2528 26.0799 24.5501 25.3007 25.5797 24.2273C26.6092 23.1539 27.3339 21.8253 27.6788 20.3786H34.0954C33.5606 24.0383 31.666 27.3619 28.7893 29.6866C25.9126 32.0112 22.2653 33.166 18.5748 32.9207C14.8844 32.6753 11.4221 31.0478 8.8785 28.3627C6.33489 25.6777 4.89694 22.1324 4.85144 18.4342ZM4.85144 56.7779H26.4344V59.9278C26.4443 60.4404 26.6524 60.9292 27.0149 61.2917C27.3774 61.6542 27.8662 61.8623 28.3788 61.8723H55.2116C55.7273 61.8723 56.2219 61.6674 56.5865 61.3028C56.9512 60.9381 57.156 60.4435 57.156 59.9278V56.7779H78.739V62.9611C78.739 63.8378 78.3907 64.6786 77.7708 65.2985C77.1509 65.9184 76.3102 66.2666 75.4335 66.2666H8.19582C7.75848 66.2718 7.32446 66.1901 6.91892 66.0263C6.51338 65.8624 6.14438 65.6198 5.8333 65.3123C5.52223 65.0049 5.27527 64.6387 5.10672 64.2351C4.93818 63.8315 4.85141 63.3985 4.85144 62.9611V56.7779Z" fill="black"></path><path d="M62.7951 28.4285H48.3287C47.813 28.4285 47.3184 28.6333 46.9538 28.998C46.5891 29.3626 46.3843 29.8572 46.3843 30.3729C46.3843 30.8886 46.5891 31.3831 46.9538 31.7478C47.3184 32.1124 47.813 32.3173 48.3287 32.3173H62.7951C63.3108 32.3173 63.8054 32.1124 64.17 31.7478C64.5346 31.3831 64.7395 30.8886 64.7395 30.3729C64.7295 29.8603 64.5215 29.3715 64.159 29.009C63.7965 28.6465 63.3077 28.4384 62.7951 28.4285Z" fill="black"></path><path d="M48.3287 26.2897H57.273C57.7887 26.2897 58.2832 26.0848 58.6479 25.7202C59.0125 25.3555 59.2174 24.861 59.2174 24.3453C59.2174 23.8296 59.0125 23.335 58.6479 22.9704C58.2832 22.6057 57.7887 22.4009 57.273 22.4009H48.3287C47.813 22.4009 47.3184 22.6057 46.9538 22.9704C46.5891 23.335 46.3843 23.8296 46.3843 24.3453C46.3843 24.861 46.5891 25.3555 46.9538 25.7202C47.3184 26.0848 47.813 26.2897 48.3287 26.2897Z" fill="black"></path><path d="M48.3287 20.2619H62.7951C63.3108 20.2619 63.8054 20.057 64.17 19.6924C64.5346 19.3277 64.7395 18.8331 64.7395 18.3175C64.7395 17.8018 64.5346 17.3072 64.17 16.9426C63.8054 16.5779 63.3108 16.373 62.7951 16.373H48.3287C47.813 16.373 47.3184 16.5779 46.9538 16.9426C46.5891 17.3072 46.3843 17.8018 46.3843 18.3175C46.3843 18.8331 46.5891 19.3277 46.9538 19.6924C47.3184 20.057 47.813 20.2619 48.3287 20.2619Z" fill="black"></path></svg>