<svg xmlns="http://www.w3.org/2000/svg" width="85" height="84" viewBox="0 0 85 84" fill="none"><g clip-path="url(#clip0_1_1135)"><path d="M48.5732 34.4531H36.7607C35.8546 34.4531 35.1201 35.1878 35.1201 36.0938V47.9062C35.1201 48.8122 35.8546 49.5469 36.7607 49.5469H48.5732C49.4794 49.5469 50.2139 48.8122 50.2139 47.9062V36.0938C50.2139 35.1878 49.4794 34.4531 48.5732 34.4531ZM46.9326 46.2656H38.4014V37.7344H46.9326V46.2656Z" fill="#F4832B"></path><path d="M79.0889 8.85938C76.013 8.85938 73.5107 11.3617 73.5107 14.4375C73.5107 17.5133 76.013 20.0156 79.0889 20.0156C82.1647 20.0156 84.667 17.5133 84.667 14.4375C84.667 11.3617 82.1647 8.85938 79.0889 8.85938ZM79.0889 16.7344C77.8223 16.7344 76.792 15.7041 76.792 14.4375C76.792 13.1709 77.8223 12.1406 79.0889 12.1406C80.3554 12.1406 81.3857 13.1709 81.3857 14.4375C81.3857 15.7041 80.3554 16.7344 79.0889 16.7344Z" fill="#F4832B"></path><path d="M70.6541 13.2727C70.3489 12.9677 69.9256 12.792 69.4941 12.792C69.061 12.792 68.6377 12.9675 68.3326 13.2727C68.0274 13.5779 67.8535 14.0011 67.8535 14.4326C67.8535 14.8641 68.0274 15.2874 68.3326 15.5925C68.6394 15.8975 69.061 16.0732 69.4941 16.0732C69.9256 16.0732 70.3489 15.8977 70.6541 15.5925C70.9592 15.2874 71.1348 14.8641 71.1348 14.4326C71.1348 14.0011 70.9592 13.5779 70.6541 13.2727Z" fill="#F4832B"></path><path d="M68.8407 43.6406C69.5431 45.9183 71.6674 47.5781 74.1723 47.5781C77.2481 47.5781 79.7504 45.0758 79.7504 42C79.7504 38.9242 77.248 36.4219 74.1723 36.4219C71.6672 36.4219 69.5429 38.0817 68.8407 40.3594H58.7453V27.5625C58.7453 26.6565 58.0108 25.9219 57.1047 25.9219H54.4797V16.0732H63.6708C64.5769 16.0732 65.3114 15.3385 65.3114 14.4326C65.3114 13.5266 64.5769 12.792 63.6708 12.792H52.8391C51.933 12.792 51.1985 13.5266 51.1985 14.4326V25.9219H44.3078V15.8266C46.5853 15.1243 48.2453 13.0001 48.2453 10.4951C48.2453 7.41923 45.743 4.91695 42.6672 4.91695C39.5914 4.91695 37.0891 7.41923 37.0891 10.4951C37.0891 13.0001 38.7491 15.1244 41.0266 15.8266V25.9219H28.2297C27.3236 25.9219 26.5891 26.6565 26.5891 27.5625V30.1875H16.7402V10.9111C19.0204 10.2104 20.6828 8.085 20.6828 5.57812C20.6828 2.50228 18.1805 0 15.1047 0C12.0289 0 9.52657 2.50228 9.52657 5.57812C9.52657 8.08139 11.1841 10.2044 13.459 10.9082V31.8281C13.459 32.7341 14.1935 33.4688 15.0996 33.4688H26.5891V40.3594H16.4936C15.7913 38.0817 13.667 36.4219 11.1621 36.4219C8.08627 36.4219 5.58398 38.9242 5.58398 42C5.58398 45.0758 8.08627 47.5781 11.1621 47.5781C13.6672 47.5781 15.7915 45.9183 16.4936 43.6406H26.5891V56.4375C26.5891 57.3435 27.3236 58.0781 28.2297 58.0781H30.8547V67.9268H21.6636C20.7575 67.9268 20.023 68.6615 20.023 69.5674C20.023 70.4734 20.7575 71.208 21.6636 71.208H32.4953C33.4014 71.208 34.1359 70.4734 34.1359 69.5674V58.0781H41.0266V68.1734C38.7491 68.8757 37.0891 70.9999 37.0891 73.5049C37.0891 76.5808 39.5914 79.083 42.6672 79.083C45.743 79.083 48.2453 76.5808 48.2453 73.5049C48.2453 70.9999 46.5853 68.8756 44.3078 68.1734V58.0781H57.1047C58.0108 58.0781 58.7453 57.3435 58.7453 56.4375V53.8125H68.5942V73.0889C66.314 73.7896 64.6516 75.915 64.6516 78.4219C64.6516 81.4977 67.1539 84 70.2297 84C73.3055 84 75.8078 81.4977 75.8078 78.4219C75.8078 75.9186 74.1503 73.7956 71.8754 73.0918V52.1719C71.8754 51.2659 71.1409 50.5312 70.2348 50.5312H58.7453V43.6406H68.8407ZM74.1723 39.7031C75.4389 39.7031 76.4692 40.7334 76.4692 42C76.4692 43.2666 75.4387 44.2969 74.1723 44.2969C72.9057 44.2969 71.8754 43.2666 71.8754 42C71.8754 40.7334 72.9057 39.7031 74.1723 39.7031ZM15.1047 7.875C13.8381 7.875 12.8078 6.84469 12.8078 5.57812C12.8078 4.31156 13.8381 3.28125 15.1047 3.28125C16.3713 3.28125 17.4016 4.31156 17.4016 5.57812C17.4016 6.84469 16.3713 7.875 15.1047 7.875ZM11.1621 44.2969C9.89555 44.2969 8.86524 43.2666 8.86524 42C8.86524 40.7334 9.89555 39.7031 11.1621 39.7031C12.4287 39.7031 13.459 40.7334 13.459 42C13.459 43.2666 12.4287 44.2969 11.1621 44.2969ZM40.3703 10.4951C40.3703 9.22852 41.4006 8.1982 42.6672 8.1982C43.9338 8.1982 44.9641 9.22852 44.9641 10.4951C44.9641 11.7616 43.9338 12.792 42.6672 12.792C41.4006 12.792 40.3703 11.7616 40.3703 10.4951ZM44.9641 73.5049C44.9641 74.7715 43.9338 75.8018 42.6672 75.8018C41.4006 75.8018 40.3703 74.7715 40.3703 73.5049C40.3703 72.2384 41.4006 71.208 42.6672 71.208C43.9338 71.208 44.9641 72.2384 44.9641 73.5049ZM55.4641 54.7969H29.8703V29.2031H55.4641V54.7969ZM70.2297 76.125C71.4963 76.125 72.5266 77.1553 72.5266 78.4219C72.5266 79.6884 71.4963 80.7188 70.2297 80.7188C68.9631 80.7188 67.9328 79.6884 67.9328 78.4219C67.9328 77.1553 68.9631 76.125 70.2297 76.125Z" fill="black"></path><path d="M6.24512 63.9844C3.16927 63.9844 0.666992 66.4867 0.666992 69.5625C0.666992 72.6383 3.16927 75.1406 6.24512 75.1406C9.32096 75.1406 11.8232 72.6383 11.8232 69.5625C11.8232 66.4867 9.32096 63.9844 6.24512 63.9844ZM6.24512 71.8594C4.97855 71.8594 3.94824 70.8291 3.94824 69.5625C3.94824 68.2959 4.97855 67.2656 6.24512 67.2656C7.51168 67.2656 8.54199 68.2959 8.54199 69.5625C8.54199 70.8291 7.51168 71.8594 6.24512 71.8594Z" fill="#F4832B"></path><path d="M17.0027 68.4075C16.6975 68.1023 16.2743 67.9268 15.8428 67.9268C15.4113 67.9268 14.988 68.1021 14.6829 68.4075C14.3777 68.7125 14.2021 69.1357 14.2021 69.5674C14.2021 69.9989 14.3777 70.4221 14.6829 70.7271C14.988 71.0323 15.4113 71.208 15.8428 71.208C16.2743 71.208 16.6975 71.0325 17.0027 70.7271C17.3079 70.4221 17.4834 69.9989 17.4834 69.5674C17.4834 69.1357 17.3079 68.7125 17.0027 68.4075Z" fill="#F4832B"></path></g><defs><clipPath id="clip0_1_1135"><rect width="84" height="84" fill="white" transform="translate(0.666992)"></rect></clipPath></defs></svg>