<svg xmlns="http://www.w3.org/2000/svg" width="84" height="84" viewBox="0 0 84 84" fill="none"><g clip-path="url(#clip0_1_1156)"><path d="M75.2075 70.669L62.8862 60.8472C61.8313 60.0062 60.2223 60.7845 60.2223 62.1303V66.7954H36.8114C21.4776 66.7954 9.00272 54.3204 9.00272 38.9867C9.00272 38.0805 8.26787 37.3457 7.36171 37.3457C6.45555 37.3457 5.7207 38.0805 5.7207 38.9867V46.7295C5.7207 63.8729 19.6679 77.82 36.8114 77.82H60.2221V82.3688C60.2221 83.7332 61.8743 84.5084 62.9226 83.6221L75.2439 73.2053C76.0218 72.5479 76.004 71.3037 75.2075 70.669ZM63.5043 78.8326V76.179C63.5043 75.2728 62.7695 74.538 61.8633 74.538H36.8114C24.4677 74.538 13.9766 66.4534 10.3542 55.3018C15.8383 64.1629 25.6466 70.0774 36.8114 70.0774H61.8631C62.7693 70.0774 63.5042 69.3425 63.5042 68.4364V65.537L71.5986 71.9893L63.5043 78.8326Z" fill="black"></path><path d="M47.1887 6.18H22.1366V1.63113C22.1366 0.264172 20.4824 -0.506773 19.4361 0.377894L7.11478 10.7947C6.73965 11.1119 6.52632 11.5804 6.53337 12.0715C6.54043 12.5627 6.76722 13.025 7.15138 13.331L19.4727 23.1528C20.5275 23.9938 22.1366 23.2155 22.1366 21.8697V17.2046H34.9666C35.9469 17.2046 36.7271 16.3101 36.592 15.3381C36.4752 14.4607 35.6816 13.8348 34.8018 13.9226H20.4955C19.5894 13.9226 18.8545 14.6574 18.8545 15.5636V18.4629L10.7601 12.0105L18.8545 5.16734V7.82101C18.8545 8.72717 19.5894 9.46201 20.4955 9.46201H47.1887C59.5134 9.46201 69.9916 17.522 73.629 28.6473C72.5752 26.9483 71.3513 25.3419 69.9666 23.8522C64.6473 18.129 57.4474 14.6392 49.6866 14.022C48.7279 13.9167 47.8636 14.6885 47.8636 15.6537C47.8636 16.5106 48.523 17.2232 49.3774 17.2898C56.335 17.8311 62.7935 20.9551 67.5627 26.0866C72.3571 31.2447 74.9975 37.9665 74.9975 45.0131C74.9975 45.9193 75.7323 46.6541 76.6385 46.6541C77.5446 46.6541 78.2795 45.9193 78.2795 45.0131V37.2705C78.2793 20.1271 64.3321 6.18 47.1887 6.18Z" fill="black"></path><path d="M20.9932 42.0754C20.9932 53.7024 30.4524 63.1615 42.0793 63.1615C53.7061 63.1615 63.1654 53.7022 63.1654 42.0754C63.1654 30.4485 53.7061 20.9893 42.0793 20.9893C30.4524 20.9893 20.9932 30.4483 20.9932 42.0754ZM42.0793 24.2713C51.8964 24.2713 59.8834 32.2582 59.8834 42.0754C59.8834 51.8925 51.8964 59.8795 42.0793 59.8795C32.2621 59.8795 24.2752 51.8925 24.2752 42.0754C24.2752 32.2582 32.2621 24.2713 42.0793 24.2713Z" fill="#F4832B"></path><path d="M42.523 17.173C43.995 16.8745 44.312 14.828 42.9763 14.1173C42.3466 13.7823 41.5483 13.8979 41.043 14.4031C40.5514 14.8948 40.4261 15.6665 40.7327 16.2886C41.0551 16.9432 41.8048 17.3189 42.523 17.173Z" fill="black"></path><path d="M45.1071 40.3044C44.7053 40.1624 44.3035 40.0177 43.9076 39.8696V33.194C44.8273 33.4564 45.378 33.9107 45.4497 33.9724C45.7421 34.2438 46.1327 34.411 46.5631 34.411C47.4683 34.411 48.202 33.6773 48.202 32.7721C48.202 32.2903 47.9928 31.8584 47.6618 31.5586L47.6674 31.5525C47.5828 31.4748 46.1898 30.2214 43.9076 29.8367V29.3715C43.9076 28.4653 43.1728 27.7305 42.2666 27.7305C41.3605 27.7305 40.6256 28.4653 40.6256 29.3715V29.9575C40.443 30.0005 40.2587 30.0476 40.0706 30.1042C37.855 30.7714 36.2005 32.6167 35.7527 34.9194C35.3403 37.0394 36.0356 39.0613 37.6121 40.3278C38.4241 40.9801 39.4316 41.5427 40.6256 42.0776V50.6614C39.556 50.5618 38.8376 50.2695 37.6441 49.4887C36.8856 48.9927 35.8685 49.2053 35.3724 49.9636C34.8764 50.7221 35.0887 51.739 35.8473 52.2353C37.7127 53.4557 39.0033 53.8428 40.6256 53.9515V54.7104C40.6256 55.6166 41.3605 56.3514 42.2666 56.3514C43.1728 56.3514 43.9076 55.6166 43.9076 54.7104V53.8051C47.0991 53.093 49.1482 50.4105 49.5931 47.7647C50.1594 44.396 48.3986 41.468 45.1071 40.3044ZM40.6258 38.4082C39.5061 37.7659 38.7055 36.9286 38.9745 35.5459C39.1241 34.7771 39.6359 33.8567 40.6258 33.3972V38.4082ZM46.3567 47.2202C46.1479 48.4621 45.3164 49.778 43.9078 50.3762V43.3611C45.5992 43.9607 46.6624 45.4008 46.3567 47.2202Z" fill="#F4832B"></path></g><defs><clipPath id="clip0_1_1156"><rect width="84" height="84" fill="white"></rect></clipPath></defs></svg>