<svg xmlns="http://www.w3.org/2000/svg" width="85" height="84" viewBox="0 0 85 84" fill="none"><path d="M79.0841 3.93756H21.334C21.1612 3.93585 20.9898 3.96863 20.8298 4.03398C20.6697 4.09933 20.5244 4.19594 20.4021 4.31816C20.2799 4.44038 20.1833 4.58575 20.118 4.74577C20.0526 4.90578 20.0198 5.07723 20.0215 5.25006V21.0001C20.0215 21.3482 20.1598 21.682 20.406 21.9281C20.6521 22.1743 20.986 22.3126 21.334 22.3126C21.6821 22.3126 22.016 22.1743 22.2621 21.9281C22.5083 21.682 22.6465 21.3482 22.6465 21.0001V6.56256H77.7716V68.2501C77.7716 70.6867 76.8036 73.0236 75.0806 74.7466C73.3576 76.4696 71.0207 77.4376 68.5841 77.4376C66.1474 77.4376 63.8105 76.4696 62.0875 74.7466C60.3645 73.0236 59.3965 70.6867 59.3965 68.2501C59.3983 68.0772 59.3655 67.9058 59.3001 67.7458C59.2348 67.5858 59.1382 67.4404 59.0159 67.3182C58.8937 67.196 58.7484 67.0993 58.5883 67.034C58.4283 66.9686 58.2569 66.9359 58.084 66.9376H22.6465V63.0001C22.6465 62.652 22.5083 62.3181 22.2621 62.072C22.016 61.8259 21.6821 61.6876 21.334 61.6876C20.986 61.6876 20.6521 61.8259 20.406 62.072C20.1598 62.3181 20.0215 62.652 20.0215 63.0001V66.9376H5.58405C5.41121 66.9359 5.23977 66.9686 5.07975 67.034C4.91974 67.0993 4.77437 67.196 4.65215 67.3182C4.52993 67.4404 4.43331 67.5858 4.36796 67.7458C4.30261 67.9058 4.26983 68.0772 4.27155 68.2501C4.27628 71.3815 5.52232 74.3833 7.73657 76.5975C9.95082 78.8118 12.9526 80.0578 16.084 80.0626H68.5841C71.7155 80.0578 74.7173 78.8118 76.9315 76.5975C79.1458 74.3833 80.3918 71.3815 80.3966 68.2501V5.25006C80.3983 5.07723 80.3655 4.90578 80.3001 4.74577C80.2348 4.58575 80.1382 4.44038 80.0159 4.31816C79.8937 4.19594 79.7484 4.09933 79.5883 4.03398C79.4283 3.96863 79.2569 3.93585 79.0841 3.93756ZM16.084 77.4376C13.8769 77.4339 11.7448 76.6362 10.0772 75.1904C8.40964 73.7445 7.31793 71.7469 7.00155 69.5626H56.8503C57.1964 72.6507 58.7425 75.4791 61.1552 77.4376H16.084Z" fill="black"></path><path d="M29.209 14.4375H71.209C71.5571 14.4375 71.8909 14.2992 72.1371 14.0531C72.3832 13.8069 72.5215 13.4731 72.5215 13.125C72.5215 12.7769 72.3832 12.4431 72.1371 12.1969C71.8909 11.9508 71.5571 11.8125 71.209 11.8125H29.209C28.8609 11.8125 28.527 11.9508 28.2809 12.1969C28.0348 12.4431 27.8965 12.7769 27.8965 13.125C27.8965 13.4731 28.0348 13.8069 28.2809 14.0531C28.527 14.2992 28.8609 14.4375 29.209 14.4375Z" fill="black"></path><path d="M29.209 22.3125H71.209C71.5571 22.3125 71.8909 22.1742 72.1371 21.9281C72.3832 21.6819 72.5215 21.3481 72.5215 21C72.5215 20.6519 72.3832 20.3181 72.1371 20.0719C71.8909 19.8258 71.5571 19.6875 71.209 19.6875H29.209C28.8609 19.6875 28.527 19.8258 28.2809 20.0719C28.0348 20.3181 27.8965 20.6519 27.8965 21C27.8965 21.3481 28.0348 21.6819 28.2809 21.9281C28.527 22.1742 28.8609 22.3125 29.209 22.3125Z" fill="black"></path><path d="M21.334 24.9375C17.9593 24.9375 14.6605 25.9382 11.8546 27.813C9.04866 29.6879 6.86172 32.3527 5.5703 35.4705C4.27888 38.5882 3.94098 42.0189 4.59934 45.3287C5.2577 48.6385 6.88275 51.6788 9.26898 54.065C11.6552 56.4512 14.6955 58.0763 18.0053 58.7346C21.3151 59.393 24.7458 59.0551 27.8635 57.7637C30.9813 56.4723 33.6461 54.2853 35.5209 51.4794C37.3958 48.6735 38.3965 45.3746 38.3965 42C38.3877 37.4774 36.5873 33.1426 33.3893 29.9447C30.1914 26.7467 25.8566 24.9463 21.334 24.9375ZM16.084 32.8125C16.8628 32.8125 17.624 33.0434 18.2716 33.4761C18.9191 33.9087 19.4237 34.5237 19.7218 35.2432C20.0198 35.9627 20.0978 36.7544 19.9458 37.5182C19.7939 38.282 19.4189 38.9836 18.8682 39.5342C18.3176 40.0849 17.616 40.4599 16.8522 40.6118C16.0884 40.7638 15.2967 40.6858 14.5772 40.3878C13.8577 40.0898 13.2427 39.5851 12.8101 38.9376C12.3774 38.29 12.1465 37.5288 12.1465 36.75C12.1458 36.2327 12.2472 35.7204 12.4448 35.2424C12.6424 34.7643 12.9324 34.33 13.2982 33.9642C13.664 33.5985 14.0983 33.3084 14.5764 33.1108C15.0544 32.9132 15.5667 32.8118 16.084 32.8125ZM26.584 51.1875C25.8052 51.1875 25.044 50.9566 24.3964 50.5239C23.7489 50.0913 23.2442 49.4763 22.9462 48.7568C22.6482 48.0373 22.5702 47.2456 22.7221 46.4818C22.8741 45.718 23.2491 45.0164 23.7998 44.4658C24.3504 43.9151 25.052 43.5401 25.8158 43.3882C26.5796 43.2362 27.3713 43.3142 28.0908 43.6122C28.8103 43.9102 29.4252 44.4149 29.8579 45.0624C30.2906 45.71 30.5215 46.4712 30.5215 47.25C30.5222 47.7673 30.4208 48.2796 30.2232 48.7576C30.0255 49.2357 29.7355 49.67 29.3698 50.0358C29.004 50.4015 28.5697 50.6916 28.0916 50.8892C27.6136 51.0868 27.1013 51.1882 26.584 51.1875ZM30.1277 35.0438L14.3777 50.7938C14.2593 50.9182 14.1167 51.0173 13.9588 51.085C13.8009 51.1527 13.6308 51.1876 13.459 51.1876C13.2872 51.1876 13.1171 51.1527 12.9592 51.085C12.8013 51.0173 12.6587 50.9182 12.5402 50.7938C12.4158 50.6753 12.3168 50.5327 12.2491 50.3748C12.1814 50.2169 12.1465 50.0468 12.1465 49.875C12.1465 49.7032 12.1814 49.5331 12.2491 49.3752C12.3168 49.2173 12.4158 49.0747 12.5402 48.9562L28.2902 33.2062C28.5347 32.9666 28.8639 32.8332 29.2063 32.8349C29.5486 32.8367 29.8764 32.9734 30.1185 33.2155C30.3606 33.4576 30.4973 33.7854 30.4991 34.1277C30.5008 34.4701 30.3674 34.7992 30.1277 35.0438Z" fill="#F4832B"></path><path d="M16.084 38.0625C16.8089 38.0625 17.3965 37.4749 17.3965 36.75C17.3965 36.0251 16.8089 35.4375 16.084 35.4375C15.3591 35.4375 14.7715 36.0251 14.7715 36.75C14.7715 37.4749 15.3591 38.0625 16.084 38.0625Z" fill="#F4832B"></path><path d="M26.584 48.5625C27.3089 48.5625 27.8965 47.9749 27.8965 47.25C27.8965 46.5251 27.3089 45.9375 26.584 45.9375C25.8591 45.9375 25.2715 46.5251 25.2715 47.25C25.2715 47.9749 25.8591 48.5625 26.584 48.5625Z" fill="#F4832B"></path><path d="M71.209 35.4376H44.959C44.7862 35.4358 44.6148 35.4686 44.4548 35.534C44.2947 35.5993 44.1494 35.6959 44.0271 35.8182C43.9049 35.9404 43.8083 36.0858 43.743 36.2458C43.6776 36.4058 43.6448 36.5772 43.6465 36.7501V57.7501C43.6448 57.9229 43.6776 58.0943 43.743 58.2543C43.8083 58.4144 43.905 58.5597 44.0272 58.6819C44.1494 58.8042 44.2948 58.9008 44.4548 58.9661C44.6148 59.0315 44.7862 59.0643 44.959 59.0626H71.209C71.3819 59.0643 71.5533 59.0315 71.7133 58.9661C71.8733 58.9008 72.0187 58.8042 72.1409 58.6819C72.2631 58.5597 72.3598 58.4144 72.4251 58.2543C72.4905 58.0943 72.5233 57.9229 72.5215 57.7501V36.7501C72.5233 36.5772 72.4905 36.4058 72.4251 36.2458C72.3598 36.0858 72.2632 35.9404 72.1409 35.8182C72.0187 35.6959 71.8734 35.5993 71.7133 35.534C71.5533 35.4686 71.3819 35.4358 71.209 35.4376ZM51.5215 56.4376H46.2715V43.3126H51.5215V56.4376ZM51.5215 40.6876H46.2715V38.0626H51.5215V40.6876ZM62.0215 56.4376H54.1465V43.3126H62.0215V56.4376ZM62.0215 40.6876H54.1465V38.0626H62.0215V40.6876ZM69.8965 56.4376H64.6465V43.3126H69.8965V56.4376ZM69.8965 40.6876H64.6465V38.0626H69.8965V40.6876Z" fill="black"></path><path d="M71.209 27.5625H44.959C44.6109 27.5625 44.277 27.7008 44.0309 27.9469C43.7848 28.1931 43.6465 28.5269 43.6465 28.875C43.6465 29.2231 43.7848 29.5569 44.0309 29.8031C44.277 30.0492 44.6109 30.1875 44.959 30.1875H71.209C71.5571 30.1875 71.8909 30.0492 72.1371 29.8031C72.3832 29.5569 72.5215 29.2231 72.5215 28.875C72.5215 28.5269 72.3832 28.1931 72.1371 27.9469C71.8909 27.7008 71.5571 27.5625 71.209 27.5625Z" fill="black"></path></svg>