<svg xmlns="http://www.w3.org/2000/svg" width="85" height="84" viewBox="0 0 85 84" fill="none"><g clip-path="url(#clip0_1_1167)"><path d="M79.084 31.5H59.834V17.5H72.084C72.5481 17.5 72.9932 17.3156 73.3214 16.9874C73.6496 16.6592 73.834 16.2141 73.834 15.75V8.75C73.834 6.42936 72.9121 4.20376 71.2712 2.56282C69.6302 0.921872 67.4046 0 65.084 0L9.08398 0C6.76334 0 4.53774 0.921872 2.8968 2.56282C1.25586 4.20376 0.333984 6.42936 0.333984 8.75L0.333984 75.25C0.333984 75.7141 0.518359 76.1592 0.846548 76.4874C1.17474 76.8156 1.61986 77 2.08398 77H42.334V78.75C42.334 80.1424 42.8871 81.4777 43.8717 82.4623C44.8562 83.4469 46.1916 84 47.584 84H79.084C80.4764 84 81.8117 83.4469 82.7963 82.4623C83.7809 81.4777 84.334 80.1424 84.334 78.75V36.75C84.334 35.3576 83.7809 34.0223 82.7963 33.0377C81.8117 32.0531 80.4764 31.5 79.084 31.5ZM70.334 8.75V14H59.834V8.75C59.834 7.35761 60.3871 6.02226 61.3717 5.03769C62.3562 4.05312 63.6916 3.5 65.084 3.5C66.4764 3.5 67.8117 4.05312 68.7963 5.03769C69.7809 6.02226 70.334 7.35761 70.334 8.75ZM3.83398 73.5V8.75C3.83398 7.35761 4.38711 6.02226 5.37167 5.03769C6.35624 4.05312 7.6916 3.5 9.08398 3.5H58.084C55.7565 6.58 56.334 6.5625 56.334 31.5H47.584C46.1916 31.5 44.8562 32.0531 43.8717 33.0377C42.8871 34.0223 42.334 35.3576 42.334 36.75V73.5H3.83398ZM80.834 78.75C80.834 79.2141 80.6496 79.6592 80.3214 79.9874C79.9932 80.3156 79.5481 80.5 79.084 80.5H47.584C47.1199 80.5 46.6747 80.3156 46.3465 79.9874C46.0184 79.6592 45.834 79.2141 45.834 78.75V36.75C45.834 36.2859 46.0184 35.8408 46.3465 35.5126C46.6747 35.1844 47.1199 35 47.584 35H79.084C79.5481 35 79.9932 35.1844 80.3214 35.5126C80.6496 35.8408 80.834 36.2859 80.834 36.75V78.75Z" fill="black"></path><path d="M75.584 38.5H51.084C50.6199 38.5 50.1747 38.6844 49.8465 39.0126C49.5184 39.3408 49.334 39.7859 49.334 40.25V54.25C49.334 54.7141 49.5184 55.1593 49.8465 55.4874C50.1747 55.8156 50.6199 56 51.084 56H75.584C76.0481 56 76.4932 55.8156 76.8214 55.4874C77.1496 55.1593 77.334 54.7141 77.334 54.25V40.25C77.334 39.7859 77.1496 39.3408 76.8214 39.0126C76.4932 38.6844 76.0481 38.5 75.584 38.5ZM73.834 52.5H52.834V42H73.834V52.5Z" fill="#F4832B"></path><path d="M65.084 59.5H61.584C61.1199 59.5 60.6747 59.6844 60.3465 60.0126C60.0184 60.3408 59.834 60.7859 59.834 61.25C59.834 61.7141 60.0184 62.1592 60.3465 62.4874C60.6747 62.8156 61.1199 63 61.584 63H65.084C65.5481 63 65.9932 62.8156 66.3214 62.4874C66.6496 62.1592 66.834 61.7141 66.834 61.25C66.834 60.7859 66.6496 60.3408 66.3214 60.0126C65.9932 59.6844 65.5481 59.5 65.084 59.5Z" fill="#F4832B"></path><path d="M54.584 59.5H51.084C50.6199 59.5 50.1747 59.6844 49.8465 60.0126C49.5184 60.3408 49.334 60.7859 49.334 61.25C49.334 61.7141 49.5184 62.1592 49.8465 62.4874C50.1747 62.8156 50.6199 63 51.084 63H54.584C55.0481 63 55.4932 62.8156 55.8214 62.4874C56.1496 62.1592 56.334 61.7141 56.334 61.25C56.334 60.7859 56.1496 60.3408 55.8214 60.0126C55.4932 59.6844 55.0481 59.5 54.584 59.5Z" fill="#F4832B"></path><path d="M75.584 59.5H72.084C71.6199 59.5 71.1747 59.6844 70.8465 60.0126C70.5184 60.3408 70.334 60.7859 70.334 61.25C70.334 61.7141 70.5184 62.1592 70.8465 62.4874C71.1747 62.8156 71.6199 63 72.084 63H75.584C76.0481 63 76.4932 62.8156 76.8214 62.4874C77.1496 62.1592 77.334 61.7141 77.334 61.25C77.334 60.7859 77.1496 60.3408 76.8214 60.0126C76.4932 59.6844 76.0481 59.5 75.584 59.5Z" fill="#F4832B"></path><path d="M65.084 66.5H61.584C61.1199 66.5 60.6747 66.6844 60.3465 67.0126C60.0184 67.3408 59.834 67.7859 59.834 68.25C59.834 68.7141 60.0184 69.1592 60.3465 69.4874C60.6747 69.8156 61.1199 70 61.584 70H65.084C65.5481 70 65.9932 69.8156 66.3214 69.4874C66.6496 69.1592 66.834 68.7141 66.834 68.25C66.834 67.7859 66.6496 67.3408 66.3214 67.0126C65.9932 66.6844 65.5481 66.5 65.084 66.5Z" fill="#F4832B"></path><path d="M54.584 66.5H51.084C50.6199 66.5 50.1747 66.6844 49.8465 67.0126C49.5184 67.3408 49.334 67.7859 49.334 68.25C49.334 68.7141 49.5184 69.1592 49.8465 69.4874C50.1747 69.8156 50.6199 70 51.084 70H54.584C55.0481 70 55.4932 69.8156 55.8214 69.4874C56.1496 69.1592 56.334 68.7141 56.334 68.25C56.334 67.7859 56.1496 67.3408 55.8214 67.0126C55.4932 66.6844 55.0481 66.5 54.584 66.5Z" fill="#F4832B"></path><path d="M75.584 66.5H72.084C71.6199 66.5 71.1747 66.6844 70.8465 67.0126C70.5184 67.3408 70.334 67.7859 70.334 68.25C70.334 68.7141 70.5184 69.1592 70.8465 69.4874C71.1747 69.8156 71.6199 70 72.084 70H75.584C76.0481 70 76.4932 69.8156 76.8214 69.4874C77.1496 69.1592 77.334 68.7141 77.334 68.25C77.334 67.7859 77.1496 67.3408 76.8214 67.0126C76.4932 66.6844 76.0481 66.5 75.584 66.5Z" fill="#F4832B"></path><path d="M65.084 73.5H61.584C61.1199 73.5 60.6747 73.6844 60.3465 74.0126C60.0184 74.3408 59.834 74.7859 59.834 75.25C59.834 75.7141 60.0184 76.1592 60.3465 76.4874C60.6747 76.8156 61.1199 77 61.584 77H65.084C65.5481 77 65.9932 76.8156 66.3214 76.4874C66.6496 76.1592 66.834 75.7141 66.834 75.25C66.834 74.7859 66.6496 74.3408 66.3214 74.0126C65.9932 73.6844 65.5481 73.5 65.084 73.5Z" fill="#F4832B"></path><path d="M54.584 73.5H51.084C50.6199 73.5 50.1747 73.6844 49.8465 74.0126C49.5184 74.3408 49.334 74.7859 49.334 75.25C49.334 75.7141 49.5184 76.1592 49.8465 76.4874C50.1747 76.8156 50.6199 77 51.084 77H54.584C55.0481 77 55.4932 76.8156 55.8214 76.4874C56.1496 76.1592 56.334 75.7141 56.334 75.25C56.334 74.7859 56.1496 74.3408 55.8214 74.0126C55.4932 73.6844 55.0481 73.5 54.584 73.5Z" fill="#F4832B"></path><path d="M75.584 73.5H72.084C71.6199 73.5 71.1747 73.6844 70.8465 74.0126C70.5184 74.3408 70.334 74.7859 70.334 75.25C70.334 75.7141 70.5184 76.1592 70.8465 76.4874C71.1747 76.8156 71.6199 77 72.084 77H75.584C76.0481 77 76.4932 76.8156 76.8214 76.4874C77.1496 76.1592 77.334 75.7141 77.334 75.25C77.334 74.7859 77.1496 74.3408 76.8214 74.0126C76.4932 73.6844 76.0481 73.5 75.584 73.5Z" fill="#F4832B"></path><path d="M37.084 33.25H12.584C12.1199 33.25 11.6747 33.4344 11.3465 33.7626C11.0184 34.0908 10.834 34.5359 10.834 35C10.834 35.4641 11.0184 35.9092 11.3465 36.2374C11.6747 36.5656 12.1199 36.75 12.584 36.75H37.084C37.5481 36.75 37.9932 36.5656 38.3214 36.2374C38.6496 35.9092 38.834 35.4641 38.834 35C38.834 34.5359 38.6496 34.0908 38.3214 33.7626C37.9932 33.4344 37.5481 33.25 37.084 33.25Z" fill="black"></path><path d="M37.084 50.75H12.584C12.1199 50.75 11.6747 50.9344 11.3465 51.2626C11.0184 51.5908 10.834 52.0359 10.834 52.5C10.834 52.9641 11.0184 53.4092 11.3465 53.7374C11.6747 54.0656 12.1199 54.25 12.584 54.25H37.084C37.5481 54.25 37.9932 54.0656 38.3214 53.7374C38.6496 53.4092 38.834 52.9641 38.834 52.5C38.834 52.0359 38.6496 51.5908 38.3214 51.2626C37.9932 50.9344 37.5481 50.75 37.084 50.75Z" fill="black"></path><path d="M12.584 19.25H47.584C48.0481 19.25 48.4932 19.0656 48.8214 18.7374C49.1496 18.4092 49.334 17.9641 49.334 17.5C49.334 17.0359 49.1496 16.5908 48.8214 16.2626C48.4932 15.9344 48.0481 15.75 47.584 15.75H12.584C12.1199 15.75 11.6747 15.9344 11.3465 16.2626C11.0184 16.5908 10.834 17.0359 10.834 17.5C10.834 17.9641 11.0184 18.4092 11.3465 18.7374C11.6747 19.0656 12.1199 19.25 12.584 19.25Z" fill="black"></path><path d="M12.584 28H47.584C48.0481 28 48.4932 27.8156 48.8214 27.4874C49.1496 27.1592 49.334 26.7141 49.334 26.25C49.334 25.7859 49.1496 25.3408 48.8214 25.0126C48.4932 24.6844 48.0481 24.5 47.584 24.5H12.584C12.1199 24.5 11.6747 24.6844 11.3465 25.0126C11.0184 25.3408 10.834 25.7859 10.834 26.25C10.834 26.7141 11.0184 27.1592 11.3465 27.4874C11.6747 27.8156 12.1199 28 12.584 28Z" fill="black"></path><path d="M37.084 42H12.584C12.1199 42 11.6747 42.1844 11.3465 42.5126C11.0184 42.8408 10.834 43.2859 10.834 43.75C10.834 44.2141 11.0184 44.6592 11.3465 44.9874C11.6747 45.3156 12.1199 45.5 12.584 45.5H37.084C37.5481 45.5 37.9932 45.3156 38.3214 44.9874C38.6496 44.6592 38.834 44.2141 38.834 43.75C38.834 43.2859 38.6496 42.8408 38.3214 42.5126C37.9932 42.1844 37.5481 42 37.084 42Z" fill="black"></path><path d="M37.084 59.5H12.584C12.1199 59.5 11.6747 59.6844 11.3465 60.0126C11.0184 60.3408 10.834 60.7859 10.834 61.25C10.834 61.7141 11.0184 62.1592 11.3465 62.4874C11.6747 62.8156 12.1199 63 12.584 63H37.084C37.5481 63 37.9932 62.8156 38.3214 62.4874C38.6496 62.1592 38.834 61.7141 38.834 61.25C38.834 60.7859 38.6496 60.3408 38.3214 60.0126C37.9932 59.6844 37.5481 59.5 37.084 59.5Z" fill="black"></path></g><defs><clipPath id="clip0_1_1167"><rect width="84" height="84" fill="white" transform="translate(0.333984)"></rect></clipPath></defs></svg>