<svg xmlns="http://www.w3.org/2000/svg" width="51" height="70" viewBox="0 0 51 70" fill="none"><path d="M24.5335 55.5647H38.9356C39.8198 55.5647 40.6678 55.9159 41.293 56.5411C41.9182 57.1664 42.2694 58.0143 42.2694 58.8985C42.2694 59.7827 41.9182 60.6307 41.293 61.2559C40.6678 61.8811 39.8198 62.2323 38.9356 62.2323H24.5335C23.6493 62.2323 22.8014 61.8811 22.1762 61.2559C21.5509 60.6307 21.1997 59.7827 21.1997 58.8985C21.1997 58.0143 21.5509 57.1664 22.1762 56.5411C22.8014 55.9159 23.6493 55.5647 24.5335 55.5647Z" fill="#F4832B"></path><path d="M41.8354 9.92456V42.2292L47.3029 44.0295V9.92456H41.8354Z" fill="#F4832B"></path><path d="M22.8328 0.38992C22.6509 0.234978 22.4372 0.121836 22.2068 0.058473C21.9764 -0.00488986 21.7349 -0.0169305 21.4993 0.0232003L2.36318 2.89028C1.97152 2.94679 1.61369 3.14355 1.35616 3.444C1.09863 3.74444 0.958921 4.12816 0.962977 4.52385V68.3331C0.962977 68.7752 1.1386 69.1992 1.4512 69.5118C1.76381 69.8244 2.18779 70 2.62988 70H48.8699C49.312 70 49.736 69.8244 50.0486 69.5118C50.3612 69.1992 50.5368 68.7752 50.5368 68.3331V44.5296C50.539 44.1732 50.4268 43.8255 50.2168 43.5375C50.0068 43.2494 49.71 43.0363 49.37 42.9294H48.9699V9.92463C48.9699 9.48254 48.7943 9.05856 48.4817 8.74595C48.1691 8.43335 47.7451 8.25773 47.303 8.25773H43.5025V5.59067C43.5025 5.14858 43.3268 4.7246 43.0142 4.41199C42.7016 4.09938 42.2777 3.92377 41.8356 3.92377H23.3329V1.65677C23.3434 1.4223 23.3043 1.18825 23.2181 0.969941C23.132 0.751629 23.0007 0.553977 22.8328 0.38992ZM43.5025 11.6582H45.6361V41.6626L43.5025 40.9625V11.6582ZM23.4996 32.6946H24.8331C25.2752 32.6946 25.6992 32.519 26.0118 32.2064C26.3244 31.8938 26.5 31.4698 26.5 31.0277C26.5 30.5856 26.3244 30.1616 26.0118 29.849C25.6992 29.5364 25.2752 29.3608 24.8331 29.3608H23.4996V26.8938H34.2345C34.6766 26.8938 35.1005 26.7181 35.4131 26.4055C35.7257 26.0929 35.9014 25.6689 35.9014 25.2268C35.9014 24.7848 35.7257 24.3608 35.4131 24.0482C35.1005 23.7356 34.6766 23.5599 34.2345 23.5599H23.3329V21.1596H24.6664C25.1085 21.1596 25.5325 20.984 25.8451 20.6714C26.1577 20.3588 26.3333 19.9348 26.3333 19.4927C26.3333 19.0506 26.1577 18.6266 25.8451 18.314C25.5325 18.0014 25.1085 17.8258 24.6664 17.8258H23.3329V15.4588H34.0678C34.5099 15.4588 34.9338 15.2831 35.2465 14.9705C35.5591 14.6579 35.7347 14.234 35.7347 13.7919C35.7347 13.3498 35.5591 12.9258 35.2465 12.6132C34.9338 12.3006 34.5099 12.125 34.0678 12.125H23.3329V7.25758H40.002V39.8956L37.4349 39.0622L34.8345 38.3287C35.1593 38.1536 35.4167 37.8756 35.5665 37.5384C35.7163 37.2012 35.75 36.8239 35.6623 36.4655C35.5746 36.1071 35.3705 35.788 35.0819 35.558C34.7934 35.3281 34.4367 35.2004 34.0678 35.195H25.2665L23.3329 34.5615L23.4996 32.6946ZM47.3697 45.7965V66.6662H4.23012V5.95739L19.9991 3.59038V35.595C19.9857 35.954 20.0935 36.3071 20.3052 36.5973C20.5168 36.8876 20.82 37.0982 21.1659 37.1952L47.3697 45.7965Z" fill="black"></path><path d="M19.4985 58.8651C19.4941 59.5186 19.6195 60.1666 19.8676 60.7713C20.1157 61.3759 20.4814 61.9253 20.9435 62.3874C21.4057 62.8496 21.955 63.2153 22.5597 63.4634C23.1644 63.7114 23.8123 63.8369 24.4659 63.8325H38.868C39.5247 63.8325 40.175 63.7031 40.7817 63.4518C41.3884 63.2005 41.9397 62.8322 42.404 62.3678C42.8684 61.9034 43.2367 61.3522 43.488 60.7454C43.7393 60.1387 43.8687 59.4884 43.8687 58.8317C43.8687 58.175 43.7393 57.5248 43.488 56.9181C43.2367 56.3113 42.8684 55.7601 42.404 55.2957C41.9397 54.8313 41.3884 54.463 40.7817 54.2117C40.175 53.9604 39.5247 53.831 38.868 53.831H24.5326C23.869 53.8221 23.2104 53.9461 22.5956 54.1959C21.9807 54.4458 21.4222 54.8162 20.953 55.2855C20.4837 55.7547 20.1132 56.3133 19.8634 56.9281C19.6136 57.5429 19.4895 58.2015 19.4985 58.8651ZM40.5015 58.8651C40.5015 59.2983 40.3294 59.7138 40.0231 60.0202C39.7167 60.3265 39.3012 60.4987 38.868 60.4987H24.5326C24.0905 60.4987 23.6665 60.323 23.3539 60.0104C23.0413 59.6978 22.8657 59.2738 22.8657 58.8317C22.8657 58.3897 23.0413 57.9657 23.3539 57.6531C23.6665 57.3405 24.0905 57.1648 24.5326 57.1648H38.9346C39.1549 57.1647 39.3729 57.209 39.5756 57.2952C39.7783 57.3815 39.9614 57.5078 40.114 57.6666C40.2666 57.8254 40.3855 58.0135 40.4635 58.2194C40.5416 58.4254 40.5772 58.645 40.5682 58.8651H40.5015Z" fill="black"></path><path d="M34.0681 17.8259H29.9008C29.4587 17.8259 29.0347 18.0015 28.7221 18.3142C28.4095 18.6268 28.2339 19.0507 28.2339 19.4928C28.2339 19.9349 28.4095 20.3589 28.7221 20.6715C29.0347 20.9841 29.4587 21.1597 29.9008 21.1597H34.0681C34.5102 21.1597 34.9341 20.9841 35.2467 20.6715C35.5594 20.3589 35.735 19.9349 35.735 19.4928C35.735 19.0507 35.5594 18.6268 35.2467 18.3142C34.9341 18.0015 34.5102 17.8259 34.0681 17.8259Z" fill="black"></path><path d="M29.9008 32.628H34.0681C34.5102 32.628 34.9341 32.4524 35.2467 32.1398C35.5594 31.8272 35.735 31.4032 35.735 30.9611C35.735 30.519 35.5594 30.095 35.2467 29.7824C34.9341 29.4698 34.5102 29.2942 34.0681 29.2942H29.9008C29.4587 29.2942 29.0347 29.4698 28.7221 29.7824C28.4095 30.095 28.2339 30.519 28.2339 30.9611C28.2339 31.4032 28.4095 31.8272 28.7221 32.1398C29.0347 32.4524 29.4587 32.628 29.9008 32.628Z" fill="black"></path><path d="M23.8671 51.3306H28.3344C28.7765 51.3306 29.2005 51.155 29.5131 50.8424C29.8257 50.5298 30.0013 50.1058 30.0013 49.6637C30.0013 49.2216 29.8257 48.7977 29.5131 48.4851C29.2005 48.1724 28.7765 47.9968 28.3344 47.9968H23.8671C23.425 47.9968 23.001 48.1724 22.6884 48.4851C22.3758 48.7977 22.2002 49.2216 22.2002 49.6637C22.2002 50.1058 22.3758 50.5298 22.6884 50.8424C23.001 51.155 23.425 51.3306 23.8671 51.3306Z" fill="black"></path></svg>