<svg xmlns="http://www.w3.org/2000/svg" width="56" height="70" viewBox="0 0 56 70" fill="none"><path d="M54.0491 36.9668V65.1668C54.0535 65.5839 53.9747 65.9977 53.8171 66.3839C53.6596 66.7701 53.4265 67.121 53.1315 67.4159C52.8366 67.7109 52.4857 67.9439 52.0995 68.1015C51.7133 68.2591 51.2995 68.3379 50.8824 68.3335H49.4157C49.0014 68.3335 48.5913 68.2513 48.2089 68.0918C47.8266 67.9323 47.4797 67.6985 47.1883 67.404C46.8969 67.1095 46.6668 66.7601 46.5113 66.3761C46.3558 65.9921 46.278 65.5811 46.2824 65.1668V36.9668H54.0491Z" fill="#F4832B"></path><path d="M54.05 35.3H47.95V1.66667C47.95 1.22464 47.7744 0.800716 47.4618 0.488155C47.1492 0.175595 46.7253 0 46.2833 0H2.54997C2.10794 0 1.68402 0.175595 1.37146 0.488155C1.0589 0.800716 0.883301 1.22464 0.883301 1.66667V62C0.883009 64.0988 1.70754 66.1137 3.17911 67.6102C4.65068 69.1068 6.65143 69.965 8.74997 70H50.0833C51.5481 69.9912 52.9505 69.4055 53.9863 68.3697C55.0221 67.3338 55.6079 65.9315 55.6166 64.4667V36.9667C55.6174 36.5414 55.4556 36.132 55.1643 35.8221C54.8731 35.5123 54.4744 35.3255 54.05 35.3ZM8.74997 66.6667C7.51807 66.6579 6.33963 66.1623 5.47166 65.2881C4.60369 64.4139 4.1166 63.2319 4.11663 62V3.33333H44.6166V64.4667C44.6171 65.2245 44.776 65.9739 45.0833 66.6667H8.74997ZM52.2833 64.4667C52.2745 65.0532 52.0354 65.6127 51.6175 66.0244C51.1996 66.436 50.6365 66.6667 50.05 66.6667C49.761 66.6667 49.475 66.6098 49.2081 66.4992C48.9411 66.3886 48.6986 66.2266 48.4943 66.0223C48.29 65.818 48.128 65.5755 48.0174 65.3086C47.9069 65.0417 47.85 64.7556 47.85 64.4667V38.6333H52.2833V64.4667Z" fill="black"></path><path d="M24.4166 18.3334C24.7379 18.3421 25.0431 18.4758 25.2673 18.7062C25.4914 18.9365 25.6168 19.2453 25.6166 19.5667C25.5964 19.7964 25.5137 20.0162 25.3777 20.2025C25.2417 20.3887 25.0574 20.5342 24.8447 20.6234C24.6321 20.7126 24.3991 20.7421 24.1709 20.7086C23.9427 20.6751 23.728 20.5799 23.55 20.4334C23.4387 20.3164 23.3485 20.1811 23.2833 20.0334C23.2038 19.8236 23.0828 19.6321 22.9275 19.4702C22.7723 19.3083 22.5859 19.1795 22.3797 19.0913C22.1734 19.0032 21.9515 18.9576 21.7272 18.9573C21.5029 18.9569 21.2808 19.0019 21.0743 19.0895C20.8678 19.177 20.6811 19.3053 20.5253 19.4667C20.3696 19.6282 20.248 19.8194 20.1679 20.0289C20.0879 20.2384 20.0509 20.4619 20.0593 20.6861C20.0676 20.9102 20.1212 21.1304 20.2166 21.3334C20.4315 21.8754 20.7613 22.3644 21.1833 22.7667C21.6129 23.2268 22.1518 23.5708 22.75 23.7667V24.4C22.75 24.8421 22.9256 25.266 23.2381 25.5785C23.5507 25.8911 23.9746 26.0667 24.4166 26.0667C24.8587 26.0667 25.2826 25.8911 25.5951 25.5785C25.9077 25.266 26.0833 24.8421 26.0833 24.4V23.8667C27.1082 23.5017 27.9691 22.7828 28.511 21.8395C29.0529 20.8961 29.2402 19.7903 29.0392 18.7211C28.8383 17.6519 28.2622 16.6896 27.4147 16.0074C26.5673 15.3252 25.5041 14.968 24.4166 15C24.2563 15.0045 24.0966 14.9767 23.9472 14.9184C23.7977 14.8601 23.6615 14.7724 23.5465 14.6606C23.4315 14.5487 23.3401 14.4149 23.2777 14.2671C23.2153 14.1193 23.1832 13.9605 23.1833 13.8C23.187 13.5421 23.2694 13.2916 23.4194 13.0817C23.5694 12.8719 23.7799 12.7129 24.0227 12.6259C24.2655 12.539 24.529 12.5282 24.7781 12.595C25.0272 12.6619 25.25 12.8032 25.4166 13C25.5066 13.1259 25.5847 13.2598 25.65 13.4C25.7369 13.6019 25.863 13.7845 26.0208 13.9374C26.1787 14.0903 26.3652 14.2105 26.5697 14.2911C26.7741 14.3716 26.9925 14.4109 27.2122 14.4067C27.432 14.4026 27.6487 14.355 27.85 14.2667C28.0535 14.1864 28.2389 14.0659 28.395 13.9126C28.5511 13.7592 28.6748 13.576 28.7588 13.3739C28.8427 13.1718 28.8852 12.9549 28.8837 12.7361C28.8822 12.5173 28.8367 12.301 28.75 12.1C28.511 11.5611 28.1844 11.0655 27.7833 10.6334C27.3427 10.2028 26.8217 9.86298 26.25 9.63337V9.03337C26.25 8.59134 26.0744 8.16741 25.7618 7.85485C25.4493 7.54229 25.0253 7.3667 24.5833 7.3667C24.1413 7.3667 23.7173 7.54229 23.4048 7.85485C23.0922 8.16741 22.9166 8.59134 22.9166 9.03337V9.63337C21.9748 10.0322 21.1954 10.7377 20.7053 11.6354C20.2151 12.5332 20.0429 13.5702 20.2167 14.5782C20.3905 15.5861 20.9 16.5057 21.6625 17.1874C22.425 17.8691 23.3956 18.273 24.4166 18.3334Z" fill="black"></path><path d="M10.6164 35.7H16.983C17.4251 35.7 17.849 35.5244 18.1616 35.2119C18.4741 34.8993 18.6497 34.4754 18.6497 34.0334C18.6497 33.5913 18.4741 33.1674 18.1616 32.8549C17.849 32.5423 17.4251 32.3667 16.983 32.3667H10.6164C10.1743 32.3667 9.75042 32.5423 9.43786 32.8549C9.1253 33.1674 8.94971 33.5913 8.94971 34.0334C8.94971 34.4754 9.1253 34.8993 9.43786 35.2119C9.75042 35.5244 10.1743 35.7 10.6164 35.7Z" fill="#F4832B"></path><path d="M38.183 32.3667H23.7497C23.3076 32.3667 22.8837 32.5423 22.5712 32.8549C22.2586 33.1674 22.083 33.5913 22.083 34.0334C22.083 34.4754 22.2586 34.8993 22.5712 35.2119C22.8837 35.5244 23.3076 35.7 23.7497 35.7H38.183C38.625 35.7 39.049 35.5244 39.3615 35.2119C39.6741 34.8993 39.8497 34.4754 39.8497 34.0334C39.8497 33.5913 39.6741 33.1674 39.3615 32.8549C39.049 32.5423 38.625 32.3667 38.183 32.3667Z" fill="#F4832B"></path><path d="M38.1827 38.6665H31.8161C31.3741 38.6665 30.9501 38.8421 30.6376 39.1547C30.325 39.4672 30.1494 39.8911 30.1494 40.3332C30.1494 40.7752 30.325 41.1991 30.6376 41.5117C30.9501 41.8242 31.3741 41.9998 31.8161 41.9998H38.1827C38.6248 41.9998 39.0487 41.8242 39.3613 41.5117C39.6738 41.1991 39.8494 40.7752 39.8494 40.3332C39.8494 39.8911 39.6738 39.4672 39.3613 39.1547C39.0487 38.8421 38.6248 38.6665 38.1827 38.6665Z" fill="#F4832B"></path><path d="M10.6164 41.9998H25.083C25.5251 41.9998 25.949 41.8242 26.2616 41.5117C26.5741 41.1991 26.7497 40.7752 26.7497 40.3332C26.7497 39.8911 26.5741 39.4672 26.2616 39.1547C25.949 38.8421 25.5251 38.6665 25.083 38.6665H10.6164C10.1743 38.6665 9.75042 38.8421 9.43786 39.1547C9.1253 39.4672 8.94971 39.8911 8.94971 40.3332C8.94971 40.7752 9.1253 41.1991 9.43786 41.5117C9.75042 41.8242 10.1743 41.9998 10.6164 41.9998Z" fill="#F4832B"></path><path d="M10.6164 48.3333H16.983C17.4251 48.3333 17.849 48.1577 18.1616 47.8452C18.4741 47.5326 18.6497 47.1087 18.6497 46.6667C18.6497 46.2246 18.4741 45.8007 18.1616 45.4882C17.849 45.1756 17.4251 45 16.983 45H10.6164C10.1743 45 9.75042 45.1756 9.43786 45.4882C9.1253 45.8007 8.94971 46.2246 8.94971 46.6667C8.94971 47.1087 9.1253 47.5326 9.43786 47.8452C9.75042 48.1577 10.1743 48.3333 10.6164 48.3333Z" fill="#F4832B"></path><path d="M38.183 45H23.7497C23.3076 45 22.8837 45.1756 22.5712 45.4882C22.2586 45.8007 22.083 46.2246 22.083 46.6667C22.083 47.1087 22.2586 47.5326 22.5712 47.8452C22.8837 48.1577 23.3076 48.3333 23.7497 48.3333H38.183C38.625 48.3333 39.049 48.1577 39.3615 47.8452C39.6741 47.5326 39.8497 47.1087 39.8497 46.6667C39.8497 46.2246 39.6741 45.8007 39.3615 45.4882C39.049 45.1756 38.625 45 38.183 45Z" fill="#F4832B"></path><path d="M38.1827 51.2998H31.8161C31.3741 51.2998 30.9501 51.4754 30.6376 51.788C30.325 52.1005 30.1494 52.5244 30.1494 52.9665C30.1494 53.4085 30.325 53.8324 30.6376 54.145C30.9501 54.4575 31.3741 54.6331 31.8161 54.6331H38.1827C38.6248 54.6331 39.0487 54.4575 39.3613 54.145C39.6738 53.8324 39.8494 53.4085 39.8494 52.9665C39.8494 52.5244 39.6738 52.1005 39.3613 51.788C39.0487 51.4754 38.6248 51.2998 38.1827 51.2998Z" fill="#F4832B"></path><path d="M10.6164 54.6331H25.083C25.5251 54.6331 25.949 54.4575 26.2616 54.145C26.5741 53.8324 26.7497 53.4085 26.7497 52.9665C26.7497 52.5244 26.5741 52.1005 26.2616 51.788C25.949 51.4754 25.5251 51.2998 25.083 51.2998H10.6164C10.1743 51.2998 9.75042 51.4754 9.43786 51.788C9.1253 52.1005 8.94971 52.5244 8.94971 52.9665C8.94971 53.4085 9.1253 53.8324 9.43786 54.145C9.75042 54.4575 10.1743 54.6331 10.6164 54.6331Z" fill="#F4832B"></path><path d="M16.983 57.6001H10.6164C10.1743 57.6001 9.75042 57.7757 9.43786 58.0883C9.1253 58.4008 8.94971 58.8247 8.94971 59.2668C8.94971 59.7088 9.1253 60.1327 9.43786 60.4453C9.75042 60.7578 10.1743 60.9334 10.6164 60.9334H16.983C17.4251 60.9334 17.849 60.7578 18.1616 60.4453C18.4741 60.1327 18.6497 59.7088 18.6497 59.2668C18.6497 58.8247 18.4741 58.4008 18.1616 58.0883C17.849 57.7757 17.4251 57.6001 16.983 57.6001Z" fill="#F4832B"></path><path d="M38.183 57.6001H23.7497C23.3076 57.6001 22.8837 57.7757 22.5712 58.0883C22.2586 58.4008 22.083 58.8247 22.083 59.2668C22.083 59.7088 22.2586 60.1327 22.5712 60.4453C22.8837 60.7578 23.3076 60.9334 23.7497 60.9334H38.183C38.625 60.9334 39.049 60.7578 39.3615 60.4453C39.6741 60.1327 39.8497 59.7088 39.8497 59.2668C39.8497 58.8247 39.6741 58.4008 39.3615 58.0883C39.049 57.7757 38.625 57.6001 38.183 57.6001Z" fill="#F4832B"></path></svg>