<svg xmlns="http://www.w3.org/2000/svg" width="85" height="84" viewBox="0 0 85 84" fill="none"><path fill-rule="evenodd" clip-rule="evenodd" d="M15.2756 21.3596V40.2532C15.2756 41.1274 14.5675 41.8356 13.6932 41.8356C12.8196 41.8356 12.1123 41.1265 12.1123 40.2532V19.7772C12.1123 18.9039 12.8193 18.1948 13.693 18.1948H32.374C33.2477 18.1948 33.9563 18.9036 33.9564 19.7772C33.9564 20.6508 33.2476 21.3596 32.374 21.3596H15.2756L15.2756 21.3596Z" fill="black"></path><path fill-rule="evenodd" clip-rule="evenodd" d="M70.1717 21.3597H53.0748C52.2013 21.3597 51.492 20.6507 51.4922 19.7771C51.4924 18.9037 52.2011 18.1948 53.0745 18.1948H71.7541C72.6276 18.1948 73.3363 18.9038 73.3363 19.7772L73.3366 40.2532C73.3366 41.1266 72.6275 41.8356 71.7541 41.8356C70.8805 41.8356 70.1714 41.1269 70.1714 40.2532L70.1717 21.3596L70.1717 21.3597Z" fill="black"></path><path fill-rule="evenodd" clip-rule="evenodd" d="M42.7242 66.947C41.851 66.947 41.1416 66.2399 41.1416 65.3663L41.1418 30.4266C41.1418 29.5522 41.8498 28.8442 42.724 28.8442C43.5983 28.8442 44.3064 29.5523 44.3064 30.4266L44.3066 65.3663C44.3066 66.2398 43.5974 66.9471 42.7242 66.9471L42.7242 66.947Z" fill="black"></path><path fill-rule="evenodd" clip-rule="evenodd" d="M62.009 54.0468H23.4379V68.498C23.4379 69.3714 22.7306 70.0804 21.8568 70.0804C20.9825 70.0804 20.2744 69.3722 20.2744 68.498L20.2747 52.4642C20.2747 51.5901 20.9825 50.8819 21.8568 50.8819L63.5914 50.8818C64.4649 50.8818 65.1737 51.5909 65.1737 52.4643L65.1738 68.4979C65.1738 69.3715 64.465 70.0803 63.5914 70.0803C62.718 70.0803 62.0089 69.3714 62.0089 68.4979L62.0091 54.0467L62.009 54.0468Z" fill="black"></path><path fill-rule="evenodd" clip-rule="evenodd" d="M40.5889 8.45459L40.5891 19.287H44.8591V8.45459H40.5889Z" fill="#F4832B"></path><path fill-rule="evenodd" clip-rule="evenodd" d="M31.7002 19.7773L31.7002 31.1001L42.724 31.1001L53.7481 31.1001V19.7992C53.748 19.7919 53.7479 19.7847 53.7479 19.7773C53.7479 19.7702 53.748 19.763 53.7481 19.7559V8.45459H46.7927L46.7929 20.2542C46.7929 20.7882 46.3595 21.2214 45.8257 21.2214H39.6212C39.0869 21.2214 38.6537 20.7882 38.6537 20.2542L38.654 8.45459H31.7002L31.7002 19.7773V19.7773Z" fill="#F4832B"></path><path fill-rule="evenodd" clip-rule="evenodd" d="M66.0498 39.5781V45.8091H77.3458V39.5781H70.8237C70.805 39.5798 70.786 39.5805 70.7669 39.5805C70.7478 39.5805 70.7288 39.5798 70.7099 39.5781H66.0498H66.0498Z" fill="black"></path><path fill-rule="evenodd" clip-rule="evenodd" d="M13.5786 39.5781H7.98828V45.8091H19.2842V39.5781H13.6925C13.6737 39.5798 13.6546 39.5805 13.6355 39.5805C13.6164 39.5805 13.5974 39.5798 13.5786 39.5781H13.5786Z" fill="black"></path><path fill-rule="evenodd" clip-rule="evenodd" d="M59.7217 67.8076V75.5457H67.4616V67.8076H63.5914H59.7217Z" fill="black"></path><path fill-rule="evenodd" clip-rule="evenodd" d="M38.8545 64.6743V72.4146H46.595V64.6743H42.7247H38.8545Z" fill="black"></path><path fill-rule="evenodd" clip-rule="evenodd" d="M17.9873 67.8076V75.5457H25.7254V67.8076H21.8573H17.9873Z" fill="black"></path></svg>