<svg xmlns="http://www.w3.org/2000/svg" width="90" height="90" viewBox="0 0 90 90" fill="none"><circle cx="45" cy="45" r="45" fill="#F4832B" fill-opacity="0.23"></circle><g clip-path="url(#clip0_1_3949)"><path d="M68.0021 41.5547C71.5352 34.2342 68.4362 25.429 61.0787 21.9417C53.8751 18.5274 45.1833 21.5548 41.66 28.7057C38.5081 35.1028 40.4507 42.6642 45.8939 46.8229L46.3574 50.6611C46.4489 51.4181 47.2937 51.8259 47.9434 51.4265L51.2367 49.4015C57.8409 51.066 64.9258 47.9284 68.0021 41.5547Z" fill="#F2EFF2"></path><path d="M55.9338 36.9042L53.3529 36.0712C52.8503 35.909 52.5631 35.3811 52.7002 34.871L57.3425 17.5833C57.4896 17.0359 58.0648 16.723 58.6042 16.8971L62.8831 18.2782C63.4225 18.4524 63.7063 19.0424 63.5056 19.5725L57.1651 36.3122C56.978 36.806 56.4364 37.0664 55.9338 36.9042Z" fill="#F4832B"></path><path d="M52.9105 44.5024C54.3713 44.5024 55.5554 43.3183 55.5554 41.8575C55.5554 40.3968 54.3713 39.2126 52.9105 39.2126C51.4498 39.2126 50.2656 40.3968 50.2656 41.8575C50.2656 43.3183 51.4498 44.5024 52.9105 44.5024Z" fill="#F4832B"></path><path d="M67.5168 44.057C67.9875 43.3832 68.4067 42.6707 68.7669 41.9241C70.4533 38.43 70.7701 34.46 69.659 30.7457C68.6154 27.2573 66.4005 24.2718 63.3906 22.2747L64.3001 19.8733C64.4778 19.4041 64.4551 18.8757 64.2376 18.4235C64.0201 17.9713 63.6216 17.6236 63.1441 17.4693L58.8652 16.0883C58.3877 15.9344 57.8611 15.9832 57.4203 16.223C56.9795 16.4627 56.652 16.8782 56.522 17.3627L55.888 19.7236C51.1246 19.4001 46.5253 21.3016 43.3783 24.7181C41.5589 24.1232 39.6599 23.8173 37.7265 23.8087C37.6988 23.8085 37.6714 23.8084 37.6438 23.8084C32.7512 23.8084 28.1376 25.7205 24.645 29.1979C21.1332 32.6943 19.1991 37.3308 19.1992 42.2531C19.1992 46.3709 20.5448 50.2759 22.9846 53.4555C19.0006 58.3963 19.3332 65.6911 23.8132 70.2389C26.2553 72.7178 29.5282 74.0002 32.8242 74.0001C35.1067 74.0001 37.4009 73.3847 39.4367 72.1259L41.8142 72.6465C42.4483 72.7855 43.1009 72.594 43.5599 72.1352C44.0189 71.6762 44.21 71.0237 44.0713 70.3895L43.5506 68.0118C45.1893 65.3582 45.7852 62.1465 45.2157 59.0695C45.7907 58.8091 46.351 58.5189 46.8952 58.2019C47.8712 60.1603 49.321 61.8145 51.1369 63.0332L51.6443 65.4135C51.7796 66.0483 52.2231 66.5637 52.8307 66.7923C53.0489 66.8745 53.2755 66.9148 53.5003 66.9147C53.9019 66.9147 54.2983 66.7862 54.6317 66.5374L56.5824 65.0816C59.7559 65.4882 63.0376 64.6446 65.6399 62.7432C66.0188 62.4663 66.1016 61.9348 65.8246 61.5559C65.5478 61.177 65.016 61.0944 64.6373 61.3711C62.299 63.0794 59.329 63.801 56.4881 63.3516C56.2618 63.3154 56.0307 63.3729 55.8471 63.5099L53.6152 65.1755C53.5443 65.2285 53.4748 65.2191 53.429 65.2017C53.3832 65.1845 53.3247 65.1458 53.3062 65.0591L52.7256 62.3355C52.6779 62.1113 52.5416 61.9161 52.3478 61.7938C50.6011 60.6926 49.2232 59.1367 48.3337 57.2734C49.7693 56.2497 51.0587 55.0221 52.155 53.6298L52.65 54.1637C52.6892 54.2061 52.7078 54.2632 52.7009 54.3204L52.2877 57.7681C52.206 58.4496 52.5002 59.1236 53.0554 59.5271C53.6107 59.9304 54.3426 60.0021 54.9656 59.7139L58.117 58.2555C58.1692 58.2313 58.2291 58.2312 58.2816 58.2556L61.433 59.7139C61.6865 59.8312 61.958 59.889 62.2284 59.889C62.6224 59.889 63.0138 59.7664 63.3431 59.5271C63.8983 59.1236 64.1925 58.4496 64.1108 57.7681L63.6976 54.3205C63.6907 54.2632 63.7092 54.2061 63.7484 54.1638L66.1093 51.6173C66.576 51.1139 66.7341 50.3958 66.522 49.743C66.3099 49.0903 65.7599 48.6022 65.0864 48.4692L63.3438 48.1252C64.496 47.3638 65.5407 46.451 66.4502 45.4158C69.0434 48.4231 69.8183 52.6572 68.4085 56.4049C68.1058 57.2093 67.7064 57.9803 67.221 58.696C66.9577 59.0844 67.0591 59.6129 67.4475 59.8762C67.5937 59.9752 67.7594 60.0226 67.9235 60.0226C68.1959 60.0226 68.4633 59.892 68.6276 59.6497C69.1879 58.8231 69.6493 57.9327 69.999 57.0032C71.6675 52.5686 70.6887 47.5443 67.5168 44.057ZM58.1632 17.8034C58.1762 17.755 58.208 17.7291 58.2322 17.7158C58.2485 17.707 58.2715 17.6984 58.2991 17.6984C58.3127 17.6984 58.3276 17.7005 58.3432 17.7055L62.6222 19.0866C62.6699 19.1021 62.6942 19.135 62.7062 19.1601C62.7183 19.185 62.7288 19.2245 62.711 19.2714L56.3705 36.011C56.3439 36.0814 56.2671 36.1187 56.195 36.0955C56.195 36.0954 56.195 36.0954 56.1948 36.0954L53.6139 35.2624C53.5422 35.2393 53.5014 35.1641 53.5208 35.0911L58.1632 17.8034ZM64.9059 50.2682C64.9223 50.3182 64.9279 50.3924 64.8633 50.462L62.5025 53.0086C62.1234 53.4174 61.9442 53.9692 62.0105 54.5227L62.4237 57.9704C62.435 58.0649 62.3868 58.1216 62.3443 58.1524C62.3017 58.1833 62.233 58.2117 62.1467 58.1717L58.9956 56.7135C58.4896 56.4791 57.9092 56.4791 57.4033 56.7134L54.2521 58.1717C54.1657 58.2118 54.097 58.1834 54.0544 58.1524C54.0119 58.1217 53.9636 58.0649 53.975 57.9704L54.3882 54.5226C54.4545 53.9692 54.2752 53.4173 53.8962 53.0085L53.1633 52.2179C53.4851 51.7189 53.7843 51.2035 54.0577 50.6718C56.4409 50.7838 58.8429 50.345 61.0504 49.3749C61.1483 49.4119 61.2482 49.4438 61.3508 49.464L64.7575 50.1365C64.8508 50.1549 64.8897 50.2184 64.9059 50.2682ZM51.4438 48.5776C51.2218 48.5218 50.9864 48.5576 50.7911 48.6777L47.4978 50.7028C47.4222 50.749 47.3539 50.7335 47.3099 50.7123C47.2658 50.691 47.2111 50.6473 47.2005 50.5592L46.737 46.721C46.7096 46.4936 46.5913 46.2868 46.4093 46.1477C43.4584 43.8933 41.519 40.4728 41.0883 36.7629C41.0342 36.2969 40.6123 35.9626 40.1463 36.0169C39.6801 36.071 39.3461 36.4928 39.4002 36.9589C39.8696 41.0032 41.9374 44.7421 45.092 47.2744L45.5133 50.7629C45.5911 51.4073 45.9866 51.9604 46.5711 52.2426C46.8337 52.3694 47.1152 52.4322 47.3958 52.4321C47.7401 52.4321 48.0831 52.3375 48.3878 52.1503L51.381 50.3098C51.6631 50.3738 51.9468 50.4291 52.2315 50.4768C49.8638 54.6606 45.7503 57.6849 41.0337 58.6544C40.8093 58.7005 40.613 58.8354 40.4894 59.0284L37.8085 63.2123C37.7607 63.2868 37.6924 63.3026 37.6434 63.3026C37.5946 63.3026 37.5263 63.2868 37.4784 63.2123L34.7975 59.0284C34.6739 58.8354 34.4776 58.7005 34.2532 58.6544C32.9835 58.3934 31.7426 57.9822 30.565 57.4321C30.1398 57.2338 29.6341 57.4172 29.4354 57.8423C29.2368 58.2675 29.4205 58.7731 29.8456 58.9717C31.0339 59.5269 32.2808 59.9538 33.5572 60.2426L36.0474 64.1291C36.3976 64.6757 36.9942 65.002 37.6433 65.002C38.2924 65.002 38.8891 64.6757 39.2392 64.1291L41.7295 60.2426C42.3647 60.0986 42.9889 59.9196 43.6008 59.7096C44.0097 62.3754 43.4195 65.1315 41.9357 67.3833C41.8096 67.5746 41.7662 67.8088 41.8151 68.0326L42.4108 70.753C42.4297 70.8396 42.3924 70.899 42.3579 70.9337C42.3233 70.9682 42.2641 71.0055 42.1773 70.9866L39.457 70.3909C39.2335 70.342 38.9991 70.3854 38.8078 70.5115C36.9817 71.7147 34.8973 72.302 32.8224 72.3019C29.9705 72.3016 27.1371 71.1916 25.0236 69.0463C21.2242 65.1895 20.8739 59.0502 24.1066 54.782C24.7605 55.4858 25.4728 56.1456 26.2432 56.752C26.3989 56.8747 26.5843 56.9341 26.7682 56.9341C27.0197 56.9341 27.2687 56.8229 27.4364 56.61C27.7266 56.2413 27.663 55.7071 27.2943 55.4168C23.2297 52.2168 20.8983 47.4189 20.8983 42.2531C20.8983 37.7861 22.6546 33.5774 25.8437 30.4022C29.0156 27.2441 33.2033 25.5079 37.6437 25.5079C37.6685 25.5079 37.6937 25.508 37.7187 25.5081C39.2515 25.5149 40.76 25.7271 42.2168 26.1398C41.7221 26.8255 41.2786 27.5561 40.8972 28.3303C40.2121 29.7207 39.7402 31.1961 39.4945 32.7155C39.4196 33.1787 39.7344 33.615 40.1976 33.69C40.2436 33.6973 40.2892 33.7009 40.3343 33.7009C40.7438 33.7009 41.1045 33.4042 41.172 32.9868C41.3908 31.6342 41.8112 30.3203 42.4215 29.0813C44.8418 24.169 49.9937 21.1654 55.4369 21.4026L51.8793 34.6507C51.6246 35.5991 52.1572 36.5783 53.0917 36.88L55.6725 37.7128C55.8607 37.7735 56.0515 37.8025 56.2394 37.8025C56.9847 37.8025 57.6817 37.3467 57.9594 36.6131L62.7713 23.9093C65.2871 25.6827 67.1388 28.2516 68.0307 31.2328C69.02 34.5398 68.7378 38.0744 67.2362 41.1857C64.4008 47.0605 57.7591 50.1693 51.4438 48.5776Z" fill="#231F20"></path><path d="M38.1773 40.8613H27.1173C26.6481 40.8613 26.2676 41.2417 26.2676 41.711C26.2676 42.1804 26.648 42.5608 27.1173 42.5608H38.1773C38.6465 42.5608 39.027 42.1804 39.027 41.711C39.027 41.2417 38.6466 40.8613 38.1773 40.8613Z" fill="#231F20"></path><path d="M38.1773 44.1794H27.1173C26.6481 44.1794 26.2676 44.5598 26.2676 45.0292C26.2676 45.4985 26.648 45.8789 27.1173 45.8789H38.1773C38.6465 45.8789 39.027 45.4985 39.027 45.0292C39.027 44.5598 38.6466 44.1794 38.1773 44.1794Z" fill="#231F20"></path><path d="M38.1773 47.4973H27.1173C26.6481 47.4973 26.2676 47.8777 26.2676 48.347C26.2676 48.8164 26.648 49.1968 27.1173 49.1968H38.1773C38.6465 49.1968 39.027 48.8164 39.027 48.347C39.027 47.8777 38.6466 47.4973 38.1773 47.4973Z" fill="#231F20"></path><path d="M27.4298 37.3047H32.0012C32.4704 37.3047 32.8509 36.9243 32.8509 36.4549C32.8509 35.9856 32.4705 35.6052 32.0012 35.6052H27.4298C26.9606 35.6052 26.5801 35.9856 26.5801 36.4549C26.5801 36.9243 26.9605 37.3047 27.4298 37.3047Z" fill="#231F20"></path><path d="M53.9838 38.5321C53.0954 38.2455 52.1486 38.322 51.3178 38.7472C50.4869 39.1725 49.8715 39.8962 49.5848 40.7844C49.298 41.6728 49.3744 42.6196 49.7998 43.4504C50.2251 44.2813 50.9487 44.8967 51.8369 45.1833C52.1904 45.2974 52.5532 45.3541 52.9142 45.3541C53.4604 45.3541 54.0027 45.2244 54.503 44.9683C55.3339 44.543 55.9493 43.8193 56.2361 42.9311C56.8277 41.0974 55.8174 39.1239 53.9838 38.5321ZM54.6187 42.4092C54.4715 42.8656 54.1552 43.2372 53.7284 43.4557C53.3015 43.6741 52.8151 43.7134 52.3589 43.5661C51.9026 43.4189 51.5309 43.1027 51.3124 42.676C51.0939 42.2491 51.0546 41.7628 51.2018 41.3064C51.3491 40.85 51.6654 40.4784 52.0922 40.2599C52.3492 40.1284 52.6277 40.0618 52.9083 40.0618C53.0938 40.0618 53.2802 40.0909 53.4618 40.1495C54.4037 40.4535 54.9227 41.4672 54.6187 42.4092Z" fill="#231F20"></path></g><defs><clipPath id="clip0_1_3949"><rect width="58" height="58" fill="white" transform="translate(16 16)"></rect></clipPath></defs></svg>