<svg xmlns="http://www.w3.org/2000/svg" width="90" height="90" viewBox="0 0 90 90" fill="none"><circle cx="45" cy="45" r="45" fill="#F4832B" fill-opacity="0.23"></circle><path d="M27.9532 63.4417C27.4839 63.4417 27.1035 63.822 27.1035 64.2914V73.1502C27.6929 73.1502 28.1705 73.1502 28.8031 73.1502V64.2914C28.8031 63.8219 28.4226 63.4417 27.9532 63.4417Z" fill="#566A75"></path><path d="M67.747 73.1504H40.2366C39.0887 73.1504 38.1582 72.2199 38.1582 71.072C38.1582 70.4142 38.6915 69.8809 39.3494 69.8809H68.6341C69.292 69.8809 69.8253 70.4142 69.8253 71.072C69.8253 72.2199 68.8948 73.1504 67.747 73.1504Z" fill="#F4832B"></path><path d="M65.9438 51.6892H42.0373C41.2896 51.6892 40.6777 52.301 40.6777 53.0488V68.5213C40.6777 69.2691 41.2896 69.8809 42.0373 69.8809H65.9438C66.6915 69.8809 67.3034 69.2691 67.3034 68.5213V53.0488C67.3034 52.301 66.6915 51.6892 65.9438 51.6892Z" fill="#F4832B"></path><path d="M53.9912 62.7482C55.0758 62.7482 55.955 61.869 55.955 60.7844C55.955 59.6998 55.0758 58.8206 53.9912 58.8206C52.9066 58.8206 52.0273 59.6998 52.0273 60.7844C52.0273 61.869 52.9066 62.7482 53.9912 62.7482Z" fill="#DADADA"></path><path d="M53.9929 58.8225C52.4956 58.8201 51.5309 60.4498 52.2912 61.7667C53.0518 63.0842 54.9454 63.0625 55.6918 61.7652C54.1813 61.7632 53.2382 60.1341 53.9929 58.8225Z" fill="#C6C6C6"></path><path d="M49.9671 29.6884C50.2312 29.7139 50.4345 29.933 50.4345 30.1984C50.4345 38.9185 50.4402 38.2602 50.4199 38.6656C50.2856 41.3179 49.1512 43.7532 47.3064 45.5531C40.8414 51.8567 30.0534 47.3863 29.7289 38.5444C29.7138 38.1546 29.72 33.6382 29.72 33.6509C29.72 31.6202 31.5223 30.0709 33.5322 30.3609C36.6978 30.8179 41.3183 30.6402 45.3501 27.194C45.7645 26.8398 46.3932 26.9543 46.6577 27.4308C47.1572 28.3304 48.1507 29.5132 49.9671 29.6884Z" fill="white"></path><path d="M51.1758 60.7848C51.1758 62.3361 52.438 63.5984 53.9893 63.5984C55.5407 63.5984 56.803 62.3361 56.803 60.7848C56.803 59.2334 55.5407 57.9712 53.9893 57.9712C52.438 57.9712 51.1758 59.2334 51.1758 60.7848ZM55.1035 60.7848C55.1035 61.3992 54.6037 61.899 53.9892 61.899C53.3749 61.899 52.8751 61.3992 52.8751 60.7848C52.8751 60.1704 53.3749 59.6706 53.9892 59.6706C54.6038 59.6707 55.1035 60.1705 55.1035 60.7848Z" fill="#231F20"></path><path d="M68.6332 69.0311H68.0915C68.2077 68.5416 68.1303 68.9001 68.1532 60.2424C68.1532 59.773 67.7728 59.3927 67.3035 59.3927C66.8341 59.3927 66.4538 59.7731 66.4538 60.2424V68.5214C66.4538 68.7976 66.2203 69.0312 65.9439 69.0312H42.0375C41.7612 69.0312 41.5276 68.7978 41.5276 68.5214C41.5276 67.1567 41.5276 54.9918 41.5276 53.0488C41.5276 52.7725 41.7611 52.539 42.0375 52.539H65.9439C66.2202 52.539 66.4538 52.7724 66.4538 53.0488V56.2769C66.4538 56.7463 66.8342 57.1266 67.3035 57.1266C67.7729 57.1266 68.1532 56.7462 68.1532 56.2769V53.0488C68.1532 51.8306 67.1621 50.8395 65.9439 50.8395H47.925L46.0301 50.1949C45.8869 50.1458 45.7908 50.0112 45.7908 49.8596V47.7771C48.8751 45.944 50.8571 42.7891 51.2188 39.3445C53.8193 39.4651 55.6019 36.982 54.5229 34.8288V27.9013C54.5229 22.8916 51.7984 21.1488 50.966 20.7333C46.1653 15.0024 36.2703 14.1687 30.1903 19.9281C29.6296 20.4546 30.0063 21.3974 30.7722 21.3974C31.3981 21.3974 31.3026 20.9592 33.237 19.7016C33.3803 19.6086 33.6581 19.4446 33.6466 19.4514C38.6572 16.4439 46.0482 17.3652 49.7742 21.9597C49.8696 22.0772 49.9857 22.1638 50.1276 22.2169C50.2377 22.261 52.8233 23.3492 52.8233 27.9014V33.2646C52.3518 33.065 51.8351 32.9627 51.2841 32.9781V30.1986C51.2841 29.4936 50.7529 28.9109 50.0486 28.8429C48.6206 28.705 47.8204 27.7745 47.4004 27.0184C46.8749 26.072 45.6203 25.8453 44.7978 26.5482C41.0089 29.7872 36.6464 29.9517 33.6534 29.52C31.3854 29.1925 29.289 30.7405 28.9245 32.9793C28.3744 32.9555 27.8306 33.0528 27.331 33.2645C27.3842 30.6182 26.9348 27.7537 29.0311 24.0985C29.2646 23.6913 29.1238 23.1722 28.7168 22.9386C28.3096 22.705 27.7904 22.8459 27.557 23.2528C26.2785 25.4822 25.6603 28.0576 25.6438 29.8881C25.6226 30.4362 25.6354 30.2356 25.6316 34.8286C24.5512 36.9848 26.3408 39.4646 28.9357 39.3443C29.3081 42.8892 31.409 46.1557 34.681 47.9598V49.8594C34.681 50.0109 34.5847 50.1454 34.4421 50.1945C31.0739 51.372 35.0432 49.9402 26.2124 53.0717C25.4415 53.3002 25.6125 53.2407 25.3082 53.3648C23.4142 54.1604 22.2436 55.6816 21.8653 57.5524C19.2146 70.8663 19.3153 70.1114 19.3333 70.8352C19.4157 72.9341 20.7583 74 22.826 74C22.8596 74 40.2511 74 40.2355 74C41.9594 74 41.2964 74 43.0202 74C43.4896 74 43.8699 73.6196 43.8699 73.1503C43.8699 72.6808 43.4895 72.3005 43.0202 72.3005H40.2356C39.0479 72.3003 38.6546 70.7307 39.3485 70.7307C41.2564 70.7307 67.5481 70.7307 68.6333 70.7307C69.3284 70.7307 68.9306 72.3005 67.7462 72.3005H46.9857C46.5163 72.3005 46.136 72.6809 46.136 73.1503C46.136 73.6197 46.5164 74 46.9857 74H67.746C69.3605 74 70.674 72.6864 70.674 71.0719C70.6741 69.9465 69.7586 69.0311 68.6332 69.0311ZM36.3801 48.7167C39.9703 49.9654 42.7959 48.9748 42.9879 48.9602L42.986 48.9533L42.9974 48.9501L42.9995 48.957C43.2955 48.8607 43.3949 48.8679 44.0913 48.5999C44.0913 49.1635 44.0913 50.263 44.0913 50.8391H42.0376C40.8194 50.8391 39.8283 51.8303 39.8283 53.0484C39.8283 53.0698 39.8283 53.953 39.8283 53.9417C39.0561 53.9132 38.3053 53.7781 37.5919 53.539C36.869 53.297 36.3834 52.6215 36.3834 51.8582C36.3812 49.7966 36.3866 51.0557 36.3801 48.7167ZM53.1412 36.1621C53.1412 37.0464 52.2547 37.6975 51.2841 37.6462V34.678C52.2638 34.6264 53.1412 35.2864 53.1412 36.1621ZM49.8853 30.5343C49.8849 30.5343 49.8844 30.5343 49.8838 30.5342C49.8844 30.5343 49.8847 30.5343 49.8853 30.5343ZM27.013 36.1621C27.013 35.2778 27.8995 34.6267 28.8701 34.678V37.6462C27.8902 37.6981 27.013 37.0378 27.013 36.1621ZM30.5832 38.6214C30.5616 38.2283 30.5722 38.3704 30.5696 33.9909C30.5951 33.8481 30.3867 32.6802 31.4225 31.7831C31.9685 31.3102 32.6932 31.0986 33.4105 31.202C36.7504 31.6844 41.6292 31.4923 45.902 27.84L45.9145 27.8433C46.7353 29.3214 48.0304 30.2545 49.5845 30.4965C49.5845 38.1773 49.6841 38.9261 49.3022 40.4465C49.0673 41.3862 48.6618 42.3348 48.1686 43.131C43.182 51.0125 31.0478 47.914 30.5832 38.6214ZM22.8259 72.3005C21.3712 72.3005 21.1105 71.6121 21.0459 71.0123C20.9786 70.387 21.1173 70.1065 21.7024 67.0709H27.1024V72.3005H22.8259ZM39.3484 69.0311C37.9676 69.0311 36.8843 70.3686 37.4733 72.0421C37.4976 72.1114 37.5389 72.2168 37.5778 72.3006H28.8019C28.8019 66.4206 28.8019 70.2737 28.8019 64.2915C28.8019 63.8221 28.4215 63.4418 27.9522 63.4418C27.4829 63.4418 27.1025 63.8222 27.1025 64.2915V65.3716H22.0407C23.6437 57.3263 23.5517 57.663 23.7265 57.1993C24.0763 56.2809 24.5974 55.7433 25.345 55.2499C26.0099 54.8664 26.0852 54.8876 26.7094 54.6972C26.7544 54.6844 26.4542 54.7887 31.6074 52.9632C31.6074 52.9632 31.6077 52.9631 31.6079 52.9631L34.6856 51.9076C34.7063 53.3823 35.651 54.6819 37.0521 55.151C37.9391 55.4481 38.8717 55.6118 39.8282 55.6413C39.8821 68.5712 39.7508 68.4545 39.8875 69.0312H39.3483V69.0311H39.3484Z" fill="#231F20"></path></svg>