<svg xmlns="http://www.w3.org/2000/svg" width="90" height="90" viewBox="0 0 90 90" fill="none"><circle cx="45" cy="45" r="45" fill="#F4832B" fill-opacity="0.23"></circle><path d="M63.2107 67.6308C62.7251 67.9499 62.0822 67.8802 61.6939 67.4479C60.0517 65.6193 57.5641 64.8398 55.2106 65.3443C54.5573 65.4843 53.9396 65.0751 53.8085 64.4199C53.4421 62.5909 51.782 61.2466 49.908 61.2826C49.4074 61.2922 48.9713 60.9986 48.7905 60.5681L47.0824 61.1616L46.1385 63.7671L33.753 70.1486L30.8438 72.301V73.1504H67.562C68.267 73.1504 68.8919 72.6879 69.0891 72.011C70.1391 68.4083 66.0965 65.7341 63.2107 67.6308Z" fill="#F4832B"></path><path d="M22.4389 73.1505H30.8434C33.1146 70.6493 36.5374 69.5812 39.7807 70.2766C40.6844 70.4703 41.5399 69.9043 41.7208 68.9979C42.2276 66.4589 44.5349 64.6055 47.1252 64.6565C48.0338 64.6744 48.7901 63.9686 48.7901 63.0599V60.5683C48.733 60.4324 48.7007 60.2831 48.7007 60.125V55.0068H41.2997V60.1298C41.2997 60.7865 40.7532 61.2964 40.0967 61.2835C38.2251 61.2467 36.5579 62.5859 36.1918 64.4204C36.061 65.0753 35.4429 65.4843 34.7899 65.3443C32.4346 64.8393 29.948 65.6209 28.3071 67.4478C27.9189 67.8801 27.2756 67.9501 26.7901 67.6309C23.899 65.7297 19.8641 68.4172 20.9117 72.0111C21.109 72.6879 21.7339 73.1505 22.4389 73.1505Z" fill="#F4832B"></path><path d="M52.7941 29.3782L51.7274 28.8762H42.7624L43.0418 29.3783L42.2022 29.877L41.7207 33.5586L42.5628 38.2315L44.7227 45.6798V49.7203H49.3415L50.1309 49.3538L53.1138 36.8255C53.7128 34.3103 53.5737 31.7374 52.7941 29.3782Z" fill="white"></path><path d="M42.7209 36.8254C42.122 34.3104 42.2612 31.7375 43.0408 29.3783L43.9665 28.8762H38.1325L37.2067 29.3783C36.4272 31.7375 36.288 34.3104 36.8868 36.8254L39.8698 49.3537L40.5114 49.7202H46.3454L45.7038 49.3537L42.7209 36.8254Z" fill="white"></path><path d="M38.9507 45.488L32.8083 50.7485C31.9838 51.4546 31.5818 52.5359 31.7447 53.609L32.6046 59.2747C32.6978 59.8885 33.2254 60.3421 33.8462 60.3421C34.3764 60.3421 34.8495 60.009 35.0284 59.5099L36.0927 56.5398C36.3467 55.8307 37.0187 55.3576 37.772 55.3576H41.3006L38.9507 45.488Z" stroke="#231F20" stroke-width="1.5" stroke-miterlimit="10" stroke-linecap="round" stroke-linejoin="round"></path><path d="M48.3497 22.9899L46.363 21.4035C45.5661 20.7672 44.435 20.7672 43.638 21.4035L41.6514 22.9898C37.5184 26.29 35.6625 31.6799 36.8875 36.8251L41.3 55.3574H48.7011L53.1135 36.8251C54.3386 31.68 52.4827 26.29 48.3497 22.9899Z" stroke="#231F20" stroke-width="1.5" stroke-miterlimit="10" stroke-linecap="round" stroke-linejoin="round"></path><path d="M51.0511 45.488L57.1935 50.7485C58.018 51.4546 58.42 52.5359 58.2571 53.609L57.3972 59.2747C57.3039 59.8885 56.7764 60.3421 56.1556 60.3421C55.6253 60.3421 55.1523 60.009 54.9734 59.5099L53.9091 56.5398C53.655 55.8307 52.983 55.3576 52.2298 55.3576H48.7012L51.0511 45.488Z" stroke="#231F20" stroke-width="1.5" stroke-miterlimit="10" stroke-linecap="round" stroke-linejoin="round"></path><path d="M45 44.9355V59.8134" stroke="#231F20" stroke-width="1.5" stroke-miterlimit="10" stroke-linecap="round" stroke-linejoin="round"></path><path d="M45 16.8496V20.6743" stroke="#231F20" stroke-width="1.5" stroke-miterlimit="10" stroke-linecap="round" stroke-linejoin="round"></path><path d="M43.6376 21.4035L41.651 22.9898C39.5382 24.6769 38.0223 26.9106 37.207 29.378H52.7933C51.978 26.9106 50.4621 24.6768 48.3494 22.9898L46.3626 21.4035C45.5657 20.7672 44.4344 20.7672 43.6376 21.4035Z" stroke="#231F20" stroke-width="1.5" stroke-miterlimit="10" stroke-linecap="round" stroke-linejoin="round"></path><path d="M39.8711 49.3535L41.3006 55.3574H48.7016L50.1311 49.3535H39.8711Z" stroke="#231F20" stroke-width="1.5" stroke-miterlimit="10" stroke-linecap="round" stroke-linejoin="round"></path><path d="M46.9829 73.1504H67.5616C68.2666 73.1504 68.8915 72.6878 69.0887 72.011C70.1389 68.4082 66.0963 65.7341 63.2104 67.6309C62.7249 67.95 62.0819 67.8802 61.6937 67.448C60.0514 65.6194 57.5638 64.8399 55.2103 65.3444C54.557 65.4844 53.9394 65.0751 53.8082 64.42C53.4418 62.591 51.7817 61.2467 49.9078 61.2827C49.249 61.2954 48.7009 60.7838 48.7009 60.1249V55.3577H41.2997V60.1297C41.2997 60.7864 40.7532 61.2963 40.0967 61.2834C38.2251 61.2465 36.5579 62.5858 36.1918 64.4203C36.061 65.0751 35.4429 65.4842 34.7899 65.3442C32.4346 64.8392 29.948 65.6208 28.3071 67.4477C27.9189 67.88 27.2756 67.95 26.7901 67.6308C23.899 65.7296 19.8641 68.4171 20.9117 72.011C21.109 72.6878 21.7339 73.1504 22.4388 73.1504H43.018" stroke="#231F20" stroke-width="1.5" stroke-miterlimit="10" stroke-linecap="round" stroke-linejoin="round"></path><path d="M47.921 34.8158C47.2859 33.8814 46.2143 33.2676 44.9994 33.2676C43.0495 33.2676 41.4688 34.8483 41.4688 36.7982C41.4688 38.7481 43.0495 40.3289 44.9994 40.3289C46.2143 40.3289 47.2859 39.715 47.921 38.7806" stroke="#231F20" stroke-width="1.5" stroke-miterlimit="10" stroke-linecap="round" stroke-linejoin="round"></path></svg>