<svg xmlns="http://www.w3.org/2000/svg" width="76" height="76" viewBox="0 0 76 76" fill="none"><g clip-path="url(#clip0_1_5001)"><mask id="mask0_1_5001" style="mask-type:luminance" maskUnits="userSpaceOnUse" x="0" y="0" width="76" height="76"><path d="M75.7016 0.384766H0.595703V75.4907H75.7016V0.384766Z" fill="white"></path></mask><g mask="url(#mask0_1_5001)"><path d="M43.429 31.1895H32.8673C32.0571 31.1895 31.4004 31.8464 31.4004 32.6564V43.2181C31.4004 44.0282 32.0571 44.6851 32.8673 44.6851H43.429C44.2393 44.6851 44.896 44.0282 44.896 43.2181V32.6564C44.896 31.8464 44.2393 31.1895 43.429 31.1895ZM41.9622 41.7512H34.3343V34.1233H41.9622V41.7512Z" fill="#F4832B"></path><path d="M70.7141 8.30566C67.9639 8.30566 65.7266 10.543 65.7266 13.2932C65.7266 16.0433 67.9639 18.2806 70.7141 18.2806C73.4643 18.2806 75.7016 16.0433 75.7016 13.2932C75.7016 10.543 73.4643 8.30566 70.7141 8.30566ZM70.7141 15.3469C69.5816 15.3469 68.6604 14.4256 68.6604 13.2932C68.6604 12.1607 69.5816 11.2395 70.7141 11.2395C71.8465 11.2395 72.7677 12.1607 72.7677 13.2932C72.7677 14.4256 71.8465 15.3469 70.7141 15.3469Z" fill="#F4832B"></path><path d="M63.172 12.2521C62.8991 11.9794 62.5207 11.8223 62.1349 11.8223C61.7476 11.8223 61.3691 11.9792 61.0963 12.2521C60.8235 12.525 60.668 12.9033 60.668 13.2892C60.668 13.675 60.8235 14.0534 61.0963 14.3262C61.3707 14.5989 61.7476 14.756 62.1349 14.756C62.5207 14.756 62.8991 14.5991 63.172 14.3262C63.4448 14.0534 63.6018 13.675 63.6018 13.2892C63.6018 12.9033 63.4448 12.525 63.172 12.2521Z" fill="#F4832B"></path><path d="M61.5511 39.4046C62.1792 41.4411 64.0785 42.9252 66.3182 42.9252C69.0683 42.9252 71.3057 40.6878 71.3057 37.9377C71.3057 35.1876 69.0683 32.9502 66.3182 32.9502C64.0784 32.9502 62.179 34.4343 61.5511 36.4708H52.5247V25.0289C52.5247 24.2188 51.8679 23.562 51.0578 23.562H48.7107V14.7561H56.9286C57.7388 14.7561 58.3955 14.0992 58.3955 13.2892C58.3955 12.4791 57.7388 11.8223 56.9286 11.8223H47.2438C46.4337 11.8223 45.7769 12.4791 45.7769 13.2892V23.562H39.6158V14.5356C41.6522 13.9077 43.1364 12.0084 43.1364 9.76862C43.1364 7.01843 40.8991 4.7811 38.1489 4.7811C35.3988 4.7811 33.1615 7.01843 33.1615 9.76862C33.1615 12.0084 34.6457 13.9078 36.6821 14.5356V23.562H25.2401C24.43 23.562 23.7732 24.2188 23.7732 25.0289V27.3759H14.9672V10.1406C17.0059 9.51407 18.4923 7.61371 18.4923 5.37226C18.4923 2.6221 16.255 0.384766 13.5048 0.384766C10.7547 0.384766 8.51733 2.6221 8.51733 5.37226C8.51733 7.61048 9.99935 9.5087 12.0334 10.138V28.8428C12.0334 29.6529 12.6901 30.3098 13.5003 30.3098H23.7732V36.4708H14.7467C14.1187 34.4343 12.2194 32.9502 9.97968 32.9502C7.22953 32.9502 4.99219 35.1876 4.99219 37.9377C4.99219 40.6878 7.22953 42.9252 9.97968 42.9252C12.2195 42.9252 14.1189 41.4411 14.7467 39.4046H23.7732V50.8465C23.7732 51.6566 24.43 52.3134 25.2401 52.3134H27.5872V61.1193H19.3693C18.5591 61.1193 17.9024 61.7762 17.9024 62.5862C17.9024 63.3963 18.5591 64.0531 19.3693 64.0531H29.0541C29.8642 64.0531 30.521 63.3963 30.521 62.5862V52.3134H36.6821V61.3398C34.6457 61.9678 33.1615 63.867 33.1615 66.1068C33.1615 68.857 35.3988 71.0943 38.1489 71.0943C40.8991 71.0943 43.1364 68.857 43.1364 66.1068C43.1364 63.867 41.6522 61.9677 39.6158 61.3398V52.3134H51.0578C51.8679 52.3134 52.5247 51.6566 52.5247 50.8465V48.4995H61.3307V65.7348C59.292 66.3614 57.8056 68.2617 57.8056 70.5032C57.8056 73.2533 60.0429 75.4907 62.7931 75.4907C65.5432 75.4907 67.7805 73.2533 67.7805 70.5032C67.7805 68.2649 66.2985 66.3667 64.2645 65.7374V47.0326C64.2645 46.2225 63.6078 45.5656 62.7976 45.5656H52.5247V39.4046H61.5511ZM66.3182 35.884C67.4507 35.884 68.3719 36.8052 68.3719 37.9377C68.3719 39.0702 67.4505 39.9914 66.3182 39.9914C65.1857 39.9914 64.2645 39.0702 64.2645 37.9377C64.2645 36.8052 65.1857 35.884 66.3182 35.884ZM13.5048 7.42594C12.3723 7.42594 11.4511 6.50472 11.4511 5.37226C11.4511 4.23981 12.3723 3.31859 13.5048 3.31859C14.6373 3.31859 15.5585 4.23981 15.5585 5.37226C15.5585 6.50472 14.6373 7.42594 13.5048 7.42594ZM9.97968 39.9914C8.84724 39.9914 7.92602 39.0702 7.92602 37.9377C7.92602 36.8052 8.84724 35.884 9.97968 35.884C11.1122 35.884 12.0334 36.8052 12.0334 37.9377C12.0334 39.0702 11.1122 39.9914 9.97968 39.9914ZM36.0952 9.76862C36.0952 8.63615 37.0165 7.71492 38.1489 7.71492C39.2814 7.71492 40.2026 8.63615 40.2026 9.76862C40.2026 10.901 39.2814 11.8223 38.1489 11.8223C37.0165 11.8223 36.0952 10.901 36.0952 9.76862ZM40.2026 66.1068C40.2026 67.2393 39.2814 68.1605 38.1489 68.1605C37.0165 68.1605 36.0952 67.2393 36.0952 66.1068C36.0952 64.9744 37.0165 64.0531 38.1489 64.0531C39.2814 64.0531 40.2026 64.9744 40.2026 66.1068ZM49.5909 49.3796H26.707V26.4958H49.5909V49.3796ZM62.7931 68.4495C63.9256 68.4495 64.8468 69.3707 64.8468 70.5032C64.8468 71.6356 63.9256 72.5569 62.7931 72.5569C61.6606 72.5569 60.7394 71.6356 60.7394 70.5032C60.7394 69.3707 61.6606 68.4495 62.7931 68.4495Z" fill="black"></path><path d="M5.58321 57.5947C2.83303 57.5947 0.595703 59.8321 0.595703 62.5822C0.595703 65.3323 2.83303 67.5697 5.58321 67.5697C8.33337 67.5697 10.5707 65.3323 10.5707 62.5822C10.5707 59.8321 8.33337 57.5947 5.58321 57.5947ZM5.58321 64.6359C4.45074 64.6359 3.52953 63.7147 3.52953 62.5822C3.52953 61.4497 4.45074 60.5285 5.58321 60.5285C6.71566 60.5285 7.63688 61.4497 7.63688 62.5822C7.63688 63.7147 6.71566 64.6359 5.58321 64.6359Z" fill="#F4832B"></path><path d="M15.2013 61.5489C14.9284 61.2761 14.5501 61.1191 14.1642 61.1191C13.7784 61.1191 13.4 61.2759 13.1272 61.5489C12.8543 61.8216 12.6973 62.2 12.6973 62.586C12.6973 62.9718 12.8543 63.3502 13.1272 63.6229C13.4 63.8958 13.7784 64.0529 14.1642 64.0529C14.5501 64.0529 14.9284 63.896 15.2013 63.6229C15.4742 63.3502 15.6311 62.9718 15.6311 62.586C15.6311 62.2 15.4742 61.8216 15.2013 61.5489Z" fill="#F4832B"></path></g></g><defs><clipPath id="clip0_1_5001"><rect width="76" height="75.1059" fill="white" transform="translate(0 0.384766)"></rect></clipPath></defs></svg>