<svg xmlns="http://www.w3.org/2000/svg" width="76" height="67" viewBox="0 0 76 67" fill="none"><g clip-path="url(#clip0_1_5017)"><path d="M33.4086 2.7976C39.8712 2.7976 45.1295 6.35433 45.1295 10.7234C45.1295 15.0926 39.8712 18.6477 33.4086 18.6477C31.2415 18.6635 29.094 18.2363 27.098 17.3923C26.997 17.3483 26.8882 17.3249 26.7781 17.3235C26.6957 17.3239 26.6138 17.3363 26.535 17.3603L23.3877 18.3423L23.4965 15.2702C23.5036 15.064 23.4321 14.8628 23.2966 14.7072C22.2475 13.4981 21.6973 12.1212 21.6973 10.7234C21.6861 6.33993 26.9381 2.7832 33.4006 2.7832L33.4086 2.7976Z" fill="#F4832B"></path><path d="M28.1349 50.4128H12.5918V44.2701C12.621 42.2287 13.4526 40.2809 14.9065 38.8476C16.3605 37.4144 18.3201 36.6108 20.3617 36.6108C22.4033 36.6108 24.363 37.4144 25.8169 38.8476C27.2709 40.2809 28.1024 42.2287 28.1316 44.2701L28.1349 50.4128ZM20.3609 34.865C19.319 34.865 18.3005 34.556 17.4342 33.9772C16.5679 33.3983 15.8927 32.5755 15.494 31.6129C15.0953 30.6504 14.9909 29.5912 15.1942 28.5693C15.3975 27.5474 15.8992 26.6088 16.6359 25.872C17.3727 25.1353 18.3113 24.6336 19.3332 24.4303C20.3551 24.2271 21.4142 24.3314 22.3768 24.7301C23.3394 25.1288 24.1621 25.804 24.741 26.6703C25.3199 27.5367 25.6289 28.5551 25.6289 29.597C25.6263 30.9934 25.0705 32.3318 24.0831 33.3192C23.0957 34.3066 21.7572 34.8624 20.3609 34.865Z" fill="#F4832B"></path><path d="M29.9342 11.2662C30.2421 10.523 29.8891 9.67101 29.1457 9.36319C28.4023 9.05537 27.5501 9.40832 27.2421 10.1514C26.9342 10.8946 27.2872 11.7466 28.0306 12.0544C28.774 12.3623 29.6262 12.0093 29.9342 11.2662Z" fill="black" stroke="black"></path><path d="M34.7467 11.2652C35.0546 10.522 34.7016 9.67005 33.9582 9.36223C33.2148 9.05441 32.3626 9.40728 32.0546 10.1505C31.7467 10.8936 32.0997 11.7456 32.8431 12.0534C33.5865 12.3612 34.4387 12.0084 34.7467 11.2652Z" fill="black" stroke="black"></path><path d="M39.5592 11.2672C39.8671 10.524 39.5141 9.67203 38.7707 9.36421C38.0273 9.05631 37.175 9.40926 36.8671 10.1525C36.5592 10.8956 36.9123 11.7476 37.6556 12.0554C38.399 12.3632 39.2513 12.0103 39.5592 11.2672Z" fill="black" stroke="black"></path><path d="M64.2096 30.676C66.285 29.5446 67.9242 27.7538 68.8681 25.5867C69.812 23.4195 70.0068 20.9996 69.4215 18.7093C68.8364 16.4191 67.5047 14.3892 65.6369 12.9404C63.7691 11.4916 61.4717 10.7066 59.108 10.7095C58.9896 10.7095 58.8712 10.7095 58.7545 10.7095C58.7161 10.707 58.6777 10.707 58.6394 10.7095H46.7521C46.7521 5.43993 40.7613 1.15234 33.4 1.15234C26.0387 1.15234 20.0479 5.43993 20.0479 10.7095H11.0265C9.3576 10.7124 7.75799 11.377 6.5783 12.5576C5.39862 13.7382 4.73522 15.3383 4.73353 17.0072V58.2422H3.13428C2.5088 58.2427 1.90905 58.4913 1.46676 58.9337C1.02448 59.3759 0.775813 59.9757 0.775391 60.6012V63.2767C0.775813 63.9023 1.02442 64.5023 1.46667 64.9448C1.9089 65.3873 2.50865 65.6363 3.13428 65.6372H46.3139C47.8515 65.635 49.3255 65.0232 50.4126 63.9359C51.4997 62.8485 52.1111 61.3743 52.1128 59.8367V45.0357C52.1128 44.8194 52.0269 44.6119 51.8739 44.459C51.721 44.306 51.5135 44.2201 51.2972 44.2201C51.0809 44.2201 50.8735 44.306 50.7205 44.459C50.5676 44.6119 50.4816 44.8194 50.4816 45.0357V59.8367C50.4804 60.9418 50.0409 62.0013 49.2596 62.7828C48.4783 63.5644 47.419 64.0043 46.3139 64.006H28.7398C27.9747 64.006 27.2409 63.702 26.6998 63.161C26.1587 62.6199 25.8548 61.8861 25.8548 61.1209C25.8548 60.3557 26.1587 59.6219 26.6998 59.0809C27.2409 58.5399 27.9747 58.2359 28.7398 58.2359H43.293C43.4001 58.2359 43.5062 58.2148 43.6051 58.1738C43.7041 58.1328 43.794 58.0727 43.8697 57.997C43.9454 57.9213 44.0055 57.8314 44.0465 57.7323C44.0875 57.6335 44.1086 57.5274 44.1086 57.4203V44.3656C44.112 41.0808 45.4184 37.9314 47.7411 35.6087C50.0638 33.286 53.2131 31.9796 56.4979 31.9763H61.203C64.4878 31.9796 67.6371 33.286 69.9598 35.6087C72.2825 37.9314 73.589 41.0808 73.5923 44.3656V64.8216C73.5923 65.0379 73.6782 65.2454 73.8312 65.3983C73.9842 65.5513 74.1917 65.6372 74.4079 65.6372C74.6243 65.6372 74.8317 65.5513 74.9847 65.3983C75.1376 65.2454 75.2236 65.0379 75.2236 64.8216V44.3656C75.2177 41.1715 74.1235 38.0748 72.1212 35.5861C70.119 33.0974 67.3283 31.3656 64.2096 30.676ZM68.1117 21.3492C68.1104 23.1294 67.5814 24.8691 66.5916 26.3486C65.6017 27.8282 64.1954 28.981 62.5505 29.6614C60.9055 30.3419 59.0958 30.5193 57.35 30.1714C55.6042 29.8235 54.0008 28.9657 52.7424 27.7067C51.4839 26.4476 50.6271 24.8437 50.2801 23.0977C49.9331 21.3518 50.1115 19.5421 50.7928 17.8975C51.4741 16.2529 52.6276 14.8472 54.1077 13.8582C55.5878 12.8691 57.3278 12.341 59.108 12.3407C61.495 12.3428 63.7837 13.2918 65.4716 14.9796C67.1597 16.6673 68.1091 18.9558 68.1117 21.3429V21.3492ZM33.4081 2.79797C39.8706 2.79797 45.1289 6.3547 45.1289 10.7238C45.1289 15.093 39.8706 18.6481 33.4081 18.6481C31.2409 18.6639 29.0935 18.2367 27.0974 17.3927C26.9964 17.3486 26.8877 17.3252 26.7776 17.3239C26.6952 17.3243 26.6133 17.3367 26.5344 17.3607L23.3871 18.3426L23.4959 15.2705C23.503 15.0643 23.4316 14.8631 23.296 14.7076C22.2469 13.4985 21.6968 12.1216 21.6968 10.7238C21.6856 6.3403 26.9375 2.78357 33.4 2.78357L33.4081 2.79797ZM3.13428 64.006C2.94114 64.0056 2.75607 63.9285 2.61965 63.7918C2.48323 63.6551 2.40663 63.4698 2.40663 63.2767V60.6012C2.40663 60.4082 2.48329 60.2231 2.61975 60.0867C2.75621 59.9502 2.9413 59.8735 3.13428 59.8735H24.4395C24.3212 60.2897 24.2609 60.7202 24.2604 61.1529C24.26 62.1927 24.6225 63.2 25.2854 64.0012L3.13428 64.006ZM28.7431 56.6046C28.0825 56.604 27.4301 56.7506 26.8333 57.0339C26.2366 57.3173 25.7105 57.73 25.2934 58.2422H6.35996V52.0436H42.4758V56.6046H28.7431ZM28.1338 50.4124H12.5906V44.2697C12.6199 42.2283 13.4514 40.2804 14.9054 38.8471C16.3594 37.4139 18.3189 36.6104 20.3606 36.6104C22.4022 36.6104 24.3618 37.4139 25.8158 38.8471C27.2697 40.2804 28.1012 42.2283 28.1305 44.2697L28.1338 50.4124ZM42.4758 44.3656V50.4124H29.7618V44.2697C29.7593 42.3922 29.1958 40.5583 28.1433 39.0036C27.091 37.4488 25.5979 36.2441 23.8557 35.5442C25.1608 34.777 26.1772 33.602 26.7484 32.2C27.3196 30.7982 27.4136 29.2472 27.0161 27.7866C26.6186 26.3259 25.7516 25.0365 24.5489 24.1174C23.3461 23.1982 21.8743 22.7002 20.3606 22.7002C18.8468 22.7002 17.3751 23.1982 16.1723 24.1174C14.9695 25.0365 14.1025 26.3259 13.705 27.7866C13.3075 29.2472 13.4016 30.7982 13.9728 32.2C14.5439 33.602 15.5604 34.777 16.8654 35.5442C15.123 36.2437 13.6296 37.4483 12.5772 39.0032C11.5248 40.558 10.9614 42.3921 10.9594 44.2697V50.4172H6.35996V17.0072C6.36124 15.77 6.8533 14.5838 7.72821 13.7089C8.60305 12.834 9.78927 12.3419 11.0265 12.3407H20.2463C20.5341 13.5046 21.0807 14.5886 21.8455 15.512L21.7064 19.4205C21.7029 19.5299 21.7215 19.6389 21.7609 19.741C21.8003 19.8431 21.8598 19.9363 21.9358 20.015C22.0118 20.0937 22.1029 20.1564 22.2036 20.1993C22.3042 20.2422 22.4125 20.2646 22.522 20.265C22.6044 20.2653 22.6864 20.2529 22.7651 20.2282L26.72 19.0015C28.8428 19.8567 31.1115 20.2912 33.4 20.2809C39.9858 20.2809 45.4712 16.8506 46.5555 12.3567H53.461C51.9007 13.3335 50.6211 14.699 49.7476 16.3194C48.8741 17.9398 48.4369 19.7594 48.4786 21.5997C48.5204 23.4401 49.0398 25.238 49.9859 26.8171C50.932 28.3962 52.2722 29.7023 53.8752 30.6073C50.6737 31.2212 47.7854 32.9298 45.7056 35.44C43.6257 37.9502 42.4839 41.1057 42.4758 44.3656ZM20.3598 34.8645C19.3179 34.8645 18.2993 34.5555 17.4331 33.9767C16.5668 33.3978 15.8915 32.5751 15.4929 31.6125C15.0941 30.6499 14.9898 29.5907 15.1931 28.5688C15.3963 27.547 15.8981 26.6083 16.6348 25.8716C17.3715 25.1349 18.3102 24.6331 19.332 24.4298C20.354 24.2266 21.4131 24.3309 22.3757 24.7296C23.3383 25.1283 24.161 25.8035 24.7399 26.6698C25.3188 27.5362 25.6277 28.5546 25.6277 29.5965C25.6251 30.9929 25.0693 32.3314 24.0819 33.3188C23.0946 34.3062 21.7561 34.862 20.3598 34.8645Z" fill="black" stroke="black" stroke-width="0.6"></path></g><defs><clipPath id="clip0_1_5017"><rect width="76" height="66.0202" fill="white" transform="translate(0 0.384766)"></rect></clipPath></defs></svg>