<svg xmlns="http://www.w3.org/2000/svg" width="99" height="86" viewBox="0 0 99 86" fill="none"><path d="M43.5185 3.14364C51.9369 3.14364 58.7865 7.77675 58.7865 13.4681C58.7865 19.1595 51.9369 23.7905 43.5185 23.7905C40.6956 23.8111 37.8983 23.2546 35.2981 22.1552C35.1666 22.0978 35.0249 22.0673 34.8815 22.0656C34.7741 22.0661 34.6675 22.0822 34.5648 22.1135L30.465 23.3926L30.6067 19.3908C30.6159 19.1222 30.5229 18.8601 30.3463 18.6575C28.9797 17.0825 28.263 15.2889 28.263 13.4681C28.2485 7.758 35.0898 3.12489 43.5081 3.12489L43.5185 3.14364Z" fill="#F4832B"></path><path d="M36.6472 65.1676H16.4003V57.1659C16.4384 54.5067 17.5216 51.9694 19.4156 50.1024C21.3095 48.2354 23.8622 47.1887 26.5217 47.1887C29.1811 47.1887 31.7338 48.2354 33.6278 50.1024C35.5217 51.9694 36.6049 54.5067 36.643 57.1659L36.6472 65.1676ZM26.5206 44.9145C25.1634 44.9145 23.8367 44.512 22.7082 43.758C21.5797 43.004 20.7002 41.9322 20.1808 40.6783C19.6614 39.4244 19.5255 38.0447 19.7903 36.7136C20.0551 35.3824 20.7086 34.1597 21.6683 33.2C22.628 32.2403 23.8507 31.5868 25.1819 31.322C26.513 31.0572 27.8928 31.1931 29.1467 31.7125C30.4005 32.2319 31.4723 33.1114 32.2263 34.2399C32.9803 35.3684 33.3828 36.6951 33.3828 38.0523C33.3795 39.8712 32.6554 41.6147 31.3692 42.9009C30.0831 44.1871 28.3396 44.9112 26.5206 44.9145Z" fill="#F4832B"></path><path d="M38.9927 14.176C39.3939 13.2076 38.934 12.0975 37.9657 11.6964C36.9973 11.2952 35.8871 11.7551 35.486 12.7234C35.0849 13.6918 35.5448 14.802 36.5131 15.2031C37.4815 15.6042 38.5916 15.1443 38.9927 14.176Z" fill="black" stroke="black"></path><path d="M45.2603 14.1738C45.6614 13.2054 45.2016 12.0953 44.2332 11.6942C43.2649 11.2931 42.1547 11.7529 41.7536 12.7212C41.3525 13.6896 41.8123 14.7998 42.7807 15.2009C43.7491 15.602 44.8592 15.1421 45.2603 14.1738Z" fill="black" stroke="black"></path><path d="M51.5279 14.176C51.929 13.2076 51.4692 12.0975 50.5008 11.6964C49.5325 11.2952 48.4223 11.7551 48.0212 12.7235C47.6201 13.6918 48.0799 14.802 49.0483 15.2031C50.0166 15.6042 51.1268 15.1443 51.5279 14.176Z" fill="black" stroke="black"></path><path d="M83.6411 39.4585C86.3446 37.9847 88.4799 35.6519 89.7095 32.8289C90.939 30.0059 91.1927 26.8536 90.4304 23.8702C89.6682 20.8869 87.9334 18.2427 85.5004 16.3555C83.0673 14.4683 80.0748 13.4457 76.9956 13.4494C76.8414 13.4494 76.6873 13.4494 76.5352 13.4494C76.4852 13.4462 76.4352 13.4462 76.3852 13.4494H60.9005C60.9005 6.58514 53.0968 1 43.5077 1C33.9186 1 26.1148 6.58514 26.1148 13.4494H14.3633C12.1893 13.4532 10.1055 14.319 8.56881 15.8569C7.03214 17.3947 6.16796 19.4791 6.16576 21.6531V75.3671H4.08253C3.26775 75.3677 2.4865 75.6916 1.91037 76.2678C1.33423 76.8439 1.01032 77.6251 1.00977 78.4399V81.9252C1.01032 82.7401 1.33416 83.5216 1.91024 84.0981C2.48632 84.6745 3.26756 84.9989 4.08253 85H60.3297C62.3326 84.9972 64.2527 84.2002 65.6688 82.7838C67.0848 81.3673 67.8813 79.447 67.8835 77.4441V58.1638C67.8835 57.8821 67.7716 57.6118 67.5723 57.4126C67.3731 57.2133 67.1029 57.1014 66.8211 57.1014C66.5393 57.1014 66.2691 57.2133 66.0698 57.4126C65.8706 57.6118 65.7586 57.8821 65.7586 58.1638V77.4441C65.757 78.8837 65.1846 80.2638 64.1669 81.2818C63.1492 82.2999 61.7693 82.8729 60.3297 82.8751H37.4371C36.4404 82.8751 35.4845 82.4792 34.7797 81.7744C34.0749 81.0696 33.679 80.1137 33.679 79.117C33.679 78.1202 34.0749 77.1643 34.7797 76.4596C35.4845 75.7548 36.4404 75.3588 37.4371 75.3588H56.3945C56.534 75.3588 56.6722 75.3313 56.8011 75.2779C56.93 75.2245 57.0471 75.1463 57.1458 75.0476C57.2444 74.949 57.3227 74.8319 57.3761 74.7029C57.4295 74.5741 57.457 74.4359 57.457 74.2964V57.291C57.4614 53.0121 59.1631 48.9096 62.1888 45.884C65.2144 42.8583 69.3168 41.1566 73.5958 41.1522H79.7246C84.0035 41.1566 88.1059 42.8583 91.1316 45.884C94.1572 48.9096 95.859 53.0121 95.8634 57.291V83.9376C95.8634 84.2193 95.9753 84.4896 96.1746 84.6888C96.3738 84.8881 96.6441 85 96.9258 85C97.2076 85 97.4779 84.8881 97.6771 84.6888C97.8764 84.4896 97.9883 84.2193 97.9883 83.9376V57.291C97.9808 53.1302 96.5553 49.0963 93.9471 45.8545C91.3389 42.6127 87.7037 40.3567 83.6411 39.4585ZM88.7242 27.3091C88.7225 29.628 88.0334 31.8942 86.744 33.8215C85.4546 35.7488 83.6227 37.2505 81.4799 38.1368C79.3372 39.0232 76.9797 39.2543 74.7056 38.8011C72.4315 38.3479 70.3428 37.2306 68.7036 35.5905C67.0643 33.9504 65.9482 31.8611 65.4961 29.5867C65.0441 27.3124 65.2765 24.9551 66.164 22.8128C67.0515 20.6705 68.5542 18.8394 70.4821 17.551C72.4101 16.2626 74.6768 15.5747 76.9956 15.5743C80.105 15.577 83.0863 16.8133 85.2852 19.0118C87.484 21.2103 88.7209 24.1914 88.7242 27.3008V27.3091ZM43.5181 3.14364C51.9364 3.14364 58.7861 7.77675 58.7861 13.4681C58.7861 19.1595 51.9364 23.7905 43.5181 23.7905C40.6951 23.8111 37.8978 23.2546 35.2976 22.1552C35.1662 22.0978 35.0245 22.0673 34.881 22.0656C34.7737 22.0661 34.667 22.0822 34.5644 22.1135L30.4646 23.3926L30.6062 19.3908C30.6155 19.1222 30.5224 18.8601 30.3458 18.6575C28.9792 17.0825 28.2626 15.2889 28.2626 13.4681C28.248 7.758 35.0893 3.12489 43.5077 3.12489L43.5181 3.14364ZM4.08253 82.8751C3.83095 82.8746 3.58986 82.7742 3.41216 82.5961C3.23446 82.418 3.13466 82.1767 3.13466 81.9252V78.4399C3.13466 78.1885 3.23453 77.9474 3.41229 77.7697C3.59005 77.5919 3.83114 77.492 4.08253 77.492H31.8353C31.6812 78.0342 31.6027 78.595 31.602 79.1586C31.6015 80.5131 32.0738 81.8253 32.9373 82.8689L4.08253 82.8751ZM37.4413 73.2339C36.5808 73.2331 35.731 73.4241 34.9537 73.7931C34.1763 74.1622 33.4911 74.6999 32.9478 75.3671H8.2844V67.2925H55.33V73.2339H37.4413ZM36.6476 65.1677H16.4007V57.166C16.4388 54.5068 17.522 51.9694 19.4159 50.1024C21.3099 48.2354 23.8626 47.1888 26.522 47.1888C29.1815 47.1888 31.7342 48.2354 33.6281 50.1024C35.5221 51.9694 36.6053 54.5068 36.6434 57.166L36.6476 65.1677ZM55.33 57.291V65.1677H38.7683V57.166C38.7652 54.7203 38.031 52.3315 36.6602 50.3062C35.2893 48.2809 33.3443 46.7116 31.0749 45.7999C32.775 44.8006 34.099 43.2699 34.843 41.4437C35.587 39.6176 35.7095 37.5973 35.1917 35.6946C34.674 33.7919 33.5446 32.1123 31.9779 30.915C30.4111 29.7176 28.494 29.0689 26.522 29.0689C24.5501 29.0689 22.633 29.7176 21.0662 30.915C19.4995 32.1123 18.3701 33.7919 17.8523 35.6946C17.3346 37.5973 17.4571 39.6176 18.2011 41.4437C18.9451 43.2699 20.2691 44.8006 21.9691 45.7999C19.6995 46.7111 17.7542 48.2803 16.3832 50.3057C15.0123 52.3311 14.2784 54.7202 14.2758 57.166V65.1739H8.2844V21.6531C8.28606 20.0414 8.92704 18.4962 10.0667 17.3566C11.2063 16.2169 12.7516 15.5759 14.3633 15.5743H26.3731C26.748 17.0904 27.4601 18.5025 28.4563 19.7053L28.2751 24.7967C28.2706 24.9392 28.2948 25.0812 28.3461 25.2142C28.3975 25.3472 28.475 25.4686 28.574 25.5711C28.673 25.6736 28.7916 25.7553 28.9228 25.8112C29.0539 25.8671 29.195 25.8962 29.3375 25.8967C29.4449 25.8971 29.5517 25.881 29.6542 25.8488L34.806 24.2509C37.5712 25.3649 40.5265 25.9309 43.5077 25.9175C52.0864 25.9175 59.2319 21.449 60.6443 15.5951H69.6397C67.6072 16.8675 65.9403 18.6463 64.8026 20.7571C63.6648 22.8679 63.0952 25.2381 63.1496 27.6354C63.204 30.0327 63.8805 32.3747 65.1129 34.4317C66.3453 36.4887 68.0911 38.1901 70.1793 39.3689C66.0088 40.1687 62.2465 42.3943 59.5372 45.6642C56.828 48.9341 55.3406 53.0445 55.33 57.291ZM26.521 44.9145C25.1638 44.9145 23.8371 44.512 22.7086 43.758C21.5801 43.004 20.7006 41.9323 20.1812 40.6784C19.6618 39.4245 19.5259 38.0447 19.7907 36.7136C20.0555 35.3825 20.709 34.1597 21.6687 33.2001C22.6284 32.2404 23.8511 31.5868 25.1823 31.322C26.5134 31.0572 27.8931 31.1931 29.147 31.7125C30.4009 32.2319 31.4727 33.1114 32.2267 34.2399C32.9807 35.3684 33.3832 36.6951 33.3832 38.0523C33.3799 39.8713 32.6558 41.6148 31.3696 42.901C30.0834 44.1872 28.3399 44.9112 26.521 44.9145Z" fill="black" stroke="black" stroke-width="0.6"></path></svg>