<svg xmlns="http://www.w3.org/2000/svg" width="87" height="86" viewBox="0 0 87 86" fill="none"><path d="M56.9204 80.1906C52.7089 82.1157 48.1325 83.1121 43.5019 83.1121C38.8713 83.1121 34.2949 82.1157 30.0834 80.1906C29.9703 80.1346 29.8471 80.1018 29.7212 80.0942C29.5952 80.0867 29.469 80.1044 29.35 80.1465C29.231 80.1885 29.1217 80.254 29.0284 80.3391C28.9352 80.4241 28.86 80.527 28.8072 80.6416C28.7544 80.7563 28.7252 80.8803 28.7212 81.0065C28.7172 81.1326 28.7385 81.2583 28.784 81.376C28.8294 81.4938 28.898 81.6012 28.9856 81.692C29.0733 81.7827 29.1783 81.855 29.2944 81.9045C33.7531 83.9443 38.5988 85.0001 43.5019 85.0001C48.405 85.0001 53.2507 83.9443 57.7094 81.9045C57.9295 81.7954 58.0985 81.6049 58.1803 81.3733C58.2622 81.1417 58.2505 80.8873 58.1478 80.6641C58.045 80.441 57.8594 80.2667 57.6302 80.1783C57.401 80.0899 57.1464 80.0943 56.9204 80.1906Z" fill="#231F20" stroke="black" stroke-width="0.6"></path><path d="M26.6506 20.7992C18.8347 24.9106 12.9281 31.9053 10.1837 40.2993C10.1432 40.4175 10.1266 40.5426 10.1349 40.6672C10.1431 40.7919 10.176 40.9137 10.2317 41.0255C10.2873 41.1373 10.3647 41.237 10.4592 41.3187C10.5536 41.4005 10.6634 41.4626 10.7821 41.5016C10.9008 41.5406 11.026 41.5556 11.1506 41.5458C11.2751 41.536 11.3965 41.5016 11.5076 41.4445C11.6188 41.3875 11.7175 41.3089 11.798 41.2134C11.8786 41.1179 11.9393 41.0074 11.9768 40.8882C14.5692 32.9583 20.1497 26.3507 27.5339 22.4677C27.6435 22.4097 27.7405 22.3307 27.8196 22.2352C27.8986 22.1397 27.958 22.0296 27.9945 21.9111C28.0309 21.7926 28.0437 21.6681 28.0321 21.5447C28.0204 21.4212 27.9845 21.3013 27.9265 21.1918C27.8685 21.0822 27.7895 20.9851 27.694 20.9061C27.5985 20.8271 27.4883 20.7677 27.3699 20.7312C27.2514 20.6947 27.1269 20.682 27.0034 20.6936C26.88 20.7053 26.7601 20.7412 26.6506 20.7992Z" fill="#231F20" stroke="black" stroke-width="0.6"></path><path d="M75.9247 41.5375C76.0739 41.5375 76.221 41.5021 76.3538 41.4343C76.4867 41.3665 76.6016 41.2681 76.6891 41.1473C76.7766 41.0264 76.8342 40.8866 76.8571 40.7392C76.8801 40.5918 76.8678 40.441 76.8213 40.2993C74.0769 31.9053 68.1703 24.9106 60.3544 20.7992C60.1332 20.682 59.8744 20.6576 59.6351 20.7312C59.3958 20.8048 59.1956 20.9705 59.0785 21.1918C58.9613 21.413 58.9369 21.6718 59.0105 21.9111C59.0841 22.1504 59.2498 22.3506 59.4711 22.4677C66.8539 26.3514 72.4329 32.959 75.0244 40.8882C75.0866 41.0777 75.2072 41.2426 75.369 41.3592C75.5307 41.4759 75.7253 41.5383 75.9247 41.5375Z" fill="#231F20" stroke="black" stroke-width="0.6"></path><path d="M37.2188 9.17947C37.2187 7.93669 37.5873 6.72182 38.2777 5.68848C38.9682 4.65515 39.9495 3.84976 41.0977 3.37417C42.2459 2.89858 43.5093 2.77414 44.7282 3.0166C45.9471 3.25905 47.0668 3.85751 47.9455 4.73628C48.8243 5.61506 49.4228 6.7347 49.6652 7.9536C49.9077 9.1725 49.7833 10.4359 49.3077 11.5841C48.8321 12.7323 48.0267 13.7136 46.9933 14.4041C45.96 15.0946 44.7451 15.4631 43.5024 15.4631C41.8363 15.4616 40.2389 14.7991 39.0608 13.621C37.8828 12.4429 37.2202 10.8455 37.2188 9.17947Z" fill="#F4832B"></path><path d="M70.7691 55.9623C70.7691 54.7195 71.1376 53.5046 71.8281 52.4713C72.5185 51.4379 73.4999 50.6325 74.6481 50.1569C75.7963 49.6814 77.0597 49.5569 78.2786 49.7994C79.4975 50.0418 80.6171 50.6403 81.4959 51.5191C82.3747 52.3978 82.9731 53.5175 83.2156 54.7364C83.458 55.9553 83.3336 57.2187 82.858 58.3669C82.3824 59.5151 81.577 60.4964 80.5437 61.1869C79.5104 61.8773 78.2955 62.2459 77.0527 62.2459C75.3868 62.2439 73.7897 61.5812 72.6117 60.4032C71.4338 59.2253 70.7711 57.6282 70.7691 55.9623Z" fill="#F4832B"></path><path d="M3.67524 55.962C3.67524 54.7192 4.04376 53.5043 4.73422 52.471C5.42467 51.4377 6.40603 50.6323 7.55421 50.1567C8.70239 49.6811 9.96582 49.5567 11.1847 49.7991C12.4036 50.0416 13.5233 50.64 14.402 51.5188C15.2808 52.3976 15.8793 53.5172 16.1217 54.7361C16.3642 55.955 16.2397 57.2184 15.7642 58.3666C15.2886 59.5148 14.4832 60.4962 13.4498 61.1866C12.4165 61.8771 11.2016 62.2456 9.95885 62.2456C8.2931 62.2431 6.69629 61.5803 5.51842 60.4024C4.34056 59.2245 3.67773 57.6277 3.67524 55.962Z" fill="#F4832B"></path><path d="M35.2914 35.3143C35.5417 35.3143 35.7818 35.2149 35.9588 35.0379C36.1358 34.8609 36.2352 34.6209 36.2352 34.3705V23.0812C36.2372 21.562 36.8416 20.1055 37.9158 19.0313C38.9901 17.957 40.4465 17.3526 41.9658 17.3506H44.5026C46.1642 17.3521 47.7572 18.0128 48.9321 19.1877C50.107 20.3626 50.7677 21.9557 50.7692 23.6172V34.3762C50.7692 34.6265 50.8687 34.8666 51.0457 35.0436C51.2226 35.2206 51.4627 35.32 51.713 35.32C51.9633 35.32 52.2034 35.2206 52.3803 35.0436C52.5573 34.8666 52.6568 34.6265 52.6568 34.3762V23.6172C52.6555 22.0315 52.1923 20.4805 51.3237 19.1537C50.4552 17.8269 49.219 16.7819 47.7662 16.1464C49.2788 15.2217 50.4497 13.8303 51.1024 12.182C51.7551 10.5337 51.8541 8.71791 51.3846 7.0084C50.915 5.29888 49.9024 3.78839 48.4993 2.70472C47.0963 1.62104 45.3789 1.02295 43.6062 1.00065C41.8336 0.97834 40.1017 1.53302 38.6718 2.58105C37.2419 3.62907 36.1916 5.1136 35.6792 6.81076C35.1668 8.50791 35.2201 10.3257 35.8311 11.9899C36.4421 13.6541 37.5777 15.0745 39.0665 16.0369C37.6712 16.6125 36.4781 17.589 35.6381 18.843C34.7981 20.0969 34.349 21.5719 34.3477 23.0812V34.3705C34.3477 34.6209 34.4471 34.8609 34.6241 35.0379C34.8011 35.2149 35.0411 35.3143 35.2914 35.3143ZM37.2186 9.17947C37.2186 7.93669 37.5871 6.72182 38.2776 5.68848C38.968 4.65515 39.9494 3.84976 41.0976 3.37417C42.2458 2.89858 43.5092 2.77414 44.7281 3.0166C45.947 3.25905 47.0666 3.85751 47.9454 4.73628C48.8242 5.61506 49.4226 6.7347 49.6651 7.9536C49.9075 9.1725 49.7831 10.4359 49.3075 11.5841C48.8319 12.7323 48.0265 13.7137 46.9932 14.4041C45.9599 15.0946 44.745 15.4631 43.5022 15.4631C41.8362 15.4616 40.2388 14.7991 39.0607 13.621C37.8826 12.4429 37.2201 10.8455 37.2186 9.17947Z" fill="#231F20" stroke="black" stroke-width="0.6"></path><path d="M81.315 62.9308C82.8276 62.0062 83.9985 60.6148 84.6512 58.9665C85.3039 57.3182 85.4029 55.5023 84.9334 53.7928C84.4639 52.0833 83.4512 50.5728 82.0482 49.4891C80.6451 48.4055 78.9277 47.8074 77.1551 47.7851C75.3824 47.7628 73.6505 48.3174 72.2206 49.3655C70.7908 50.4135 69.7404 51.898 69.228 53.5952C68.7156 55.2923 68.7689 57.1101 69.3799 58.7743C69.9909 60.4385 71.1265 61.8589 72.6153 62.8213C71.2201 63.3969 70.0269 64.3734 69.1869 65.6274C68.3469 66.8813 67.8978 68.3563 67.8965 69.8656V81.1531C67.8965 81.4034 67.9959 81.6434 68.1729 81.8204C68.3499 81.9974 68.59 82.0969 68.8403 82.0969C69.0906 82.0969 69.3306 81.9974 69.5076 81.8204C69.6846 81.6434 69.784 81.4034 69.784 81.1531V69.8656C69.786 68.3459 70.3906 66.889 71.4652 65.8144C72.5398 64.7397 73.9967 64.1352 75.5165 64.1332H78.0439C79.7053 64.1352 81.2981 64.796 82.4729 65.9708C83.6476 67.1456 84.3085 68.7384 84.3105 70.3998V81.1587C84.3105 81.409 84.4099 81.6491 84.5869 81.8261C84.7639 82.0031 85.004 82.1025 85.2543 82.1025C85.5046 82.1025 85.7446 82.0031 85.9216 81.8261C86.0986 81.6491 86.1981 81.409 86.1981 81.1587V70.3998C86.197 68.8152 85.7348 67.2652 84.8677 65.9388C84.0006 64.6125 82.7661 63.5673 81.315 62.9308ZM70.7674 55.962C70.7674 54.7192 71.136 53.5044 71.8264 52.471C72.5169 51.4377 73.4982 50.6323 74.6464 50.1567C75.7946 49.6811 77.058 49.5567 78.2769 49.7991C79.4958 50.0416 80.6154 50.64 81.4942 51.5188C82.373 52.3976 82.9715 53.5172 83.2139 54.7361C83.4564 55.955 83.3319 57.2185 82.8563 58.3666C82.3808 59.5148 81.5754 60.4962 80.542 61.1866C79.5087 61.8771 78.2938 62.2456 77.051 62.2456C75.3851 62.2436 73.788 61.581 72.6101 60.403C71.4321 59.225 70.7694 57.6279 70.7674 55.962Z" fill="#231F20" stroke="black" stroke-width="0.6"></path><path d="M14.2174 62.9308C15.7298 62.0056 16.9004 60.6138 17.5526 58.9652C18.2047 57.3166 18.3032 55.5006 17.833 53.7912C17.3628 52.0818 16.3495 50.5716 14.946 49.4884C13.5424 48.4052 11.8247 47.8078 10.0519 47.7862C8.27913 47.7647 6.54741 48.3202 5.11794 49.3689C3.68848 50.4177 2.63879 51.9028 2.12721 53.6003C1.61563 55.2978 1.66989 57.1157 2.28182 58.7796C2.89375 60.4436 4.03015 61.8635 5.51963 62.8251C4.12437 63.4006 2.93124 64.3772 2.09124 65.6311C1.25124 66.8851 0.802141 68.3601 0.800781 69.8694V81.1568C0.800781 81.4071 0.900214 81.6472 1.0772 81.8242C1.2542 82.0012 1.49425 82.1006 1.74455 82.1006C1.99485 82.1006 2.2349 82.0012 2.4119 81.8242C2.58889 81.6472 2.68832 81.4071 2.68832 81.1568V69.8656C2.68982 68.346 3.29399 66.8891 4.3683 65.8145C5.44261 64.7398 6.89933 64.1351 8.41888 64.1331H10.9557C12.617 64.1356 14.2095 64.7967 15.3841 65.9713C16.5588 67.146 17.2199 68.7385 17.2224 70.3998V81.1587C17.2224 81.409 17.3218 81.6491 17.4988 81.8261C17.6758 82.0031 17.9158 82.1025 18.1661 82.1025C18.4164 82.1025 18.6565 82.0031 18.8335 81.8261C19.0105 81.6491 19.1099 81.409 19.1099 81.1587V70.3998C19.1078 68.8142 18.6441 67.2635 17.7752 65.9371C16.9064 64.6108 15.6701 63.5661 14.2174 62.9308ZM3.6755 55.962C3.6755 54.7192 4.04403 53.5043 4.73448 52.471C5.42493 51.4377 6.4063 50.6323 7.55448 50.1567C8.70266 49.6811 9.96608 49.5567 11.185 49.7991C12.4039 50.0416 13.5235 50.64 14.4023 51.5188C15.2811 52.3976 15.8795 53.5172 16.122 54.7361C16.3644 55.955 16.24 57.2184 15.7644 58.3666C15.2888 59.5148 14.4834 60.4962 13.4501 61.1866C12.4168 61.8771 11.2019 62.2456 9.95911 62.2456C8.29336 62.2431 6.69655 61.5803 5.51869 60.4024C4.34082 59.2245 3.678 57.6277 3.6755 55.962Z" fill="#231F20" stroke="black" stroke-width="0.6"></path></svg>