<svg xmlns="http://www.w3.org/2000/svg" width="83" height="85" viewBox="0 0 83 85" fill="none"><path d="M80.8287 34.2345C80.5836 34.2345 80.3486 34.3318 80.1753 34.5051C80.002 34.6784 79.9046 34.9135 79.9046 35.1586V61.9018H72.0641C72.8797 61.27 73.5409 60.4609 73.9975 59.5357C74.4541 58.6106 74.6943 57.5937 74.6998 56.562V31.7577C74.6998 29.0925 73.1158 26.7673 70.8017 25.6176C74.478 24.2906 77.1063 20.8287 77.1063 16.7772C77.1063 11.5835 72.7831 7.35083 67.4692 7.35083C62.1553 7.35083 57.834 11.5779 57.834 16.7772C57.834 20.8287 60.4623 24.2906 64.1385 25.6176C61.8245 26.7747 60.2405 29.0925 60.2405 31.7577V37.9477H48.6349C47.5195 37.9359 46.4451 38.3675 45.6479 39.1477C44.8507 39.928 44.396 40.9928 44.3838 42.1082C44.3833 42.9344 44.6333 43.7413 45.101 44.4223H37.8907C38.3584 43.7413 38.6085 42.9344 38.6079 42.1082C38.5952 40.993 38.1404 39.9284 37.3433 39.1483C36.5462 38.3682 35.472 37.9364 34.3568 37.9477H22.7605V31.7577C22.7605 29.0925 21.1765 26.7673 18.8624 25.6176C22.5387 24.2906 25.167 20.8287 25.167 16.7772C25.167 11.5835 20.8438 7.35083 15.5318 7.35083C10.2197 7.35083 5.89469 11.5779 5.89469 16.7772C5.89469 20.8287 8.52298 24.2906 12.1993 25.6176C9.89443 26.7747 8.30119 29.0925 8.30119 31.7577V56.562C8.30665 57.5937 8.5468 58.6106 9.00344 59.5357C9.46008 60.4609 10.1212 61.27 10.9369 61.9018H3.09635V35.1586C3.09635 34.9135 2.99899 34.6784 2.82568 34.5051C2.65236 34.3318 2.4173 34.2345 2.1722 34.2345C1.9271 34.2345 1.69204 34.3318 1.51873 34.5051C1.34541 34.6784 1.24805 34.9135 1.24805 35.1586V83.0704C1.24805 83.3155 1.34541 83.5506 1.51873 83.7239C1.69204 83.8972 1.9271 83.9946 2.1722 83.9946C2.4173 83.9946 2.65236 83.8972 2.82568 83.7239C2.99899 83.5506 3.09635 83.3155 3.09635 83.0704V63.7501H25.7492V83.0704C25.7492 83.3155 25.8466 83.5506 26.0199 83.7239C26.1932 83.8972 26.4283 83.9946 26.6734 83.9946C26.9185 83.9946 27.1535 83.8972 27.3268 83.7239C27.5001 83.5506 27.5975 83.3155 27.5975 83.0704V62.5542C27.5975 62.3091 27.5001 62.074 27.3268 61.9007C27.1535 61.7274 26.9185 61.6301 26.6734 61.6301H15.5318C12.5634 61.6301 10.1495 59.3529 10.1495 56.5564V45.5424C10.8596 46.0199 11.6966 46.2736 12.5523 46.2706H20.9214V52.5068C20.9214 52.7519 21.0188 52.987 21.1921 53.1603C21.3654 53.3336 21.6005 53.431 21.8456 53.431H29.0059C31.9725 53.431 34.3863 55.7062 34.3863 58.5046V83.0704C34.3863 83.3155 34.4837 83.5506 34.657 83.7239C34.8303 83.8972 35.0654 83.9946 35.3105 83.9946C35.5556 83.9946 35.7907 83.8972 35.964 83.7239C36.1373 83.5506 36.2346 83.3155 36.2346 83.0704V58.5046C36.2346 54.6878 32.9927 51.5827 29.0059 51.5827H22.7605V46.2706H40.5763V83.0704C40.5763 83.3155 40.6737 83.5506 40.847 83.7239C41.0203 83.8972 41.2554 83.9946 41.5005 83.9946C41.7456 83.9946 41.9806 83.8972 42.1539 83.7239C42.3273 83.5506 42.4246 83.3155 42.4246 83.0704V46.2706H60.2405V51.5827H54.0043C50.0175 51.5827 46.7755 54.6878 46.7755 58.5046V83.0704C46.7755 83.3155 46.8729 83.5506 47.0462 83.7239C47.2195 83.8972 47.4546 83.9946 47.6997 83.9946C47.9448 83.9946 48.1799 83.8972 48.3532 83.7239C48.5265 83.5506 48.6238 83.3155 48.6238 83.0704V58.5046C48.6238 55.7062 51.0377 53.431 54.0043 53.431H61.1646C61.4097 53.431 61.6448 53.3336 61.8181 53.1603C61.9914 52.987 62.0888 52.7519 62.0888 52.5068V46.2706H70.456C71.3118 46.2735 72.1487 46.0198 72.8588 45.5424V56.562C72.8588 59.3585 70.445 61.6356 67.4766 61.6356H56.3276C56.0825 61.6356 55.8474 61.733 55.6741 61.9063C55.5008 62.0796 55.4034 62.3147 55.4034 62.5598V83.076C55.4034 83.3211 55.5008 83.5561 55.6741 83.7294C55.8474 83.9027 56.0825 84.0001 56.3276 84.0001C56.5727 84.0001 56.8078 83.9027 56.9811 83.7294C57.1544 83.5561 57.2517 83.3211 57.2517 83.076V63.7501H79.9046V83.0704C79.9046 83.3155 80.002 83.5506 80.1753 83.7239C80.3486 83.8972 80.5836 83.9946 80.8287 83.9946C81.0738 83.9946 81.3089 83.8972 81.4822 83.7239C81.6555 83.5506 81.7529 83.3155 81.7529 83.0704V35.1586C81.7529 34.9135 81.6555 34.6784 81.4822 34.5051C81.3089 34.3318 81.0738 34.2345 80.8287 34.2345ZM7.743 16.7772C7.743 12.6019 11.2363 9.19914 15.5318 9.19914C19.8272 9.19914 23.3187 12.5963 23.3187 16.7772C23.3187 20.9581 19.8254 24.3553 15.5318 24.3553C11.2381 24.3553 7.743 20.9544 7.743 16.7772ZM34.3586 44.4223H12.543C12.2333 44.4282 11.9255 44.373 11.6371 44.2599C11.3487 44.1468 11.0854 43.9779 10.8623 43.763C10.6391 43.5481 10.4605 43.2914 10.3366 43.0075C10.2128 42.7235 10.146 42.418 10.1403 42.1082V31.7577C10.1403 28.9612 12.5541 26.6841 15.5225 26.6841C18.4909 26.6841 20.9029 28.9612 20.9029 31.7577V37.9477H16.7868V34.1772C16.7868 33.9321 16.6894 33.697 16.5161 33.5237C16.3428 33.3504 16.1077 33.253 15.8626 33.253C15.6175 33.253 15.3824 33.3504 15.2091 33.5237C15.0358 33.697 14.9385 33.9321 14.9385 34.1772V38.8719C14.9385 39.117 15.0358 39.352 15.2091 39.5253C15.3824 39.6986 15.6175 39.796 15.8626 39.796H34.3642C34.6786 39.7782 34.9933 39.8248 35.2891 39.9328C35.5848 40.0409 35.8554 40.2082 36.0843 40.4245C36.3132 40.6408 36.4955 40.9015 36.6201 41.1907C36.7447 41.4799 36.809 41.7915 36.809 42.1064C36.809 42.4213 36.7447 42.7329 36.6201 43.0221C36.4955 43.3113 36.3132 43.572 36.0843 43.7883C35.8554 44.0046 35.5848 44.1719 35.2891 44.2799C34.9933 44.388 34.6786 44.4346 34.3642 44.4168L34.3586 44.4223ZM59.6804 16.7772C59.6804 12.6019 63.1737 9.19914 67.4673 9.19914C71.7609 9.19914 75.2561 12.5963 75.2561 16.7772C75.2561 20.9581 71.7628 24.3553 67.4673 24.3553C63.1719 24.3553 59.6823 20.9544 59.6823 16.7772H59.6804ZM70.4542 44.4223H48.6349C48.3205 44.4401 48.0058 44.3935 47.71 44.2855C47.4143 44.1774 47.1437 44.0101 46.9148 43.7938C46.6859 43.5775 46.5036 43.3168 46.379 43.0276C46.2544 42.7384 46.1901 42.4268 46.1901 42.1119C46.1901 41.797 46.2544 41.4854 46.379 41.1963C46.5036 40.9071 46.6859 40.6463 46.9148 40.43C47.1437 40.2138 47.4143 40.0465 47.71 39.9384C48.0058 39.8303 48.3205 39.7838 48.6349 39.8016H67.1383C67.3834 39.8016 67.6185 39.7042 67.7918 39.5309C67.9651 39.3576 68.0625 39.1225 68.0625 38.8774V34.1827C68.0625 33.9376 67.9651 33.7025 67.7918 33.5292C67.6185 33.3559 67.3834 33.2585 67.1383 33.2585C66.8932 33.2585 66.6582 33.3559 66.4849 33.5292C66.3115 33.7025 66.2142 33.9376 66.2142 34.1827V37.9532H62.0888V31.7577C62.0888 28.9612 64.5027 26.6841 67.4692 26.6841C70.4357 26.6841 72.8514 28.9612 72.8514 31.7577V42.1082C72.8398 42.7325 72.5811 43.3266 72.132 43.7604C71.683 44.1942 71.0803 44.4322 70.456 44.4223H70.4542Z" fill="#231F20" stroke="black" stroke-width="0.6"></path><path d="M49.6114 8.10866C49.8562 8.10812 50.0909 8.01039 50.2638 7.83696L52.3746 5.72804C52.5429 5.55374 52.6361 5.3203 52.634 5.07799C52.6319 4.83568 52.5347 4.60389 52.3633 4.43254C52.192 4.2612 51.9602 4.16401 51.7179 4.1619C51.4756 4.15979 51.2421 4.25294 51.0678 4.42129L48.9571 6.5302C48.8275 6.65946 48.7392 6.82427 48.7034 7.00376C48.6676 7.18324 48.6859 7.36932 48.756 7.53839C48.8261 7.70746 48.9448 7.85191 49.0971 7.95344C49.2493 8.05496 49.4283 8.10899 49.6114 8.10866Z" fill="#F4832B"></path><path d="M50.7949 16.2743C50.7949 16.5194 50.8923 16.7544 51.0656 16.9277C51.2389 17.101 51.474 17.1984 51.7191 17.1984H54.7022C54.9473 17.1984 55.1824 17.101 55.3557 16.9277C55.529 16.7544 55.6264 16.5194 55.6264 16.2743C55.6264 16.0292 55.529 15.7941 55.3557 15.6208C55.1824 15.4475 54.9473 15.3501 54.7022 15.3501H51.7191C51.474 15.3501 51.2389 15.4475 51.0656 15.6208C50.8923 15.7941 50.7949 16.0292 50.7949 16.2743Z" fill="#F4832B"></path><path d="M41.5003 4.82963C41.7454 4.82963 41.9805 4.73226 42.1538 4.55895C42.3271 4.38563 42.4245 4.15057 42.4245 3.90547V0.924153C42.4245 0.679052 42.3271 0.443991 42.1538 0.270678C41.9805 0.0973659 41.7454 0 41.5003 0C41.2552 0 41.0202 0.0973659 40.8468 0.270678C40.6735 0.443991 40.5762 0.679052 40.5762 0.924153V3.90547C40.5762 4.15057 40.6735 4.38563 40.8468 4.55895C41.0202 4.73226 41.2552 4.82963 41.5003 4.82963Z" fill="#F4832B"></path><path d="M32.7368 7.83672C32.822 7.92499 32.924 7.99539 33.0367 8.04382C33.1495 8.09226 33.2707 8.11775 33.3935 8.11882C33.5162 8.11988 33.6379 8.0965 33.7514 8.05003C33.865 8.00357 33.9682 7.93495 34.055 7.84817C34.1417 7.7614 34.2104 7.65822 34.2568 7.54465C34.3033 7.43107 34.3267 7.30938 34.3256 7.18667C34.3245 7.06396 34.299 6.94269 34.2506 6.82994C34.2022 6.71719 34.1318 6.61522 34.0435 6.52997L31.9346 4.42105C31.8493 4.33278 31.7474 4.26238 31.6346 4.21395C31.5219 4.16551 31.4006 4.14002 31.2779 4.13895C31.1552 4.13788 31.0335 4.16127 30.9199 4.20773C30.8063 4.2542 30.7032 4.32282 30.6164 4.40959C30.5296 4.49637 30.461 4.59955 30.4145 4.71312C30.3681 4.8267 30.3447 4.94839 30.3457 5.0711C30.3468 5.19381 30.3723 5.31508 30.4207 5.42783C30.4692 5.54058 30.5396 5.64255 30.6278 5.7278L32.7368 7.83672Z" fill="#F4832B"></path><path d="M28.2972 17.1984H31.2804C31.5255 17.1984 31.7605 17.101 31.9338 16.9277C32.1072 16.7544 32.2045 16.5194 32.2045 16.2743C32.2045 16.0292 32.1072 15.7941 31.9338 15.6208C31.7605 15.4475 31.5255 15.3501 31.2804 15.3501H28.2972C28.0521 15.3501 27.817 15.4475 27.6437 15.6208C27.4704 15.7941 27.373 16.0292 27.373 16.2743C27.373 16.5194 27.4704 16.7544 27.6437 16.9277C27.817 17.101 28.0521 17.1984 28.2972 17.1984Z" fill="#F4832B"></path><path d="M36.6949 14.6423C36.6904 13.8401 36.8868 13.0495 37.2662 12.3426C37.6456 11.6357 38.1959 11.0351 38.867 10.5954C39.538 10.1558 40.3085 9.89112 41.1081 9.82562C41.9076 9.76011 42.7109 9.89582 43.4446 10.2204C44.1783 10.5449 44.819 11.048 45.3084 11.6837C45.7978 12.3194 46.1202 13.0675 46.2463 13.8598C46.3724 14.6521 46.2982 15.4634 46.0303 16.2196C45.7625 16.9758 45.3096 17.653 44.7129 18.1892C44.6173 18.276 44.5409 18.3819 44.4887 18.5C44.4365 18.6181 44.4096 18.7458 44.4098 18.875V21.5051H38.5821V18.8805C38.5825 18.7515 38.5559 18.6239 38.504 18.5058C38.4521 18.3877 38.3761 18.2817 38.2808 18.1948C37.7834 17.7459 37.3854 17.198 37.1123 16.5862C36.8392 15.9744 36.697 15.3123 36.6949 14.6423Z" fill="#F4832B"></path><path d="M36.7338 22.4348C36.7338 22.6799 36.8311 22.915 37.0044 23.0883C37.1777 23.2616 37.4128 23.359 37.6579 23.359H45.3413C45.5864 23.359 45.8215 23.2616 45.9948 23.0883C46.1681 22.915 46.2655 22.6799 46.2655 22.4348V19.2631C47.1787 18.3258 47.7953 17.14 48.038 15.8541C48.2808 14.5681 48.139 13.2392 47.6303 12.0334C47.1217 10.8277 46.2688 9.79871 45.1783 9.07521C44.0878 8.35171 42.8083 7.96582 41.4996 7.96582C40.191 7.96582 38.9114 8.35171 37.8209 9.07521C36.7305 9.79871 35.8776 10.8277 35.3689 12.0334C34.8603 13.2392 34.7184 14.5681 34.9612 15.8541C35.204 17.14 35.8205 18.3258 36.7338 19.2631V22.4348ZM36.6949 14.6423C36.6904 13.8401 36.8868 13.0495 37.2662 12.3426C37.6456 11.6357 38.1959 11.0351 38.867 10.5954C39.538 10.1558 40.3085 9.89112 41.1081 9.82562C41.9076 9.76011 42.7109 9.89582 43.4446 10.2204C44.1783 10.5449 44.819 11.048 45.3084 11.6837C45.7978 12.3194 46.1202 13.0675 46.2463 13.8598C46.3724 14.6521 46.2982 15.4634 46.0303 16.2196C45.7625 16.9758 45.3096 17.653 44.7129 18.1892C44.6173 18.276 44.5409 18.3819 44.4887 18.5C44.4365 18.6181 44.4096 18.7458 44.4098 18.875V21.5051H38.5821V18.8805C38.5825 18.7515 38.5559 18.6239 38.504 18.5058C38.4521 18.3877 38.3761 18.2817 38.2808 18.1948C37.7834 17.7459 37.3854 17.198 37.1123 16.5862C36.8392 15.9744 36.697 15.3123 36.6949 14.6423Z" fill="#231F20" stroke="black" stroke-width="0.6"></path></svg>