<svg xmlns="http://www.w3.org/2000/svg" width="85" height="84" viewBox="0 0 85 84" fill="none"><path d="M55.2412 39.4742L52.7752 36.0736L56.9244 35.4124C58.4442 35.0742 58.0643 32.9845 58.1935 31.818C58.0529 30.6553 58.4632 28.5579 56.9244 28.2197L52.7714 27.5624L55.2412 24.1656C56.1683 22.2278 52.9158 20.2481 51.6467 19.0703C50.5448 18.1052 48.569 20.4229 46.7528 21.5438L46.0993 17.3908C45.4724 15.3922 41.6119 16.251 39.9553 16.3345C38.5077 16.4447 38.7546 19.3476 38.2455 21.54L34.8258 19.0703C32.8994 18.147 30.9008 21.4222 29.7609 22.6761C28.7996 23.778 31.1212 25.7576 32.2345 27.5624L28.0853 28.2197C26.5465 28.5655 26.9454 30.6135 26.82 31.818C26.9606 33.0225 26.5465 35.0629 28.0853 35.4124L32.2345 36.0736L29.7647 39.4742C28.8376 41.4082 32.1015 43.3916 33.3592 44.5657C34.4611 45.5308 36.4407 43.2092 38.2531 42.0921L38.9142 46.2451C39.2714 47.784 41.2928 47.3622 42.5125 47.5066C43.7321 47.3622 45.7573 47.784 46.1069 46.2451L46.768 42.0921L50.1687 44.5619C52.1065 45.489 54.0899 42.2213 55.2602 40.9637C55.4138 40.7449 55.4947 40.4832 55.4913 40.2159C55.4879 39.9485 55.4004 39.689 55.2412 39.4742ZM50.8792 41.944L47.6267 39.5806C46.8326 38.9689 46.0043 39.7022 45.214 39.9302C44.0171 40.1429 44.1425 43.2016 43.7283 44.9039C42.9092 44.9761 42.0853 44.9761 41.2662 44.9039C40.8482 43.194 40.9774 40.1429 39.7805 39.9302C38.9902 39.7022 38.1581 38.9651 37.3678 39.5806L34.1115 41.9402C33.4776 41.4152 32.8949 40.8312 32.3713 40.1961L34.7308 36.9437C35.3426 36.1533 34.6131 35.3288 34.3851 34.5385C34.1761 33.334 31.1326 33.467 29.4076 33.0491C29.3278 32.2303 29.3278 31.4057 29.4076 30.5869C31.1288 30.1689 34.1723 30.3019 34.3851 29.0975C34.6131 28.3071 35.3426 27.4788 34.7308 26.6885L32.3675 23.436C32.8944 22.8027 33.4782 22.2189 34.1115 21.692L37.3602 24.0516C38.1505 24.6595 38.9788 23.9376 39.7691 23.7058C40.9698 23.493 40.8406 20.4495 41.2586 18.7283C42.0774 18.6485 42.902 18.6485 43.7207 18.7283C44.1387 20.4457 44.0057 23.493 45.2064 23.7058C46.0005 23.9338 46.8288 24.6671 47.6191 24.0554L50.8716 21.692C51.5058 22.2179 52.0897 22.8018 52.6156 23.436L50.2523 26.6885C49.6405 27.4826 50.3701 28.3071 50.6056 29.1013C50.8146 30.2981 53.8733 30.1727 55.5793 30.5869C55.6591 31.4057 55.6591 32.2303 55.5793 33.0491C53.8619 33.467 50.8146 33.334 50.6056 34.5347C50.3701 35.325 49.6405 36.1533 50.2523 36.9437L52.6156 40.1999C52.0911 40.8329 51.5099 41.4167 50.8792 41.944ZM42.4973 26.7227C41.1469 26.7227 39.8519 27.2591 38.897 28.214C37.9422 29.1688 37.4058 30.4638 37.4058 31.8142C37.4058 33.1645 37.9422 34.4596 38.897 35.4144C39.8519 36.3692 41.1469 36.9057 42.4973 36.9057C43.8476 36.9057 45.1426 36.3692 46.0975 35.4144C47.0523 34.4596 47.5887 33.1645 47.5887 31.8142C47.5887 30.4638 47.0523 29.1688 46.0975 28.214C45.1426 27.2591 43.8476 26.7227 42.4973 26.7227ZM42.4973 34.3599C41.8221 34.3599 41.1746 34.0917 40.6971 33.6143C40.2197 33.1369 39.9515 32.4894 39.9515 31.8142C39.9515 31.139 40.2197 30.4915 40.6971 30.0141C41.1746 29.5366 41.8221 29.2684 42.4973 29.2684C43.1724 29.2684 43.82 29.5366 44.2974 30.0141C44.7748 30.4915 45.043 31.139 45.043 31.8142C45.043 32.4894 44.7748 33.1369 44.2974 33.6143C43.82 34.0917 43.1724 34.3599 42.4973 34.3599ZM79.8285 0H5.16983C3.93297 0.00200953 2.74734 0.494242 1.87274 1.36884C0.998148 2.24343 0.505916 3.42906 0.503906 4.66593L0.503906 69.153C0.505916 70.3899 0.998148 71.5755 1.87274 72.4501C2.74734 73.3247 3.93297 73.8169 5.16983 73.8189H25.9613V81.4562H17.0474C16.8747 81.4467 16.7018 81.4726 16.5394 81.5322C16.377 81.5918 16.2284 81.6839 16.1028 81.8028C15.9771 81.9218 15.8771 82.0651 15.8087 82.224C15.7403 82.3829 15.705 82.5541 15.705 82.7271C15.705 82.9001 15.7403 83.0713 15.8087 83.2303C15.8771 83.3892 15.9771 83.5325 16.1028 83.6514C16.2284 83.7704 16.377 83.8625 16.5394 83.9221C16.7018 83.9817 16.8747 84.0075 17.0474 83.9981H67.9623C68.2873 83.9803 68.5932 83.8387 68.8171 83.6023C69.0409 83.3659 69.1656 83.0527 69.1656 82.7271C69.1656 82.4016 69.0409 82.0884 68.8171 81.852C68.5932 81.6156 68.2873 81.4739 67.9623 81.4562H59.0408V73.8189H79.8285C81.0653 73.8169 82.251 73.3247 83.1256 72.4501C84.0002 71.5755 84.4924 70.3899 84.4944 69.153V4.66593C84.4924 3.42906 84.0002 2.24343 83.1256 1.36884C82.251 0.494242 81.0653 0.00200953 79.8285 0V0ZM3.04965 4.66593C3.04965 4.10362 3.27302 3.56434 3.67064 3.16673C4.06825 2.76912 4.60753 2.54574 5.16983 2.54574H79.8285C80.3908 2.54574 80.9301 2.76912 81.3277 3.16673C81.7253 3.56434 81.9487 4.10362 81.9487 4.66593V61.0864H3.04965V4.66593ZM56.495 81.4486H28.4995V73.8113H56.495V81.4486ZM81.9525 69.1454C81.9525 69.7077 81.7291 70.247 81.3315 70.6446C80.9339 71.0422 80.3946 71.2656 79.8323 71.2656H5.16983C4.60884 71.2656 4.07071 71.0433 3.67332 70.6473C3.27592 70.2513 3.05166 69.714 3.04965 69.153V63.6322H81.9487L81.9525 69.1454ZM12.8033 37.3274C14.0413 37.3251 15.2425 36.9058 16.2131 36.1371C17.1837 35.3685 17.8671 34.2954 18.1531 33.0909C20.3949 32.9123 23.389 33.7748 23.408 31.818C23.408 31.4804 23.2739 31.1566 23.0352 30.9179C22.7965 30.6792 22.4727 30.5451 22.1351 30.5451H18.1531C17.9139 29.5376 17.3956 28.618 16.6576 27.8916C15.9197 27.1652 14.992 26.6615 13.9809 26.4382C12.9698 26.2149 11.9162 26.281 10.941 26.6291C9.96574 26.9771 9.10833 27.5929 8.46704 28.4059C7.82576 29.2189 7.42656 30.1962 7.31523 31.2256C7.2039 32.2551 7.38493 33.2951 7.83758 34.2264C8.29023 35.1577 8.99616 35.9426 9.87444 36.4911C10.7527 37.0395 11.7678 37.3294 12.8033 37.3274ZM12.8033 28.8467C13.5903 28.8467 14.3451 29.1593 14.9016 29.7158C15.4581 30.2724 15.7708 31.0272 15.7708 31.8142C15.7708 32.6012 15.4581 33.356 14.9016 33.9125C14.3451 34.469 13.5903 34.7817 12.8033 34.7817C12.0162 34.7817 11.2614 34.469 10.7049 33.9125C10.1484 33.356 9.83576 32.6012 9.83576 31.8142C9.83576 31.0272 10.1484 30.2724 10.7049 29.7158C11.2614 29.1593 12.0162 28.8467 12.8033 28.8467ZM12.8033 20.3621C14.0422 20.3587 15.2438 19.9381 16.2144 19.1681C17.185 18.3981 17.8679 17.3236 18.1531 16.118H24.9924L27.4052 18.5269C28.5451 19.7124 30.3917 17.881 29.2024 16.7297L26.4287 13.9446C26.1855 13.2075 19.3842 13.7128 18.1531 13.5646C17.9112 12.5586 17.3909 11.6411 16.6518 10.9171C15.9127 10.193 14.9847 9.69173 13.974 9.47058C12.9632 9.24943 11.9106 9.31737 10.9367 9.66661C9.96276 10.0158 9.10686 10.6323 8.46696 11.4453C7.82707 12.2584 7.42905 13.2352 7.31848 14.2639C7.2079 15.2926 7.38924 16.3317 7.84173 17.2622C8.29422 18.1926 8.99957 18.9769 9.87704 19.5251C10.7545 20.0734 11.7686 20.3634 12.8033 20.3621ZM12.8033 11.8776C13.5903 11.8776 14.3451 12.1902 14.9016 12.7468C15.4581 13.3033 15.7708 14.0581 15.7708 14.8451C15.7708 15.6321 15.4581 16.3869 14.9016 16.9434C14.3451 17.5 13.5903 17.8126 12.8033 17.8126C12.0162 17.8126 11.2614 17.5 10.7049 16.9434C10.1484 16.3869 9.83576 15.6321 9.83576 14.8451C9.83576 14.0581 10.1484 13.3033 10.7049 12.7468C11.2614 12.1902 12.0162 11.8776 12.8033 11.8776ZM27.4128 45.1014L25 47.5104H18.1607C17.8488 46.1967 17.0653 45.0433 15.959 44.2692C14.8527 43.4951 13.5006 43.1542 12.1595 43.3112C10.8185 43.4683 9.58177 44.1123 8.68425 45.121C7.78673 46.1298 7.29089 47.433 7.29089 48.7833C7.29089 50.1335 7.78673 51.4367 8.68425 52.4455C9.58177 53.4542 10.8185 54.0983 12.1595 54.2553C13.5006 54.4124 14.8527 54.0715 15.959 53.2974C17.0653 52.5232 17.8488 51.3698 18.1607 50.0561C19.3766 49.9193 26.1931 50.4361 26.4363 49.6762L29.2176 46.8949C30.3955 45.7512 28.5641 43.916 27.4128 45.1014ZM12.8033 51.7546C12.0341 51.727 11.3056 51.4021 10.7712 50.8483C10.2368 50.2944 9.9382 49.5548 9.9382 48.7852C9.9382 48.0155 10.2368 47.2759 10.7712 46.722C11.3056 46.1682 12.0341 45.8433 12.8033 45.8158C13.5724 45.8433 14.3009 46.1682 14.8353 46.722C15.3697 47.2759 15.6683 48.0155 15.6683 48.7852C15.6683 49.5548 15.3697 50.2944 14.8353 50.8483C14.3009 51.4021 13.5724 51.727 12.8033 51.7546ZM72.1913 26.2971C70.9525 26.299 69.7506 26.7186 68.7798 27.4881C67.809 28.2575 67.1261 29.3319 66.8414 30.5375C64.5996 30.7123 61.6055 29.8498 61.5827 31.8104C61.5837 32.1477 61.7182 32.4708 61.9566 32.7093C62.1951 32.9478 62.5183 33.0822 62.8556 33.0833H66.8376C67.0775 34.0902 67.5961 35.0092 68.3342 35.7349C69.0722 36.4607 69.9998 36.9638 71.0106 37.1868C72.0215 37.4097 73.0746 37.3433 74.0495 36.9953C75.0243 36.6473 75.8814 36.0316 76.5225 35.219C77.1636 34.4063 77.5629 33.4295 77.6744 32.4004C77.786 31.3713 77.6054 30.3316 77.1534 29.4005C76.7013 28.4693 75.9961 27.6843 75.1184 27.1354C74.2408 26.5866 73.2264 26.296 72.1913 26.2971ZM72.1913 34.7779C71.4042 34.7779 70.6494 34.4652 70.0929 33.9087C69.5364 33.3522 69.2238 32.5974 69.2238 31.8104C69.2238 31.0233 69.5364 30.2686 70.0929 29.712C70.6494 29.1555 71.4042 28.8429 72.1913 28.8429C72.9788 28.8429 73.7341 29.1557 74.2909 29.7126C74.8478 30.2695 75.1607 31.0247 75.1607 31.8123C75.1607 32.5998 74.8478 33.3551 74.2909 33.912C73.7341 34.4688 72.9788 34.7817 72.1913 34.7817V34.7779ZM72.1913 43.2662C70.9539 43.2687 69.7533 43.687 68.7824 44.454C67.8114 45.2209 67.1265 46.292 66.8376 47.4952H59.9983L57.5855 45.0862C57.3441 44.8608 57.0246 44.7381 56.6944 44.7439C56.3641 44.7498 56.0491 44.8837 55.8158 45.1175C55.5825 45.3513 55.4493 45.6666 55.4441 45.9968C55.439 46.327 55.5624 46.6463 55.7883 46.8873L58.5734 49.6686C58.809 50.4057 65.6369 49.9003 66.849 50.0485C67.0895 51.0543 67.6084 51.972 68.3463 52.6966C69.0843 53.4211 70.0113 53.9232 71.0213 54.1453C72.0313 54.3673 73.0835 54.3005 74.0573 53.9523C75.031 53.6041 75.8871 52.9887 76.5273 52.1766C77.1675 51.3645 77.5661 50.3885 77.6774 49.3603C77.7886 48.3322 77.608 47.2935 77.1563 46.3632C76.7046 45.4329 76 44.6487 75.1233 44.1003C74.2465 43.5519 73.233 43.2615 72.1989 43.2624L72.1913 43.2662ZM72.1913 51.7508C71.4221 51.7232 70.6936 51.3983 70.1592 50.8445C69.6248 50.2906 69.3262 49.551 69.3262 48.7814C69.3262 48.0117 69.6248 47.2721 70.1592 46.7182C70.6936 46.1644 71.4221 45.8395 72.1913 45.812C72.9793 45.812 73.7351 46.125 74.2923 46.6822C74.8495 47.2395 75.1626 47.9952 75.1626 48.7833C75.1626 49.5713 74.8495 50.3271 74.2923 50.8843C73.7351 51.4415 72.9793 51.7546 72.1913 51.7546V51.7508ZM72.1913 9.32806C70.9524 9.33112 69.7506 9.75107 68.7794 10.5203C67.8083 11.2895 67.1243 12.3632 66.8376 13.5684C65.6217 13.7052 58.8052 13.1885 58.5658 13.9484L55.7807 16.7335C54.5952 17.8734 56.4304 19.7162 57.5779 18.5307L59.9907 16.1218H66.83C67.0705 17.1276 67.5894 18.0453 68.3273 18.7698C69.0653 19.4943 69.9923 19.9964 71.0023 20.2185C72.0123 20.4406 73.0645 20.3737 74.0383 20.0255C75.012 19.6774 75.8681 19.062 76.5083 18.2499C77.1486 17.4377 77.5471 16.4617 77.6584 15.4336C77.7696 14.4054 77.589 13.3667 77.1373 12.4364C76.6856 11.5062 75.981 10.7219 75.1043 10.1735C74.2275 9.62513 73.214 9.33475 72.1799 9.33566L72.1913 9.32806ZM72.1913 17.8088C71.4042 17.8088 70.6494 17.4962 70.0929 16.9396C69.5364 16.3831 69.2238 15.6283 69.2238 14.8413C69.2238 14.0543 69.5364 13.2995 70.0929 12.743C70.6494 12.1864 71.4042 11.8738 72.1913 11.8738C72.9788 11.8738 73.7341 12.1866 74.2909 12.7435C74.8478 13.3004 75.1607 14.0557 75.1607 14.8432C75.1607 15.6307 74.8478 16.386 74.2909 16.9429C73.7341 17.4998 72.9788 17.8126 72.1913 17.8126V17.8088Z" fill="#1A171B"></path><path d="M50.8794 41.944L47.6269 39.5807C46.8328 38.9689 46.0045 39.7022 45.2142 39.9302C44.0173 40.143 44.1427 43.2017 43.7285 44.9039C42.9094 44.9761 42.0855 44.9761 41.2664 44.9039C40.8484 43.1941 40.9776 40.143 39.7807 39.9302C38.9904 39.7022 38.1583 38.9651 37.368 39.5807L34.1117 41.9402C33.4778 41.4152 32.8951 40.8313 32.3715 40.1962L34.731 36.9437C35.3428 36.1534 34.6132 35.3289 34.3853 34.5386C34.1763 33.3341 31.1328 33.4671 29.4078 33.0491C29.328 32.2303 29.328 31.4058 29.4078 30.587C31.129 30.169 34.1725 30.302 34.3853 29.0975C34.6132 28.3072 35.3428 27.4789 34.731 26.6886L32.3677 23.4361C32.8946 22.8028 33.4784 22.219 34.1117 21.6921L37.3604 24.0516C38.1507 24.6596 38.979 23.9376 39.7693 23.7059C40.97 23.4931 40.8408 20.4496 41.2588 18.7284C42.0775 18.6486 42.9021 18.6486 43.7209 18.7284C44.1389 20.4458 44.0059 23.4931 45.2066 23.7059C46.0007 23.9338 46.829 24.6672 47.6193 24.0554L50.8718 21.6921C51.506 22.218 52.0899 22.8019 52.6158 23.4361L50.2524 26.6886C49.6407 27.4827 50.3702 28.3072 50.6058 29.1013C50.8148 30.2982 53.8735 30.1728 55.5795 30.587C55.6593 31.4058 55.6593 32.2303 55.5795 33.0491C53.8621 33.4671 50.8148 33.3341 50.6058 34.5348C50.3702 35.3251 49.6407 36.1534 50.2524 36.9437L52.6158 40.2C52.0913 40.833 51.5101 41.4167 50.8794 41.944ZM42.4974 26.7228C41.1471 26.7228 39.852 27.2592 38.8972 28.214C37.9424 29.1689 37.4059 30.4639 37.4059 31.8143C37.4059 33.1646 37.9424 34.4596 38.8972 35.4145C39.852 36.3693 41.1471 36.9057 42.4974 36.9057C43.8478 36.9057 45.1428 36.3693 46.0977 35.4145C47.0525 34.4596 47.5889 33.1646 47.5889 31.8143C47.5889 30.4639 47.0525 29.1689 46.0977 28.214C45.1428 27.2592 43.8478 26.7228 42.4974 26.7228ZM42.4974 34.36C41.8223 34.36 41.1747 34.0918 40.6973 33.6144C40.2199 33.1369 39.9517 32.4894 39.9517 31.8143C39.9517 31.1391 40.2199 30.4916 40.6973 30.0141C41.1747 29.5367 41.8223 29.2685 42.4974 29.2685C43.1726 29.2685 43.8201 29.5367 44.2975 30.0141C44.775 30.4916 45.0432 31.1391 45.0432 31.8143C45.0432 32.4894 44.775 33.1369 44.2975 33.6144C43.8201 34.0918 43.1726 34.36 42.4974 34.36ZM12.8034 28.8467C13.5905 28.8467 14.3453 29.1594 14.9018 29.7159C15.4583 30.2724 15.7709 31.0272 15.7709 31.8143C15.7709 32.6013 15.4583 33.3561 14.9018 33.9126C14.3453 34.4691 13.5905 34.7817 12.8034 34.7817C12.0164 34.7817 11.2616 34.4691 10.7051 33.9126C10.1486 33.3561 9.83594 32.6013 9.83594 31.8143C9.83594 31.0272 10.1486 30.2724 10.7051 29.7159C11.2616 29.1594 12.0164 28.8467 12.8034 28.8467ZM12.8034 11.8777C13.5905 11.8777 14.3453 12.1903 14.9018 12.7468C15.4583 13.3033 15.7709 14.0581 15.7709 14.8452C15.7709 15.6322 15.4583 16.387 14.9018 16.9435C14.3453 17.5 13.5905 17.8127 12.8034 17.8127C12.0164 17.8127 11.2616 17.5 10.7051 16.9435C10.1486 16.387 9.83594 15.6322 9.83594 14.8452C9.83594 14.0581 10.1486 13.3033 10.7051 12.7468C11.2616 12.1903 12.0164 11.8777 12.8034 11.8777ZM12.8034 51.7546C12.0343 51.7271 11.3058 51.4022 10.7714 50.8484C10.237 50.2945 9.93837 49.5549 9.93837 48.7852C9.93837 48.0156 10.237 47.276 10.7714 46.7221C11.3058 46.1682 12.0343 45.8433 12.8034 45.8158C13.5726 45.8433 14.3011 46.1682 14.8355 46.7221C15.3699 47.276 15.6685 48.0156 15.6685 48.7852C15.6685 49.5549 15.3699 50.2945 14.8355 50.8484C14.3011 51.4022 13.5726 51.7271 12.8034 51.7546ZM72.1914 34.7779C71.4044 34.7779 70.6496 34.4653 70.0931 33.9088C69.5366 33.3523 69.2239 32.5975 69.2239 31.8104C69.2239 31.0234 69.5366 30.2686 70.0931 29.7121C70.6496 29.1556 71.4044 28.8429 72.1914 28.8429C72.979 28.8429 73.7342 29.1558 74.2911 29.7127C74.848 30.2695 75.1608 31.0248 75.1608 31.8124C75.1608 32.5999 74.848 33.3552 74.2911 33.912C73.7342 34.4689 72.979 34.7817 72.1914 34.7817V34.7779ZM72.1914 51.7508C71.4223 51.7233 70.6938 51.3984 70.1594 50.8446C69.625 50.2907 69.3264 49.5511 69.3264 48.7814C69.3264 48.0118 69.625 47.2722 70.1594 46.7183C70.6938 46.1644 71.4223 45.8396 72.1914 45.812C72.9795 45.812 73.7352 46.1251 74.2925 46.6823C74.8497 47.2395 75.1627 47.9953 75.1627 48.7833C75.1627 49.5714 74.8497 50.3271 74.2925 50.8844C73.7352 51.4416 72.9795 51.7546 72.1914 51.7546V51.7508ZM72.1914 17.8089C71.4044 17.8089 70.6496 17.4962 70.0931 16.9397C69.5366 16.3832 69.2239 15.6284 69.2239 14.8414C69.2239 14.0543 69.5366 13.2995 70.0931 12.743C70.6496 12.1865 71.4044 11.8739 72.1914 11.8739C72.979 11.8739 73.7342 12.1867 74.2911 12.7436C74.848 13.3005 75.1608 14.0557 75.1608 14.8433C75.1608 15.6308 74.848 16.3861 74.2911 16.943C73.7342 17.4998 72.979 17.8127 72.1914 17.8127V17.8089Z" fill="#F4832B"></path></svg>