<svg xmlns="http://www.w3.org/2000/svg" width="24" height="28" viewBox="0 0 24 28" fill="none"><path d="M10.9393 27.0607C11.5251 27.6464 12.4749 27.6464 13.0607 27.0607L22.6066 17.5147C23.1924 16.9289 23.1924 15.9792 22.6066 15.3934C22.0208 14.8076 21.0711 14.8076 20.4853 15.3934L12 23.8787L3.51472 15.3934C2.92893 14.8076 1.97919 14.8076 1.3934 15.3934C0.807611 15.9792 0.807611 16.9289 1.3934 17.5147L10.9393 27.0607ZM10.5 1.3C10.5 2.12843 11.1716 2.8 12 2.8C12.8284 2.8 13.5 2.12843 13.5 1.3H10.5ZM13.5 7.36667C13.5 6.53824 12.8284 5.86667 12 5.86667C11.1716 5.86667 10.5 6.53824 10.5 7.36667H13.5ZM10.5 9.96667C10.5 10.7951 11.1716 11.4667 12 11.4667C12.8284 11.4667 13.5 10.7951 13.5 9.96667H10.5ZM13.5 16.0333C13.5 15.2049 12.8284 14.5333 12 14.5333C11.1716 14.5333 10.5 15.2049 10.5 16.0333H13.5ZM10.5 18.6333C10.5 19.4618 11.1716 20.1333 12 20.1333C12.8284 20.1333 13.5 19.4618 13.5 18.6333H10.5ZM13.5 24.7C13.5 23.8716 12.8284 23.2 12 23.2C11.1716 23.2 10.5 23.8716 10.5 24.7H13.5ZM12 0H10.5V1.3H12H13.5V0H12ZM12 7.36667H10.5V9.96667H12H13.5V7.36667H12ZM12 16.0333H10.5V18.6333H12H13.5V16.0333H12ZM12 24.7H10.5V26H12H13.5V24.7H12Z" fill="#F4832B"></path></svg>