<svg xmlns="http://www.w3.org/2000/svg" width="76" height="77" viewBox="0 0 76 77" fill="none"><path d="M71.2501 3.94732H19.0001C18.8437 3.94577 18.6886 3.97543 18.5438 4.03455C18.399 4.09368 18.2675 4.18109 18.1569 4.29167C18.0463 4.40225 17.9589 4.53378 17.8998 4.67856C17.8407 4.82333 17.811 4.97845 17.8126 5.13482V19.3848C17.8126 19.6998 17.9377 20.0018 18.1604 20.2245C18.3831 20.4472 18.6851 20.5723 19.0001 20.5723C19.315 20.5723 19.617 20.4472 19.8397 20.2245C20.0624 20.0018 20.1876 19.6998 20.1876 19.3848V6.32232H70.0626V62.1348C70.0626 64.3394 69.1868 66.4538 67.6279 68.0126C66.069 69.5715 63.9547 70.4473 61.7501 70.4473C59.5454 70.4473 57.4311 69.5715 55.8722 68.0126C54.3133 66.4538 53.4376 64.3394 53.4376 62.1348C53.4391 61.9784 53.4095 61.8233 53.3503 61.6786C53.2912 61.5338 53.2038 61.4023 53.0932 61.2917C52.9826 61.1811 52.8511 61.0937 52.7063 61.0346C52.5616 60.9754 52.4064 60.9458 52.2501 60.9473H20.1876V57.3848C20.1876 57.0699 20.0624 56.7678 19.8397 56.5451C19.617 56.3224 19.315 56.1973 19.0001 56.1973C18.6851 56.1973 18.3831 56.3224 18.1604 56.5451C17.9377 56.7678 17.8126 57.0699 17.8126 57.3848V60.9473H4.75006C4.59368 60.9458 4.43857 60.9754 4.29379 61.0346C4.14902 61.0937 4.01749 61.1811 3.90691 61.2917C3.79633 61.4023 3.70892 61.5338 3.64979 61.6786C3.59066 61.8233 3.56101 61.9784 3.56256 62.1348C3.56684 64.968 4.69421 67.6839 6.69758 69.6873C8.70095 71.6907 11.4169 72.818 14.2501 72.8223H61.7501C64.5832 72.818 67.2992 71.6907 69.3025 69.6873C71.3059 67.6839 72.4333 64.968 72.4376 62.1348V5.13482C72.4391 4.97845 72.4095 4.82333 72.3503 4.67856C72.2912 4.53378 72.2038 4.40225 72.0932 4.29167C71.9826 4.18109 71.8511 4.09368 71.7063 4.03455C71.5615 3.97543 71.4064 3.94577 71.2501 3.94732ZM14.2501 70.4473C12.2531 70.444 10.3241 69.7223 8.81531 68.4141C7.30655 67.106 6.31881 65.2986 6.03256 63.3223H51.1338C51.4469 66.1164 52.8458 68.6754 55.0287 70.4473H14.2501Z" fill="black"></path><path d="M26.125 13.4473H64.125C64.4399 13.4473 64.742 13.3222 64.9647 13.0995C65.1874 12.8768 65.3125 12.5747 65.3125 12.2598C65.3125 11.9448 65.1874 11.6428 64.9647 11.4201C64.742 11.1974 64.4399 11.0723 64.125 11.0723H26.125C25.8101 11.0723 25.508 11.1974 25.2853 11.4201C25.0626 11.6428 24.9375 11.9448 24.9375 12.2598C24.9375 12.5747 25.0626 12.8768 25.2853 13.0995C25.508 13.3222 25.8101 13.4473 26.125 13.4473Z" fill="black"></path><path d="M26.125 20.5723H64.125C64.4399 20.5723 64.742 20.4472 64.9647 20.2245C65.1874 20.0018 65.3125 19.6997 65.3125 19.3848C65.3125 19.0698 65.1874 18.7678 64.9647 18.5451C64.742 18.3224 64.4399 18.1973 64.125 18.1973H26.125C25.8101 18.1973 25.508 18.3224 25.2853 18.5451C25.0626 18.7678 24.9375 19.0698 24.9375 19.3848C24.9375 19.6997 25.0626 20.0018 25.2853 20.2245C25.508 20.4472 25.8101 20.5723 26.125 20.5723Z" fill="black"></path><path d="M19 22.9473C15.9468 22.9473 12.9621 23.8527 10.4234 25.549C7.88471 27.2452 5.90604 29.6563 4.73762 32.4771C3.56919 35.2979 3.26347 38.4019 3.85913 41.3965C4.45479 44.3911 5.92507 47.1418 8.08405 49.3007C10.243 51.4597 12.9937 52.93 15.9883 53.5256C18.9829 54.1213 22.0868 53.8156 24.9077 52.6472C27.7285 51.4787 30.1395 49.5001 31.8358 46.9614C33.5321 44.4227 34.4375 41.438 34.4375 38.3848C34.4296 34.2929 32.8006 30.3709 29.9072 27.4776C27.0138 24.5842 23.0919 22.9552 19 22.9473ZM14.25 30.0723C14.9546 30.0723 15.6434 30.2812 16.2292 30.6727C16.8151 31.0641 17.2717 31.6205 17.5413 32.2715C17.811 32.9224 17.8815 33.6387 17.7441 34.3298C17.6066 35.0208 17.2673 35.6556 16.7691 36.1538C16.2709 36.6521 15.6361 36.9914 14.945 37.1288C14.254 37.2663 13.5377 37.1957 12.8867 36.9261C12.2357 36.6564 11.6793 36.1998 11.2879 35.614C10.8964 35.0281 10.6875 34.3394 10.6875 33.6348C10.6869 33.1668 10.7786 32.7032 10.9574 32.2707C11.1362 31.8382 11.3986 31.4452 11.7295 31.1143C12.0605 30.7834 12.4535 30.521 12.886 30.3422C13.3185 30.1634 13.782 30.0716 14.25 30.0723ZM23.75 46.6973C23.0454 46.6973 22.3566 46.4883 21.7708 46.0969C21.1849 45.7054 20.7283 45.149 20.4587 44.4981C20.189 43.8471 20.1185 43.1308 20.256 42.4398C20.3934 41.7487 20.7327 41.1139 21.2309 40.6157C21.7292 40.1175 22.3639 39.7782 23.055 39.6407C23.7461 39.5033 24.4624 39.5738 25.1133 39.8434C25.7643 40.1131 26.3207 40.5697 26.7121 41.1555C27.1036 41.7414 27.3125 42.4302 27.3125 43.1348C27.3131 43.6028 27.2214 44.0663 27.0426 44.4988C26.8638 44.9313 26.6014 45.3243 26.2705 45.6552C25.9395 45.9862 25.5466 46.2486 25.1141 46.4274C24.6816 46.6062 24.218 46.6979 23.75 46.6973ZM26.9563 32.091L12.7063 46.341C12.5991 46.4536 12.4701 46.5433 12.3272 46.6045C12.1843 46.6658 12.0305 46.6974 11.875 46.6974C11.7195 46.6974 11.5657 46.6658 11.4228 46.6045C11.2799 46.5433 11.151 46.4536 11.0438 46.341C10.9312 46.2338 10.8416 46.1048 10.7803 45.962C10.7191 45.8191 10.6875 45.6652 10.6875 45.5098C10.6875 45.3543 10.7191 45.2005 10.7803 45.0576C10.8416 44.9147 10.9312 44.7857 11.0438 44.6785L25.2938 30.4285C25.515 30.2117 25.8128 30.091 26.1225 30.0926C26.4323 30.0941 26.7289 30.2179 26.9479 30.4369C27.1669 30.6559 27.2907 30.9525 27.2922 31.2622C27.2938 31.572 27.1731 31.8698 26.9563 32.091Z" fill="#F4832B"></path><path d="M14.25 34.8223C14.9058 34.8223 15.4375 34.2906 15.4375 33.6348C15.4375 32.9789 14.9058 32.4473 14.25 32.4473C13.5942 32.4473 13.0625 32.9789 13.0625 33.6348C13.0625 34.2906 13.5942 34.8223 14.25 34.8223Z" fill="#F4832B"></path><path d="M23.75 44.3223C24.4058 44.3223 24.9375 43.7906 24.9375 43.1348C24.9375 42.4789 24.4058 41.9473 23.75 41.9473C23.0942 41.9473 22.5625 42.4789 22.5625 43.1348C22.5625 43.7906 23.0942 44.3223 23.75 44.3223Z" fill="#F4832B"></path><path d="M64.1251 32.4473H40.3751C40.2187 32.4458 40.0636 32.4754 39.9188 32.5346C39.774 32.5937 39.6425 32.6811 39.5319 32.7917C39.4213 32.9023 39.3339 33.0338 39.2748 33.1786C39.2157 33.3233 39.186 33.4784 39.1876 33.6348V52.6348C39.186 52.7912 39.2157 52.9463 39.2748 53.0911C39.3339 53.2359 39.4214 53.3674 39.5319 53.478C39.6425 53.5885 39.774 53.6759 39.9188 53.7351C40.0636 53.7942 40.2187 53.8239 40.3751 53.8223H64.1251C64.2814 53.8239 64.4365 53.7942 64.5813 53.7351C64.7261 53.6759 64.8576 53.5885 64.9682 53.478C65.0788 53.3674 65.1662 53.2359 65.2253 53.0911C65.2844 52.9463 65.3141 52.7912 65.3126 52.6348V33.6348C65.3141 33.4784 65.2845 33.3233 65.2253 33.1786C65.1662 33.0338 65.0788 32.9023 64.9682 32.7917C64.8576 32.6811 64.7261 32.5937 64.5813 32.5346C64.4366 32.4754 64.2814 32.4458 64.1251 32.4473ZM46.3126 51.4473H41.5626V39.5723H46.3126V51.4473ZM46.3126 37.1973H41.5626V34.8223H46.3126V37.1973ZM55.8126 51.4473H48.6876V39.5723H55.8126V51.4473ZM55.8126 37.1973H48.6876V34.8223H55.8126V37.1973ZM62.9376 51.4473H58.1876V39.5723H62.9376V51.4473ZM62.9376 37.1973H58.1876V34.8223H62.9376V37.1973Z" fill="black"></path><path d="M64.125 25.3223H40.375C40.0601 25.3223 39.758 25.4474 39.5353 25.6701C39.3126 25.8928 39.1875 26.1948 39.1875 26.5098C39.1875 26.8247 39.3126 27.1268 39.5353 27.3495C39.758 27.5722 40.0601 27.6973 40.375 27.6973H64.125C64.4399 27.6973 64.742 27.5722 64.9647 27.3495C65.1874 27.1268 65.3125 26.8247 65.3125 26.5098C65.3125 26.1948 65.1874 25.8928 64.9647 25.6701C64.742 25.4474 64.4399 25.3223 64.125 25.3223Z" fill="black"></path></svg>