<svg xmlns="http://www.w3.org/2000/svg" width="123" height="84" viewBox="0 0 123 84" fill="none"><path d="M56.7927 24.9731H86.3062V38.5947H56.7927V24.9731ZM68.1441 4.54076H38.6306V18.1623H68.1441V4.54076ZM93.117 38.5947H118.09V24.9731H93.117V38.5947ZM102.198 4.54076H74.9548V18.1623H102.198V4.54076ZM4.57666 18.1623H31.8198V4.54076H4.57666V18.1623ZM102.198 43.1352V56.8994C105.517 56.6256 109.48 56.5986 114.365 58.1258C118.95 59.5513 122.152 62.6232 122.287 62.7528C122.506 62.9667 122.631 63.2605 122.631 63.5676V82.8649C122.631 83.4917 122.122 84 121.495 84H1.17126C0.544445 84 0.0361328 83.4917 0.0361328 82.8649V46.5406C0.0361328 46.3256 0.0981115 46.115 0.213441 45.9331C0.494954 45.4886 2.22217 43.3026 10.1636 43.4533C12.6627 43.518 14.4632 43.1784 15.928 42.6287V22.7026H3.44153C1.56084 22.7026 0.0361328 21.1779 0.0361328 19.2972V3.4054C0.0361328 1.52471 1.56084 0 3.44153 0H102.198C104.706 0 106.739 2.03279 106.739 4.54053V20.4324H119.225C121.106 20.4324 122.63 21.9571 122.63 23.8378V39.7296C122.63 41.6103 121.106 43.135 119.225 43.135L102.198 43.1352ZM72.6846 18.1623C72.6846 19.416 73.701 20.4326 74.9548 20.4326H102.198C103.452 20.4326 104.468 19.416 104.468 18.1623V4.54076C104.468 3.28689 103.452 2.27049 102.198 2.27049H74.9548C73.701 2.27049 72.6846 3.28689 72.6846 4.54076V18.1623ZM97.6575 45.4055V57.3283C98.371 57.2726 99.1 57.2034 99.8701 57.1214L99.9278 57.1155V45.4055C99.9278 44.1516 98.9114 43.1352 97.6575 43.1352H72.6846C71.4307 43.1352 70.4143 44.1516 70.4143 45.4055V50.7084C71.2012 50.7018 71.9347 50.7456 72.6846 50.7735V45.4057L97.6575 45.4055ZM90.705 51.7588L77.4067 58.8909L87.1235 66.0195L91.0247 52.0149C91.0774 51.826 90.8776 51.6662 90.705 51.7588ZM88.5764 24.9731C88.5764 23.7193 87.56 22.7029 86.3062 22.7029H56.7927C55.5389 22.7029 54.5225 23.7193 54.5225 24.9731V38.5947C54.5225 39.8484 55.5389 40.865 56.7927 40.865H86.3062C87.56 40.865 88.5764 39.8484 88.5764 38.5947V24.9731ZM65.8738 45.4055V50.6612C66.6025 50.6898 67.3515 50.7091 68.1441 50.7079V45.4055C68.1441 44.1516 67.1277 43.1352 65.8738 43.1352H46.006C46.7157 43.6622 47.4231 44.1923 48.1551 44.7006C48.5024 44.9401 48.8486 45.1744 49.1955 45.4055H65.8738ZM36.3604 18.1623C36.3604 19.416 37.3768 20.4326 38.6306 20.4326H68.1441C69.3979 20.4326 70.4143 19.416 70.4143 18.1623V4.54076C70.4143 3.28689 69.3979 2.27049 68.1441 2.27049H38.6306C37.3768 2.27049 36.3604 3.28689 36.3604 4.54076V18.1623ZM36.3604 22.7029H20.4685C19.2146 22.7029 18.1982 23.7193 18.1982 24.9731V39.5571C18.1982 39.5571 18.413 40.8514 19.846 40.3278C19.9241 40.2697 20.007 40.2173 20.0851 40.1587C20.7786 39.6397 21.5128 39.1021 22.3347 38.5945H20.4685V24.9729H49.9819V38.5945H39.279C40.5342 39.2731 41.7325 40.0436 42.891 40.8648H49.9819C51.2358 40.8648 52.2522 39.8481 52.2522 38.5945V24.9729C52.2522 23.719 51.2358 22.7026 49.9819 22.7026L36.3604 22.7029ZM31.8768 20.4896C33.1325 20.4921 34.1516 19.475 34.1516 18.2193V4.59774C34.1516 3.34569 33.1379 2.32997 31.8859 2.32747L3.4413 2.27049C2.81471 2.26936 2.30617 2.77676 2.30617 3.40335V19.2952C2.30617 19.9195 2.81698 20.4315 3.4413 20.4326L31.8768 20.4896ZM100.109 59.3794C97.5576 59.651 95.1432 59.9082 92.7199 59.3872C92.2704 59.295 91.8395 59.159 91.4354 59.0135L88.88 68.2144C88.7803 68.5735 88.512 68.8607 88.1594 68.9838C88.0375 69.0249 87.911 69.0458 87.7868 69.0458C87.5473 69.0458 87.3124 68.9704 87.1151 68.8262L82.0156 65.0846L78.8586 69.1159L79.7433 69.8086C80.2355 70.1943 80.322 70.9083 79.9363 71.4016L75.9211 76.532C75.2516 77.3856 74.2538 77.8312 73.2451 77.8312C72.5134 77.8312 71.7774 77.5963 71.159 77.1129L71.1567 77.1118C70.4427 76.5531 69.9905 75.7494 69.8819 74.8504C69.7712 73.9502 70.0193 73.0612 70.578 72.3483L74.5932 67.2191C74.9789 66.7246 75.6906 66.6372 76.1871 67.0252L77.0714 67.7174L80.1849 63.7417L74.6041 59.6469C74.2892 59.4162 74.1164 59.0405 74.143 58.6514C74.1718 58.2622 74.3957 57.9142 74.7394 57.7301L81.0739 54.3374C77.7164 53.3169 74.039 52.8558 69.669 52.9657C57.5551 53.2441 52.1809 50.2344 46.8621 46.5672C45.8644 45.8732 44.8956 45.1517 43.9335 44.4334C39.6345 41.2253 35.6107 38.2144 29.6978 38.6136C25.5319 38.9196 23.5454 40.405 21.4438 41.9767C18.8875 43.889 16.205 45.8432 10.1125 45.7236C4.9113 45.606 2.90484 46.6081 2.30617 47.0283V81.7297H120.36V64.0732C119.469 63.3049 116.939 61.303 113.689 60.2932C108.062 58.5351 103.836 58.9815 100.109 59.3794ZM119.225 40.8648C119.852 40.8648 120.36 40.3564 120.36 39.7296V23.8378C120.36 23.2107 119.852 22.7026 119.225 22.7026H93.1167C91.8629 22.7026 90.8465 23.719 90.8465 24.9729V38.5945C90.8465 39.8481 91.8629 40.8648 93.1167 40.8648H119.225Z" fill="black"></path><path d="M86.0364 39H57.0364V25H86.0364V39ZM118.09 38.5947H93.1174V24.9727H118.09V38.5947ZM49.9407 38.5H39.2385C39.2385 38.5 35.5362 36.5001 30.0364 36.5C25.0674 36.5 22.247 38.4755 22.2122 38.5H20.5364V25H49.9407V38.5ZM31.3362 18H4.33618V4H31.3362V18ZM68.0364 18H39.0364V4H68.0364V18ZM102.036 18H75.0364V4H102.036V18Z" fill="#F4832B"></path></svg>