<svg xmlns="http://www.w3.org/2000/svg" width="101" height="84" viewBox="0 0 101 84" fill="none"><path d="M100.645 28.9997V5.00353C100.645 2.24671 98.4018 0.00349683 95.645 0.00349683H33.6592C27.751 -0.0737036 23.0898 1.1275 19.7977 3.59432C19.3133 3.95752 18.9749 4.48432 18.7947 5.07413L15.0057 5.56213C12.5193 5.88253 10.6443 8.01434 10.6443 10.5222V10.6816L2.85624 12.9264C1.57984 13.2946 0.688232 14.4802 0.688232 15.8092V18.194C0.688232 19.524 1.57984 20.7096 2.85624 21.0768L10.6443 23.3216V23.482C10.6443 25.9888 12.5193 28.1207 15.0057 28.4411L18.7945 28.9291C18.9747 29.5191 19.3131 30.0461 19.7977 30.4089C22.9824 32.7957 27.4492 34.0037 33.0702 34.0037C33.2596 34.0037 33.452 34.0027 33.6444 33.9997H52.6681C53.344 34.3617 55.7614 35.7065 58.6592 37.9059L59.1602 48.4812C59.172 48.7176 59.4884 54.2634 63.4278 54.7498C63.7042 54.784 63.9688 54.8006 64.2218 54.8006C66.9754 54.8006 68.3566 52.8706 69.1312 50.898C70.2119 54.4088 70.4545 57.998 70.5061 59.3251L64.004 63.5711C63.1524 64.1267 62.6446 65.0653 62.6446 66.0829V79C62.6446 81.7568 64.8878 84 67.6446 84H95.6448C98.4016 84 100.645 81.7568 100.645 79V66.0771C100.645 65.0663 100.141 64.1299 99.2972 63.5723L92.9926 59.4141C93.2032 56.334 93.7716 42.6073 87.9864 33.9999H95.645C98.4018 33.9999 100.645 31.7565 100.645 28.9997ZM10.6445 21.2398L3.41005 19.1548C2.98525 19.0328 2.68844 18.6372 2.68844 18.1938V15.809C2.68844 15.3656 2.98525 14.9712 3.41105 14.848L10.6445 12.763V21.2398ZM83.5345 6.11473C84.0365 5.88133 84.6303 6.10593 84.8597 6.60794L88.5228 14.605C88.7522 15.107 88.5326 15.6998 88.0296 15.9302C87.8948 15.9918 87.7532 16.021 87.6146 16.021C87.2348 16.021 86.8724 15.8042 86.7044 15.437L83.0413 7.43994C82.8109 6.93794 83.0315 6.34513 83.5345 6.11473ZM74.3803 6.11473C74.8843 5.88133 75.4769 6.10593 75.7065 6.60694L79.3705 14.604C79.6009 15.107 79.3803 15.6998 78.8783 15.9302C78.7425 15.9918 78.6009 16.021 78.4623 16.021C78.0825 16.021 77.7201 15.8042 77.5521 15.438L73.8881 7.44094C73.6577 6.93794 73.8783 6.34513 74.3803 6.11473ZM65.2278 6.11473C65.7326 5.88133 66.3236 6.10593 66.554 6.60694L70.218 14.604C70.4484 15.107 70.2279 15.6998 69.7259 15.9302C69.59 15.9918 69.4485 16.021 69.3099 16.021C68.9301 16.021 68.5676 15.8042 68.3996 15.438L64.7356 7.44094C64.5052 6.93794 64.7258 6.34513 65.2278 6.11473ZM56.0764 6.11473C56.5784 5.88133 57.1722 6.10593 57.4016 6.60794L61.0646 14.605C61.295 15.107 61.0744 15.6998 60.5714 15.9302C60.4366 15.9918 60.295 16.021 60.1564 16.021C59.7766 16.021 59.4142 15.8042 59.2462 15.437L55.5832 7.43994C55.3538 6.93794 55.5734 6.34513 56.0764 6.11473ZM63.6722 52.7654C61.4358 52.489 61.1604 48.4226 61.1586 48.3856L60.7414 39.5829C62.831 41.3583 64.9946 43.5088 66.8158 46.0028C67.2372 46.5802 67.607 47.2112 67.9382 47.8712C67.163 51.205 66.1738 53.0694 63.6722 52.7654ZM33.63 31.9997C28.1856 32.1033 23.9268 31.0045 20.9972 28.8083C20.7764 28.6433 20.6446 28.3523 20.6446 28.0299V5.97313C20.6446 5.65193 20.7764 5.36073 20.9972 5.19473C23.8272 3.07372 27.8898 1.99931 33.091 1.99931C33.2746 1.99931 33.4592 2.00031 33.6448 2.00331H37.1491L43.6047 17.6636C44.6907 20.2964 47.2307 21.9966 50.0763 21.9966H98.645V28.9997C98.645 30.6539 97.2992 31.9997 95.645 31.9997H33.63Z" fill="black"></path><path d="M60.6592 36.906C57.7614 34.7066 56.364 34.362 55.6882 34L85.9864 34C91.7717 42.6075 91.2033 57.3342 90.9927 60.4142L97.2973 64.5724C98.1409 65.13 98.6449 66.0664 98.6449 67.0772V77.0001C98.6449 79.7569 96.4017 82.0001 93.6449 82.0001H69.6447C66.8879 82.0001 64.6447 79.7569 64.6447 77.0001V67.083C64.6447 66.0654 65.1525 65.1268 66.0041 64.5712L72.5061 60.3252C72.4545 58.9982 71.2119 50.4089 70.1313 46.8981C69.3567 48.8707 67.1815 52.7499 64.4279 52.7499C60.6882 53.5001 61.1721 46.7177 61.1603 46.4813L60.6592 36.906Z" fill="#F4832B"></path><path d="M83.5345 6.11465C84.0365 5.88125 84.6303 6.10585 84.8597 6.60786L88.5227 14.6049C88.7521 15.1069 88.5325 15.6997 88.0295 15.9301C87.8947 15.9917 87.7531 16.0209 87.6145 16.0209C87.2347 16.0209 86.8723 15.8041 86.7043 15.4369L83.0413 7.43986C82.8109 6.93786 83.0315 6.34506 83.5345 6.11465ZM74.3802 6.11465C74.8842 5.88125 75.4768 6.10586 75.7064 6.60686L79.3705 14.6039C79.6009 15.1069 79.3803 15.6997 78.8783 15.9301C78.7425 15.9917 78.6008 16.0209 78.4622 16.0209C78.0824 16.0209 77.72 15.8041 77.552 15.4379L73.888 7.44086C73.6576 6.93786 73.8782 6.34506 74.3802 6.11465ZM65.2278 6.11465C65.7326 5.88125 66.3236 6.10586 66.554 6.60686L70.218 14.6039C70.4484 15.1069 70.2278 15.6997 69.7258 15.9301C69.59 15.9917 69.4484 16.0209 69.3098 16.0209C68.93 16.0209 68.5676 15.8041 68.3996 15.4379L64.7356 7.44086C64.5052 6.93786 64.7258 6.34506 65.2278 6.11465ZM56.0763 6.11465C56.5783 5.88125 57.1721 6.10585 57.4015 6.60786L61.0645 14.6049C61.2949 15.1069 61.0743 15.6997 60.5713 15.9301C60.4365 15.9917 60.2949 16.0209 60.1563 16.0209C59.7765 16.0209 59.4141 15.8041 59.2461 15.4369L55.5831 7.43986C55.3537 6.93786 55.5733 6.34506 56.0763 6.11465Z" fill="#F4832B"></path></svg>