<svg xmlns="http://www.w3.org/2000/svg" width="96" height="84" viewBox="0 0 96 84" fill="none"><path d="M77.216 4.77763C74.1543 -0.0962947 69.1084 -0.0208984 68.6281 0.00450014H23.0452C22.6662 0.00450014 22.3207 0.219287 22.1507 0.557268C10.2235 24.4113 0.161693 82.2481 0.0610987 82.8301C0.0113015 83.121 0.0912955 83.4178 0.281885 83.6444C0.471274 83.869 0.751659 83.9998 1.04644 83.9998H19.6978C20.065 83.9998 20.4028 83.7986 20.5775 83.4744L23.6858 77.7169H52.1724L56.1742 83.5642C56.3617 83.8376 56.6701 83.9998 57.0003 83.9998H71.9995C72.2671 83.9998 72.5228 83.8924 72.7104 83.703C72.898 83.5136 73.0034 83.2558 72.9994 82.9883L72.9366 77.7737H77.2432L80.3816 83.4824C80.5574 83.8008 80.8934 84 81.2586 84H94.9532C95.256 84 95.5409 83.8632 95.7305 83.629C95.9199 83.3926 95.9941 83.0861 95.9317 82.7893C94.3186 75.2877 80.0948 9.35778 77.216 4.77803V4.77763ZM57.5277 81.9999L53.5259 76.1526C53.3383 75.8792 53.0299 75.7171 52.6997 75.7171H23.089C22.7218 75.7171 22.384 75.9183 22.2093 76.2424L19.101 81.9999H2.23878C3.72009 73.7368 12.9238 24.0168 23.6664 2.00439H68.4217C70.0076 2.76795 70.0856 3.86948 70.0856 7.01591L70.9879 81.9999H57.5277ZM39.8813 30.159C39.6997 29.8602 39.3755 29.6766 39.0259 29.6766C38.6763 29.6766 38.3522 29.8602 38.1706 30.159L16.1718 66.4832C15.9852 66.7918 15.9784 67.1765 16.1562 67.4909C16.333 67.8053 16.666 68.0007 17.0271 68.0007H61.0237C61.3851 68.0007 61.717 67.8053 61.8946 67.4909C62.0722 67.1765 62.0664 66.7918 61.879 66.4832L39.8813 30.159ZM40.0443 61.0011C40.0443 61.5539 39.5971 62.001 39.0443 62.001C38.4915 62.001 38.0444 61.5539 38.0444 61.0011V59.0012C38.0444 58.4484 38.4915 58.0013 39.0443 58.0013C39.5971 58.0013 40.0443 58.4484 40.0443 59.0012V61.0011ZM40.0443 55.0014C40.0443 55.5542 39.5971 56.0014 39.0443 56.0014C38.4915 56.0014 38.0444 55.5542 38.0444 55.0014V43.0021C38.0444 42.4493 38.4915 42.0022 39.0443 42.0022C39.5971 42.0022 40.0443 42.4493 40.0443 43.0021V55.0014ZM62.043 13.0038C62.043 13.5565 61.5958 14.0037 61.0431 14.0037H29.0449C28.4921 14.0037 28.0449 13.5565 28.0449 13.0038C28.0449 12.451 28.4921 12.0038 29.0449 12.0038H61.0431C61.5958 12.0038 62.043 12.451 62.043 13.0038Z" fill="black"></path><path d="M39.8814 30.1591C39.6998 29.8603 39.3756 29.6767 39.026 29.6767C38.6765 29.6767 38.3523 29.8603 38.1707 30.1591L16.1719 66.4833C15.9853 66.7918 15.9785 67.1766 16.1563 67.491C16.3331 67.8054 16.6661 68.0008 17.0273 68.0008H61.0238C61.3852 68.0008 61.7172 67.8054 61.8948 67.491C62.0723 67.1766 62.0665 66.7918 61.8792 66.4833L39.8814 30.1591ZM40.0444 61.0012C40.0444 61.5539 39.5972 62.0011 39.0444 62.0011C38.4917 62.0011 38.0445 61.5539 38.0445 61.0012V59.0013C38.0445 58.4485 38.4917 58.0013 39.0444 58.0013C39.5972 58.0013 40.0444 58.4485 40.0444 59.0013V61.0012ZM40.0444 55.0015C40.0444 55.5543 39.5972 56.0014 39.0444 56.0014C38.4917 56.0014 38.0445 55.5543 38.0445 55.0015V43.0022C38.0445 42.4494 38.4917 42.0022 39.0444 42.0022C39.5972 42.0022 40.0444 42.4494 40.0444 43.0022V55.0015ZM62.0431 13.0039C62.0431 13.5566 61.596 14.0038 61.0432 14.0038H29.045C28.4922 14.0038 28.045 13.5566 28.045 13.0039C28.045 12.4511 28.4922 12.0039 29.045 12.0039H61.0432C61.596 12.0039 62.0431 12.4511 62.0431 13.0039Z" fill="#F4832B"></path></svg>