<svg xmlns="http://www.w3.org/2000/svg" width="60" height="60" viewBox="0 0 60 60" fill="none"><path d="M3 38V30H25.75L24 33L37.25 30H48.5V39H57V49H48.5V58.5H2V49H10V38H3Z" fill="#F4832B"></path><path d="M1.00037 59.9988H48.9992C49.5522 59.9988 49.9995 59.5515 49.9995 58.9996V49.9997H56.9986C57.5516 49.9997 57.999 49.5523 57.999 49.0004V39.0001C57.999 38.4482 57.5516 38.0009 56.9986 38.0009H49.9995V29.0009C49.9995 28.4479 49.5522 28.0005 48.9992 28.0005H47.164C47.3049 27.3465 47.1558 26.6644 46.7554 26.1278L42.2373 20.1043L44.3238 18.5391C45.2502 17.8452 45.768 16.7333 45.7034 15.5767L45.6036 13.7756C45.5766 13.2871 45.795 12.8175 46.1859 12.5239L48.2724 10.9588L49.1506 12.1282C49.3092 12.3407 49.5463 12.4805 49.8093 12.518C49.8563 12.5239 49.9033 12.5286 49.9502 12.5274C50.1663 12.5274 50.3776 12.457 50.5502 12.3278L58.8009 6.13882C60.1253 5.14548 60.3942 3.26447 59.4009 1.94001L58.8455 1.19794C57.8498 -0.12534 55.9712 -0.393049 54.6456 0.599119L46.3961 6.78813C45.9546 7.11924 45.8642 7.74625 46.1965 8.1889L47.0736 9.35837L44.9871 10.9235C44.0608 11.6175 43.5418 12.7294 43.6075 13.8859L43.7073 15.6871C43.7355 16.1756 43.516 16.6452 43.125 16.9388L41.0385 18.5039L36.5193 12.4805C36.0461 11.8406 35.2782 11.4871 34.4845 11.5458C33.7272 11.601 33.0497 12.0402 32.6904 12.7094L24.4738 27.9994H1.00037C0.447347 27.9994 0 28.4467 0 28.9998V39.0001C0 39.5531 0.447347 40.0005 1.00037 40.0005H7.99941V48.0001H1.00037C0.447347 48.0001 0 48.4474 0 49.0004V59.0008C0 59.5526 0.447347 60 1.00037 60V59.9988ZM55.8432 2.1995C56.2847 1.86839 56.9117 1.95762 57.2428 2.39911L57.7982 3.14118C58.1293 3.58267 58.0389 4.20967 57.5986 4.54078L50.1475 10.131L48.3922 7.78969L55.8432 2.20068V2.1995ZM17.9996 49.9997H31.9988V57.9992H17.9996V49.9997ZM25.999 39.9993H39.9982V47.9989H25.999V39.9993ZM47.9988 57.9992H33.9984V49.9997H47.9988V57.9992ZM55.9982 47.9989H41.9978V39.9993H55.9982V47.9989ZM47.9988 37.9985H33.9984V32.1759L44.2334 29.999H47.9976V37.9997L47.9988 37.9985ZM34.4516 13.6558C34.4856 13.5854 34.5561 13.5407 34.6336 13.5384H34.6536C34.7592 13.5384 34.8578 13.5924 34.9189 13.6793L39.437 19.7027L35.3122 22.7978C34.8708 23.1289 34.7804 23.756 35.1126 24.1986C35.4437 24.6401 36.0707 24.7293 36.5134 24.3982L40.6381 21.3031L45.1562 27.3266C45.2278 27.4146 45.249 27.5332 45.2114 27.6401C45.1879 27.7141 45.1245 27.7692 45.0482 27.7822L25.2099 32.0009C25.0867 32.0197 24.9634 31.968 24.8918 31.8647C24.8119 31.7684 24.7966 31.6346 24.8507 31.5219L34.4528 13.6558H34.4516ZM23.2914 33.0647C23.8245 33.7974 24.7391 34.1473 25.6244 33.9559L32 32.5997V37.9974H18.0007V29.9966H23.3982L23.0883 30.5731C22.6597 31.3716 22.7396 32.3461 23.2914 33.0624V33.0647ZM2.00073 33.9982H4.00029C4.55331 33.9982 5.00066 33.5508 5.00066 32.9978C5.00066 32.4448 4.55331 31.9986 4.00029 31.9986H1.99956V29.9978H16V37.9985H1.99956V33.9982H2.00073ZM10.0001 39.9981H24.0006V47.9977H10.0001V39.9981ZM1.99956 49.9997H16V57.9992H1.99956V49.9997Z" fill="#151515"></path><path d="M13.0003 32.9995C13.0003 32.4476 12.553 32.0002 12 32.0002H7.99968C7.44784 32.0002 7.00049 32.4476 7.00049 32.9995C7.00049 33.5513 7.44784 33.9998 7.99968 33.9998H12C12.553 33.9998 13.0003 33.5525 13.0003 32.9995Z" fill="#151515"></path></svg>