<svg xmlns="http://www.w3.org/2000/svg" width="61" height="60" viewBox="0 0 61 60" fill="none"><path d="M20.8 14H2.30005V38H8.80005V44H14.8V38H20.8V14Z" fill="#F4832B" stroke="black"></path><path d="M8.08798 32.6857C8.47851 33.0762 9.11074 33.0762 9.50127 32.6857L15.4973 26.6896C15.5212 26.6658 15.5426 26.642 15.564 26.6158C15.5735 26.6039 15.5819 26.592 15.5902 26.5801C15.6009 26.5658 15.6116 26.5515 15.6224 26.5372C15.6319 26.5229 15.6402 26.5086 15.6486 26.4943C15.6569 26.4812 15.6652 26.4681 15.6724 26.4538C15.6807 26.4396 15.6867 26.4241 15.6938 26.4086C15.7009 26.3943 15.7081 26.38 15.714 26.3657C15.72 26.3515 15.7248 26.336 15.7307 26.3205C15.7367 26.305 15.7426 26.2895 15.7474 26.2729C15.7521 26.2574 15.7557 26.2431 15.7593 26.2276C15.764 26.211 15.7676 26.1955 15.7712 26.1776C15.7748 26.1598 15.7771 26.1431 15.7795 26.1252C15.7819 26.1109 15.7843 26.0955 15.7855 26.0812C15.7914 26.0157 15.7914 25.9502 15.7855 25.8847C15.7843 25.8692 15.7807 25.855 15.7795 25.8407C15.7771 25.8228 15.7748 25.8061 15.7712 25.7883C15.7676 25.7716 15.7629 25.7549 15.7593 25.7383C15.7557 25.7228 15.7521 25.7073 15.7474 25.693C15.7426 25.6764 15.7367 25.6609 15.7307 25.6454C15.7259 25.6299 15.72 25.6156 15.714 25.6002C15.7081 25.5859 15.7009 25.5716 15.6938 25.5573C15.6867 25.5418 15.6795 25.5263 15.6724 25.5121C15.6652 25.4978 15.6569 25.4847 15.6486 25.4716C15.6402 25.4573 15.6319 25.443 15.6224 25.4287C15.6128 25.4144 15.6009 25.4001 15.5902 25.3858C15.5819 25.3739 15.5735 25.362 15.564 25.3501C15.5223 25.2989 15.4759 25.2525 15.4247 25.2108C15.4128 25.2013 15.4009 25.193 15.389 25.1846C15.3747 25.1739 15.3604 25.1632 15.3461 25.1525C15.3318 25.143 15.3176 25.1346 15.3021 25.1263C15.289 25.1179 15.2759 25.1096 15.2616 25.1025C15.2473 25.0941 15.2318 25.0882 15.2164 25.081C15.2021 25.0739 15.1878 25.0667 15.1735 25.0608C15.1592 25.0548 15.1437 25.0501 15.1282 25.0441C15.1128 25.0382 15.0973 25.0322 15.0806 25.0275C15.0651 25.0227 15.0509 25.0191 15.0354 25.0156C15.0187 25.0108 15.0032 25.0072 14.9866 25.0036C14.9687 25.0001 14.9508 24.9977 14.933 24.9953C14.9187 24.9929 14.9044 24.9905 14.8889 24.9894C14.8556 24.9858 14.8234 24.9846 14.7901 24.9846H11.2063L15.4962 20.6947C15.8867 20.3042 15.8867 19.672 15.4962 19.2814C15.1056 18.8909 14.4734 18.8909 14.0829 19.2814L8.08679 25.2775C8.06298 25.3013 8.04155 25.3251 8.02011 25.3513C8.01059 25.3632 8.00225 25.3751 7.99392 25.387C7.9832 25.4013 7.97249 25.4156 7.96177 25.4299C7.95225 25.4442 7.94391 25.4585 7.93558 25.4728C7.92724 25.4859 7.91891 25.499 7.91177 25.5132C7.90343 25.5275 7.89748 25.543 7.89033 25.5585C7.88319 25.5728 7.87605 25.5871 7.87009 25.6013C7.86414 25.6156 7.85938 25.6311 7.85342 25.6466C7.84747 25.6621 7.84152 25.6775 7.83675 25.6942C7.83199 25.7097 7.82842 25.724 7.82485 25.7395C7.82128 25.7561 7.81651 25.7716 7.81294 25.7895C7.80937 25.8073 7.80699 25.824 7.80461 25.8419C7.80223 25.8561 7.79985 25.8716 7.79865 25.8859C7.7927 25.9514 7.7927 26.0169 7.79865 26.0824C7.79985 26.0978 7.80342 26.1121 7.80461 26.1264C7.80699 26.1443 7.80937 26.1609 7.81294 26.1788C7.81651 26.1955 7.82128 26.2121 7.82485 26.2288C7.82842 26.2443 7.83199 26.2598 7.83675 26.2741C7.84152 26.2907 7.84747 26.3062 7.85342 26.3217C7.85819 26.3372 7.86414 26.3515 7.87009 26.3669C7.87605 26.3812 7.88319 26.3955 7.89033 26.4098C7.89748 26.4253 7.90462 26.4408 7.91177 26.455C7.91891 26.4693 7.92724 26.4824 7.93558 26.4955C7.94391 26.5098 7.95225 26.5241 7.96177 26.5384C7.9713 26.5527 7.9832 26.567 7.99392 26.5812C8.00225 26.5932 8.01059 26.6051 8.02011 26.617C8.06179 26.6682 8.10822 26.7146 8.15942 26.7563C8.17133 26.7658 8.18323 26.7741 8.19514 26.7825C8.20943 26.7932 8.22371 26.8039 8.238 26.8146C8.25229 26.8241 8.26658 26.8325 8.28205 26.8408C8.29515 26.8491 8.30825 26.8575 8.32254 26.8646C8.33682 26.873 8.3523 26.8789 8.36778 26.886C8.38207 26.8932 8.39636 26.9003 8.41183 26.9063C8.42612 26.9122 8.4416 26.917 8.45708 26.923C8.47256 26.9289 8.48804 26.9349 8.5047 26.9396C8.52018 26.9444 8.53447 26.948 8.54995 26.9515C8.56662 26.9563 8.5821 26.9599 8.59877 26.9634C8.61663 26.967 8.63448 26.9694 8.65234 26.9718C8.66663 26.9742 8.68092 26.9765 8.6964 26.9777C8.72974 26.9813 8.76188 26.9825 8.79522 26.9825H12.3791L8.08917 31.2724C7.69864 31.6629 7.69864 32.2951 8.08917 32.6857H8.08798Z" fill="#151515"></path><path d="M37.7766 31.9925C37.2242 31.9925 36.7777 32.4402 36.7777 32.9915C36.7777 35.0203 36.3514 36.2479 35.4656 37.485C35.3465 37.6505 34.7321 38.4518 34.5702 38.6863C34.2618 39.134 34.0451 39.5567 33.9177 40.0008H33.6915C33.6308 38.9911 33.7189 38.1755 33.9392 37.1194C33.9356 37.1385 34.0416 36.6325 34.0701 36.4908C34.119 36.2443 34.1559 36.0395 34.1833 35.8371C34.3333 34.7405 34.2094 33.7749 33.6987 32.595C33.4796 32.0878 32.8914 31.8556 32.3842 32.0747C31.877 32.2938 31.6448 32.8819 31.8639 33.3892C32.227 34.2286 32.3032 34.8263 32.202 35.5668C32.1806 35.7228 32.1508 35.8895 32.1092 36.0991C32.083 36.2288 31.9794 36.723 31.9806 36.7134C31.7353 37.8934 31.6293 38.853 31.6889 40.0008H31.3019C30.9173 39.415 30.7756 38.8697 30.7614 38.1565C30.7566 37.9291 30.7614 37.7445 30.7816 37.2897C30.8685 35.2394 30.6744 34.0964 29.6267 32.4545C29.3302 31.989 28.7123 31.8532 28.2467 32.1497C27.7812 32.4462 27.6454 33.0641 27.9419 33.5297C28.7254 34.7584 28.8563 35.5252 28.7849 37.204C28.7635 37.7005 28.7575 37.9124 28.7635 38.197C28.7873 39.359 29.0706 40.3258 29.7826 41.3176V48.0079C29.7826 51.3131 27.0918 54.0039 23.7866 54.0039H20.7885C17.4833 54.0039 14.7925 51.3131 14.7925 48.0079V45.9707C15.8962 45.9707 16.7916 45.0765 16.7916 43.9716V39.9746H20.7885C21.8923 39.9746 22.7876 39.0804 22.7876 37.9755V13.9912C22.7876 12.8863 21.8923 11.9921 20.7885 11.9921H19.7896V2.99804C19.7896 1.34304 18.4465 0 16.7916 0H6.79612C5.14113 0 3.79808 1.34304 3.79808 2.99804V11.9921H2.79914C1.69541 11.9921 0.800049 12.8863 0.800049 13.9912V37.9755C0.800049 39.0804 1.69541 39.9746 2.79914 39.9746H6.79612V43.9716C6.79612 45.0765 7.69148 45.9707 8.79521 45.9707V48.0079C8.79521 54.6207 14.1745 60 20.7873 60H23.7854C30.3982 60 35.7775 54.6207 35.7775 48.0079V40.9997C35.7775 40.9997 35.7775 40.995 35.7775 40.9926C35.7775 40.9902 35.7775 40.9878 35.7775 40.9855C35.7775 40.5937 35.9002 40.2758 36.2145 39.8198C36.3407 39.6365 36.9408 38.8542 37.0896 38.647C38.21 37.0825 38.7756 35.4537 38.7756 32.9903C38.7756 32.4378 38.3279 31.9914 37.7766 31.9914V31.9925ZM5.79717 2.99804C5.79717 2.44677 6.24485 1.99909 6.79612 1.99909H16.7892C17.3404 1.99909 17.7881 2.44677 17.7881 2.99804V11.9921H5.79717V2.99804ZM2.79914 13.9912H20.7873V37.9755H2.79914V13.9912ZM14.7913 39.9746V43.9716H8.79521V39.9746H14.7913ZM33.7796 48.0091C33.7796 53.5182 29.2957 58.0021 23.7866 58.0021H20.7885C15.2794 58.0021 10.7955 53.5182 10.7955 48.0091V45.9719H12.7946V48.0091C12.7946 52.418 16.3796 56.0042 20.7897 56.0042H23.7878C28.1967 56.0042 31.7829 52.4192 31.7829 48.0091V41.9999H33.782V48.0091H33.7796Z" fill="#151515"></path><path d="M48.7699 0.0263672H42.7739C36.161 0.0263672 30.7817 5.40569 30.7817 12.0185V19.9994C30.7817 20.3911 30.6591 20.7102 30.3448 21.165C30.2186 21.3484 29.6185 22.1294 29.4696 22.3378C28.3492 23.9023 27.7837 25.5311 27.7837 27.9945C27.7837 28.547 28.2314 28.9935 28.7826 28.9935C29.3339 28.9935 29.7816 28.5458 29.7816 27.9945C29.7816 25.9657 30.2078 24.7381 31.0937 23.5011C31.2127 23.3356 31.8271 22.5343 31.989 22.2997C32.295 21.8568 32.5093 21.4377 32.6379 20.9983H32.8689C32.9285 22.002 32.8392 22.8152 32.6213 23.8678C32.6248 23.8499 32.5189 24.3559 32.4903 24.4964C32.4415 24.7429 32.4046 24.9477 32.3772 25.1501C32.2272 26.2467 32.351 27.2111 32.8618 28.3922C33.0809 28.8994 33.669 29.1316 34.1762 28.9125C34.6835 28.6934 34.9156 28.1053 34.6966 27.5981C34.3334 26.7587 34.2572 26.1609 34.3584 25.4216C34.3798 25.2656 34.4096 25.0989 34.4513 24.8893C34.4775 24.7596 34.5811 24.2654 34.5799 24.275C34.824 23.0998 34.9299 22.1425 34.8728 20.9995H35.2669C35.6443 21.5806 35.7848 22.1223 35.7991 22.8307C35.8039 23.0593 35.7991 23.2439 35.7788 23.6987C35.6919 25.749 35.886 26.892 36.9338 28.5339C37.2302 28.9994 37.8482 29.1352 38.3137 28.8387C38.7793 28.5422 38.915 27.9243 38.6185 27.4587C37.8351 26.2312 37.7041 25.4632 37.7756 23.7844C37.797 23.2867 37.8029 23.0748 37.797 22.7902C37.7732 21.6282 37.4886 20.6626 36.7778 19.6708V12.0185C36.7778 8.71329 39.4686 6.02244 42.7739 6.02244H48.7699C52.0752 6.02244 54.766 8.71329 54.766 12.0185V58.9881C54.766 59.5406 55.2137 59.9871 55.765 59.9871H59.7619C60.3144 59.9871 60.7609 59.5394 60.7609 58.9881V12.0185C60.7609 5.40569 55.3816 0.0263672 48.7687 0.0263672H48.7699ZM58.763 57.9892H56.7639V12.0185C56.7639 7.60956 53.1789 4.02335 48.7687 4.02335H42.7727C38.3637 4.02335 34.7775 7.60837 34.7775 12.0185V19.0004H32.7784V12.0185C32.7784 6.50941 37.2624 2.02545 42.7715 2.02545H48.7676C54.2767 2.02545 58.7606 6.50941 58.7606 12.0185V57.9892H58.763Z" fill="#151515"></path></svg>