<svg xmlns="http://www.w3.org/2000/svg" width="61" height="60" viewBox="0 0 61 60" fill="none"><path d="M54.7 20H5.19995V33H54.7V20Z" fill="#F4832B"></path><path d="M58.3753 16.3363H56.4815C55.4749 16.3363 54.6557 17.1554 54.6557 18.1621V18.7047H47.1802V17.6886C47.1802 16.4663 46.3856 15.428 45.2864 15.0589V0.878923C45.2864 0.393758 44.8926 0 44.4075 0C43.9223 0 43.5285 0.393758 43.5285 0.878923V15.0601C42.4293 15.428 41.6348 16.4675 41.6348 17.6898V18.7058H20.3894C20.3894 18.7058 20.3882 18.7058 20.3871 18.7058H18.7675V17.6898C18.7675 16.4675 17.973 15.4292 16.8737 15.0601V0.878923C16.8737 0.393758 16.48 0 15.9948 0C15.5096 0 15.1159 0.393758 15.1159 0.878923V15.0601C14.0166 15.4292 13.2221 16.4675 13.2221 17.6898V18.7058H5.74655V18.1632C5.74655 17.1566 4.92739 16.3374 3.92073 16.3374H2.02577C1.01911 16.3374 0.199951 17.1566 0.199951 18.1632V35.2097C0.199951 36.2163 1.01911 37.0355 2.02577 37.0355H3.91956C4.92622 37.0355 5.74537 36.2163 5.74537 35.2097V34.6683H22.2187V42.8364L20.5359 44.1817C20.1 44.5298 19.8503 45.0501 19.8503 45.6079V46.3368C19.8503 47.2134 20.5629 47.9259 21.4394 47.9259H38.9593C39.8359 47.9259 40.5484 47.2134 40.5484 46.3368V45.6079C40.5484 45.0501 40.2988 44.531 39.8628 44.1817L38.1812 42.8364V34.6683H50.6947C50.724 34.6683 50.7533 34.6671 50.7826 34.6636C50.8119 34.6659 50.8412 34.6683 50.8705 34.6683H54.6545V35.2097C54.6545 36.2163 55.4737 37.0355 56.4804 37.0355H58.3741C59.3808 37.0355 60.2 36.2163 60.2 35.2097V18.1621C60.2 17.1554 59.3808 16.3363 58.3741 16.3363H58.3753ZM3.98753 35.2097C3.98753 35.2472 3.95706 35.2776 3.91956 35.2776H2.02577C1.98827 35.2776 1.9578 35.2472 1.9578 35.2097V18.1621C1.9578 18.1246 1.98827 18.0941 2.02577 18.0941H3.91956C3.95706 18.0941 3.98753 18.1246 3.98753 18.1621V35.2085V35.2097ZM43.3914 17.6886C43.3914 17.1285 43.8473 16.6738 44.4063 16.6738C44.9653 16.6738 45.4212 17.1296 45.4212 17.6886V18.7047H43.3903V17.6886H43.3914ZM14.9799 17.6886C14.9799 17.1285 15.4358 16.6738 15.9948 16.6738C16.5538 16.6738 17.0097 17.1296 17.0097 17.6886V18.7047H14.9788V17.6886H14.9799ZM15.1159 32.9104H5.74537V20.4625H15.1159V32.9104ZM16.8737 32.9104V20.4625H20.1457C20.1457 20.4625 20.1468 20.4625 20.148 20.4625H29.3216V32.9104H16.8737ZM23.9766 40.8582V34.6683H36.4245V42.3805H23.9766V40.8582ZM38.7659 45.5552C38.7824 45.5681 38.7917 45.588 38.7917 45.6079V46.1681H21.6094V45.6079C21.6094 45.5868 21.6187 45.5681 21.6351 45.5552L23.407 44.1384H36.9964L38.7671 45.5552H38.7659ZM43.5274 32.9104H31.0795V20.4625H43.5274V32.9104ZM54.6557 32.9104H50.8717C50.8424 32.9104 50.8131 32.9116 50.7838 32.9151C50.7545 32.9128 50.7252 32.9104 50.6959 32.9104H45.2852V20.4625H54.6545V32.9104H54.6557ZM58.4433 35.2097C58.4433 35.2472 58.4128 35.2776 58.3753 35.2776H56.4815C56.444 35.2776 56.4136 35.2472 56.4136 35.2097V18.1621C56.4136 18.1246 56.444 18.0941 56.4815 18.0941H58.3753C58.4128 18.0941 58.4433 18.1246 58.4433 18.1621V35.2085V35.2097Z" fill="#151515"></path><path d="M38.8597 51.7827C38.8597 51.2976 38.466 50.9038 37.9808 50.9038C37.4956 50.9038 37.1405 51.2601 37.1042 51.7124C37.0667 51.7452 37.0105 51.7898 36.9683 51.8214C36.6835 52.0417 36.1538 52.4519 36.1538 53.25C36.1538 54.048 36.6835 54.4582 36.9683 54.6785C36.9835 54.6902 37.0011 54.7043 37.0187 54.7172C37.0011 54.7312 36.9835 54.7441 36.9683 54.7558C36.6835 54.9762 36.1538 55.3863 36.1538 56.1844C36.1538 56.9824 36.6835 57.3926 36.9683 57.6129C36.9835 57.6246 37.0011 57.6387 37.0187 57.6528C37.0011 57.6668 36.9835 57.6797 36.9683 57.6926C36.6835 57.9129 36.1538 58.3243 36.1538 59.1212C36.1538 59.6063 36.5476 60.0001 37.0327 60.0001C37.5179 60.0001 37.873 59.6438 37.9093 59.1903C37.9468 59.1575 38.0031 59.113 38.0453 59.0813C38.33 58.861 38.8597 58.4508 38.8597 57.6528C38.8597 56.8547 38.33 56.4445 38.0453 56.2242C38.03 56.2125 38.0124 56.1984 37.9949 56.1856C38.0124 56.1715 38.03 56.1586 38.0453 56.1457C38.33 55.9254 38.8597 55.5152 38.8597 54.7172C38.8597 53.9191 38.33 53.5089 38.0453 53.2886C38.03 53.2769 38.0124 53.2628 37.9949 53.25C38.0124 53.2359 38.03 53.223 38.0453 53.2113C38.33 52.991 38.8597 52.5808 38.8597 51.7827Z" fill="#151515"></path><path d="M31.5528 51.7827C31.5528 51.2976 31.1591 50.9038 30.6739 50.9038C30.1887 50.9038 29.8337 51.2601 29.7973 51.7124C29.7598 51.7452 29.7036 51.7886 29.6614 51.8214C29.3766 52.0417 28.8469 52.4519 28.8469 53.25C28.8469 54.048 29.3766 54.4582 29.6614 54.6785C29.6766 54.6902 29.6942 54.7043 29.7118 54.7172C29.6942 54.7312 29.6766 54.7441 29.6614 54.7558C29.3766 54.9762 28.8469 55.3863 28.8469 56.1844C28.8469 56.9824 29.3766 57.3926 29.6614 57.6129C29.6766 57.6246 29.6942 57.6387 29.7118 57.6528C29.6942 57.6668 29.6766 57.6797 29.6614 57.6926C29.3766 57.9129 28.8469 58.3243 28.8469 59.1212C28.8469 59.6063 29.2407 60.0001 29.7258 60.0001C30.211 60.0001 30.5661 59.6438 30.6024 59.1903C30.6399 59.1575 30.6962 59.113 30.7384 59.0813C31.0231 58.861 31.5528 58.4497 31.5528 57.6528C31.5528 56.8559 31.0231 56.4445 30.7384 56.2242C30.7231 56.2125 30.7056 56.1984 30.688 56.1844C30.7056 56.1703 30.7231 56.1574 30.7384 56.1457C31.0231 55.9254 31.5528 55.5152 31.5528 54.7172C31.5528 53.9191 31.0231 53.5089 30.7384 53.2886C30.7231 53.2769 30.7056 53.2628 30.688 53.25C30.7056 53.2359 30.7231 53.223 30.7384 53.2113C31.0231 52.991 31.5528 52.5808 31.5528 51.7827Z" fill="#151515"></path><path d="M24.2462 51.7827C24.2462 51.2976 23.8524 50.9038 23.3673 50.9038C22.8821 50.9038 22.527 51.2601 22.4907 51.7124C22.4532 51.7452 22.3969 51.7898 22.3548 51.8214C22.07 52.0417 21.5403 52.4519 21.5403 53.25C21.5403 54.048 22.07 54.4582 22.3548 54.6785C22.37 54.6902 22.3876 54.7043 22.4051 54.7172C22.3876 54.7312 22.37 54.7441 22.3548 54.7558C22.07 54.9762 21.5403 55.3863 21.5403 56.1844C21.5403 56.9824 22.07 57.3926 22.3548 57.6129C22.37 57.6246 22.3876 57.6387 22.4051 57.6528C22.3876 57.6668 22.37 57.6797 22.3548 57.6926C22.07 57.9129 21.5403 58.3243 21.5403 59.1212C21.5403 59.6063 21.934 60.0001 22.4192 60.0001C22.9044 60.0001 23.2595 59.6438 23.2958 59.1903C23.3333 59.1575 23.3895 59.113 23.4317 59.0813C23.7165 58.861 24.2462 58.4508 24.2462 57.6528C24.2462 56.8547 23.7165 56.4445 23.4317 56.2242C23.4165 56.2125 23.3989 56.1984 23.3813 56.1856C23.3989 56.1715 23.4165 56.1586 23.4317 56.1457C23.7165 55.9254 24.2462 55.5152 24.2462 54.7172C24.2462 53.9191 23.7165 53.5089 23.4317 53.2886C23.4165 53.2769 23.3989 53.2628 23.3813 53.25C23.3989 53.2359 23.4165 53.223 23.4317 53.2113C23.7165 52.991 24.2462 52.5808 24.2462 51.7827Z" fill="#151515"></path></svg>