<svg xmlns="http://www.w3.org/2000/svg" width="61" height="60" viewBox="0 0 61 60" fill="none"><path d="M16.5638 6H4.56379V36.5C3.73045 42.8333 5.66379 55.6 20.0638 56C34.4638 56.4 37.3971 43.8333 37.0638 37.5H24.5638V40.5C24.7305 41.5 24.2638 43.6 21.0638 44C17.8638 44.4 16.7305 41.8333 16.5638 40.5V6Z" fill="#F4832B"></path><path d="M58.3985 54.184V20.0004C58.3985 10.0594 50.3395 2.00039 40.3985 2.00039C30.4575 2.00039 22.3985 10.0594 22.3985 20.0004V22.1848C21.2044 22.6066 20.404 23.734 20.3981 25.0008V35.0004C20.4028 36.2672 21.2032 37.3945 22.3985 37.8164V40.0008C22.3985 41.1059 21.5032 42.0012 20.3981 42.0012C19.2931 42.0012 18.3977 41.1059 18.3977 40.0008V5.81602C19.7747 5.33086 20.6009 3.92461 20.3536 2.48555C20.1075 1.04766 18.8583 -0.00233983 17.3993 3.91587e-06H3.39892C1.93994 -0.00233983 0.69072 1.04766 0.443455 2.48555C0.196189 3.92344 1.02236 5.33086 2.39931 5.81602V39.9996C2.39931 49.9406 10.4583 57.9996 20.3993 57.9996C30.3403 57.9996 38.3993 49.9406 38.3993 39.9996V37.8152C39.5934 37.3934 40.3938 36.266 40.3997 34.9992V24.9996C40.395 23.7328 39.5946 22.6055 38.3993 22.1836V19.9992C38.3993 18.8941 39.2946 17.9988 40.3997 17.9988C41.5048 17.9988 42.4001 18.8941 42.4001 19.9992V54.184C41.0231 54.6691 40.197 56.0754 40.4442 57.5144C40.6915 58.9535 41.9407 60.0035 43.3997 60H57.4001C58.8591 60.0023 60.1083 58.9523 60.3555 57.5144C60.6028 56.0766 59.7766 54.6691 58.3997 54.184H58.3985ZM3.39892 2.00039H17.3993C17.9513 2.00039 18.3989 2.44805 18.3989 3C18.3989 3.55196 17.9513 3.99961 17.3993 3.99961H3.39892C2.84697 3.99961 2.39931 3.55196 2.39931 3C2.39931 2.44805 2.84697 2.00039 3.39892 2.00039ZM20.3993 56.0004C11.5669 55.9898 4.41025 48.832 4.3997 40.0008V6H16.3997V39.9996C16.3997 42.2086 18.1903 43.9992 20.3993 43.9992C22.6083 43.9992 24.3989 42.2086 24.3989 39.9996V37.9992H36.3989V39.9996C36.3884 48.832 29.2306 55.9887 20.3993 55.9992V56.0004ZM38.3993 35.0004C38.3993 35.5523 37.9516 36 37.3997 36H23.3993C22.8474 36 22.3997 35.5523 22.3997 35.0004V25.0008C22.3997 24.4488 22.8474 24.0012 23.3993 24.0012H37.3997C37.9516 24.0012 38.3993 24.4488 38.3993 25.0008V35.0004ZM40.3997 16.0008C38.1907 16.0008 36.4001 17.7914 36.4001 20.0004V22.0008H24.4001V20.0004C24.4001 11.1633 31.5638 4.00078 40.3997 4.00078C49.2356 4.00078 56.3993 11.1645 56.3993 20.0004V54H44.3993V20.0004C44.3993 17.7914 42.6087 16.0008 40.3997 16.0008ZM57.4001 58.0008H43.3997C42.8477 58.0008 42.4001 57.5531 42.4001 57.0012C42.4001 56.4492 42.8477 56.0016 43.3997 56.0016H57.4001C57.952 56.0016 58.3997 56.4492 58.3997 57.0012C58.3997 57.5531 57.952 58.0008 57.4001 58.0008Z" fill="#151515"></path><path d="M7.39878 8.00024C6.84683 8.00024 6.39917 8.4479 6.39917 8.99985V11.0002C6.39917 11.5522 6.84683 11.9999 7.39878 11.9999C7.95073 11.9999 8.39839 11.5522 8.39839 11.0002V8.99985C8.39839 8.4479 7.95073 8.00024 7.39878 8.00024Z" fill="#151515"></path><path d="M7.39878 14.0005C6.84683 14.0005 6.39917 14.4481 6.39917 15.0001V29.0005C6.39917 29.5524 6.84683 30.0001 7.39878 30.0001C7.95073 30.0001 8.39839 29.5524 8.39839 29.0005V15.0001C8.39839 14.4481 7.95073 14.0005 7.39878 14.0005Z" fill="#151515"></path></svg>