<svg xmlns="http://www.w3.org/2000/svg" width="70" height="71" viewBox="0 0 70 71" fill="none"><path fill-rule="evenodd" clip-rule="evenodd" d="M44.1634 56.5156C37.9612 56.5156 31.7589 56.5156 25.5568 56.5156V63.7807H44.1634V56.5156Z" fill="white"></path><path fill-rule="evenodd" clip-rule="evenodd" d="M34.8597 56.5156H44.1633V63.7807H34.8597V56.5156Z" fill="white"></path><path fill-rule="evenodd" clip-rule="evenodd" d="M17.2388 69.8752H52.481V66.6329C52.481 64.8496 51.0221 63.3906 49.2388 63.3906H20.4813C18.6976 63.3906 17.2389 64.8497 17.2389 66.6329V69.8752H17.2388Z" fill="white"></path><path fill-rule="evenodd" clip-rule="evenodd" d="M34.8597 69.8752H52.481V66.6329C52.481 64.8496 51.0222 63.3906 49.2388 63.3906H34.8597V69.8752Z" fill="white"></path><path fill-rule="evenodd" clip-rule="evenodd" d="M62.5722 22.9195C64.5756 33.7017 66.5801 44.4838 68.5853 55.2657C68.6633 55.685 68.5611 56.0776 68.2884 56.4056C68.0158 56.7337 67.6486 56.9059 67.222 56.9059C45.6474 56.9059 24.0726 56.9059 2.49793 56.9059C2.07137 56.9059 1.70417 56.7337 1.43154 56.4056C1.15891 56.0775 1.05671 55.685 1.13464 55.2655C3.14026 44.4839 5.14518 33.702 7.14761 22.9196C7.27076 22.2565 7.83654 21.7861 8.51104 21.7861H61.2089C61.8833 21.7861 62.4489 22.2565 62.5722 22.9195Z" fill="white"></path><path fill-rule="evenodd" clip-rule="evenodd" d="M62.572 22.9195C64.5754 33.7017 66.5799 44.4838 68.5852 55.2657C68.6631 55.685 68.5609 56.0776 68.2883 56.4056C68.0156 56.7337 67.6484 56.9059 67.2219 56.9059H34.8597V21.7861H61.2086C61.8831 21.7861 62.4488 22.2565 62.572 22.9195Z" fill="white"></path><path fill-rule="evenodd" clip-rule="evenodd" d="M11.1691 26.3696C9.56248 35.0206 7.95388 43.6711 6.34473 52.3216H63.3756C61.7668 43.6711 60.1585 35.0204 58.5511 26.3696C42.757 26.3696 26.9631 26.3696 11.1691 26.3696Z" fill="#F4832B"></path><path fill-rule="evenodd" clip-rule="evenodd" d="M34.8597 52.3216H63.3752C61.7665 43.6711 60.1582 35.0204 58.5508 26.3696H34.8597V52.3216Z" fill="#F4832B"></path><path d="M55.6115 9.91121C55.786 8.15791 54.5061 6.59517 52.7528 6.42072C50.9995 6.24627 49.4367 7.52618 49.2623 9.27948C49.0878 11.0328 50.3677 12.5955 52.121 12.77C53.8743 12.9444 55.4371 11.6645 55.6115 9.91121Z" fill="#F4832B"></path><path fill-rule="evenodd" clip-rule="evenodd" d="M45.6266 4.38011C45.1923 3.94703 45.1923 3.24438 45.6266 2.81131C46.059 2.37823 46.7617 2.37823 47.1949 2.81131L48.6231 4.24019C49.0556 4.67326 49.0556 5.37591 48.6231 5.80899C48.4072 6.02559 48.1226 6.13348 47.8381 6.13348C47.5542 6.13348 47.2714 6.02559 47.0536 5.80899L45.6266 4.38011ZM42.8141 9.59946C42.8141 8.98708 43.3107 8.48994 43.9236 8.48994H45.9425C46.5555 8.48994 47.0521 8.98708 47.0521 9.59946C47.0521 10.2125 46.5555 10.709 45.9425 10.709H43.9236C43.3107 10.709 42.8141 10.2125 42.8141 9.59946ZM48.6229 13.3908C49.0555 13.8238 49.0555 14.5265 48.6229 14.9596L47.1948 16.3878C46.9781 16.6044 46.6943 16.7129 46.4097 16.7129C46.1259 16.7129 45.8426 16.6044 45.6266 16.3878C45.1923 15.9547 45.1923 15.252 45.6266 14.819L47.0536 13.3908C47.4872 12.9576 48.1892 12.9576 48.6229 13.3908ZM52.4142 14.9608C53.0259 14.9608 53.5238 15.4574 53.5238 16.0703V18.09C53.5238 18.703 53.0259 19.1995 52.4142 19.1995C51.8013 19.1995 51.3053 18.7029 51.3053 18.09V16.0703C51.3053 15.4574 51.8012 14.9608 52.4142 14.9608ZM57.7737 13.3908L59.2025 14.819C59.6351 15.252 59.6351 15.9547 59.2025 16.3878C58.9847 16.6044 58.7021 16.7129 58.4175 16.7129C58.1336 16.7129 57.849 16.6044 57.6325 16.3878L56.2043 14.9596C55.7719 14.5265 55.7719 13.8238 56.2043 13.3908C56.6385 12.9576 57.3399 12.9576 57.7737 13.3908ZM58.8851 8.48994H60.904C61.517 8.48994 62.0136 8.98708 62.0136 9.59946C62.0136 10.2125 61.517 10.709 60.904 10.709H58.8851C58.2715 10.709 57.7756 10.2124 57.7756 9.59946C57.7756 8.98708 58.2715 8.48994 58.8851 8.48994ZM56.2042 5.80885C55.7718 5.37578 55.7718 4.67312 56.2042 4.24005L57.6323 2.81117C58.0668 2.37809 58.7681 2.37809 59.2025 2.81117C59.6351 3.24424 59.6351 3.94689 59.2025 4.37997L57.7737 5.80885C57.5565 6.02546 57.2739 6.13334 56.9892 6.13334C56.7046 6.13334 56.422 6.02546 56.2042 5.80885ZM51.3053 3.12914V1.10896C51.3053 0.496586 51.8012 0 52.4142 0C53.0259 0 53.5238 0.496586 53.5238 1.10896V3.12928C53.5238 3.74166 53.0259 4.23825 52.4142 4.23825C51.8012 4.23811 51.3053 3.74152 51.3053 3.12914ZM52.4142 7.5184C53.5611 7.5184 54.4947 8.45195 54.4947 9.59946C54.4947 10.747 53.5612 11.6805 52.4142 11.6805C51.266 11.6805 50.3332 10.747 50.3332 9.59946C50.333 8.45195 51.266 7.5184 52.4142 7.5184ZM52.4142 13.8997C54.7846 13.8997 56.7132 11.9703 56.7132 9.59946C56.7132 7.22858 54.7846 5.29923 52.4142 5.29923C50.0434 5.29923 48.114 7.22858 48.114 9.59946C48.114 11.9705 50.0432 13.8997 52.4142 13.8997ZM50.9736 51.228L50.3049 44.0419H60.7059C61.1507 46.4378 61.5956 48.8328 62.0412 51.228H50.9736ZM9.01477 44.0446C12.4749 44.0432 15.9358 44.0426 19.3973 44.0426C19.1821 46.3671 18.9602 48.7615 18.7327 51.228H7.67949C8.12491 48.8335 8.56977 46.439 9.01477 44.0446ZM20.936 27.4951L20.5049 32.1355C17.4118 32.1348 14.3205 32.1343 11.2292 32.1336C11.5164 30.5877 11.8043 29.0411 12.0915 27.4951H20.936ZM58.4913 32.1362H49.2L48.7688 27.4951H57.6283C57.9169 29.0424 58.2041 30.5891 58.4913 32.1362ZM49.4067 34.3548H58.9041C59.3673 36.8442 59.8292 39.3342 60.2924 41.8235H50.0995L49.4067 34.3548ZM35.9695 44.0419H48.078L48.7453 51.228H35.9695V44.0419ZM33.751 44.0419L33.7505 51.228H20.961C21.1887 48.7615 21.4104 46.3664 21.6263 44.0426C25.6674 44.0419 29.71 44.0419 33.751 44.0419ZM33.751 34.3548V41.8235C29.7779 41.8235 25.8054 41.8235 21.8323 41.8235C21.9259 40.816 22.0181 39.8216 22.109 38.8415L22.5265 34.3548H33.751ZM47.8712 41.8235H35.9695V34.3548H47.1777L47.8712 41.8235ZM46.5399 27.4951L46.9718 32.1362H35.9696V27.4951H46.5399ZM33.751 27.4951V32.1362C30.0781 32.1362 26.406 32.1362 22.7332 32.1355L23.1643 27.4951H33.751ZM10.8164 34.3529C13.9763 34.3536 17.137 34.3542 20.2981 34.3542L19.8997 38.6361C19.8029 39.6829 19.7041 40.746 19.6041 41.8242C16.2106 41.8242 12.8191 41.8249 9.42759 41.8255C9.89076 39.3347 10.3539 36.8435 10.8164 34.3529ZM59.6421 26.1829C59.5434 25.6576 59.0861 25.2761 58.5509 25.2761H11.169C10.6346 25.2761 10.176 25.6576 10.0785 26.1829C8.47173 34.8337 6.86368 43.4846 5.25425 52.1347C5.19406 52.4585 5.28046 52.7929 5.49179 53.0468C5.70244 53.3 6.01514 53.4466 6.34491 53.4466H19.7441C19.7448 53.4466 19.7454 53.4473 19.7461 53.4473C19.7461 53.4473 19.7468 53.4466 19.7473 53.4466H63.375C63.7048 53.4466 64.0182 53.3 64.2295 53.0468C64.4402 52.7929 64.5259 52.4587 64.4664 52.1347C62.8577 43.4839 61.2495 34.833 59.6421 26.1829ZM67.4352 55.7121C67.4974 55.6368 67.513 55.5792 67.4947 55.4837C65.4895 44.702 63.4843 33.9197 61.4818 23.1381C61.4555 22.9999 61.3489 22.911 61.2088 22.911H8.51097C8.37105 22.911 8.26441 22.9999 8.2382 23.1374C6.23633 33.9197 4.23112 44.702 2.22523 55.4837C2.20761 55.5792 2.22259 55.6368 2.28486 55.7121C2.34698 55.7867 2.40065 55.8115 2.49813 55.8115H67.2221C67.3188 55.8115 67.3731 55.7867 67.4352 55.7121ZM43.0541 62.2968H26.6664V58.0305H43.0541V62.2968ZM51.3714 66.648V68.7815H18.3485V66.648C18.3485 65.4718 19.3051 64.5153 20.4813 64.5153H49.2385C50.4149 64.5153 51.3714 65.4718 51.3714 66.648ZM69.6759 55.0781C67.6714 44.2964 65.6655 33.5141 63.6636 22.7324C63.4431 21.5502 62.4114 20.6919 61.209 20.6919H8.51097C7.30854 20.6919 6.27682 21.5502 6.05702 22.7324C4.05432 33.5148 2.04981 44.2964 0.0439091 55.0781C-0.09407 55.8206 0.0956339 56.5494 0.577798 57.1297C1.06066 57.7106 1.74292 58.0305 2.498 58.0305H24.4473V62.2968H20.4815C18.0824 62.2968 16.1295 64.249 16.1295 66.648V69.8904C16.1295 70.5034 16.6268 71 17.239 71H52.4809C53.094 71 53.5905 70.5034 53.5905 69.8904V66.648C53.5905 64.249 51.6375 62.2968 49.2385 62.2968H45.2726V58.0305H67.222C67.9776 58.0305 68.6586 57.7106 69.1422 57.1297C69.625 56.5495 69.8133 55.8206 69.6759 55.0781Z" fill="black"></path></svg>