<svg xmlns="http://www.w3.org/2000/svg" width="90" height="84" viewBox="0 0 90 84" fill="none"><path d="M47.1876 73.6414C30.8795 73.6414 17.6104 60.3744 17.6104 44.0642C17.6104 28.5752 29.5811 15.8289 44.7564 14.5872V42.7832C44.7564 42.8006 44.7564 42.8159 44.7564 42.8333C44.7564 42.8508 44.7564 42.8878 44.7564 42.9161C44.7564 42.9444 44.7564 42.9597 44.7564 42.9815C44.7564 43.0032 44.7564 43.0337 44.7673 43.0577C44.7782 43.0817 44.7782 43.1035 44.7825 43.1274L44.8021 43.1971C44.8021 43.2211 44.8174 43.2451 44.8239 43.2668L44.8479 43.3322L44.8806 43.4041C44.8806 43.4237 44.898 43.4433 44.9089 43.4629C44.9198 43.4825 44.935 43.5108 44.9503 43.5348L44.9808 43.5871L45.0352 43.6633L45.0592 43.696C45.0919 43.7374 45.1289 43.7766 45.1659 43.8158L45.1812 43.8289C45.2139 43.8594 45.2465 43.8899 45.2814 43.9182L45.3337 43.9574L45.4056 44.0097L45.4666 44.0446C45.4913 44.0596 45.5167 44.0735 45.5428 44.086L45.6016 44.1143C45.6306 44.1285 45.6604 44.1408 45.691 44.1513L45.7432 44.1709L45.85 44.2014L45.8936 44.2123C45.9345 44.2211 45.976 44.2277 46.0177 44.2319H46.0482C46.1005 44.2352 46.1528 44.2352 46.2051 44.2319H76.7626C76.6602 60.4768 63.4347 73.6414 47.1876 73.6414Z" fill="#F4832B"></path><path d="M71.671 22.6758C71.6188 22.6101 71.5612 22.5489 71.4989 22.4928C68.4526 19.0508 64.7101 16.295 60.5189 14.4078C56.3277 12.5207 51.7836 11.5452 47.1871 11.5459C29.256 11.5459 14.6689 26.1417 14.6689 44.0641C14.6689 61.9864 29.2648 76.5822 47.1871 76.5822C65.1095 76.5822 79.7053 61.9864 79.7053 44.0641C79.7119 36.224 76.8743 28.6478 71.719 22.7411L71.671 22.6758ZM76.6358 41.3126H50.4592L70.3008 25.6276C73.9019 30.1234 76.1045 35.577 76.6358 41.3126ZM68.3576 23.4251L47.7034 39.7485V14.4934C55.4958 14.6251 62.9192 17.8363 68.351 23.4251H68.3576ZM47.1871 73.6413C30.879 73.6413 17.6099 60.3743 17.6099 44.0641C17.6099 28.5751 29.5806 15.8288 44.7559 14.5871V42.7831C44.7559 42.8005 44.7559 42.8158 44.7559 42.8332C44.7559 42.8507 44.7559 42.8877 44.7559 42.916C44.7559 42.9443 44.7559 42.9596 44.7559 42.9814C44.7559 43.0031 44.7559 43.0336 44.7668 43.0576C44.7777 43.0816 44.7777 43.1034 44.7821 43.1273L44.8017 43.197C44.8017 43.221 44.8169 43.245 44.8235 43.2667L44.8474 43.3321L44.8801 43.404C44.8801 43.4236 44.8975 43.4432 44.9084 43.4628C44.9193 43.4824 44.9346 43.5107 44.9498 43.5347L44.9803 43.587L45.0348 43.6632L45.0587 43.6959C45.0914 43.7373 45.1284 43.7765 45.1655 43.8157L45.1807 43.8288C45.2134 43.8593 45.2461 43.8898 45.2809 43.9181L45.3332 43.9573L45.4051 44.0096L45.4661 44.0445C45.4908 44.0595 45.5163 44.0734 45.5424 44.0858L45.6012 44.1142C45.6302 44.1284 45.66 44.1407 45.6905 44.1512L45.7428 44.1708L45.8495 44.2013L45.8931 44.2122C45.9341 44.221 45.9755 44.2276 46.0173 44.2318H46.0478C46.1 44.2351 46.1524 44.2351 46.2046 44.2318H76.7621C76.6598 60.4767 63.4342 73.6413 47.1871 73.6413Z" fill="#231F20"></path><path d="M67.1882 14.7962C67.3538 14.8955 67.5374 14.9612 67.7284 14.9895C67.9195 15.0178 68.1142 15.0083 68.3015 14.9613C68.4888 14.9144 68.6651 14.831 68.8202 14.716C68.9753 14.6009 69.1062 14.4565 69.2055 14.2908L76.0023 2.94095H87.9099C88.2999 2.94095 88.6739 2.78602 88.9497 2.51025C89.2255 2.23449 89.3804 1.86047 89.3804 1.47047C89.3804 1.08048 89.2255 0.706459 88.9497 0.430692C88.6739 0.154925 88.2999 6.24336e-07 87.9099 6.24336e-07H75.168C74.9141 -0.000233266 74.6645 0.065252 74.4435 0.190086C74.2225 0.314919 74.0375 0.494849 73.9066 0.712363L66.6828 12.7746C66.5828 12.9404 66.5166 13.1243 66.4879 13.3158C66.4592 13.5073 66.4686 13.7026 66.5156 13.8904C66.5625 14.0782 66.6461 14.2549 66.7616 14.4104C66.877 14.5658 67.022 14.697 67.1882 14.7962Z" fill="#231F20"></path><path d="M87.9101 5.35474H79.2986C78.9086 5.35474 78.5346 5.50966 78.2588 5.78543C77.983 6.0612 77.8281 6.43522 77.8281 6.82521C77.8281 7.2152 77.983 7.58923 78.2588 7.86499C78.5346 8.14076 78.9086 8.29568 79.2986 8.29568H87.9101C88.3001 8.29568 88.6741 8.14076 88.9499 7.86499C89.2257 7.58923 89.3806 7.2152 89.3806 6.82521C89.3806 6.43522 89.2257 6.0612 88.9499 5.78543C88.6741 5.50966 88.3001 5.35474 87.9101 5.35474Z" fill="#231F20"></path><path d="M22.7994 69.2037C22.4645 69.0039 22.064 68.9452 21.6859 69.0404C21.3077 69.1355 20.9827 69.3768 20.7822 69.7113L13.9853 81.059H2.08864C1.69864 81.059 1.32462 81.2139 1.04886 81.4896C0.773089 81.7654 0.618164 82.1394 0.618164 82.5294C0.618164 82.9194 0.773089 83.2934 1.04886 83.5692C1.32462 83.845 1.69864 83.9999 2.08864 83.9999H14.8197C15.0737 83.9997 15.3233 83.9338 15.5444 83.8086C15.7654 83.6834 15.9502 83.5031 16.081 83.2854L23.3048 71.2209C23.4041 71.0553 23.4698 70.8717 23.4981 70.6807C23.5265 70.4897 23.5169 70.2949 23.4699 70.1076C23.423 69.9203 23.3397 69.7441 23.2246 69.589C23.1096 69.4338 22.9651 69.3029 22.7994 69.2037Z" fill="#231F20"></path><path d="M2.08864 78.6453H10.6893C11.0793 78.6453 11.4533 78.4904 11.7291 78.2146C12.0048 77.9388 12.1597 77.5648 12.1597 77.1748C12.1597 76.7848 12.0048 76.4108 11.7291 76.135C11.4533 75.8593 11.0793 75.7043 10.6893 75.7043H2.08864C1.69864 75.7043 1.32462 75.8593 1.04886 76.135C0.773089 76.4108 0.618164 76.7848 0.618164 77.1748C0.618164 77.5648 0.773089 77.9388 1.04886 78.2146C1.32462 78.4904 1.69864 78.6453 2.08864 78.6453Z" fill="#231F20"></path><path d="M47.1284 49.3078C47.0276 49.0202 46.8399 48.771 46.5913 48.5947C46.3427 48.4184 46.0455 48.3237 45.7407 48.3237C45.436 48.3237 45.1387 48.4184 44.8901 48.5947C44.6415 48.771 44.4538 49.0202 44.353 49.3078L42.0286 55.9042L40.2858 60.8319C40.1561 61.2 40.1779 61.6045 40.3464 61.9564C40.515 62.3084 40.8164 62.579 41.1844 62.7087C41.5525 62.8384 41.957 62.8166 42.3089 62.6481C42.6609 62.4796 42.9315 62.1781 43.0612 61.8101L43.7692 59.8015H47.7079L48.4181 61.8101C48.5516 62.172 48.822 62.4669 49.1709 62.6313C49.5199 62.7957 49.9194 62.8164 50.2835 62.689C50.6476 62.5615 50.947 62.2961 51.1172 61.95C51.2874 61.6038 51.3148 61.2046 51.1935 60.8385L47.1284 49.3078ZM44.8062 56.8715L45.7407 54.2203L46.6753 56.8715H44.8062Z" fill="#231F20"></path><path d="M40.9419 49.689C40.9413 49.2992 40.7862 48.9255 40.5106 48.6498C40.2349 48.3742 39.8612 48.2191 39.4714 48.2185H32.8162C32.4262 48.2185 32.0522 48.3734 31.7764 48.6492C31.5006 48.925 31.3457 49.299 31.3457 49.689C31.3457 50.079 31.5006 50.453 31.7764 50.7288C32.0522 51.0045 32.4262 51.1595 32.8162 51.1595H34.6722V61.224C34.6722 61.614 34.8272 61.988 35.1029 62.2638C35.3787 62.5396 35.7527 62.6945 36.1427 62.6945C36.5327 62.6945 36.9067 62.5396 37.1825 62.2638C37.4583 61.988 37.6132 61.614 37.6132 61.224V51.1595H39.4714C39.8614 51.1595 40.2354 51.0045 40.5112 50.7288C40.787 50.453 40.9419 50.079 40.9419 49.689Z" fill="#231F20"></path><path d="M60.9747 48.4212C60.6391 48.2224 60.2384 48.1647 59.8603 48.2606C59.4823 48.3566 59.1576 48.5984 58.9574 48.9331L56.792 52.569L54.6288 48.9331C54.5299 48.7672 54.3994 48.6224 54.2445 48.5069C54.0897 48.3914 53.9137 48.3076 53.7265 48.2601C53.5392 48.2127 53.3445 48.2026 53.1534 48.2304C52.9623 48.2582 52.7785 48.3234 52.6126 48.4223C52.4466 48.5211 52.3018 48.6517 52.1863 48.8065C52.0709 48.9613 51.987 49.1373 51.9396 49.3246C51.8921 49.5118 51.882 49.7065 51.9099 49.8976C51.9377 50.0888 52.0029 50.2725 52.1017 50.4385L55.0819 55.449L52.1017 60.4595C52.0029 60.6254 51.9377 60.8092 51.9099 61.0003C51.882 61.1914 51.8921 61.3861 51.9396 61.5734C51.987 61.7606 52.0709 61.9366 52.1863 62.0914C52.3018 62.2463 52.4466 62.3768 52.6126 62.4757C52.7785 62.5745 52.9623 62.6397 53.1534 62.6675C53.3445 62.6953 53.5392 62.6852 53.7265 62.6378C53.9137 62.5904 54.0897 62.5065 54.2445 62.391C54.3994 62.2756 54.5299 62.1307 54.6288 61.9648L56.792 58.3289L58.9574 61.9648C59.157 62.2999 59.4816 62.542 59.8597 62.6378C60.2378 62.7336 60.6385 62.6753 60.9736 62.4757C61.3087 62.276 61.5508 61.9515 61.6466 61.5734C61.7424 61.1953 61.6841 60.7946 61.4844 60.4595L58.5043 55.449L61.4844 50.4385C61.684 50.1033 61.7424 49.7026 61.6468 49.3244C61.5512 48.9462 61.3095 48.6214 60.9747 48.4212Z" fill="#231F20"></path></svg>