<svg xmlns="http://www.w3.org/2000/svg" width="78" height="84" viewBox="0 0 78 84" fill="none"><path d="M50.3669 33.3838H13.8907C13.5633 33.3838 13.2493 33.5138 13.0178 33.7453C12.7863 33.9768 12.6562 34.2908 12.6562 34.6182C12.6562 34.9456 12.7863 35.2596 13.0178 35.4911C13.2493 35.7225 13.5633 35.8526 13.8907 35.8526H50.3669C50.6943 35.8526 51.0083 35.7225 51.2398 35.4911C51.4713 35.2596 51.6013 34.9456 51.6013 34.6182C51.6013 34.2908 51.4713 33.9768 51.2398 33.7453C51.0083 33.5138 50.6943 33.3838 50.3669 33.3838Z" fill="#231F20"></path><path d="M13.8907 43.5699H22.4858C22.8132 43.5699 23.1271 43.4398 23.3586 43.2083C23.5901 42.9768 23.7202 42.6629 23.7202 42.3355C23.7202 42.0081 23.5901 41.6941 23.3586 41.4626C23.1271 41.2311 22.8132 41.1011 22.4858 41.1011H13.8907C13.5633 41.1011 13.2493 41.2311 13.0178 41.4626C12.7863 41.6941 12.6562 42.0081 12.6562 42.3355C12.6562 42.6629 12.7863 42.9768 13.0178 43.2083C13.2493 43.4398 13.5633 43.5699 13.8907 43.5699Z" fill="#231F20"></path><path d="M12.666 50.0474C12.666 50.3748 12.7961 50.6888 13.0276 50.9203C13.2591 51.1517 13.573 51.2818 13.9004 51.2818H33.7661C34.0935 51.2818 34.4075 51.1517 34.639 50.9203C34.8705 50.6888 35.0005 50.3748 35.0005 50.0474C35.0005 49.72 34.8705 49.406 34.639 49.1745C34.4075 48.943 34.0935 48.813 33.7661 48.813H13.8913C13.5655 48.8154 13.2538 48.9465 13.0243 49.1778C12.7948 49.409 12.666 49.7216 12.666 50.0474Z" fill="#231F20"></path><path d="M13.8907 66.7274H21.3885C21.7159 66.7274 22.0299 66.5973 22.2614 66.3658C22.4929 66.1343 22.6229 65.8203 22.6229 65.493C22.6229 65.1656 22.4929 64.8516 22.2614 64.6201C22.0299 64.3886 21.7159 64.2585 21.3885 64.2585H13.8907C13.5633 64.2585 13.2493 64.3886 13.0178 64.6201C12.7863 64.8516 12.6562 65.1656 12.6562 65.493C12.6562 65.8203 12.7863 66.1343 13.0178 66.3658C13.2493 66.5973 13.5633 66.7274 13.8907 66.7274Z" fill="#231F20"></path><path d="M76.4104 41.1012H71.8166V1.23441C71.8166 0.907022 71.6865 0.593046 71.455 0.361549C71.2235 0.130053 70.9096 0 70.5822 0H9.5019C9.17579 0.00241536 8.86388 0.133785 8.63431 0.365415C8.40473 0.597045 8.27615 0.910112 8.27664 1.23624V6.47195H1.5889C1.26151 6.47195 0.947537 6.602 0.716041 6.8335C0.484545 7.06499 0.354492 7.37897 0.354492 7.70635V73.6383C0.354492 73.8004 0.386421 73.9609 0.448456 74.1107C0.510491 74.2605 0.601416 74.3965 0.716041 74.5112C0.830667 74.6258 0.966746 74.7167 1.11651 74.7787C1.26628 74.8408 1.42679 74.8727 1.5889 74.8727H42.3261V82.7656C42.3261 83.093 42.4562 83.407 42.6877 83.6385C42.9192 83.8699 43.2332 84 43.5606 84H76.4104C76.7376 83.9995 77.0513 83.8693 77.2827 83.6379C77.5141 83.4065 77.6443 83.0928 77.6448 82.7656V42.3356C77.6443 42.0083 77.5141 41.6946 77.2827 41.4633C77.0513 41.2319 76.7376 41.1017 76.4104 41.1012ZM10.7363 2.47064H69.3569V41.1012H63.9036V7.70635C63.9036 7.37897 63.7735 7.06499 63.542 6.8335C63.3105 6.602 62.9966 6.47195 62.6692 6.47195H10.7327L10.7363 2.47064ZM31.0501 41.1012C30.7227 41.1012 30.4087 41.2312 30.1772 41.4627C29.9457 41.6942 29.8157 42.0082 29.8157 42.3356C29.8157 42.663 29.9457 42.9769 30.1772 43.2084C30.4087 43.4399 30.7227 43.57 31.0501 43.57H42.3261V56.5395H13.8909C13.5635 56.5395 13.2495 56.6695 13.018 56.901C12.7866 57.1325 12.6565 57.4465 12.6565 57.7739C12.6565 58.1013 12.7866 58.4153 13.018 58.6467C13.2495 58.8782 13.5635 59.0083 13.8909 59.0083H42.3261V72.4039H2.82513V8.94625H61.4366V41.1012H31.0501ZM75.176 81.5312H44.795V43.57H75.176V81.5312Z" fill="#231F20"></path><path d="M75.1758 81.5308H44.7949V43.5698H75.1758V81.5308ZM49 46.9995V54.9995H71V46.9995H49Z" fill="#F4832B"></path><path d="M48.5967 56.4937H71.3683C71.6957 56.4937 72.0097 56.3636 72.2412 56.1321C72.4727 55.9006 72.6027 55.5867 72.6027 55.2593V47.2859C72.6027 46.9585 72.4727 46.6446 72.2412 46.4131C72.0097 46.1816 71.6957 46.0515 71.3683 46.0515H48.5967C48.2693 46.0515 47.9553 46.1816 47.7239 46.4131C47.4924 46.6446 47.3623 46.9585 47.3623 47.2859V55.2593C47.3623 55.5867 47.4924 55.9006 47.7239 56.1321C47.9553 56.3636 48.2693 56.4937 48.5967 56.4937ZM49.8311 48.5203H70.1302V54.0249H49.8311V48.5203Z" fill="#231F20"></path><path d="M51.5389 61.0601H48.8086C48.4812 61.0601 48.1673 61.1901 47.9358 61.4216C47.7043 61.6531 47.5742 61.9671 47.5742 62.2945C47.5742 62.6219 47.7043 62.9358 47.9358 63.1673C48.1673 63.3988 48.4812 63.5289 48.8086 63.5289H51.5389C51.8663 63.5289 52.1803 63.3988 52.4118 63.1673C52.6433 62.9358 52.7734 62.6219 52.7734 62.2945C52.7734 61.9671 52.6433 61.6531 52.4118 61.4216C52.1803 61.1901 51.8663 61.0601 51.5389 61.0601Z" fill="#231F20"></path><path d="M58.0808 61.0601H55.3487C55.0213 61.0601 54.7073 61.1901 54.4758 61.4216C54.2443 61.6531 54.1143 61.9671 54.1143 62.2945C54.1143 62.6219 54.2443 62.9358 54.4758 63.1673C54.7073 63.3988 55.0213 63.5289 55.3487 63.5289H58.0808C58.4082 63.5289 58.7222 63.3988 58.9537 63.1673C59.1852 62.9358 59.3152 62.6219 59.3152 62.2945C59.3152 61.9671 59.1852 61.6531 58.9537 61.4216C58.7222 61.1901 58.4082 61.0601 58.0808 61.0601Z" fill="#231F20"></path><path d="M64.62 61.0601H61.8897C61.5623 61.0601 61.2483 61.1901 61.0168 61.4216C60.7853 61.6531 60.6553 61.9671 60.6553 62.2945C60.6553 62.6219 60.7853 62.9358 61.0168 63.1673C61.2483 63.3988 61.5623 63.5289 61.8897 63.5289H64.62C64.9474 63.5289 65.2614 63.3988 65.4929 63.1673C65.7244 62.9358 65.8544 62.6219 65.8544 62.2945C65.8544 61.9671 65.7244 61.6531 65.4929 61.4216C65.2614 61.1901 64.9474 61.0601 64.62 61.0601Z" fill="#231F20"></path><path d="M71.16 61.0601H68.4297C68.1023 61.0601 67.7884 61.1901 67.5569 61.4216C67.3254 61.6531 67.1953 61.9671 67.1953 62.2945C67.1953 62.6219 67.3254 62.9358 67.5569 63.1673C67.7884 63.3988 68.1023 63.5289 68.4297 63.5289H71.16C71.4874 63.5289 71.8014 63.3988 72.0329 63.1673C72.2644 62.9358 72.3944 62.6219 72.3944 62.2945C72.3944 61.9671 72.2644 61.6531 72.0329 61.4216C71.8014 61.1901 71.4874 61.0601 71.16 61.0601Z" fill="#231F20"></path><path d="M51.5389 66.7329H48.8086C48.4812 66.7329 48.1673 66.863 47.9358 67.0945C47.7043 67.326 47.5742 67.6399 47.5742 67.9673C47.5742 68.2947 47.7043 68.6087 47.9358 68.8402C48.1673 69.0717 48.4812 69.2017 48.8086 69.2017H51.5389C51.8663 69.2017 52.1803 69.0717 52.4118 68.8402C52.6433 68.6087 52.7734 68.2947 52.7734 67.9673C52.7734 67.6399 52.6433 67.326 52.4118 67.0945C52.1803 66.863 51.8663 66.7329 51.5389 66.7329Z" fill="#231F20"></path><path d="M58.0808 66.7329H55.3487C55.0213 66.7329 54.7073 66.863 54.4758 67.0945C54.2443 67.326 54.1143 67.6399 54.1143 67.9673C54.1143 68.2947 54.2443 68.6087 54.4758 68.8402C54.7073 69.0717 55.0213 69.2017 55.3487 69.2017H58.0808C58.4082 69.2017 58.7222 69.0717 58.9537 68.8402C59.1852 68.6087 59.3152 68.2947 59.3152 67.9673C59.3152 67.6399 59.1852 67.326 58.9537 67.0945C58.7222 66.863 58.4082 66.7329 58.0808 66.7329Z" fill="#231F20"></path><path d="M64.62 66.7329H61.8897C61.5623 66.7329 61.2483 66.863 61.0168 67.0945C60.7853 67.326 60.6553 67.6399 60.6553 67.9673C60.6553 68.2947 60.7853 68.6087 61.0168 68.8402C61.2483 69.0717 61.5623 69.2017 61.8897 69.2017H64.62C64.9474 69.2017 65.2614 69.0717 65.4929 68.8402C65.7244 68.6087 65.8544 68.2947 65.8544 67.9673C65.8544 67.6399 65.7244 67.326 65.4929 67.0945C65.2614 66.863 64.9474 66.7329 64.62 66.7329Z" fill="#231F20"></path><path d="M71.16 66.7329H68.4297C68.1023 66.7329 67.7884 66.863 67.5569 67.0945C67.3254 67.326 67.1953 67.6399 67.1953 67.9673C67.1953 68.2947 67.3254 68.6087 67.5569 68.8402C67.7884 69.0717 68.1023 69.2017 68.4297 69.2017H71.16C71.4874 69.2017 71.8014 69.0717 72.0329 68.8402C72.2644 68.6087 72.3944 68.2947 72.3944 67.9673C72.3944 67.6399 72.2644 67.326 72.0329 67.0945C71.8014 66.863 71.4874 66.7329 71.16 66.7329Z" fill="#231F20"></path><path d="M51.5389 72.4038H48.8086C48.4812 72.4038 48.1673 72.5339 47.9358 72.7654C47.7043 72.9969 47.5742 73.3108 47.5742 73.6382C47.5742 73.9656 47.7043 74.2796 47.9358 74.5111C48.1673 74.7426 48.4812 74.8726 48.8086 74.8726H51.5389C51.8663 74.8726 52.1803 74.7426 52.4118 74.5111C52.6433 74.2796 52.7734 73.9656 52.7734 73.6382C52.7734 73.3108 52.6433 72.9969 52.4118 72.7654C52.1803 72.5339 51.8663 72.4038 51.5389 72.4038Z" fill="#231F20"></path><path d="M58.0808 72.4038H55.3487C55.0213 72.4038 54.7073 72.5339 54.4758 72.7654C54.2443 72.9969 54.1143 73.3108 54.1143 73.6382C54.1143 73.9656 54.2443 74.2796 54.4758 74.5111C54.7073 74.7426 55.0213 74.8726 55.3487 74.8726H58.0808C58.4082 74.8726 58.7222 74.7426 58.9537 74.5111C59.1852 74.2796 59.3152 73.9656 59.3152 73.6382C59.3152 73.3108 59.1852 72.9969 58.9537 72.7654C58.7222 72.5339 58.4082 72.4038 58.0808 72.4038Z" fill="#231F20"></path><path d="M64.62 72.4038H61.8897C61.5623 72.4038 61.2483 72.5339 61.0168 72.7654C60.7853 72.9969 60.6553 73.3108 60.6553 73.6382C60.6553 73.9656 60.7853 74.2796 61.0168 74.5111C61.2483 74.7426 61.5623 74.8726 61.8897 74.8726H64.62C64.9474 74.8726 65.2614 74.7426 65.4929 74.5111C65.7244 74.2796 65.8544 73.9656 65.8544 73.6382C65.8544 73.3108 65.7244 72.9969 65.4929 72.7654C65.2614 72.5339 64.9474 72.4038 64.62 72.4038Z" fill="#231F20"></path><path d="M71.16 72.4038H68.4297C68.1023 72.4038 67.7884 72.5339 67.5569 72.7654C67.3254 72.9969 67.1953 73.3108 67.1953 73.6382C67.1953 73.9656 67.3254 74.2796 67.5569 74.5111C67.7884 74.7426 68.1023 74.8726 68.4297 74.8726H71.16C71.4874 74.8726 71.8014 74.7426 72.0329 74.5111C72.2644 74.2796 72.3944 73.9656 72.3944 73.6382C72.3944 73.3108 72.2644 72.9969 72.0329 72.7654C71.8014 72.5339 71.4874 72.4038 71.16 72.4038Z" fill="#231F20"></path><path d="M25.6661 30.8144C25.9751 30.9221 26.3141 30.9031 26.6092 30.7616C26.9043 30.6201 27.1313 30.3675 27.2406 30.0591L28.2666 27.1477H34.0454L35.0713 30.0591C35.1564 30.3001 35.3141 30.5089 35.5227 30.6566C35.7314 30.8043 35.9806 30.8837 36.2363 30.8838C36.3763 30.8838 36.5154 30.8603 36.6477 30.8144C36.9565 30.705 37.2094 30.4776 37.3506 30.1821C37.4919 29.8865 37.5101 29.5469 37.4012 29.238L32.3209 14.8256C32.2363 14.5842 32.0787 14.375 31.87 14.227C31.6613 14.079 31.4118 13.9995 31.156 13.9995C30.9001 13.9995 30.6506 14.079 30.4419 14.227C30.2333 14.375 30.0757 14.5842 29.9911 14.8256L24.9181 29.238C24.8084 29.5462 24.8256 29.8854 24.9658 30.181C25.1061 30.4765 25.358 30.7044 25.6661 30.8144ZM29.4168 23.8962L31.156 18.9586L33.1676 24.688H29.137L29.4168 23.8962Z" fill="#231F20"></path><path d="M15.0049 16.3362H17.9309V29.5142C17.9309 29.8416 18.061 30.1556 18.2925 30.3871C18.524 30.6186 18.8379 30.7486 19.1653 30.7486C19.4927 30.7486 19.8067 30.6186 20.0382 30.3871C20.2697 30.1556 20.3997 29.8416 20.3997 29.5142V16.3362H23.3257C23.6531 16.3362 23.9671 16.2062 24.1986 15.9747C24.4301 15.7432 24.5601 15.4292 24.5601 15.1018C24.5601 14.7745 24.4301 14.4605 24.1986 14.229C23.9671 13.9975 23.6531 13.8674 23.3257 13.8674H15.0049C14.6775 13.8674 14.3636 13.9975 14.1321 14.229C13.9006 14.4605 13.7705 14.7745 13.7705 15.1018C13.7705 15.4292 13.9006 15.7432 14.1321 15.9747C14.3636 16.2062 14.6775 16.3362 15.0049 16.3362Z" fill="#231F20"></path><path d="M40.051 30.5565C40.3326 30.7238 40.6691 30.7726 40.9866 30.692C41.3041 30.6114 41.5766 30.4081 41.7444 30.1267L44.9685 24.7118L48.1907 30.1267C48.2737 30.266 48.3833 30.3876 48.5133 30.4846C48.6432 30.5815 48.791 30.6519 48.9482 30.6917C49.1053 30.7315 49.2688 30.74 49.4292 30.7166C49.5897 30.6933 49.7439 30.6386 49.8832 30.5556C50.0225 30.4726 50.1441 30.363 50.241 30.2331C50.338 30.1031 50.4084 29.9553 50.4482 29.7981C50.488 29.641 50.4965 29.4775 50.4731 29.3171C50.4498 29.1566 50.395 29.0024 50.3121 28.8631L46.404 22.2979L50.3121 15.7327C50.4796 15.4513 50.5286 15.115 50.4482 14.7976C50.3678 14.4802 50.1645 14.2077 49.8832 14.0401C49.6019 13.8726 49.2656 13.8236 48.9482 13.904C48.6308 13.9845 48.3583 14.1877 48.1907 14.469L44.9685 19.8839L41.7425 14.469C41.575 14.1877 41.3025 13.9845 40.9851 13.904C40.6677 13.8236 40.3313 13.8726 40.05 14.0401C39.7687 14.2077 39.5655 14.4802 39.4851 14.7976C39.4047 15.115 39.4536 15.4513 39.6212 15.7327L43.5292 22.2979L39.6212 28.8631C39.4539 29.1447 39.4051 29.4812 39.4857 29.7987C39.5663 30.1162 39.7696 30.3888 40.051 30.5565Z" fill="#231F20"></path></svg>