<svg xmlns="http://www.w3.org/2000/svg" width="85" height="84" viewBox="0 0 85 84" fill="none"><path d="M81.3558 28.3967C80.5408 27.9727 79.6759 27.6522 78.7813 27.4426C79.1397 26.5202 79.5644 25.6249 80.0522 24.7638C80.1398 24.6141 80.1967 24.4483 80.2194 24.2763C80.2422 24.1043 80.2304 23.9295 80.1847 23.7621C80.139 23.5947 80.0603 23.4381 79.9534 23.3015C79.8464 23.1649 79.7132 23.0511 79.5616 22.9666C79.41 22.8821 79.2431 22.8288 79.0707 22.8097C78.8982 22.7905 78.7237 22.806 78.5573 22.8552C78.3909 22.9044 78.236 22.9864 78.1017 23.0962C77.9674 23.2061 77.8564 23.3416 77.7751 23.4949C77.0832 24.707 76.5102 25.9831 76.0639 27.3055C75.4468 27.3901 74.8439 27.5577 74.2717 27.8038C71.9231 28.8139 70.4862 30.9654 69.7156 32.5085C65.1287 29.0321 59.3539 27.1587 53.4382 26.2432C53.4989 25.7951 53.5299 25.3435 53.5309 24.8913C53.5329 23.533 53.2574 22.1887 52.7212 20.9407C52.1851 19.6927 51.3996 18.5674 50.413 17.6339C49.4264 16.7003 48.2595 15.9782 46.9838 15.5117C45.7081 15.0453 44.3506 14.8443 42.9945 14.9213C41.6384 14.9982 40.3123 15.3514 39.0976 15.9592C37.8829 16.567 36.8052 17.4165 35.9305 18.4557C35.0558 19.4948 34.4027 20.7017 34.0112 22.0024C33.6196 23.303 33.4979 24.6699 33.6535 26.0192C30.3817 26.3494 27.1289 26.847 23.908 27.5102C21.3045 25.548 14.877 22.5389 14.6027 22.4114C14.3929 22.3136 14.1608 22.2734 13.9303 22.2951C13.6998 22.3167 13.4792 22.3993 13.2911 22.5344C13.1031 22.6695 12.9545 22.8522 12.8605 23.0638C12.7665 23.2754 12.7306 23.5082 12.7564 23.7383L13.9152 33.9744C7.71171 37.644 6.12028 44.3786 5.67027 47.1539L2.25759 47.7333C1.74531 47.8162 1.27916 48.0785 0.942374 48.4733C0.605583 48.8681 0.420067 49.3698 0.418945 49.8887V58.2186C0.4197 58.7548 0.616459 59.2723 0.972176 59.6735C1.32789 60.0748 1.81803 60.3321 2.35029 60.3971L6.51427 60.9225C6.55031 60.9242 6.58515 60.9359 6.61484 60.9564C6.64454 60.9769 6.66791 61.0053 6.6823 61.0384C7.44325 63.0238 10.0003 67.8483 17.5229 70.9655L16.7021 80.2784C16.6758 80.5809 16.7557 80.883 16.928 81.133C17.1004 81.3829 17.3545 81.5649 17.6465 81.6477L25.7891 83.9499C25.9047 83.9827 26.0243 83.9996 26.1445 84.0001C26.3992 83.9999 26.6482 83.9252 26.861 83.7852C27.0738 83.6451 27.2409 83.446 27.3419 83.2121L30.8473 75.058C34.2271 76.4254 44.0789 79.3514 59.8561 75.3767L64.8776 82.7699C64.9962 82.9476 65.1567 83.0935 65.345 83.1945C65.5333 83.2956 65.7435 83.3487 65.9572 83.3493C66.1267 83.3492 66.2946 83.3164 66.4516 83.2527L73.6884 80.2919C74.0006 80.1641 74.2512 79.9203 74.3877 79.6118C74.5242 79.3032 74.5359 78.9538 74.4204 78.6368L72.1684 72.4739C74.7139 69.2871 85.3885 54.3018 75.2393 38.4493C74.2602 36.9209 73.0993 35.5169 71.7822 34.268C72.2689 33.1323 73.3929 31.0291 75.3165 30.2122C75.3802 30.1851 75.444 30.1581 75.5097 30.1349C75.4284 31.19 75.6158 32.2485 76.0543 33.2115C76.3905 33.9231 76.8942 34.5425 77.5222 35.0168C78.1502 35.491 78.8838 35.806 79.6601 35.9347C79.9112 35.98 80.1659 36.0026 80.4211 36.0023C82.0917 36.0023 83.5634 35.0231 84.0771 33.4916C84.558 32.0141 84.1389 29.8124 81.3558 28.3967ZM36.1971 24.8836C36.1813 23.9066 36.3601 22.9362 36.723 22.029C37.0859 21.1218 37.6258 20.2959 38.3111 19.5994C38.9964 18.9029 39.8135 18.3497 40.7147 17.9721C41.6159 17.5945 42.5833 17.4001 43.5604 17.4001C44.5375 17.4001 45.5048 17.5945 46.4061 17.9721C47.3073 18.3497 48.1243 18.9029 48.8097 19.5994C49.495 20.2959 50.0348 21.1218 50.3978 22.029C50.7607 22.9362 50.9394 23.9066 50.9236 24.8836C50.9232 25.2247 50.8993 25.5654 50.8522 25.9033C45.7553 25.3471 40.6682 25.4359 36.2512 25.7778C36.2148 25.4811 36.1967 25.1825 36.1971 24.8836ZM73.0375 39.8438C83.3374 55.9299 70.2757 70.7086 69.7137 71.3247C69.555 71.5008 69.4472 71.7168 69.4019 71.9496C69.3567 72.1823 69.3756 72.423 69.4568 72.6457L71.5349 78.3355L66.4381 80.4291L61.4997 73.1518C61.4937 73.143 61.4873 73.1347 61.4804 73.1267L61.4321 73.0629C61.4202 73.0472 61.4073 73.0324 61.3934 73.0185C61.3799 73.0011 61.3645 72.9857 61.351 72.9702L61.2969 72.92L61.2563 72.8968C61.2354 72.8783 61.2135 72.8609 61.1907 72.8447L61.1578 72.8215C61.1346 72.8041 61.1095 72.7887 61.0844 72.7732L61.0516 72.7539L60.9763 72.7153L60.9338 72.696L60.8662 72.6689L60.8121 72.6496L60.7542 72.6322L60.6846 72.6168L60.6364 72.6071L60.5552 72.5955H60.5147H60.4297H60.3872H60.3042H60.2578C60.2308 72.5955 60.2057 72.5955 60.1806 72.6071L60.1246 72.6187L60.0801 72.6284C41.1819 77.6363 30.8975 72.2421 30.7971 72.1822C30.6379 72.0947 30.4622 72.0414 30.2812 72.0257C30.1002 72.0101 29.9179 72.0324 29.7461 72.0914C29.5742 72.1503 29.4166 72.2445 29.2833 72.3679C29.15 72.4913 29.0439 72.6412 28.972 72.808L25.3912 81.134L19.3886 79.4364L20.1979 70.2296C20.1989 70.2245 20.1989 70.2193 20.1979 70.2142C20.1979 70.1852 20.1979 70.1582 20.1979 70.1292C20.1979 70.1002 20.1979 70.0983 20.1979 70.0848V70.0017C20.1979 69.9863 20.1979 69.9689 20.1979 69.9535C20.1979 69.938 20.1979 69.9052 20.1843 69.882C20.1853 69.8633 20.1853 69.8446 20.1843 69.826L20.167 69.7642C20.1623 69.7439 20.1565 69.7239 20.1496 69.7043C20.1496 69.685 20.136 69.6657 20.1283 69.6464L20.1051 69.5865L20.0762 69.5286L20.0491 69.4764C20.0376 69.4552 20.024 69.4359 20.0124 69.4165L19.9835 69.3702L19.9371 69.3103L19.9062 69.2717C19.8905 69.2527 19.8737 69.2347 19.856 69.2176L19.8212 69.179L19.771 69.1346L19.7227 69.094L19.6803 69.0631L19.6165 69.0187L19.5818 68.9974C19.5556 68.9811 19.5285 68.9662 19.5006 68.953C19.4922 68.9474 19.4832 68.9428 19.4736 68.9395L19.3809 68.8989C12.1287 66.1796 9.79949 61.8495 9.13318 60.1113C8.94993 59.6375 8.64118 59.2226 8.24004 58.9109C7.8389 58.5992 7.36049 58.4027 6.85612 58.3422L3.03592 57.8652V50.2383L6.08938 49.7207C6.6482 49.6305 7.16359 49.3641 7.56036 48.9604C7.95713 48.5567 8.21451 48.0368 8.29497 47.4764C8.63682 45.1202 9.99842 39.3049 15.2304 36.2128C15.6569 35.9646 16.0028 35.5986 16.2265 35.1588C16.4502 34.7189 16.5422 34.2239 16.4916 33.733L15.609 25.7913C17.7083 26.8304 20.8236 28.4488 22.3378 29.5864C22.6261 29.8067 22.9588 29.9618 23.3129 30.0412C23.667 30.1206 24.0341 30.1222 24.3889 30.0461C28.2149 29.2484 62.081 22.7301 73.0375 39.8438ZM81.5973 32.6437C81.4447 33.1014 80.8846 33.4916 80.1063 33.3525C79.7398 33.2948 79.3929 33.1485 79.0957 32.9264C78.7985 32.7042 78.56 32.413 78.4009 32.0778C78.2077 31.6703 78.032 31.0021 78.1363 29.9765C78.8485 30.133 79.5369 30.383 80.1835 30.7201C81.2651 31.2744 81.8116 32.0122 81.5992 32.6437H81.5973Z" fill="#231F20"></path><path d="M36.1973 24.8834C36.1814 23.9064 36.3602 22.936 36.7231 22.0288C37.0861 21.1216 37.6259 20.2957 38.3112 19.5992C38.9965 18.9027 39.8136 18.3495 40.7148 17.9719C41.616 17.5944 42.5834 17.3999 43.5605 17.3999C44.5376 17.3999 45.505 17.5944 46.4062 17.9719C47.3074 18.3495 48.1245 18.9027 48.8098 19.5992C49.4951 20.2957 50.035 21.1216 50.3979 22.0288C50.7608 22.936 50.9396 23.9064 50.9238 24.8834C50.9233 25.2245 50.8994 25.5652 50.8523 25.9031C45.7555 25.3469 40.6683 25.4357 36.2513 25.7776C36.2149 25.4809 36.1969 25.1823 36.1973 24.8834Z" fill="#F4832B"></path><path d="M28.4101 18.8945C29.6613 18.8948 30.8845 18.5241 31.9249 17.8293C32.9654 17.1344 33.7764 16.1466 34.2554 14.9907C34.7344 13.8349 34.8598 12.5629 34.6158 11.3358C34.3718 10.1087 33.7693 8.98144 32.8846 8.09674C31.9999 7.21203 30.8727 6.60958 29.6456 6.36559C28.4184 6.12159 27.1465 6.24701 25.9906 6.72599C24.8348 7.20496 23.847 8.01597 23.1521 9.05643C22.4572 10.0969 22.0865 11.3201 22.0869 12.5712C22.089 14.2476 22.7558 15.8548 23.9412 17.0402C25.1266 18.2256 26.7337 18.8924 28.4101 18.8945Z" fill="#F4832B"></path><path d="M41.2827 9.27046C42.1995 9.27046 43.0956 8.99861 43.8579 8.48928C44.6201 7.97996 45.2143 7.25603 45.5651 6.40906C45.9159 5.56208 46.0077 4.63009 45.8289 3.73094C45.65 2.8318 45.2085 2.00588 44.5603 1.35763C43.912 0.709381 43.0861 0.267918 42.187 0.0890667C41.2878 -0.0897846 40.3558 0.00200838 39.5089 0.352838C38.6619 0.703667 37.938 1.29778 37.4286 2.06004C36.9193 2.8223 36.6475 3.71847 36.6475 4.63523C36.6475 5.86457 37.1358 7.04356 38.0051 7.91283C38.8744 8.78211 40.0534 9.27046 41.2827 9.27046Z" fill="#F4832B"></path><path d="M43.5864 41.0294C43.4961 40.7753 43.3294 40.5554 43.1091 40.3999C42.8888 40.2444 42.6258 40.1609 42.3561 40.1609C42.0864 40.1609 41.8234 40.2444 41.6031 40.3999C41.3828 40.5554 41.2161 40.7753 41.1258 41.0294L34.8374 58.877C34.7776 59.0391 34.7506 59.2114 34.758 59.384C34.7655 59.5566 34.8071 59.7261 34.8806 59.8824C34.954 60.0388 35.0578 60.179 35.1859 60.2949C35.3141 60.4108 35.4639 60.5001 35.6269 60.5575C35.7898 60.615 35.9625 60.6395 36.135 60.6296C36.3075 60.6198 36.4763 60.5757 36.6316 60.5C36.7869 60.4243 36.9256 60.3185 37.0396 60.1888C37.1537 60.059 37.2408 59.9079 37.296 59.7442L38.6209 55.9877H46.0933L47.4162 59.7442C47.5312 60.0705 47.7711 60.3377 48.0832 60.4871C48.3952 60.6365 48.7538 60.6558 49.0801 60.5408C49.4064 60.4259 49.6736 60.186 49.823 59.8739C49.9724 59.5619 49.9917 59.2033 49.8768 58.877L43.5864 41.0294ZM39.5402 53.39L39.9902 52.1115L42.3542 45.4039L45.1739 53.39H39.5402Z" fill="#231F20"></path><path d="M32.6553 39.9944H22.3593C22.0136 39.9944 21.682 40.1317 21.4375 40.3762C21.193 40.6207 21.0557 40.9523 21.0557 41.298C21.0557 41.6438 21.193 41.9754 21.4375 42.2199C21.682 42.4644 22.0136 42.6017 22.3593 42.6017H26.2027V59.1437C26.2027 59.4894 26.34 59.821 26.5845 60.0655C26.829 60.31 27.1606 60.4473 27.5064 60.4473C27.8521 60.4473 28.1837 60.31 28.4282 60.0655C28.6727 59.821 28.81 59.4894 28.81 59.1437V42.6017H32.6553C33.0011 42.6017 33.3327 42.4644 33.5771 42.2199C33.8216 41.9754 33.959 41.6438 33.959 41.298C33.959 40.9523 33.8216 40.6207 33.5771 40.3762C33.3327 40.1317 33.0011 39.9944 32.6553 39.9944Z" fill="#231F20"></path><path d="M65.4277 40.1778C65.1304 40.0017 64.7755 39.9506 64.4406 40.0357C64.1058 40.1207 63.8183 40.3351 63.6412 40.6317L59.4559 47.6599L55.2688 40.6317C55.1811 40.4846 55.0654 40.3562 54.9281 40.2538C54.7909 40.1514 54.6348 40.0771 54.4688 40.0351C54.3029 39.993 54.1302 39.9841 53.9608 40.0087C53.7913 40.0334 53.6284 40.0912 53.4813 40.1788C53.3342 40.2664 53.2058 40.3822 53.1034 40.5194C53.0011 40.6567 52.9267 40.8128 52.8847 40.9787C52.8426 41.1447 52.8337 41.3174 52.8583 41.4868C52.883 41.6562 52.9408 41.8192 53.0284 41.9663L57.936 50.2092L53.0284 58.4522C52.9408 58.5993 52.883 58.7623 52.8583 58.9317C52.8337 59.1011 52.8426 59.2738 52.8847 59.4398C52.9267 59.6057 53.0011 59.7618 53.1034 59.8991C53.2058 60.0363 53.3342 60.1521 53.4813 60.2397C53.6284 60.3273 53.7913 60.3851 53.9608 60.4098C54.1302 60.4344 54.3029 60.4255 54.4688 60.3834C54.6348 60.3414 54.7909 60.267 54.9281 60.1647C55.0654 60.0623 55.1811 59.9339 55.2688 59.7868L59.4521 52.7586L63.6373 59.7868C63.7249 59.9339 63.8407 60.0623 63.9779 60.1647C64.1152 60.267 64.2712 60.3414 64.4372 60.3834C64.6032 60.4255 64.7758 60.4344 64.9453 60.4098C65.1147 60.3851 65.2776 60.3273 65.4248 60.2397C65.5719 60.1521 65.7003 60.0363 65.8026 59.8991C65.905 59.7618 65.9793 59.6057 66.0214 59.4398C66.0635 59.2738 66.0724 59.1011 66.0477 58.9317C66.0231 58.7623 65.9653 58.5993 65.8777 58.4522L60.9701 50.2092L65.8912 41.9663C65.9785 41.8185 66.0358 41.6549 66.0598 41.485C66.0838 41.315 66.074 41.1419 66.0309 40.9758C65.9878 40.8096 65.9124 40.6536 65.8089 40.5166C65.7053 40.3797 65.5758 40.2646 65.4277 40.1778Z" fill="#231F20"></path></svg>