<svg xmlns="http://www.w3.org/2000/svg" width="88" height="84" viewBox="0 0 88 84" fill="none"><path d="M86.4943 81.1412H83.1421V66.2879C83.1421 65.9088 82.9915 65.5453 82.7234 65.2772C82.4553 65.0091 82.0918 64.8585 81.7127 64.8585H79.487L78.4028 40.8909C78.3864 40.5233 78.2289 40.1761 77.9631 39.9217C77.6972 39.6673 77.3435 39.5252 76.9755 39.525H69.3794C69.0115 39.5252 68.6577 39.6673 68.3919 39.9217C68.126 40.1761 67.9685 40.5233 67.9521 40.8909L66.8785 64.8585H65.0213V50.0053C65.0213 49.6262 64.8707 49.2626 64.6026 48.9946C64.3346 48.7265 63.971 48.5759 63.5919 48.5759H60.4429L59.0474 28.9177C59.0217 28.5572 58.8604 28.2198 58.596 27.9735C58.3316 27.7271 57.9836 27.5901 57.6222 27.5899H48.6794C48.318 27.5901 47.97 27.7271 47.7056 27.9735C47.4412 28.2198 47.2799 28.5572 47.2542 28.9177L45.8587 48.578H38.2478L36.8205 17.4612C36.8041 17.0938 36.6466 16.7468 36.3806 16.4928C36.1147 16.2387 35.761 16.097 35.3932 16.0974H25.4593C25.0914 16.0975 24.7378 16.2393 24.4716 16.4932C24.2055 16.7471 24.0473 17.0937 24.0299 17.4612L22.6026 48.578H17.1475C16.7684 48.578 16.4048 48.7286 16.1367 48.9967C15.8687 49.2647 15.7181 49.6283 15.7181 50.0074V58.387H6.21616C5.83723 58.3875 5.47397 58.5383 5.20603 58.8063C4.93808 59.0742 4.7873 59.4375 4.78674 59.8164V81.1412H2.17356C1.79445 81.1412 1.43087 81.2918 1.16281 81.5598C0.894739 81.8279 0.744141 82.1915 0.744141 82.5706C0.744141 82.9497 0.894739 83.3133 1.16281 83.5813C1.43087 83.8494 1.79445 84 2.17356 84H86.4943C86.8734 84 87.237 83.8494 87.5051 83.5813C87.7731 83.3133 87.9237 82.9497 87.9237 82.5706C87.9237 82.1915 87.7731 81.8279 87.5051 81.5598C87.237 81.2918 86.8734 81.1412 86.4943 81.1412ZM70.7475 42.3881H75.6075L76.6176 64.8628H69.7458L70.7475 42.3881ZM50.0114 30.453H56.2902L57.5756 48.5801H48.7238L50.0114 30.453ZM26.8231 18.9584H34.0231L35.3869 48.578H25.4656L26.8231 18.9584ZM15.7181 61.2479V69.7545H7.63922V61.2437L15.7181 61.2479ZM7.63922 72.6219H15.7181V81.1412H7.63922V72.6219ZM18.5769 59.8143V51.4347H62.1625V81.1412H18.5769V59.8143ZM65.0213 81.1412V67.7152H80.2832V81.1412H65.0213Z" fill="#231F20"></path><path d="M18.5771 59.8144V51.4348H62.1627V81.1413H18.5771V59.8144Z" fill="#F4832B"></path><path d="M69.7038 69.7546C69.3249 69.7552 68.9616 69.906 68.6937 70.1739C68.4258 70.4419 68.275 70.8051 68.2744 71.1841V76.457C68.2744 76.8361 68.425 77.1997 68.6931 77.4678C68.9612 77.7358 69.3247 77.8864 69.7038 77.8864C70.0829 77.8864 70.4465 77.7358 70.7146 77.4678C70.9827 77.1997 71.1332 76.8361 71.1332 76.457V71.1841C71.1332 70.805 70.9827 70.4414 70.7146 70.1733C70.4465 69.9052 70.0829 69.7546 69.7038 69.7546Z" fill="#231F20"></path><path d="M75.6013 69.7546C75.2222 69.7546 74.8586 69.9052 74.5905 70.1733C74.3225 70.4414 74.1719 70.805 74.1719 71.1841V76.457C74.1719 76.8361 74.3225 77.1997 74.5905 77.4678C74.8586 77.7358 75.2222 77.8864 75.6013 77.8864C75.9804 77.8864 76.344 77.7358 76.612 77.4678C76.8801 77.1997 77.0307 76.8361 77.0307 76.457V71.1841C77.0301 70.8051 76.8794 70.4419 76.6114 70.1739C76.3435 69.906 75.9802 69.7552 75.6013 69.7546Z" fill="#231F20"></path><path d="M73.1742 33.9323C73.3755 33.9333 73.5748 33.8916 73.7588 33.81C73.9429 33.7284 74.1076 33.6087 74.242 33.4589C74.3765 33.309 74.4776 33.1324 74.5389 32.9406C74.6001 32.7488 74.62 32.5462 74.5973 32.3462C74.5464 31.8803 74.5401 30.4 75.1436 29.7287C75.294 29.5593 75.5439 29.3666 76.1241 29.3666C79.3006 29.3666 82.7862 28.9982 83.8472 24.5892C83.9247 24.2249 83.8569 23.8447 83.6583 23.5295C83.4597 23.2144 83.1459 22.9893 82.7838 22.902C82.4216 22.8148 82.0398 22.8724 81.7194 23.0625C81.3991 23.2527 81.1657 23.5603 81.0688 23.92C80.6284 25.7454 79.8448 26.5078 76.1241 26.5078C75.5402 26.4888 74.9591 26.5967 74.4209 26.8241C73.8827 27.0515 73.4003 27.393 73.0069 27.825C71.4483 29.5742 71.7215 32.3546 71.7575 32.6659C71.7966 33.0143 71.9627 33.336 72.224 33.5697C72.4854 33.8033 72.8237 33.9324 73.1742 33.9323Z" fill="#F4832B"></path><path d="M53.1774 22.4398C53.2303 22.4398 53.2832 22.4398 53.3383 22.4398C53.7156 22.3982 54.0611 22.2089 54.2992 21.9133C54.5374 21.6176 54.6487 21.2397 54.6089 20.8622C54.5581 20.3963 54.5517 18.916 55.1552 18.2426C55.3056 18.0753 55.5534 17.8826 56.1357 17.8826C59.3122 17.8826 62.7957 17.512 63.8567 13.1031C63.9466 12.7327 63.8856 12.3418 63.6872 12.0163C63.4889 11.6908 63.1693 11.4575 62.7989 11.3677C62.4285 11.2778 62.0376 11.3388 61.7121 11.5371C61.3867 11.7355 61.1534 12.055 61.0635 12.4254C60.6251 14.253 59.8395 15.0153 56.1209 15.0153C55.5388 14.9987 54.9599 15.1082 54.424 15.3363C53.8882 15.5644 53.408 15.9057 53.0164 16.3367C51.4578 18.0838 51.7289 20.8664 51.7649 21.1777C51.8057 21.5242 51.9719 21.8438 52.232 22.0763C52.4922 22.3088 52.8285 22.4381 53.1774 22.4398Z" fill="#F4832B"></path><path d="M30.4526 11.1357C30.5062 11.1388 30.56 11.1388 30.6136 11.1357C30.991 11.0952 31.3368 10.9065 31.5751 10.611C31.8133 10.3156 31.9245 9.93761 31.8842 9.56021C31.8333 9.09433 31.8249 7.61408 32.4305 6.94067C32.5809 6.77337 32.8286 6.58067 33.4089 6.58067C36.5854 6.58067 40.071 6.21008 41.132 1.80112C41.1816 1.61676 41.1938 1.42433 41.1679 1.23517C41.1419 1.04601 41.0784 0.863974 40.9809 0.699793C40.8834 0.535612 40.7541 0.392618 40.6005 0.279252C40.4468 0.165887 40.2721 0.0844467 40.0864 0.0397397C39.9008 -0.00496725 39.7081 -0.0120353 39.5197 0.0189529C39.3313 0.049941 39.1511 0.118357 38.9895 0.220163C38.828 0.321969 38.6885 0.455102 38.5793 0.611702C38.4701 0.768302 38.3933 0.945196 38.3536 1.13194C37.9131 2.95948 37.1296 3.72183 33.4089 3.72183C32.8247 3.70379 32.2435 3.81257 31.7054 4.04069C31.1672 4.26881 30.6849 4.61085 30.2917 5.04325C28.7352 6.79032 29.0063 9.57291 29.0423 9.88421C29.0854 10.2284 29.2523 10.5452 29.5118 10.7755C29.7713 11.0058 30.1057 11.1338 30.4526 11.1357Z" fill="#F4832B"></path></svg>