<svg xmlns="http://www.w3.org/2000/svg" width="72" height="84" viewBox="0 0 72 84" fill="none"><path d="M67.0106 46.9445V1.3073C67.0106 0.960579 66.8728 0.628064 66.6277 0.382898C66.3825 0.137733 66.05 0 65.7033 0H13.5083C13.1616 0 12.8291 0.137733 12.5839 0.382898C12.3387 0.628064 12.201 0.960579 12.201 1.3073V8.30084H7.78912C7.4424 8.30084 7.10989 8.43857 6.86472 8.68374C6.61956 8.9289 6.48182 9.26142 6.48182 9.60814V34.9271C4.71851 35.36 3.15108 36.3712 2.02981 37.7993C0.90854 39.2274 0.29808 40.99 0.295898 42.8057V79.8728C0.296924 80.9671 0.732079 82.0163 1.50585 82.7901C2.27963 83.5638 3.3288 83.999 4.42308 84H66.9098C68.0041 83.999 69.0533 83.5638 69.8271 82.7901C70.6008 82.0163 71.036 80.9671 71.037 79.8728V51.0678C71.0354 49.9914 70.6136 48.9581 69.8616 48.188C69.1095 47.4179 68.0866 46.9717 67.0106 46.9445ZM14.8156 2.61459H64.396V46.9425H60.9796V19.8903C60.9796 19.8457 60.9796 19.8031 60.9796 19.7586C60.9796 19.714 60.9699 19.6869 60.9641 19.652C60.9583 19.6172 60.9641 19.6385 60.9641 19.6307C60.9126 19.3759 60.7857 19.1425 60.6 18.9606L50.192 8.68819C50.1595 8.65405 50.1245 8.62233 50.0874 8.59329L50.0738 8.58167C50.0454 8.55842 50.0164 8.53712 49.9867 8.51775L49.9673 8.50613C49.9383 8.48677 49.9073 8.46934 49.8763 8.45191H49.8588L49.762 8.40542H49.7465C49.7125 8.39084 49.6776 8.37855 49.6419 8.36863H49.6245C49.5901 8.35841 49.5552 8.35 49.5199 8.34345H49.4812C49.4525 8.33704 49.4233 8.33251 49.394 8.32989C49.3514 8.32989 49.3069 8.32989 49.2643 8.32989H14.8156V2.61459ZM50.5793 12.7398L56.4941 18.583H50.5793V12.7398ZM47.9647 10.9193V19.8903C47.9647 20.237 48.1025 20.5695 48.3476 20.8147C48.5928 21.0598 48.9253 21.1975 49.272 21.1975H58.3747V46.9425H52.0551V42.8057C52.053 40.655 51.1979 38.5929 49.6773 37.0719C48.1567 35.5509 46.0948 34.6953 43.9441 34.6927H9.09641V10.9193H47.9647ZM68.4282 79.867C68.4277 80.268 68.2682 80.6525 67.9846 80.936C67.7011 81.2196 67.3167 81.3791 66.9157 81.3796H4.42308C4.02207 81.3791 3.63763 81.2196 3.35408 80.936C3.07053 80.6525 2.911 80.268 2.91049 79.867V42.8057C2.91254 41.3481 3.49249 39.9507 4.52319 38.92C5.55389 37.8893 6.95124 37.3093 8.40887 37.3073H43.9441C45.4015 37.3093 46.7987 37.8894 47.8291 38.9201C48.8595 39.9509 49.439 41.3482 49.4405 42.8057V48.2498C49.441 48.5964 49.5789 48.9286 49.824 49.1737C50.069 49.4187 50.4012 49.5566 50.7478 49.5571H66.9098C67.3105 49.5576 67.6947 49.7169 67.9782 50C68.2617 50.2832 68.4214 50.6671 68.4224 51.0678L68.4282 79.867Z" fill="#231F20"></path><path d="M50.5796 12.7397L56.4944 18.5828H50.5796V12.7397ZM47.965 10.9192V19.8901C47.965 20.2369 48.1028 20.5694 48.3479 20.8145C48.5931 21.0597 48.9256 21.1974 49.2723 21.1974H58.375V46.9424H52.0554V42.8056C52.0534 40.6548 51.1982 38.5928 49.6776 37.0718C48.157 35.5508 46.0951 34.6952 43.9444 34.6926H9.09672V10.9192H47.965Z" fill="#F4832B"></path><path d="M16.7292 21.1976H43.5045C43.8512 21.1976 44.1837 21.0599 44.4289 20.8147C44.6741 20.5695 44.8118 20.237 44.8118 19.8903C44.8118 19.5436 44.6741 19.2111 44.4289 18.9659C44.1837 18.7207 43.8512 18.583 43.5045 18.583H16.7292C16.3825 18.583 16.0499 18.7207 15.8048 18.9659C15.5596 19.2111 15.4219 19.5436 15.4219 19.8903C15.4219 20.237 15.5596 20.5695 15.8048 20.8147C16.0499 21.0599 16.3825 21.1976 16.7292 21.1976Z" fill="#231F20"></path><path d="M43.5044 26.6069H36.2165C35.8698 26.6069 35.5372 26.7447 35.2921 26.9898C35.0469 27.235 34.9092 27.5675 34.9092 27.9142C34.9092 28.2609 35.0469 28.5935 35.2921 28.8386C35.5372 29.0838 35.8698 29.2215 36.2165 29.2215H43.5044C43.8511 29.2215 44.1836 29.0838 44.4288 28.8386C44.674 28.5935 44.8117 28.2609 44.8117 27.9142C44.8117 27.5675 44.674 27.235 44.4288 26.9898C44.1836 26.7447 43.8511 26.6069 43.5044 26.6069Z" fill="#231F20"></path><path d="M16.7292 29.2176H30.1159C30.4626 29.2176 30.7951 29.0799 31.0403 28.8347C31.2854 28.5896 31.4232 28.257 31.4232 27.9103C31.4232 27.5636 31.2854 27.2311 31.0403 26.9859C30.7951 26.7408 30.4626 26.603 30.1159 26.603H16.7292C16.3825 26.603 16.0499 26.7408 15.8048 26.9859C15.5596 27.2311 15.4219 27.5636 15.4219 27.9103C15.4219 28.257 15.5596 28.5896 15.8048 28.8347C16.0499 29.0799 16.3825 29.2176 16.7292 29.2176Z" fill="#231F20"></path><path d="M35.7231 55.6598C35.6335 55.4041 35.4666 55.1825 35.2456 55.0258C35.0246 54.8691 34.7603 54.7849 34.4894 54.7849C34.2185 54.7849 33.9542 54.8691 33.7332 55.0258C33.5122 55.1825 33.3453 55.4041 33.2557 55.6598L27.1027 73.1175C26.9874 73.4447 27.0068 73.8043 27.1566 74.1172C27.3064 74.4301 27.5744 74.6707 27.9016 74.786C28.2288 74.9013 28.5884 74.8819 28.9013 74.7321C29.2142 74.5823 29.4548 74.3143 29.5701 73.9871L30.858 70.3344H38.1208L39.4087 73.9871C39.524 74.3143 39.7646 74.5823 40.0775 74.7321C40.3904 74.8819 40.75 74.9013 41.0772 74.786C41.4044 74.6707 41.6724 74.4301 41.8222 74.1172C41.972 73.8043 41.9914 73.4447 41.8761 73.1175L35.7231 55.6598ZM31.778 67.7198L31.8729 67.4506L32.206 66.5093L34.4875 60.0329L37.1989 67.7256L31.778 67.7198Z" fill="#231F20"></path><path d="M24.9984 54.6255H14.9274C14.5807 54.6255 14.2482 54.7632 14.003 55.0084C13.7579 55.2535 13.6201 55.5861 13.6201 55.9328C13.6201 56.2795 13.7579 56.612 14.003 56.8572C14.2482 57.1023 14.5807 57.2401 14.9274 57.2401H18.6556V73.3886C18.6556 73.7353 18.7934 74.0678 19.0385 74.313C19.2837 74.5581 19.6162 74.6959 19.9629 74.6959C20.3096 74.6959 20.6422 74.5581 20.8873 74.313C21.1325 74.0678 21.2702 73.7353 21.2702 73.3886V57.2401H24.9984C25.3451 57.2401 25.6777 57.1023 25.9228 56.8572C26.168 56.612 26.3057 56.2795 26.3057 55.9328C26.3057 55.5861 26.168 55.2535 25.9228 55.0084C25.6777 54.7632 25.3451 54.6255 24.9984 54.6255Z" fill="#231F20"></path><path d="M57.0735 54.8096C56.7756 54.6325 56.4195 54.5809 56.0835 54.6662C55.7476 54.7516 55.4593 54.9669 55.282 55.2647L51.2149 62.0917L47.1477 55.2647C47.0619 55.1134 46.9468 54.9806 46.8091 54.8744C46.6713 54.7681 46.5137 54.6904 46.3456 54.6457C46.1774 54.6011 46.002 54.5905 45.8297 54.6146C45.6574 54.6386 45.4916 54.6969 45.3421 54.7858C45.1926 54.8747 45.0623 54.9926 44.9589 55.1326C44.8555 55.2725 44.7811 55.4317 44.7401 55.6007C44.699 55.7698 44.6921 55.9454 44.7197 56.1171C44.7474 56.2889 44.8091 56.4534 44.9011 56.6011L49.6907 64.6482L44.905 72.6953C44.8171 72.8428 44.7592 73.0062 44.7344 73.1761C44.7097 73.346 44.7187 73.5192 44.7608 73.6856C44.803 73.852 44.8776 74.0086 44.9802 74.1462C45.0829 74.2838 45.2116 74.3999 45.3592 74.4878C45.5067 74.5756 45.67 74.6336 45.84 74.6583C46.0099 74.6831 46.183 74.6741 46.3494 74.6319C46.5159 74.5897 46.6724 74.5152 46.81 74.4125C46.9477 74.3099 47.0637 74.1811 47.1516 74.0336L51.2187 67.2047L55.2859 74.0336C55.4633 74.3315 55.7519 74.5467 56.088 74.6319C56.4242 74.7171 56.7804 74.6652 57.0783 74.4878C57.3762 74.3103 57.5915 74.0218 57.6766 73.6856C57.7618 73.3495 57.71 72.9932 57.5325 72.6953L52.743 64.6482L57.5325 56.6011C57.6203 56.4534 57.6781 56.2898 57.7025 56.1197C57.727 55.9497 57.7176 55.7765 57.675 55.61C57.6323 55.4436 57.5572 55.2872 57.454 55.1498C57.3508 55.0125 57.2215 54.8969 57.0735 54.8096Z" fill="#231F20"></path></svg>