<svg xmlns="http://www.w3.org/2000/svg" width="99" height="84" viewBox="0 0 99 84" fill="none"><path d="M24.4713 58.5816C25.4608 58.5816 26.4282 58.8749 27.2511 59.4244C28.0741 59.9739 28.7157 60.755 29.0949 61.669C29.4741 62.583 29.5739 63.5889 29.3817 64.5596C29.1896 65.5303 28.714 66.4223 28.0151 67.1229C27.3162 67.8234 26.4254 68.3011 25.4551 68.4956C24.4848 68.6901 23.4787 68.5926 22.5638 68.2156C21.6489 67.8385 20.8663 67.1987 20.3148 66.3771C19.7634 65.5555 19.4678 64.5888 19.4654 63.5993C19.4645 62.9411 19.5933 62.2891 19.8443 61.6807C20.0954 61.0723 20.4639 60.5193 20.9288 60.0533C21.3937 59.5874 21.9458 59.2176 22.5536 58.965C23.1614 58.7125 23.8131 58.5822 24.4713 58.5816ZM47.7487 58.5816C48.7383 58.5811 49.7059 58.874 50.5292 59.4232C51.3524 59.9725 51.9944 60.7534 52.374 61.6674C52.7536 62.5813 52.8538 63.5873 52.6618 64.5582C52.4699 65.529 51.9945 66.4212 51.2957 67.122C50.5969 67.8228 49.7061 68.3007 48.7358 68.4954C47.7655 68.6901 46.7592 68.5928 45.8442 68.2158C44.9291 67.8388 44.1464 67.199 43.5948 66.3774C43.0432 65.5557 42.7476 64.5889 42.7452 63.5993C42.7443 62.9413 42.873 62.2895 43.1239 61.6813C43.3749 61.073 43.7431 60.5201 44.2078 60.0542C44.6724 59.5882 45.2242 59.2184 45.8318 58.9657C46.4393 58.713 47.0907 58.5825 47.7487 58.5816ZM71.0285 68.5837C70.0374 68.5842 69.0685 68.2905 68.2445 67.7397C67.4206 67.189 66.7786 66.4061 66.4 65.4902C66.0214 64.5743 65.9232 63.5667 66.1178 62.5949C66.3124 61.6231 66.7911 60.731 67.4933 60.0315C68.1954 59.3321 69.0893 58.8568 70.0618 58.6658C71.0343 58.4749 72.0416 58.577 72.9561 58.9591C73.8705 59.3411 74.651 59.9861 75.1986 60.8121C75.7461 61.6382 76.0362 62.6082 76.0319 63.5993C76.025 64.9224 75.4951 66.1891 74.5577 67.1229C73.6203 68.0567 72.3516 68.5819 71.0285 68.5837ZM77.9854 33.1656C77.9854 31.8868 78.3646 30.6368 79.075 29.5735C79.7855 28.5103 80.7952 27.6816 81.9767 27.1922C83.1581 26.7028 84.4581 26.5748 85.7123 26.8243C86.9665 27.0737 88.1185 27.6895 89.0228 28.5937C89.927 29.498 90.5428 30.65 90.7923 31.9042C91.0417 33.1584 90.9137 34.4584 90.4243 35.6398C89.935 36.8213 89.1063 37.831 88.043 38.5415C86.9798 39.2519 85.7297 39.6311 84.4509 39.6311C82.738 39.6293 81.0956 38.9484 79.8837 37.7379C78.6718 36.5273 77.9892 34.8857 77.9854 33.1727V33.1656Z" fill="#F4832B"></path><path d="M91.4415 39.8472C92.3332 38.917 93.0296 37.8176 93.4895 36.6139C93.9494 35.4102 94.1636 34.1266 94.1194 32.8388C94.0751 31.551 93.7734 30.2851 93.2319 29.1158C92.6904 27.9465 91.9202 26.8975 90.9668 26.0307V1.60215C90.9668 1.17723 90.798 0.769719 90.4975 0.469258C90.1971 0.168797 89.7895 0 89.3646 0H2.1959C1.77098 0 1.36347 0.168797 1.06301 0.469258C0.762547 0.769719 0.59375 1.17723 0.59375 1.60215V61.7598C0.59375 62.1847 0.762547 62.5922 1.06301 62.8927C1.36347 63.1932 1.77098 63.362 2.1959 63.362C2.62081 63.362 3.02833 63.1932 3.32879 62.8927C3.62925 62.5922 3.79805 62.1847 3.79805 61.7598V3.20429H87.7601V24.0916C85.7327 23.3511 83.5158 23.3105 81.4627 23.9763C79.4095 24.6421 77.6384 25.976 76.4314 27.7654C75.2245 29.5548 74.6512 31.6967 74.803 33.8498C74.9548 36.0028 75.8229 38.0431 77.269 39.6454H55.653C54.321 39.6954 53.0597 40.258 52.1326 41.2157C51.2055 42.1735 50.6841 43.4523 50.6774 44.7853C50.6706 46.1182 51.179 47.4023 52.0964 48.3693C53.0139 49.3364 54.2694 49.9117 55.6008 49.9751L73.0275 51.2568V55.6242C71.1928 55.1627 69.255 55.3493 67.5421 56.1525C65.8292 56.9557 64.4465 58.3261 63.6281 60.0318C62.8096 61.7374 62.6056 63.6735 63.0508 65.5122C63.4959 67.3509 64.5627 68.9794 66.0706 70.1218C63.2253 71.2825 60.8684 73.3904 59.3985 76.089C57.9278 73.3885 55.5678 71.2801 52.7193 70.1218C54.0897 69.0831 55.0993 67.6403 55.6058 65.9969C56.1122 64.3536 56.0899 62.5928 55.542 60.9628C54.994 59.3329 53.9481 57.9161 52.5518 56.9125C51.1556 55.9088 49.4794 55.3689 47.7598 55.3689C46.0402 55.3689 44.364 55.9088 42.9678 56.9125C41.5715 57.9161 40.5256 59.3329 39.9776 60.9628C39.4297 62.5928 39.4074 64.3536 39.9138 65.9969C40.4203 67.6403 41.4299 69.0831 42.8003 70.1218C39.9515 71.2807 37.591 73.3888 36.1187 76.089C34.648 73.3885 32.288 71.2801 29.4395 70.1218C30.8099 69.0831 31.8195 67.6403 32.326 65.9969C32.8324 64.3536 32.8101 62.5928 32.2621 60.9628C31.7142 59.3329 30.6683 57.9161 29.272 56.9125C27.8758 55.9088 26.1996 55.3689 24.48 55.3689C22.7604 55.3689 21.0842 55.9088 19.688 56.9125C18.2917 57.9161 17.2458 59.3329 16.6978 60.9628C16.1499 62.5928 16.1276 64.3536 16.634 65.9969C17.1404 67.6403 18.1501 69.0831 19.5205 70.1218C17.0752 71.112 14.9809 72.809 13.5053 74.9958C12.0297 77.1825 11.2398 79.7598 11.2368 82.3979C11.2368 82.8228 11.4056 83.2303 11.706 83.5307C12.0065 83.8312 12.414 84 12.8389 84C13.2638 84 13.6713 83.8312 13.9718 83.5307C14.2723 83.2303 14.4411 82.8228 14.4411 82.3979C14.4411 81.0797 14.7007 79.7744 15.2051 78.5566C15.7096 77.3387 16.449 76.2322 17.381 75.3001C18.3131 74.368 19.4197 73.6286 20.6375 73.1242C21.8554 72.6197 23.1606 72.3601 24.4788 72.3601C25.797 72.3601 27.1023 72.6197 28.3201 73.1242C29.5379 73.6286 30.6445 74.368 31.5766 75.3001C32.5087 76.2322 33.248 77.3387 33.7525 78.5566C34.2569 79.7744 34.5166 81.0797 34.5166 82.3979C34.5166 82.8228 34.6854 83.2303 34.9858 83.5307C35.2863 83.8312 35.6938 84 36.1187 84C36.5436 84 36.9511 83.8312 37.2516 83.5307C37.5521 83.2303 37.7209 82.8228 37.7209 82.3979C37.7209 79.7357 38.7784 77.1825 40.6609 75.3001C42.5433 73.4176 45.0964 72.3601 47.7586 72.3601C50.4208 72.3601 52.9739 73.4176 54.8564 75.3001C56.7388 77.1825 57.7964 79.7357 57.7964 82.3979C57.7964 82.8228 57.9652 83.2303 58.2656 83.5307C58.5661 83.8312 58.9736 84 59.3985 84C59.8234 84 60.2309 83.8312 60.5314 83.5307C60.8319 83.2303 61.0007 82.8228 61.0007 82.3979C61.0007 79.7357 62.0582 77.1825 63.9407 75.3001C65.8231 73.4176 68.3762 72.3601 71.0384 72.3601C73.7006 72.3601 76.2537 73.4176 78.1362 75.3001C80.0186 77.1825 81.0762 79.7357 81.0762 82.3979C81.0762 82.8228 81.245 83.2303 81.5454 83.5307C81.8459 83.8312 82.2534 84 82.6783 84C83.1032 84 83.5107 83.8312 83.8112 83.5307C84.1117 83.2303 84.2805 82.8228 84.2805 82.3979C84.2773 79.7601 83.4876 77.1832 82.0125 74.9965C80.5374 72.8098 78.4437 71.1126 75.9991 70.1218C76.9873 69.3727 77.7926 68.4091 78.3545 67.3037C78.9164 66.1983 79.2201 64.9798 79.243 63.74C79.2658 62.5002 79.0071 61.2713 78.4864 60.146C77.9656 59.0206 77.1964 58.028 76.2365 57.2429V49.7758C76.2364 49.3714 76.0835 48.9821 75.8083 48.6858C75.5332 48.3896 75.1562 48.2083 74.753 48.1784L55.7765 46.7756C55.7369 46.7732 55.6973 46.7732 55.6578 46.7756C55.1487 46.7579 54.6664 46.5432 54.3125 46.1768C53.9586 45.8104 53.7608 45.3209 53.7608 44.8115C53.7608 44.3021 53.9586 43.8126 54.3125 43.4461C54.6664 43.0797 55.1487 42.8651 55.6578 42.8474H89.4786C91.0841 42.8492 92.6233 43.4877 93.7588 44.6227C94.8943 45.7578 95.5333 47.2968 95.5359 48.9023V66.4951C95.5359 66.92 95.7047 67.3275 96.0051 67.6279C96.3056 67.9284 96.7131 68.0972 97.138 68.0972C97.5629 68.0972 97.9704 67.9284 98.2709 67.6279C98.5714 67.3275 98.7402 66.92 98.7402 66.4951V48.8975C98.7373 46.783 98.0122 44.7329 96.6848 43.0869C95.3574 41.4409 93.5074 40.2979 91.4415 39.8472ZM24.4717 58.5816C25.4612 58.5816 26.4286 58.8749 27.2515 59.4244C28.0745 59.974 28.7161 60.7551 29.0953 61.6691C29.4745 62.5831 29.5744 63.589 29.3822 64.5597C29.19 65.5304 28.7144 66.4224 28.0155 67.1229C27.3166 67.8235 26.4258 68.3011 25.4555 68.4956C24.4853 68.6901 23.4792 68.5927 22.5643 68.2156C21.6494 67.8386 20.8667 67.1988 20.3153 66.3772C19.7638 65.5555 19.4682 64.5889 19.4659 63.5993C19.4649 62.9411 19.5937 62.2892 19.8448 61.6808C20.0959 61.0723 20.4644 60.5193 20.9292 60.0534C21.3941 59.5874 21.9462 59.2176 22.554 58.9651C23.1619 58.7126 23.8135 58.5822 24.4717 58.5816ZM47.7491 58.5816C48.7388 58.5812 49.7064 58.8741 50.5296 59.4233C51.3529 59.9725 51.9949 60.7535 52.3744 61.6674C52.754 62.5814 52.8542 63.5874 52.6623 64.5582C52.4703 65.5291 51.995 66.4213 51.2962 67.1221C50.5974 67.8229 49.7065 68.3008 48.7362 68.4955C47.7659 68.6901 46.7596 68.5928 45.8446 68.2159C44.9296 67.8389 44.1468 67.1991 43.5952 66.3774C43.0437 65.5557 42.748 64.589 42.7457 63.5993C42.7447 62.9413 42.8734 62.2896 43.1244 61.6813C43.3753 61.073 43.7436 60.5202 44.2082 60.0542C44.6728 59.5883 45.2246 59.2184 45.8322 58.9658C46.4398 58.7131 47.0911 58.5826 47.7491 58.5816ZM71.0289 68.5838C70.0379 68.5842 69.069 68.2905 68.245 67.7398C67.421 67.1891 66.7791 66.4062 66.4004 65.4903C66.0218 64.5744 65.9236 63.5667 66.1182 62.5949C66.3129 61.6232 66.7916 60.731 67.4937 60.0316C68.1958 59.3321 69.0897 58.8568 70.0622 58.6659C71.0348 58.475 72.042 58.577 72.9565 58.9591C73.8709 59.3412 74.6514 59.9861 75.199 60.8122C75.7466 61.6383 76.0366 62.6083 76.0324 63.5993C76.0255 64.9224 75.4955 66.1891 74.5581 67.123C73.6208 68.0568 72.3521 68.5819 71.0289 68.5838ZM77.9858 33.1656C77.9858 31.8869 78.365 30.6368 79.0754 29.5736C79.7859 28.5103 80.7957 27.6816 81.9771 27.1922C83.1585 26.7029 84.4585 26.5748 85.7127 26.8243C86.9669 27.0738 88.119 27.6896 89.0232 28.5938C89.9274 29.498 90.5432 30.6501 90.7927 31.9043C91.0422 33.1585 90.9141 34.4585 90.4248 35.6399C89.9354 36.8213 89.1067 37.8311 88.0434 38.5415C86.9802 39.252 85.7301 39.6312 84.4514 39.6312C82.7384 39.6293 81.096 38.9485 79.8841 37.7379C78.6722 36.5273 77.9896 34.8857 77.9858 33.1728V33.1656Z" fill="#231F20"></path><path d="M90.1227 53.3171C89.6979 53.3178 89.2908 53.4868 88.9905 53.7871C88.6901 54.0874 88.5211 54.4946 88.5205 54.9193V66.4951C88.5205 66.92 88.6893 67.3275 88.9898 67.628C89.2902 67.9285 89.6977 68.0973 90.1227 68.0973C90.5476 68.0973 90.9551 67.9285 91.2555 67.628C91.556 67.3275 91.7248 66.92 91.7248 66.4951V54.9193C91.7248 54.4944 91.556 54.0869 91.2555 53.7864C90.9551 53.4859 90.5476 53.3171 90.1227 53.3171Z" fill="#231F20"></path><path d="M34.1977 33.7041L35.6028 29.7165H43.5186L44.9237 33.7041C45.0342 34.0169 45.2389 34.2879 45.5096 34.4796C45.7804 34.6713 46.1039 34.7743 46.4357 34.7746C46.6176 34.7737 46.7981 34.7424 46.9697 34.682C47.3704 34.5406 47.6985 34.2459 47.8819 33.8627C48.0653 33.4794 48.0889 33.0391 47.9476 32.6384L41.0643 13.1325C40.954 12.82 40.7495 12.5494 40.4789 12.3579C40.2083 12.1665 39.885 12.0637 39.5536 12.0637C39.2221 12.0637 38.8989 12.1665 38.6283 12.3579C38.3577 12.5494 38.1532 12.82 38.0428 13.1325L31.1595 32.6384C31.0182 33.0394 31.0419 33.4801 31.2256 33.8636C31.4092 34.247 31.7376 34.5419 32.1386 34.6832C32.5396 34.8245 32.9803 34.8008 33.3638 34.6171C33.7473 34.4335 34.0421 34.1051 34.1834 33.7041H34.1977ZM39.5619 18.4849L42.3912 26.5122H36.7326L37.1432 25.3516C37.1422 25.3461 37.1422 25.3404 37.1432 25.3349L39.5619 18.4849Z" fill="#231F20"></path><path d="M23.32 34.5922C23.7449 34.5922 24.1524 34.4234 24.4528 34.123C24.7533 33.8225 24.9221 33.415 24.9221 32.9901V15.0864H28.9571C29.3821 15.0864 29.7896 14.9176 30.09 14.6171C30.3905 14.3167 30.5593 13.9091 30.5593 13.4842C30.5593 13.0593 30.3905 12.6518 30.09 12.3513C29.7896 12.0509 29.3821 11.8821 28.9571 11.8821H17.7018C17.2768 11.8821 16.8693 12.0509 16.5689 12.3513C16.2684 12.6518 16.0996 13.0593 16.0996 13.4842C16.0996 13.9091 16.2684 14.3167 16.5689 14.6171C16.8693 14.9176 17.2768 15.0864 17.7018 15.0864H21.7368V32.9806C21.7343 33.4039 21.8993 33.811 22.196 34.1129C22.4926 34.4149 22.8967 34.5872 23.32 34.5922Z" fill="#231F20"></path><path d="M51.6325 34.3407C51.9977 34.5581 52.4343 34.6217 52.8463 34.5176C53.2584 34.4134 53.6123 34.1501 53.8304 33.7853L58.25 26.3584L62.6719 33.7853C62.8894 34.1504 63.243 34.4141 63.655 34.5185C64.0669 34.6229 64.5035 34.5594 64.8686 34.3419C65.2337 34.1244 65.4975 33.7707 65.6019 33.3588C65.7063 32.9468 65.6427 32.5103 65.4252 32.1451L60.1108 23.2253L65.4205 14.3055C65.638 13.9404 65.7015 13.5039 65.5971 13.0919C65.4927 12.6799 65.229 12.3263 64.8639 12.1088C64.6831 12.0011 64.4829 11.9301 64.2746 11.8998C64.0664 11.8695 63.8542 11.8805 63.6502 11.9321C63.2383 12.0365 62.8846 12.3003 62.6671 12.6654L58.25 20.0922L53.8304 12.6654C53.6129 12.3003 53.2593 12.0365 52.8473 11.9321C52.4354 11.8278 51.9988 11.8913 51.6337 12.1088C51.2686 12.3263 51.0048 12.6799 50.9004 13.0919C50.7961 13.5039 50.8596 13.9404 51.0771 14.3055L56.3867 23.2253L51.0771 32.1451C50.9692 32.3257 50.898 32.5258 50.8675 32.7339C50.837 32.9421 50.8479 33.1542 50.8994 33.3581C50.951 33.562 51.0423 33.7538 51.1681 33.9224C51.2939 34.091 51.4517 34.2331 51.6325 34.3407Z" fill="#231F20"></path></svg>